<?xml version="1.0" encoding="utf-8" standalone="no"?>
<!DOCTYPE svg PUBLIC "-//W3C//DTD SVG 1.1//EN"
  "http://www.w3.org/Graphics/SVG/1.1/DTD/svg11.dtd">
<!-- Created with matplotlib (https://matplotlib.org/) -->
<svg height="345.6pt" version="1.1" viewBox="0 0 460.8 345.6" width="460.8pt" xmlns="http://www.w3.org/2000/svg" xmlns:xlink="http://www.w3.org/1999/xlink">
 <defs>
  <style type="text/css">
*{stroke-linecap:butt;stroke-linejoin:round;}
  </style>
 </defs>
 <g id="figure_1">
  <g id="patch_1">
   <path d="M 0 345.6 
L 460.8 345.6 
L 460.8 0 
L 0 0 
z
" style="fill:#ffffff;"/>
  </g>
  <g id="axes_1">
   <g id="patch_2">
    <path d="M 57.6 307.584 
L 414.72 307.584 
L 414.72 41.472 
L 57.6 41.472 
z
" style="fill:#ffffff;"/>
   </g>
   <g id="matplotlib.axis_1">
    <g id="xtick_1">
     <g id="text_1">
      <!-- Mouth (back) -->
      <defs>
       <path d="M 7.421875 0 
L 7.421875 71.578125 
L 21.6875 71.578125 
L 38.625 20.90625 
Q 40.96875 13.8125 42.046875 10.296875 
Q 43.265625 14.203125 45.84375 21.78125 
L 62.984375 71.578125 
L 75.734375 71.578125 
L 75.734375 0 
L 66.609375 0 
L 66.609375 59.90625 
L 45.796875 0 
L 37.25 0 
L 16.546875 60.9375 
L 16.546875 0 
z
" id="ArialMT-77"/>
       <path d="M 3.328125 25.921875 
Q 3.328125 40.328125 11.328125 47.265625 
Q 18.015625 53.03125 27.640625 53.03125 
Q 38.328125 53.03125 45.109375 46.015625 
Q 51.90625 39.015625 51.90625 26.65625 
Q 51.90625 16.65625 48.90625 10.90625 
Q 45.90625 5.171875 40.15625 2 
Q 34.421875 -1.171875 27.640625 -1.171875 
Q 16.75 -1.171875 10.03125 5.8125 
Q 3.328125 12.796875 3.328125 25.921875 
z
M 12.359375 25.921875 
Q 12.359375 15.96875 16.703125 11.015625 
Q 21.046875 6.0625 27.640625 6.0625 
Q 34.1875 6.0625 38.53125 11.03125 
Q 42.875 16.015625 42.875 26.21875 
Q 42.875 35.84375 38.5 40.796875 
Q 34.125 45.75 27.640625 45.75 
Q 21.046875 45.75 16.703125 40.8125 
Q 12.359375 35.890625 12.359375 25.921875 
z
" id="ArialMT-111"/>
       <path d="M 40.578125 0 
L 40.578125 7.625 
Q 34.515625 -1.171875 24.125 -1.171875 
Q 19.53125 -1.171875 15.546875 0.578125 
Q 11.578125 2.34375 9.640625 5 
Q 7.71875 7.671875 6.9375 11.53125 
Q 6.390625 14.109375 6.390625 19.734375 
L 6.390625 51.859375 
L 15.1875 51.859375 
L 15.1875 23.09375 
Q 15.1875 16.21875 15.71875 13.8125 
Q 16.546875 10.359375 19.234375 8.375 
Q 21.921875 6.390625 25.875 6.390625 
Q 29.828125 6.390625 33.296875 8.421875 
Q 36.765625 10.453125 38.203125 13.9375 
Q 39.65625 17.4375 39.65625 24.078125 
L 39.65625 51.859375 
L 48.4375 51.859375 
L 48.4375 0 
z
" id="ArialMT-117"/>
       <path d="M 25.78125 7.859375 
L 27.046875 0.09375 
Q 23.34375 -0.6875 20.40625 -0.6875 
Q 15.625 -0.6875 12.984375 0.828125 
Q 10.359375 2.34375 9.28125 4.8125 
Q 8.203125 7.28125 8.203125 15.1875 
L 8.203125 45.015625 
L 1.765625 45.015625 
L 1.765625 51.859375 
L 8.203125 51.859375 
L 8.203125 64.703125 
L 16.9375 69.96875 
L 16.9375 51.859375 
L 25.78125 51.859375 
L 25.78125 45.015625 
L 16.9375 45.015625 
L 16.9375 14.703125 
Q 16.9375 10.9375 17.40625 9.859375 
Q 17.875 8.796875 18.921875 8.15625 
Q 19.96875 7.515625 21.921875 7.515625 
Q 23.390625 7.515625 25.78125 7.859375 
z
" id="ArialMT-116"/>
       <path d="M 6.59375 0 
L 6.59375 71.578125 
L 15.375 71.578125 
L 15.375 45.90625 
Q 21.53125 53.03125 30.90625 53.03125 
Q 36.671875 53.03125 40.921875 50.75 
Q 45.171875 48.484375 47 44.484375 
Q 48.828125 40.484375 48.828125 32.859375 
L 48.828125 0 
L 40.046875 0 
L 40.046875 32.859375 
Q 40.046875 39.453125 37.1875 42.453125 
Q 34.328125 45.453125 29.109375 45.453125 
Q 25.203125 45.453125 21.75 43.421875 
Q 18.3125 41.40625 16.84375 37.9375 
Q 15.375 34.46875 15.375 28.375 
L 15.375 0 
z
" id="ArialMT-104"/>
       <path id="ArialMT-32"/>
       <path d="M 23.390625 -21.046875 
Q 16.109375 -11.859375 11.078125 0.4375 
Q 6.0625 12.75 6.0625 25.921875 
Q 6.0625 37.546875 9.8125 48.1875 
Q 14.203125 60.546875 23.390625 72.796875 
L 29.6875 72.796875 
Q 23.78125 62.640625 21.875 58.296875 
Q 18.890625 51.5625 17.1875 44.234375 
Q 15.09375 35.109375 15.09375 25.875 
Q 15.09375 2.390625 29.6875 -21.046875 
z
" id="ArialMT-40"/>
       <path d="M 14.703125 0 
L 6.546875 0 
L 6.546875 71.578125 
L 15.328125 71.578125 
L 15.328125 46.046875 
Q 20.90625 53.03125 29.546875 53.03125 
Q 34.328125 53.03125 38.59375 51.09375 
Q 42.875 49.171875 45.625 45.671875 
Q 48.390625 42.1875 49.953125 37.25 
Q 51.515625 32.328125 51.515625 26.703125 
Q 51.515625 13.375 44.921875 6.09375 
Q 38.328125 -1.171875 29.109375 -1.171875 
Q 19.921875 -1.171875 14.703125 6.5 
z
M 14.59375 26.3125 
Q 14.59375 17 17.140625 12.84375 
Q 21.296875 6.0625 28.375 6.0625 
Q 34.125 6.0625 38.328125 11.0625 
Q 42.53125 16.0625 42.53125 25.984375 
Q 42.53125 36.140625 38.5 40.96875 
Q 34.46875 45.796875 28.765625 45.796875 
Q 23 45.796875 18.796875 40.796875 
Q 14.59375 35.796875 14.59375 26.3125 
z
" id="ArialMT-98"/>
       <path d="M 40.4375 6.390625 
Q 35.546875 2.25 31.03125 0.53125 
Q 26.515625 -1.171875 21.34375 -1.171875 
Q 12.796875 -1.171875 8.203125 3 
Q 3.609375 7.171875 3.609375 13.671875 
Q 3.609375 17.484375 5.34375 20.625 
Q 7.078125 23.78125 9.890625 25.6875 
Q 12.703125 27.59375 16.21875 28.5625 
Q 18.796875 29.25 24.03125 29.890625 
Q 34.671875 31.15625 39.703125 32.90625 
Q 39.75 34.71875 39.75 35.203125 
Q 39.75 40.578125 37.25 42.78125 
Q 33.890625 45.75 27.25 45.75 
Q 21.046875 45.75 18.09375 43.578125 
Q 15.140625 41.40625 13.71875 35.890625 
L 5.125 37.0625 
Q 6.296875 42.578125 8.984375 45.96875 
Q 11.671875 49.359375 16.75 51.1875 
Q 21.828125 53.03125 28.515625 53.03125 
Q 35.15625 53.03125 39.296875 51.46875 
Q 43.453125 49.90625 45.40625 47.53125 
Q 47.359375 45.171875 48.140625 41.546875 
Q 48.578125 39.3125 48.578125 33.453125 
L 48.578125 21.734375 
Q 48.578125 9.46875 49.140625 6.21875 
Q 49.703125 2.984375 51.375 0 
L 42.1875 0 
Q 40.828125 2.734375 40.4375 6.390625 
z
M 39.703125 26.03125 
Q 34.90625 24.078125 25.34375 22.703125 
Q 19.921875 21.921875 17.671875 20.9375 
Q 15.4375 19.96875 14.203125 18.09375 
Q 12.984375 16.21875 12.984375 13.921875 
Q 12.984375 10.40625 15.640625 8.0625 
Q 18.3125 5.71875 23.4375 5.71875 
Q 28.515625 5.71875 32.46875 7.9375 
Q 36.421875 10.15625 38.28125 14.015625 
Q 39.703125 17 39.703125 22.796875 
z
" id="ArialMT-97"/>
       <path d="M 40.4375 19 
L 49.078125 17.875 
Q 47.65625 8.9375 41.8125 3.875 
Q 35.984375 -1.171875 27.484375 -1.171875 
Q 16.84375 -1.171875 10.375 5.78125 
Q 3.90625 12.75 3.90625 25.734375 
Q 3.90625 34.125 6.6875 40.421875 
Q 9.46875 46.734375 15.15625 49.875 
Q 20.84375 53.03125 27.546875 53.03125 
Q 35.984375 53.03125 41.359375 48.75 
Q 46.734375 44.484375 48.25 36.625 
L 39.703125 35.296875 
Q 38.484375 40.53125 35.375 43.15625 
Q 32.28125 45.796875 27.875 45.796875 
Q 21.234375 45.796875 17.078125 41.03125 
Q 12.9375 36.28125 12.9375 25.984375 
Q 12.9375 15.53125 16.9375 10.796875 
Q 20.953125 6.0625 27.390625 6.0625 
Q 32.5625 6.0625 36.03125 9.234375 
Q 39.5 12.40625 40.4375 19 
z
" id="ArialMT-99"/>
       <path d="M 6.640625 0 
L 6.640625 71.578125 
L 15.4375 71.578125 
L 15.4375 30.765625 
L 36.234375 51.859375 
L 47.609375 51.859375 
L 27.78125 32.625 
L 49.609375 0 
L 38.765625 0 
L 21.625 26.515625 
L 15.4375 20.5625 
L 15.4375 0 
z
" id="ArialMT-107"/>
       <path d="M 12.359375 -21.046875 
L 6.0625 -21.046875 
Q 20.65625 2.390625 20.65625 25.875 
Q 20.65625 35.0625 18.5625 44.09375 
Q 16.890625 51.421875 13.921875 58.15625 
Q 12.015625 62.546875 6.0625 72.796875 
L 12.359375 72.796875 
Q 21.53125 60.546875 25.921875 48.1875 
Q 29.6875 37.546875 29.6875 25.921875 
Q 29.6875 12.75 24.625 0.4375 
Q 19.578125 -11.859375 12.359375 -21.046875 
z
" id="ArialMT-41"/>
      </defs>
      <g style="fill:#262626;" transform="translate(47.8275 325.091656)scale(0.11 -0.11)">
       <use xlink:href="#ArialMT-77"/>
       <use x="83.300781" xlink:href="#ArialMT-111"/>
       <use x="138.916016" xlink:href="#ArialMT-117"/>
       <use x="194.53125" xlink:href="#ArialMT-116"/>
       <use x="222.314453" xlink:href="#ArialMT-104"/>
       <use x="277.929688" xlink:href="#ArialMT-32"/>
       <use x="305.712891" xlink:href="#ArialMT-40"/>
       <use x="339.013672" xlink:href="#ArialMT-98"/>
       <use x="394.628906" xlink:href="#ArialMT-97"/>
       <use x="450.244141" xlink:href="#ArialMT-99"/>
       <use x="500.244141" xlink:href="#ArialMT-107"/>
       <use x="550.244141" xlink:href="#ArialMT-41"/>
      </g>
     </g>
    </g>
    <g id="xtick_2">
     <g id="text_2">
      <!-- Mouth (front) -->
      <defs>
       <path d="M 8.6875 0 
L 8.6875 45.015625 
L 0.921875 45.015625 
L 0.921875 51.859375 
L 8.6875 51.859375 
L 8.6875 57.375 
Q 8.6875 62.59375 9.625 65.140625 
Q 10.890625 68.5625 14.078125 70.671875 
Q 17.28125 72.796875 23.046875 72.796875 
Q 26.765625 72.796875 31.25 71.921875 
L 29.9375 64.265625 
Q 27.203125 64.75 24.75 64.75 
Q 20.75 64.75 19.09375 63.03125 
Q 17.4375 61.328125 17.4375 56.640625 
L 17.4375 51.859375 
L 27.546875 51.859375 
L 27.546875 45.015625 
L 17.4375 45.015625 
L 17.4375 0 
z
" id="ArialMT-102"/>
       <path d="M 6.5 0 
L 6.5 51.859375 
L 14.40625 51.859375 
L 14.40625 44 
Q 17.4375 49.515625 20 51.265625 
Q 22.5625 53.03125 25.640625 53.03125 
Q 30.078125 53.03125 34.671875 50.203125 
L 31.640625 42.046875 
Q 28.421875 43.953125 25.203125 43.953125 
Q 22.3125 43.953125 20.015625 42.21875 
Q 17.71875 40.484375 16.75 37.40625 
Q 15.28125 32.71875 15.28125 27.15625 
L 15.28125 0 
z
" id="ArialMT-114"/>
       <path d="M 6.59375 0 
L 6.59375 51.859375 
L 14.5 51.859375 
L 14.5 44.484375 
Q 20.21875 53.03125 31 53.03125 
Q 35.6875 53.03125 39.625 51.34375 
Q 43.5625 49.65625 45.515625 46.921875 
Q 47.46875 44.1875 48.25 40.4375 
Q 48.734375 37.984375 48.734375 31.890625 
L 48.734375 0 
L 39.9375 0 
L 39.9375 31.546875 
Q 39.9375 36.921875 38.90625 39.578125 
Q 37.890625 42.234375 35.28125 43.8125 
Q 32.671875 45.40625 29.15625 45.40625 
Q 23.53125 45.40625 19.453125 41.84375 
Q 15.375 38.28125 15.375 28.328125 
L 15.375 0 
z
" id="ArialMT-110"/>
      </defs>
      <g style="fill:#262626;" transform="translate(93.080234 325.091656)scale(0.11 -0.11)">
       <use xlink:href="#ArialMT-77"/>
       <use x="83.300781" xlink:href="#ArialMT-111"/>
       <use x="138.916016" xlink:href="#ArialMT-117"/>
       <use x="194.53125" xlink:href="#ArialMT-116"/>
       <use x="222.314453" xlink:href="#ArialMT-104"/>
       <use x="277.929688" xlink:href="#ArialMT-32"/>
       <use x="305.712891" xlink:href="#ArialMT-40"/>
       <use x="339.013672" xlink:href="#ArialMT-102"/>
       <use x="366.796875" xlink:href="#ArialMT-114"/>
       <use x="400.097656" xlink:href="#ArialMT-111"/>
       <use x="455.712891" xlink:href="#ArialMT-110"/>
       <use x="511.328125" xlink:href="#ArialMT-116"/>
       <use x="539.111328" xlink:href="#ArialMT-41"/>
      </g>
     </g>
    </g>
    <g id="xtick_3">
     <g id="text_3">
      <!-- Saliva -->
      <defs>
       <path d="M 4.5 23 
L 13.421875 23.78125 
Q 14.0625 18.40625 16.375 14.96875 
Q 18.703125 11.53125 23.578125 9.40625 
Q 28.46875 7.28125 34.578125 7.28125 
Q 39.984375 7.28125 44.140625 8.890625 
Q 48.296875 10.5 50.3125 13.296875 
Q 52.34375 16.109375 52.34375 19.4375 
Q 52.34375 22.796875 50.390625 25.3125 
Q 48.4375 27.828125 43.953125 29.546875 
Q 41.0625 30.671875 31.203125 33.03125 
Q 21.34375 35.40625 17.390625 37.5 
Q 12.25 40.1875 9.734375 44.15625 
Q 7.234375 48.140625 7.234375 53.078125 
Q 7.234375 58.5 10.296875 63.203125 
Q 13.375 67.921875 19.28125 70.359375 
Q 25.203125 72.796875 32.421875 72.796875 
Q 40.375 72.796875 46.453125 70.234375 
Q 52.546875 67.671875 55.8125 62.6875 
Q 59.078125 57.71875 59.328125 51.421875 
L 50.25 50.734375 
Q 49.515625 57.515625 45.28125 60.984375 
Q 41.0625 64.453125 32.8125 64.453125 
Q 24.21875 64.453125 20.28125 61.296875 
Q 16.359375 58.15625 16.359375 53.71875 
Q 16.359375 49.859375 19.140625 47.359375 
Q 21.875 44.875 33.421875 42.265625 
Q 44.96875 39.65625 49.265625 37.703125 
Q 55.515625 34.8125 58.484375 30.390625 
Q 61.46875 25.984375 61.46875 20.21875 
Q 61.46875 14.5 58.203125 9.4375 
Q 54.9375 4.390625 48.796875 1.578125 
Q 42.671875 -1.21875 35.015625 -1.21875 
Q 25.296875 -1.21875 18.71875 1.609375 
Q 12.15625 4.4375 8.421875 10.125 
Q 4.6875 15.828125 4.5 23 
z
" id="ArialMT-83"/>
       <path d="M 6.390625 0 
L 6.390625 71.578125 
L 15.1875 71.578125 
L 15.1875 0 
z
" id="ArialMT-108"/>
       <path d="M 6.640625 61.46875 
L 6.640625 71.578125 
L 15.4375 71.578125 
L 15.4375 61.46875 
z
M 6.640625 0 
L 6.640625 51.859375 
L 15.4375 51.859375 
L 15.4375 0 
z
" id="ArialMT-105"/>
       <path d="M 21 0 
L 1.265625 51.859375 
L 10.546875 51.859375 
L 21.6875 20.796875 
Q 23.484375 15.765625 25 10.359375 
Q 26.171875 14.453125 28.265625 20.21875 
L 39.796875 51.859375 
L 48.828125 51.859375 
L 29.203125 0 
z
" id="ArialMT-118"/>
      </defs>
      <g style="fill:#262626;" transform="translate(154.220234 324.957594)scale(0.11 -0.11)">
       <use xlink:href="#ArialMT-83"/>
       <use x="66.699219" xlink:href="#ArialMT-97"/>
       <use x="122.314453" xlink:href="#ArialMT-108"/>
       <use x="144.53125" xlink:href="#ArialMT-105"/>
       <use x="166.748047" xlink:href="#ArialMT-118"/>
       <use x="216.748047" xlink:href="#ArialMT-97"/>
      </g>
     </g>
    </g>
    <g id="xtick_4">
     <g id="text_4">
      <!-- Plaque -->
      <defs>
       <path d="M 7.71875 0 
L 7.71875 71.578125 
L 34.71875 71.578125 
Q 41.84375 71.578125 45.609375 70.90625 
Q 50.875 70.015625 54.4375 67.546875 
Q 58.015625 65.09375 60.1875 60.640625 
Q 62.359375 56.203125 62.359375 50.875 
Q 62.359375 41.75 56.546875 35.421875 
Q 50.734375 29.109375 35.546875 29.109375 
L 17.1875 29.109375 
L 17.1875 0 
z
M 17.1875 37.546875 
L 35.6875 37.546875 
Q 44.875 37.546875 48.734375 40.96875 
Q 52.59375 44.390625 52.59375 50.59375 
Q 52.59375 55.078125 50.3125 58.265625 
Q 48.046875 61.46875 44.34375 62.5 
Q 41.9375 63.140625 35.5 63.140625 
L 17.1875 63.140625 
z
" id="ArialMT-80"/>
       <path d="M 39.65625 -19.875 
L 39.65625 5.515625 
Q 37.59375 2.640625 33.90625 0.734375 
Q 30.21875 -1.171875 26.078125 -1.171875 
Q 16.84375 -1.171875 10.171875 6.203125 
Q 3.515625 13.578125 3.515625 26.421875 
Q 3.515625 34.234375 6.21875 40.421875 
Q 8.9375 46.625 14.078125 49.828125 
Q 19.234375 53.03125 25.390625 53.03125 
Q 35.015625 53.03125 40.53125 44.921875 
L 40.53125 51.859375 
L 48.4375 51.859375 
L 48.4375 -19.875 
z
M 12.546875 26.078125 
Q 12.546875 16.0625 16.75 11.0625 
Q 20.953125 6.0625 26.8125 6.0625 
Q 32.421875 6.0625 36.46875 10.8125 
Q 40.53125 15.578125 40.53125 25.296875 
Q 40.53125 35.640625 36.25 40.859375 
Q 31.984375 46.09375 26.21875 46.09375 
Q 20.515625 46.09375 16.53125 41.234375 
Q 12.546875 36.375 12.546875 26.078125 
z
" id="ArialMT-113"/>
       <path d="M 42.09375 16.703125 
L 51.171875 15.578125 
Q 49.03125 7.625 43.21875 3.21875 
Q 37.40625 -1.171875 28.375 -1.171875 
Q 17 -1.171875 10.328125 5.828125 
Q 3.65625 12.84375 3.65625 25.484375 
Q 3.65625 38.578125 10.390625 45.796875 
Q 17.140625 53.03125 27.875 53.03125 
Q 38.28125 53.03125 44.875 45.953125 
Q 51.46875 38.875 51.46875 26.03125 
Q 51.46875 25.25 51.421875 23.6875 
L 12.75 23.6875 
Q 13.234375 15.140625 17.578125 10.59375 
Q 21.921875 6.0625 28.421875 6.0625 
Q 33.25 6.0625 36.671875 8.59375 
Q 40.09375 11.140625 42.09375 16.703125 
z
M 13.234375 30.90625 
L 42.1875 30.90625 
Q 41.609375 37.453125 38.875 40.71875 
Q 34.671875 45.796875 27.984375 45.796875 
Q 21.921875 45.796875 17.796875 41.75 
Q 13.671875 37.703125 13.234375 30.90625 
z
" id="ArialMT-101"/>
      </defs>
      <g style="fill:#262626;" transform="translate(196.715234 324.957594)scale(0.11 -0.11)">
       <use xlink:href="#ArialMT-80"/>
       <use x="66.699219" xlink:href="#ArialMT-108"/>
       <use x="88.916016" xlink:href="#ArialMT-97"/>
       <use x="144.53125" xlink:href="#ArialMT-113"/>
       <use x="200.146484" xlink:href="#ArialMT-117"/>
       <use x="255.761719" xlink:href="#ArialMT-101"/>
      </g>
     </g>
    </g>
    <g id="xtick_5">
     <g id="text_5">
      <!-- Airways -->
      <defs>
       <path d="M -0.140625 0 
L 27.34375 71.578125 
L 37.546875 71.578125 
L 66.84375 0 
L 56.0625 0 
L 47.703125 21.6875 
L 17.78125 21.6875 
L 9.90625 0 
z
M 20.515625 29.390625 
L 44.78125 29.390625 
L 37.3125 49.21875 
Q 33.890625 58.25 32.234375 64.0625 
Q 30.859375 57.171875 28.375 50.390625 
z
" id="ArialMT-65"/>
       <path d="M 16.15625 0 
L 0.296875 51.859375 
L 9.375 51.859375 
L 17.625 21.921875 
L 20.703125 10.796875 
Q 20.90625 11.625 23.390625 21.484375 
L 31.640625 51.859375 
L 40.671875 51.859375 
L 48.4375 21.78125 
L 51.03125 11.859375 
L 54 21.875 
L 62.890625 51.859375 
L 71.4375 51.859375 
L 55.21875 0 
L 46.09375 0 
L 37.84375 31.0625 
L 35.84375 39.890625 
L 25.34375 0 
z
" id="ArialMT-119"/>
       <path d="M 6.203125 -19.96875 
L 5.21875 -11.71875 
Q 8.109375 -12.5 10.25 -12.5 
Q 13.1875 -12.5 14.9375 -11.515625 
Q 16.703125 -10.546875 17.828125 -8.796875 
Q 18.65625 -7.46875 20.515625 -2.25 
Q 20.75 -1.515625 21.296875 -0.09375 
L 1.609375 51.859375 
L 11.078125 51.859375 
L 21.875 21.828125 
Q 23.96875 16.109375 25.640625 9.8125 
Q 27.15625 15.875 29.25 21.625 
L 40.328125 51.859375 
L 49.125 51.859375 
L 29.390625 -0.875 
Q 26.21875 -9.421875 24.46875 -12.640625 
Q 22.125 -17 19.09375 -19.015625 
Q 16.0625 -21.046875 11.859375 -21.046875 
Q 9.328125 -21.046875 6.203125 -19.96875 
z
" id="ArialMT-121"/>
       <path d="M 3.078125 15.484375 
L 11.765625 16.84375 
Q 12.5 11.625 15.84375 8.84375 
Q 19.1875 6.0625 25.203125 6.0625 
Q 31.25 6.0625 34.171875 8.515625 
Q 37.109375 10.984375 37.109375 14.3125 
Q 37.109375 17.28125 34.515625 19 
Q 32.71875 20.171875 25.53125 21.96875 
Q 15.875 24.421875 12.140625 26.203125 
Q 8.40625 27.984375 6.46875 31.125 
Q 4.546875 34.28125 4.546875 38.09375 
Q 4.546875 41.546875 6.125 44.5 
Q 7.71875 47.46875 10.453125 49.421875 
Q 12.5 50.921875 16.03125 51.96875 
Q 19.578125 53.03125 23.640625 53.03125 
Q 29.734375 53.03125 34.34375 51.265625 
Q 38.96875 49.515625 41.15625 46.5 
Q 43.359375 43.5 44.1875 38.484375 
L 35.59375 37.3125 
Q 35.015625 41.3125 32.203125 43.546875 
Q 29.390625 45.796875 24.265625 45.796875 
Q 18.21875 45.796875 15.625 43.796875 
Q 13.03125 41.796875 13.03125 39.109375 
Q 13.03125 37.40625 14.109375 36.03125 
Q 15.1875 34.625 17.484375 33.6875 
Q 18.796875 33.203125 25.25 31.453125 
Q 34.578125 28.953125 38.25 27.359375 
Q 41.9375 25.78125 44.03125 22.75 
Q 46.140625 19.734375 46.140625 15.234375 
Q 46.140625 10.84375 43.578125 6.953125 
Q 41.015625 3.078125 36.171875 0.953125 
Q 31.34375 -1.171875 25.25 -1.171875 
Q 15.140625 -1.171875 9.84375 3.03125 
Q 4.546875 7.234375 3.078125 15.484375 
z
" id="ArialMT-115"/>
      </defs>
      <g style="fill:#262626;" transform="translate(239.227422 324.957594)scale(0.11 -0.11)">
       <use xlink:href="#ArialMT-65"/>
       <use x="66.699219" xlink:href="#ArialMT-105"/>
       <use x="88.916016" xlink:href="#ArialMT-114"/>
       <use x="122.216797" xlink:href="#ArialMT-119"/>
       <use x="194.433594" xlink:href="#ArialMT-97"/>
       <use x="250.048828" xlink:href="#ArialMT-121"/>
       <use x="300.048828" xlink:href="#ArialMT-115"/>
      </g>
     </g>
    </g>
    <g id="xtick_6">
     <g id="text_6">
      <!-- Skin -->
      <g style="fill:#262626;" transform="translate(292.420781 324.957594)scale(0.11 -0.11)">
       <use xlink:href="#ArialMT-83"/>
       <use x="66.699219" xlink:href="#ArialMT-107"/>
       <use x="116.699219" xlink:href="#ArialMT-105"/>
       <use x="138.916016" xlink:href="#ArialMT-110"/>
      </g>
     </g>
    </g>
    <g id="xtick_7">
     <g id="text_7">
      <!-- Stool -->
      <g style="fill:#262626;" transform="translate(335.224297 324.957594)scale(0.11 -0.11)">
       <use xlink:href="#ArialMT-83"/>
       <use x="66.699219" xlink:href="#ArialMT-116"/>
       <use x="94.482422" xlink:href="#ArialMT-111"/>
       <use x="150.097656" xlink:href="#ArialMT-111"/>
       <use x="205.712891" xlink:href="#ArialMT-108"/>
      </g>
     </g>
    </g>
    <g id="xtick_8">
     <g id="text_8">
      <!-- Vagina -->
      <defs>
       <path d="M 28.171875 0 
L 0.4375 71.578125 
L 10.6875 71.578125 
L 29.296875 19.578125 
Q 31.546875 13.328125 33.0625 7.859375 
Q 34.71875 13.71875 36.921875 19.578125 
L 56.25 71.578125 
L 65.921875 71.578125 
L 37.890625 0 
z
" id="ArialMT-86"/>
       <path d="M 4.984375 -4.296875 
L 13.53125 -5.5625 
Q 14.0625 -9.515625 16.5 -11.328125 
Q 19.78125 -13.765625 25.4375 -13.765625 
Q 31.546875 -13.765625 34.859375 -11.328125 
Q 38.1875 -8.890625 39.359375 -4.5 
Q 40.046875 -1.8125 39.984375 6.78125 
Q 34.234375 0 25.640625 0 
Q 14.9375 0 9.078125 7.71875 
Q 3.21875 15.4375 3.21875 26.21875 
Q 3.21875 33.640625 5.90625 39.90625 
Q 8.59375 46.1875 13.6875 49.609375 
Q 18.796875 53.03125 25.6875 53.03125 
Q 34.859375 53.03125 40.828125 45.609375 
L 40.828125 51.859375 
L 48.921875 51.859375 
L 48.921875 7.03125 
Q 48.921875 -5.078125 46.453125 -10.125 
Q 44 -15.1875 38.640625 -18.109375 
Q 33.296875 -21.046875 25.484375 -21.046875 
Q 16.21875 -21.046875 10.5 -16.875 
Q 4.78125 -12.703125 4.984375 -4.296875 
z
M 12.25 26.859375 
Q 12.25 16.65625 16.296875 11.96875 
Q 20.359375 7.28125 26.46875 7.28125 
Q 32.515625 7.28125 36.609375 11.9375 
Q 40.71875 16.609375 40.71875 26.5625 
Q 40.71875 36.078125 36.5 40.90625 
Q 32.28125 45.75 26.3125 45.75 
Q 20.453125 45.75 16.34375 40.984375 
Q 12.25 36.234375 12.25 26.859375 
z
" id="ArialMT-103"/>
      </defs>
      <g style="fill:#262626;" transform="translate(375.28125 324.957594)scale(0.11 -0.11)">
       <use xlink:href="#ArialMT-86"/>
       <use x="66.589844" xlink:href="#ArialMT-97"/>
       <use x="122.205078" xlink:href="#ArialMT-103"/>
       <use x="177.820312" xlink:href="#ArialMT-105"/>
       <use x="200.037109" xlink:href="#ArialMT-110"/>
       <use x="255.652344" xlink:href="#ArialMT-97"/>
      </g>
     </g>
    </g>
    <g id="text_9">
     <!-- Site -->
     <g style="fill:#262626;" transform="translate(225.82125 339.996187)scale(0.12 -0.12)">
      <use xlink:href="#ArialMT-83"/>
      <use x="66.699219" xlink:href="#ArialMT-105"/>
      <use x="88.916016" xlink:href="#ArialMT-116"/>
      <use x="116.699219" xlink:href="#ArialMT-101"/>
     </g>
    </g>
   </g>
   <g id="matplotlib.axis_2">
    <g id="ytick_1">
     <g id="line2d_1">
      <path clip-path="url(#p594152032e)" d="M 57.6 276.638921 
L 414.72 276.638921 
" style="fill:none;stroke:#cccccc;stroke-linecap:round;"/>
     </g>
     <g id="text_10">
      <!-- −300 -->
      <defs>
       <path d="M 52.828125 31.203125 
L 5.5625 31.203125 
L 5.5625 39.40625 
L 52.828125 39.40625 
z
" id="ArialMT-8722"/>
       <path d="M 4.203125 18.890625 
L 12.984375 20.0625 
Q 14.5 12.59375 18.140625 9.296875 
Q 21.78125 6 27 6 
Q 33.203125 6 37.46875 10.296875 
Q 41.75 14.59375 41.75 20.953125 
Q 41.75 27 37.796875 30.921875 
Q 33.84375 34.859375 27.734375 34.859375 
Q 25.25 34.859375 21.53125 33.890625 
L 22.515625 41.609375 
Q 23.390625 41.5 23.921875 41.5 
Q 29.546875 41.5 34.03125 44.421875 
Q 38.53125 47.359375 38.53125 53.46875 
Q 38.53125 58.296875 35.25 61.46875 
Q 31.984375 64.65625 26.8125 64.65625 
Q 21.6875 64.65625 18.265625 61.421875 
Q 14.84375 58.203125 13.875 51.765625 
L 5.078125 53.328125 
Q 6.6875 62.15625 12.390625 67.015625 
Q 18.109375 71.875 26.609375 71.875 
Q 32.46875 71.875 37.390625 69.359375 
Q 42.328125 66.84375 44.9375 62.5 
Q 47.5625 58.15625 47.5625 53.265625 
Q 47.5625 48.640625 45.0625 44.828125 
Q 42.578125 41.015625 37.703125 38.765625 
Q 44.046875 37.3125 47.5625 32.6875 
Q 51.078125 28.078125 51.078125 21.140625 
Q 51.078125 11.765625 44.234375 5.25 
Q 37.40625 -1.265625 26.953125 -1.265625 
Q 17.53125 -1.265625 11.296875 4.34375 
Q 5.078125 9.96875 4.203125 18.890625 
z
" id="ArialMT-51"/>
       <path d="M 4.15625 35.296875 
Q 4.15625 48 6.765625 55.734375 
Q 9.375 63.484375 14.515625 67.671875 
Q 19.671875 71.875 27.484375 71.875 
Q 33.25 71.875 37.59375 69.546875 
Q 41.9375 67.234375 44.765625 62.859375 
Q 47.609375 58.5 49.21875 52.21875 
Q 50.828125 45.953125 50.828125 35.296875 
Q 50.828125 22.703125 48.234375 14.96875 
Q 45.65625 7.234375 40.5 3 
Q 35.359375 -1.21875 27.484375 -1.21875 
Q 17.140625 -1.21875 11.234375 6.203125 
Q 4.15625 15.140625 4.15625 35.296875 
z
M 13.1875 35.296875 
Q 13.1875 17.671875 17.3125 11.828125 
Q 21.4375 6 27.484375 6 
Q 33.546875 6 37.671875 11.859375 
Q 41.796875 17.71875 41.796875 35.296875 
Q 41.796875 52.984375 37.671875 58.78125 
Q 33.546875 64.59375 27.390625 64.59375 
Q 21.34375 64.59375 17.71875 59.46875 
Q 13.1875 52.9375 13.1875 35.296875 
z
" id="ArialMT-48"/>
      </defs>
      <g style="fill:#262626;" transform="translate(23.324219 280.575718)scale(0.11 -0.11)">
       <use xlink:href="#ArialMT-8722"/>
       <use x="58.398438" xlink:href="#ArialMT-51"/>
       <use x="114.013672" xlink:href="#ArialMT-48"/>
       <use x="169.628906" xlink:href="#ArialMT-48"/>
      </g>
     </g>
    </g>
    <g id="ytick_2">
     <g id="line2d_2">
      <path clip-path="url(#p594152032e)" d="M 57.6 233.878557 
L 414.72 233.878557 
" style="fill:none;stroke:#cccccc;stroke-linecap:round;"/>
     </g>
     <g id="text_11">
      <!-- −200 -->
      <defs>
       <path d="M 50.34375 8.453125 
L 50.34375 0 
L 3.03125 0 
Q 2.9375 3.171875 4.046875 6.109375 
Q 5.859375 10.9375 9.828125 15.625 
Q 13.8125 20.3125 21.34375 26.46875 
Q 33.015625 36.03125 37.109375 41.625 
Q 41.21875 47.21875 41.21875 52.203125 
Q 41.21875 57.421875 37.46875 61 
Q 33.734375 64.59375 27.734375 64.59375 
Q 21.390625 64.59375 17.578125 60.78125 
Q 13.765625 56.984375 13.71875 50.25 
L 4.6875 51.171875 
Q 5.609375 61.28125 11.65625 66.578125 
Q 17.71875 71.875 27.9375 71.875 
Q 38.234375 71.875 44.234375 66.15625 
Q 50.25 60.453125 50.25 52 
Q 50.25 47.703125 48.484375 43.546875 
Q 46.734375 39.40625 42.65625 34.8125 
Q 38.578125 30.21875 29.109375 22.21875 
Q 21.1875 15.578125 18.9375 13.203125 
Q 16.703125 10.84375 15.234375 8.453125 
z
" id="ArialMT-50"/>
      </defs>
      <g style="fill:#262626;" transform="translate(23.324219 237.815354)scale(0.11 -0.11)">
       <use xlink:href="#ArialMT-8722"/>
       <use x="58.398438" xlink:href="#ArialMT-50"/>
       <use x="114.013672" xlink:href="#ArialMT-48"/>
       <use x="169.628906" xlink:href="#ArialMT-48"/>
      </g>
     </g>
    </g>
    <g id="ytick_3">
     <g id="line2d_3">
      <path clip-path="url(#p594152032e)" d="M 57.6 191.118193 
L 414.72 191.118193 
" style="fill:none;stroke:#cccccc;stroke-linecap:round;"/>
     </g>
     <g id="text_12">
      <!-- −100 -->
      <defs>
       <path d="M 37.25 0 
L 28.46875 0 
L 28.46875 56 
Q 25.296875 52.984375 20.140625 49.953125 
Q 14.984375 46.921875 10.890625 45.40625 
L 10.890625 53.90625 
Q 18.265625 57.375 23.78125 62.296875 
Q 29.296875 67.234375 31.59375 71.875 
L 37.25 71.875 
z
" id="ArialMT-49"/>
      </defs>
      <g style="fill:#262626;" transform="translate(23.324219 195.05499)scale(0.11 -0.11)">
       <use xlink:href="#ArialMT-8722"/>
       <use x="58.398438" xlink:href="#ArialMT-49"/>
       <use x="114.013672" xlink:href="#ArialMT-48"/>
       <use x="169.628906" xlink:href="#ArialMT-48"/>
      </g>
     </g>
    </g>
    <g id="ytick_4">
     <g id="line2d_4">
      <path clip-path="url(#p594152032e)" d="M 57.6 148.35783 
L 414.72 148.35783 
" style="fill:none;stroke:#cccccc;stroke-linecap:round;"/>
     </g>
     <g id="text_13">
      <!-- 0 -->
      <g style="fill:#262626;" transform="translate(41.982969 152.294627)scale(0.11 -0.11)">
       <use xlink:href="#ArialMT-48"/>
      </g>
     </g>
    </g>
    <g id="ytick_5">
     <g id="line2d_5">
      <path clip-path="url(#p594152032e)" d="M 57.6 105.597466 
L 414.72 105.597466 
" style="fill:none;stroke:#cccccc;stroke-linecap:round;"/>
     </g>
     <g id="text_14">
      <!-- 100 -->
      <g style="fill:#262626;" transform="translate(29.748906 109.534263)scale(0.11 -0.11)">
       <use xlink:href="#ArialMT-49"/>
       <use x="55.615234" xlink:href="#ArialMT-48"/>
       <use x="111.230469" xlink:href="#ArialMT-48"/>
      </g>
     </g>
    </g>
    <g id="ytick_6">
     <g id="line2d_6">
      <path clip-path="url(#p594152032e)" d="M 57.6 62.837102 
L 414.72 62.837102 
" style="fill:none;stroke:#cccccc;stroke-linecap:round;"/>
     </g>
     <g id="text_15">
      <!-- 200 -->
      <g style="fill:#262626;" transform="translate(29.748906 66.773899)scale(0.11 -0.11)">
       <use xlink:href="#ArialMT-50"/>
       <use x="55.615234" xlink:href="#ArialMT-48"/>
       <use x="111.230469" xlink:href="#ArialMT-48"/>
      </g>
     </g>
    </g>
    <g id="text_16">
     <!-- Balance -->
     <defs>
      <path d="M 7.328125 0 
L 7.328125 71.578125 
L 34.1875 71.578125 
Q 42.390625 71.578125 47.34375 69.40625 
Q 52.296875 67.234375 55.09375 62.71875 
Q 57.90625 58.203125 57.90625 53.265625 
Q 57.90625 48.6875 55.421875 44.625 
Q 52.9375 40.578125 47.90625 38.09375 
Q 54.390625 36.1875 57.875 31.59375 
Q 61.375 27 61.375 20.75 
Q 61.375 15.71875 59.25 11.390625 
Q 57.125 7.078125 54 4.734375 
Q 50.875 2.390625 46.15625 1.1875 
Q 41.453125 0 34.625 0 
z
M 16.796875 41.5 
L 32.28125 41.5 
Q 38.578125 41.5 41.3125 42.328125 
Q 44.921875 43.40625 46.75 45.890625 
Q 48.578125 48.390625 48.578125 52.15625 
Q 48.578125 55.71875 46.875 58.421875 
Q 45.171875 61.140625 41.984375 62.140625 
Q 38.8125 63.140625 31.109375 63.140625 
L 16.796875 63.140625 
z
M 16.796875 8.453125 
L 34.625 8.453125 
Q 39.203125 8.453125 41.0625 8.796875 
Q 44.34375 9.375 46.53125 10.734375 
Q 48.734375 12.109375 50.140625 14.71875 
Q 51.5625 17.328125 51.5625 20.75 
Q 51.5625 24.75 49.515625 27.703125 
Q 47.46875 30.671875 43.828125 31.859375 
Q 40.1875 33.0625 33.34375 33.0625 
L 16.796875 33.0625 
z
" id="ArialMT-66"/>
     </defs>
     <g style="fill:#262626;" transform="translate(16.939219 196.209563)rotate(-90)scale(0.12 -0.12)">
      <use xlink:href="#ArialMT-66"/>
      <use x="66.699219" xlink:href="#ArialMT-97"/>
      <use x="122.314453" xlink:href="#ArialMT-108"/>
      <use x="144.53125" xlink:href="#ArialMT-97"/>
      <use x="200.146484" xlink:href="#ArialMT-110"/>
      <use x="255.761719" xlink:href="#ArialMT-99"/>
      <use x="305.761719" xlink:href="#ArialMT-101"/>
     </g>
    </g>
   </g>
   <g id="PolyCollection_1">
    <defs>
     <path d="M 79.929209 -162.35767 
L 79.910791 -162.35767 
L 79.901851 -163.563926 
L 79.887498 -164.770181 
L 79.866903 -165.976437 
L 79.840498 -167.182692 
L 79.810266 -168.388948 
L 79.779359 -169.595204 
L 79.751062 -170.801459 
L 79.727488 -172.007715 
L 79.708631 -173.21397 
L 79.692281 -174.420226 
L 79.674881 -175.626481 
L 79.652932 -176.832737 
L 79.624231 -178.038992 
L 79.588386 -179.245248 
L 79.546367 -180.451503 
L 79.499212 -181.657759 
L 79.446182 -182.864014 
L 79.383032 -184.07027 
L 79.301427 -185.276526 
L 79.190254 -186.482781 
L 79.038365 -187.689037 
L 78.836902 -188.895292 
L 78.579294 -190.101548 
L 78.258877 -191.307803 
L 77.866278 -192.514059 
L 77.389262 -193.720314 
L 76.815769 -194.92657 
L 76.13807 -196.132825 
L 75.354919 -197.339081 
L 74.470541 -198.545336 
L 73.492282 -199.751592 
L 72.42972 -200.957848 
L 71.295956 -202.164103 
L 70.109379 -203.370359 
L 68.894307 -204.576614 
L 67.680742 -205.78287 
L 66.504111 -206.989125 
L 65.404187 -208.195381 
L 64.42135 -209.401636 
L 63.590161 -210.607892 
L 62.933431 -211.814147 
L 62.460697 -213.020403 
L 62.171999 -214.226658 
L 62.064 -215.432914 
L 62.134633 -216.639169 
L 62.384913 -217.845425 
L 62.818928 -219.051681 
L 63.442454 -220.257936 
L 64.258604 -221.464192 
L 65.259505 -222.670447 
L 66.417096 -223.876703 
L 67.679651 -225.082958 
L 68.978829 -226.289214 
L 70.245365 -227.495469 
L 71.425594 -228.701725 
L 72.490757 -229.90798 
L 73.436122 -231.114236 
L 74.272733 -232.320491 
L 75.016989 -233.526747 
L 75.682357 -234.733003 
L 76.275392 -235.939258 
L 76.796493 -237.145514 
L 77.24419 -238.351769 
L 77.620331 -239.558025 
L 77.933076 -240.76428 
L 78.195894 -241.970536 
L 78.423263 -243.176791 
L 78.625819 -244.383047 
L 78.807878 -245.589302 
L 78.96854 -246.795558 
L 79.105139 -248.001813 
L 79.216643 -249.208069 
L 79.305266 -250.414325 
L 79.376154 -251.62058 
L 79.435988 -252.826836 
L 79.491147 -254.033091 
L 79.545839 -255.239347 
L 79.600825 -256.445602 
L 79.653647 -257.651858 
L 79.700608 -258.858113 
L 79.739382 -260.064369 
L 79.770463 -261.270624 
L 79.796515 -262.47688 
L 79.820324 -263.683135 
L 79.843003 -264.889391 
L 79.863623 -266.095647 
L 79.880193 -267.301902 
L 79.891064 -268.508158 
L 79.89588 -269.714413 
L 79.895776 -270.920669 
L 79.892968 -272.126924 
L 79.890016 -273.33318 
L 79.889001 -274.539435 
L 79.890905 -275.745691 
L 79.89544 -276.951946 
L 79.901414 -278.158202 
L 79.907404 -279.364457 
L 79.912358 -280.570713 
L 79.91585 -281.776969 
L 79.92415 -281.776969 
L 79.92415 -281.776969 
L 79.927642 -280.570713 
L 79.932596 -279.364457 
L 79.938586 -278.158202 
L 79.94456 -276.951946 
L 79.949095 -275.745691 
L 79.950999 -274.539435 
L 79.949984 -273.33318 
L 79.947032 -272.126924 
L 79.944224 -270.920669 
L 79.94412 -269.714413 
L 79.948936 -268.508158 
L 79.959807 -267.301902 
L 79.976377 -266.095647 
L 79.996997 -264.889391 
L 80.019676 -263.683135 
L 80.043485 -262.47688 
L 80.069537 -261.270624 
L 80.100618 -260.064369 
L 80.139392 -258.858113 
L 80.186353 -257.651858 
L 80.239175 -256.445602 
L 80.294161 -255.239347 
L 80.348853 -254.033091 
L 80.404012 -252.826836 
L 80.463846 -251.62058 
L 80.534734 -250.414325 
L 80.623357 -249.208069 
L 80.734861 -248.001813 
L 80.87146 -246.795558 
L 81.032122 -245.589302 
L 81.214181 -244.383047 
L 81.416737 -243.176791 
L 81.644106 -241.970536 
L 81.906924 -240.76428 
L 82.219669 -239.558025 
L 82.59581 -238.351769 
L 83.043507 -237.145514 
L 83.564608 -235.939258 
L 84.157643 -234.733003 
L 84.823011 -233.526747 
L 85.567267 -232.320491 
L 86.403878 -231.114236 
L 87.349243 -229.90798 
L 88.414406 -228.701725 
L 89.594635 -227.495469 
L 90.861171 -226.289214 
L 92.160349 -225.082958 
L 93.422904 -223.876703 
L 94.580495 -222.670447 
L 95.581396 -221.464192 
L 96.397546 -220.257936 
L 97.021072 -219.051681 
L 97.455087 -217.845425 
L 97.705367 -216.639169 
L 97.776 -215.432914 
L 97.668001 -214.226658 
L 97.379303 -213.020403 
L 96.906569 -211.814147 
L 96.249839 -210.607892 
L 95.41865 -209.401636 
L 94.435813 -208.195381 
L 93.335889 -206.989125 
L 92.159258 -205.78287 
L 90.945693 -204.576614 
L 89.730621 -203.370359 
L 88.544044 -202.164103 
L 87.41028 -200.957848 
L 86.347718 -199.751592 
L 85.369459 -198.545336 
L 84.485081 -197.339081 
L 83.70193 -196.132825 
L 83.024231 -194.92657 
L 82.450738 -193.720314 
L 81.973722 -192.514059 
L 81.581123 -191.307803 
L 81.260706 -190.101548 
L 81.003098 -188.895292 
L 80.801635 -187.689037 
L 80.649746 -186.482781 
L 80.538573 -185.276526 
L 80.456968 -184.07027 
L 80.393818 -182.864014 
L 80.340788 -181.657759 
L 80.293633 -180.451503 
L 80.251614 -179.245248 
L 80.215769 -178.038992 
L 80.187068 -176.832737 
L 80.165119 -175.626481 
L 80.147719 -174.420226 
L 80.131369 -173.21397 
L 80.112512 -172.007715 
L 80.088938 -170.801459 
L 80.060641 -169.595204 
L 80.029734 -168.388948 
L 79.999502 -167.182692 
L 79.973097 -165.976437 
L 79.952502 -164.770181 
L 79.938149 -163.563926 
L 79.929209 -162.35767 
z
" id="ma0263021ab" style="stroke:#3e3e3e;stroke-width:0.5;"/>
    </defs>
    <g clip-path="url(#p594152032e)">
     <use style="fill:#df7f20;stroke:#3e3e3e;stroke-width:0.5;" x="0" xlink:href="#ma0263021ab" y="345.6"/>
    </g>
   </g>
   <g id="PolyCollection_2">
    <defs>
     <path d="M 124.5647 -146.400416 
L 124.5553 -146.400416 
L 124.551961 -147.871442 
L 124.547337 -149.342468 
L 124.541618 -150.813494 
L 124.535369 -152.28452 
L 124.529453 -153.755547 
L 124.524759 -155.226573 
L 124.52185 -156.697599 
L 124.52068 -158.168625 
L 124.52058 -159.639651 
L 124.520533 -161.110677 
L 124.519618 -162.581703 
L 124.517386 -164.052729 
L 124.513959 -165.523755 
L 124.509836 -166.994781 
L 124.505537 -168.465808 
L 124.5013 -169.936834 
L 124.496966 -171.40786 
L 124.492044 -172.878886 
L 124.485856 -174.349912 
L 124.477658 -175.820938 
L 124.466678 -177.291964 
L 124.452074 -178.76299 
L 124.432797 -180.234016 
L 124.407376 -181.705042 
L 124.373689 -183.176069 
L 124.328814 -184.647095 
L 124.269039 -186.118121 
L 124.190037 -187.589147 
L 124.08707 -189.060173 
L 123.955077 -190.531199 
L 123.78847 -192.002225 
L 123.580539 -193.473251 
L 123.32252 -194.944277 
L 123.002619 -196.415303 
L 122.60558 -197.88633 
L 122.113611 -199.357356 
L 121.509196 -200.828382 
L 120.779607 -202.299408 
L 119.92188 -203.770434 
L 118.946259 -205.24146 
L 117.87618 -206.712486 
L 116.744 -208.183512 
L 115.583514 -209.654538 
L 114.422108 -211.125564 
L 113.276224 -212.596591 
L 112.152948 -214.067617 
L 111.05785 -215.538643 
L 110.005625 -217.009669 
L 109.027536 -218.480695 
L 108.170244 -219.951721 
L 107.484647 -221.422747 
L 107.009115 -222.893773 
L 106.755303 -224.364799 
L 106.704 -225.835825 
L 106.813388 -227.306852 
L 107.035586 -228.777878 
L 107.333262 -230.248904 
L 107.688762 -231.71993 
L 108.102756 -233.190956 
L 108.58502 -234.661982 
L 109.143167 -236.133008 
L 109.774753 -237.604034 
L 110.465154 -239.07506 
L 111.190503 -240.546086 
L 111.923336 -242.017113 
L 112.638482 -243.488139 
L 113.31742 -244.959165 
L 113.95013 -246.430191 
L 114.534509 -247.901217 
L 115.074419 -249.372243 
L 115.577817 -250.843269 
L 116.055765 -252.314295 
L 116.521791 -253.785321 
L 116.990365 -255.256347 
L 117.4739 -256.727374 
L 117.979256 -258.1984 
L 118.505782 -259.669426 
L 119.046387 -261.140452 
L 119.591228 -262.611478 
L 120.131759 -264.082504 
L 120.662679 -265.55353 
L 121.180801 -267.024556 
L 121.682041 -268.495582 
L 122.158935 -269.966608 
L 122.600601 -271.437635 
L 122.995321 -272.908661 
L 123.334274 -274.379687 
L 123.61432 -275.850713 
L 123.838547 -277.321739 
L 124.014605 -278.792765 
L 124.151951 -280.263791 
L 124.259369 -281.734817 
L 124.343597 -283.205843 
L 124.409187 -284.676869 
L 124.459154 -286.147896 
L 124.495811 -287.618922 
L 124.521368 -289.089948 
L 124.538134 -290.560974 
L 124.54841 -292.032 
L 124.57159 -292.032 
L 124.57159 -292.032 
L 124.581866 -290.560974 
L 124.598632 -289.089948 
L 124.624189 -287.618922 
L 124.660846 -286.147896 
L 124.710813 -284.676869 
L 124.776403 -283.205843 
L 124.860631 -281.734817 
L 124.968049 -280.263791 
L 125.105395 -278.792765 
L 125.281453 -277.321739 
L 125.50568 -275.850713 
L 125.785726 -274.379687 
L 126.124679 -272.908661 
L 126.519399 -271.437635 
L 126.961065 -269.966608 
L 127.437959 -268.495582 
L 127.939199 -267.024556 
L 128.457321 -265.55353 
L 128.988241 -264.082504 
L 129.528772 -262.611478 
L 130.073613 -261.140452 
L 130.614218 -259.669426 
L 131.140744 -258.1984 
L 131.6461 -256.727374 
L 132.129635 -255.256347 
L 132.598209 -253.785321 
L 133.064235 -252.314295 
L 133.542183 -250.843269 
L 134.045581 -249.372243 
L 134.585491 -247.901217 
L 135.16987 -246.430191 
L 135.80258 -244.959165 
L 136.481518 -243.488139 
L 137.196664 -242.017113 
L 137.929497 -240.546086 
L 138.654846 -239.07506 
L 139.345247 -237.604034 
L 139.976833 -236.133008 
L 140.53498 -234.661982 
L 141.017244 -233.190956 
L 141.431238 -231.71993 
L 141.786738 -230.248904 
L 142.084414 -228.777878 
L 142.306612 -227.306852 
L 142.416 -225.835825 
L 142.364697 -224.364799 
L 142.110885 -222.893773 
L 141.635353 -221.422747 
L 140.949756 -219.951721 
L 140.092464 -218.480695 
L 139.114375 -217.009669 
L 138.06215 -215.538643 
L 136.967052 -214.067617 
L 135.843776 -212.596591 
L 134.697892 -211.125564 
L 133.536486 -209.654538 
L 132.376 -208.183512 
L 131.24382 -206.712486 
L 130.173741 -205.24146 
L 129.19812 -203.770434 
L 128.340393 -202.299408 
L 127.610804 -200.828382 
L 127.006389 -199.357356 
L 126.51442 -197.88633 
L 126.117381 -196.415303 
L 125.79748 -194.944277 
L 125.539461 -193.473251 
L 125.33153 -192.002225 
L 125.164923 -190.531199 
L 125.03293 -189.060173 
L 124.929963 -187.589147 
L 124.850961 -186.118121 
L 124.791186 -184.647095 
L 124.746311 -183.176069 
L 124.712624 -181.705042 
L 124.687203 -180.234016 
L 124.667926 -178.76299 
L 124.653322 -177.291964 
L 124.642342 -175.820938 
L 124.634144 -174.349912 
L 124.627956 -172.878886 
L 124.623034 -171.40786 
L 124.6187 -169.936834 
L 124.614463 -168.465808 
L 124.610164 -166.994781 
L 124.606041 -165.523755 
L 124.602614 -164.052729 
L 124.600382 -162.581703 
L 124.599467 -161.110677 
L 124.59942 -159.639651 
L 124.59932 -158.168625 
L 124.59815 -156.697599 
L 124.595241 -155.226573 
L 124.590547 -153.755547 
L 124.584631 -152.28452 
L 124.578382 -150.813494 
L 124.572663 -149.342468 
L 124.568039 -147.871442 
L 124.5647 -146.400416 
z
" id="m5512e9436f" style="stroke:#3e3e3e;stroke-width:0.5;"/>
    </defs>
    <g clip-path="url(#p594152032e)">
     <use style="fill:#905998;stroke:#3e3e3e;stroke-width:0.5;" x="0" xlink:href="#m5512e9436f" y="345.6"/>
    </g>
   </g>
   <g id="PolyCollection_3">
    <defs>
     <path d="M 169.219257 -147.733424 
L 169.180743 -147.733424 
L 169.162935 -148.785881 
L 169.135995 -149.838337 
L 169.100821 -150.890794 
L 169.062048 -151.94325 
L 169.027671 -152.995707 
L 169.006428 -154.048164 
L 169.003908 -155.10062 
L 169.01953 -156.153077 
L 169.04641 -157.205534 
L 169.074401 -158.25799 
L 169.094639 -159.310447 
L 169.103161 -160.362904 
L 169.101915 -161.41536 
L 169.096931 -162.467817 
L 169.094765 -163.520273 
L 169.099024 -164.57273 
L 169.108566 -165.625187 
L 169.11804 -166.677643 
L 169.120149 -167.7301 
L 169.10832 -168.782557 
L 169.078676 -169.835013 
L 169.030996 -170.88747 
L 168.968975 -171.939927 
L 168.900058 -172.992383 
L 168.834567 -174.04484 
L 168.783524 -175.097296 
L 168.755158 -176.149753 
L 168.751355 -177.20221 
L 168.766054 -178.254666 
L 168.786836 -179.307123 
L 168.799145 -180.35958 
L 168.791267 -181.412036 
L 168.758212 -182.464493 
L 168.703395 -183.51695 
L 168.637488 -184.569406 
L 168.57413 -185.621863 
L 168.523117 -186.674319 
L 168.483136 -187.726776 
L 168.437147 -188.779233 
L 168.352918 -189.831689 
L 168.189405 -190.884146 
L 167.907454 -191.936603 
L 167.481492 -192.989059 
L 166.907897 -194.041516 
L 166.206218 -195.093973 
L 165.412154 -196.146429 
L 164.565067 -197.198886 
L 163.695411 -198.251342 
L 162.817032 -199.303799 
L 161.926756 -200.356256 
L 161.010715 -201.408712 
L 160.054405 -202.461169 
L 159.051835 -203.513626 
L 158.009758 -204.566082 
L 156.946093 -205.618539 
L 155.885252 -206.670996 
L 154.854332 -207.723452 
L 153.882597 -208.775909 
L 153.004171 -209.828366 
L 152.261376 -210.880822 
L 151.704592 -211.933279 
L 151.385375 -212.985735 
L 151.344 -214.038192 
L 151.597603 -215.090649 
L 152.135591 -216.143105 
L 152.924106 -217.195562 
L 153.915753 -218.248019 
L 155.059241 -219.300475 
L 156.305608 -220.352932 
L 157.610173 -221.405389 
L 158.931213 -222.457845 
L 160.228132 -223.510302 
L 161.46266 -224.562758 
L 162.604287 -225.615215 
L 163.636642 -226.667672 
L 164.559085 -227.720128 
L 165.38066 -228.772585 
L 166.109917 -229.825042 
L 166.748066 -230.877498 
L 167.290402 -231.929955 
L 167.733913 -232.982412 
L 168.084096 -234.034868 
L 168.355508 -235.087325 
L 168.566439 -236.139781 
L 168.732436 -237.192238 
L 168.862953 -238.244695 
L 168.962028 -239.297151 
L 169.031248 -240.349608 
L 169.07287 -241.402065 
L 169.091783 -242.454521 
L 169.09579 -243.506978 
L 169.094178 -244.559435 
L 169.095143 -245.611891 
L 169.103361 -246.664348 
L 169.119036 -247.716804 
L 169.138944 -248.769261 
L 169.158727 -249.821718 
L 169.175033 -250.874174 
L 169.186494 -251.926631 
L 169.213506 -251.926631 
L 169.213506 -251.926631 
L 169.224967 -250.874174 
L 169.241273 -249.821718 
L 169.261056 -248.769261 
L 169.280964 -247.716804 
L 169.296639 -246.664348 
L 169.304857 -245.611891 
L 169.305822 -244.559435 
L 169.30421 -243.506978 
L 169.308217 -242.454521 
L 169.32713 -241.402065 
L 169.368752 -240.349608 
L 169.437972 -239.297151 
L 169.537047 -238.244695 
L 169.667564 -237.192238 
L 169.833561 -236.139781 
L 170.044492 -235.087325 
L 170.315904 -234.034868 
L 170.666087 -232.982412 
L 171.109598 -231.929955 
L 171.651934 -230.877498 
L 172.290083 -229.825042 
L 173.01934 -228.772585 
L 173.840915 -227.720128 
L 174.763358 -226.667672 
L 175.795713 -225.615215 
L 176.93734 -224.562758 
L 178.171868 -223.510302 
L 179.468787 -222.457845 
L 180.789827 -221.405389 
L 182.094392 -220.352932 
L 183.340759 -219.300475 
L 184.484247 -218.248019 
L 185.475894 -217.195562 
L 186.264409 -216.143105 
L 186.802397 -215.090649 
L 187.056 -214.038192 
L 187.014625 -212.985735 
L 186.695408 -211.933279 
L 186.138624 -210.880822 
L 185.395829 -209.828366 
L 184.517403 -208.775909 
L 183.545668 -207.723452 
L 182.514748 -206.670996 
L 181.453907 -205.618539 
L 180.390242 -204.566082 
L 179.348165 -203.513626 
L 178.345595 -202.461169 
L 177.389285 -201.408712 
L 176.473244 -200.356256 
L 175.582968 -199.303799 
L 174.704589 -198.251342 
L 173.834933 -197.198886 
L 172.987846 -196.146429 
L 172.193782 -195.093973 
L 171.492103 -194.041516 
L 170.918508 -192.989059 
L 170.492546 -191.936603 
L 170.210595 -190.884146 
L 170.047082 -189.831689 
L 169.962853 -188.779233 
L 169.916864 -187.726776 
L 169.876883 -186.674319 
L 169.82587 -185.621863 
L 169.762512 -184.569406 
L 169.696605 -183.51695 
L 169.641788 -182.464493 
L 169.608733 -181.412036 
L 169.600855 -180.35958 
L 169.613164 -179.307123 
L 169.633946 -178.254666 
L 169.648645 -177.20221 
L 169.644842 -176.149753 
L 169.616476 -175.097296 
L 169.565433 -174.04484 
L 169.499942 -172.992383 
L 169.431025 -171.939927 
L 169.369004 -170.88747 
L 169.321324 -169.835013 
L 169.29168 -168.782557 
L 169.279851 -167.7301 
L 169.28196 -166.677643 
L 169.291434 -165.625187 
L 169.300976 -164.57273 
L 169.305235 -163.520273 
L 169.303069 -162.467817 
L 169.298085 -161.41536 
L 169.296839 -160.362904 
L 169.305361 -159.310447 
L 169.325599 -158.25799 
L 169.35359 -157.205534 
L 169.38047 -156.153077 
L 169.396092 -155.10062 
L 169.393572 -154.048164 
L 169.372329 -152.995707 
L 169.337952 -151.94325 
L 169.299179 -150.890794 
L 169.264005 -149.838337 
L 169.237065 -148.785881 
L 169.219257 -147.733424 
z
" id="m6cf18e14e0" style="stroke:#3e3e3e;stroke-width:0.5;"/>
    </defs>
    <g clip-path="url(#p594152032e)">
     <use style="fill:#cb3335;stroke:#3e3e3e;stroke-width:0.5;" x="0" xlink:href="#m6cf18e14e0" y="345.6"/>
    </g>
   </g>
   <g id="PolyCollection_4">
    <defs>
     <path d="M 213.846375 -129.323706 
L 213.833625 -129.323706 
L 213.826818 -130.796728 
L 213.8158 -132.26975 
L 213.800256 -133.742772 
L 213.781093 -135.215794 
L 213.760468 -136.688816 
L 213.741272 -138.161838 
L 213.726222 -139.634859 
L 213.716723 -141.107881 
L 213.711785 -142.580903 
L 213.707461 -144.053925 
L 213.697112 -145.526947 
L 213.671916 -146.999969 
L 213.620569 -148.472991 
L 213.527976 -149.946013 
L 213.374573 -151.419035 
L 213.138682 -152.892057 
L 212.802378 -154.365079 
L 212.357499 -155.838101 
L 211.806094 -157.311123 
L 211.152551 -158.784144 
L 210.392484 -160.257166 
L 209.508937 -161.730188 
L 208.481191 -163.20321 
L 207.298345 -164.676232 
L 205.964468 -166.149254 
L 204.494269 -167.622276 
L 202.913624 -169.095298 
L 201.274529 -170.56832 
L 199.671172 -172.041342 
L 198.232983 -173.514364 
L 197.089507 -174.987386 
L 196.329831 -176.460407 
L 195.984 -177.933429 
L 196.032802 -179.406451 
L 196.430628 -180.879473 
L 197.122813 -182.352495 
L 198.050478 -183.825517 
L 199.148509 -185.298539 
L 200.346578 -186.771561 
L 201.577886 -188.244583 
L 202.79147 -189.717605 
L 203.959664 -191.190627 
L 205.075657 -192.663649 
L 206.142745 -194.136671 
L 207.161646 -195.609692 
L 208.123139 -197.082714 
L 209.009903 -198.555736 
L 209.804836 -200.028758 
L 210.498273 -201.50178 
L 211.088755 -202.974802 
L 211.579386 -204.447824 
L 211.975869 -205.920846 
L 212.288377 -207.393868 
L 212.533149 -208.86689 
L 212.729364 -210.339912 
L 212.892614 -211.812934 
L 213.030569 -213.285956 
L 213.144318 -214.758977 
L 213.233519 -216.231999 
L 213.300909 -217.705021 
L 213.353407 -219.178043 
L 213.400037 -220.651065 
L 213.448391 -222.124087 
L 213.50145 -223.597109 
L 213.55626 -225.070131 
L 213.605323 -226.543153 
L 213.640355 -228.016175 
L 213.656764 -229.489197 
L 213.656614 -230.962219 
L 213.648407 -232.435241 
L 213.643545 -233.908262 
L 213.651095 -235.381284 
L 213.673657 -236.854306 
L 213.706627 -238.327328 
L 213.741123 -239.80035 
L 213.76853 -241.273372 
L 213.784051 -242.746394 
L 213.787693 -244.219416 
L 213.782915 -245.692438 
L 213.774201 -247.16546 
L 213.765094 -248.638482 
L 213.757598 -250.111504 
L 213.752805 -251.584526 
L 213.751669 -253.057547 
L 213.75497 -254.530569 
L 213.762425 -256.003591 
L 213.771855 -257.476613 
L 213.779472 -258.949635 
L 213.781557 -260.422657 
L 213.776742 -261.895679 
L 213.767366 -263.368701 
L 213.758715 -264.841723 
L 213.756316 -266.314745 
L 213.76293 -267.787767 
L 213.77725 -269.260789 
L 213.795052 -270.73381 
L 213.811736 -272.206832 
L 213.824416 -273.679854 
L 213.832473 -275.152876 
L 213.847527 -275.152876 
L 213.847527 -275.152876 
L 213.855584 -273.679854 
L 213.868264 -272.206832 
L 213.884948 -270.73381 
L 213.90275 -269.260789 
L 213.91707 -267.787767 
L 213.923684 -266.314745 
L 213.921285 -264.841723 
L 213.912634 -263.368701 
L 213.903258 -261.895679 
L 213.898443 -260.422657 
L 213.900528 -258.949635 
L 213.908145 -257.476613 
L 213.917575 -256.003591 
L 213.92503 -254.530569 
L 213.928331 -253.057547 
L 213.927195 -251.584526 
L 213.922402 -250.111504 
L 213.914906 -248.638482 
L 213.905799 -247.16546 
L 213.897085 -245.692438 
L 213.892307 -244.219416 
L 213.895949 -242.746394 
L 213.91147 -241.273372 
L 213.938877 -239.80035 
L 213.973373 -238.327328 
L 214.006343 -236.854306 
L 214.028905 -235.381284 
L 214.036455 -233.908262 
L 214.031593 -232.435241 
L 214.023386 -230.962219 
L 214.023236 -229.489197 
L 214.039645 -228.016175 
L 214.074677 -226.543153 
L 214.12374 -225.070131 
L 214.17855 -223.597109 
L 214.231609 -222.124087 
L 214.279963 -220.651065 
L 214.326593 -219.178043 
L 214.379091 -217.705021 
L 214.446481 -216.231999 
L 214.535682 -214.758977 
L 214.649431 -213.285956 
L 214.787386 -211.812934 
L 214.950636 -210.339912 
L 215.146851 -208.86689 
L 215.391623 -207.393868 
L 215.704131 -205.920846 
L 216.100614 -204.447824 
L 216.591245 -202.974802 
L 217.181727 -201.50178 
L 217.875164 -200.028758 
L 218.670097 -198.555736 
L 219.556861 -197.082714 
L 220.518354 -195.609692 
L 221.537255 -194.136671 
L 222.604343 -192.663649 
L 223.720336 -191.190627 
L 224.88853 -189.717605 
L 226.102114 -188.244583 
L 227.333422 -186.771561 
L 228.531491 -185.298539 
L 229.629522 -183.825517 
L 230.557187 -182.352495 
L 231.249372 -180.879473 
L 231.647198 -179.406451 
L 231.696 -177.933429 
L 231.350169 -176.460407 
L 230.590493 -174.987386 
L 229.447017 -173.514364 
L 228.008828 -172.041342 
L 226.405471 -170.56832 
L 224.766376 -169.095298 
L 223.185731 -167.622276 
L 221.715532 -166.149254 
L 220.381655 -164.676232 
L 219.198809 -163.20321 
L 218.171063 -161.730188 
L 217.287516 -160.257166 
L 216.527449 -158.784144 
L 215.873906 -157.311123 
L 215.322501 -155.838101 
L 214.877622 -154.365079 
L 214.541318 -152.892057 
L 214.305427 -151.419035 
L 214.152024 -149.946013 
L 214.059431 -148.472991 
L 214.008084 -146.999969 
L 213.982888 -145.526947 
L 213.972539 -144.053925 
L 213.968215 -142.580903 
L 213.963277 -141.107881 
L 213.953778 -139.634859 
L 213.938728 -138.161838 
L 213.919532 -136.688816 
L 213.898907 -135.215794 
L 213.879744 -133.742772 
L 213.8642 -132.26975 
L 213.853182 -130.796728 
L 213.846375 -129.323706 
z
" id="m350abf5355" style="stroke:#3e3e3e;stroke-width:0.5;"/>
    </defs>
    <g clip-path="url(#p594152032e)">
     <use style="fill:#59a257;stroke:#3e3e3e;stroke-width:0.5;" x="0" xlink:href="#m350abf5355" y="345.6"/>
    </g>
   </g>
   <g id="PolyCollection_5">
    <defs>
     <path d="M 258.508765 -62.452942 
L 258.451235 -62.452942 
L 258.431431 -64.090793 
L 258.4015 -65.728644 
L 258.358363 -67.366495 
L 258.299035 -69.004345 
L 258.221117 -70.642196 
L 258.123365 -72.280047 
L 258.006208 -73.917898 
L 257.872039 -75.555749 
L 257.725108 -77.1936 
L 257.570876 -78.83145 
L 257.414851 -80.469301 
L 257.261129 -82.107152 
L 257.111066 -83.745003 
L 256.962567 -85.382854 
L 256.810336 -87.020705 
L 256.647051 -88.658556 
L 256.465059 -90.296406 
L 256.257929 -91.934257 
L 256.021293 -93.572108 
L 255.75276 -95.209959 
L 255.451119 -96.84781 
L 255.115326 -98.485661 
L 254.743662 -100.123511 
L 254.333222 -101.761362 
L 253.879599 -103.399213 
L 253.376612 -105.037064 
L 252.816202 -106.674915 
L 252.188883 -108.312766 
L 251.485198 -109.950616 
L 250.698309 -111.588467 
L 249.827236 -113.226318 
L 248.879765 -114.864169 
L 247.873944 -116.50202 
L 246.837475 -118.139871 
L 245.805026 -119.777721 
L 244.814104 -121.415572 
L 243.900427 -123.053423 
L 243.093666 -124.691274 
L 242.414146 -126.329125 
L 241.870868 -127.966976 
L 241.461061 -129.604826 
L 241.171371 -131.242677 
L 240.980569 -132.880528 
L 240.863351 -134.518379 
L 240.794475 -136.15623 
L 240.752361 -137.794081 
L 240.721487 -139.431931 
L 240.693256 -141.069782 
L 240.665472 -142.707633 
L 240.640799 -144.345484 
L 240.624775 -145.983335 
L 240.624 -147.621186 
L 240.645106 -149.259036 
L 240.694895 -150.896887 
L 240.781513 -152.534738 
L 240.915962 -154.172589 
L 241.11279 -155.81044 
L 241.389077 -157.448291 
L 241.761551 -159.086142 
L 242.242689 -160.723992 
L 242.837274 -162.361843 
L 243.540653 -163.999694 
L 244.339185 -165.637545 
L 245.21239 -167.275396 
L 246.135835 -168.913247 
L 247.083913 -170.551097 
L 248.032158 -172.188948 
L 248.959193 -173.826799 
L 249.848426 -175.46465 
L 250.689354 -177.102501 
L 251.478006 -178.740352 
L 252.216081 -180.378202 
L 252.90876 -182.016053 
L 253.561758 -183.653904 
L 254.178606 -185.291755 
L 254.759124 -186.929606 
L 255.299556 -188.567457 
L 255.794148 -190.205307 
L 256.237385 -191.843158 
L 256.625953 -193.481009 
L 256.959727 -195.11886 
L 257.241614 -196.756711 
L 257.47655 -198.394562 
L 257.670256 -200.032412 
L 257.828269 -201.670263 
L 257.95555 -203.308114 
L 258.056596 -204.945965 
L 258.13576 -206.583816 
L 258.197471 -208.221667 
L 258.246134 -209.859517 
L 258.285768 -211.497368 
L 258.319555 -213.135219 
L 258.349543 -214.77307 
L 258.376634 -216.410921 
L 258.400867 -218.048772 
L 258.421852 -219.686622 
L 258.439183 -221.324473 
L 258.452722 -222.962324 
L 258.462684 -224.600175 
L 258.497316 -224.600175 
L 258.497316 -224.600175 
L 258.507278 -222.962324 
L 258.520817 -221.324473 
L 258.538148 -219.686622 
L 258.559133 -218.048772 
L 258.583366 -216.410921 
L 258.610457 -214.77307 
L 258.640445 -213.135219 
L 258.674232 -211.497368 
L 258.713866 -209.859517 
L 258.762529 -208.221667 
L 258.82424 -206.583816 
L 258.903404 -204.945965 
L 259.00445 -203.308114 
L 259.131731 -201.670263 
L 259.289744 -200.032412 
L 259.48345 -198.394562 
L 259.718386 -196.756711 
L 260.000273 -195.11886 
L 260.334047 -193.481009 
L 260.722615 -191.843158 
L 261.165852 -190.205307 
L 261.660444 -188.567457 
L 262.200876 -186.929606 
L 262.781394 -185.291755 
L 263.398242 -183.653904 
L 264.05124 -182.016053 
L 264.743919 -180.378202 
L 265.481994 -178.740352 
L 266.270646 -177.102501 
L 267.111574 -175.46465 
L 268.000807 -173.826799 
L 268.927842 -172.188948 
L 269.876087 -170.551097 
L 270.824165 -168.913247 
L 271.74761 -167.275396 
L 272.620815 -165.637545 
L 273.419347 -163.999694 
L 274.122726 -162.361843 
L 274.717311 -160.723992 
L 275.198449 -159.086142 
L 275.570923 -157.448291 
L 275.84721 -155.81044 
L 276.044038 -154.172589 
L 276.178487 -152.534738 
L 276.265105 -150.896887 
L 276.314894 -149.259036 
L 276.336 -147.621186 
L 276.335225 -145.983335 
L 276.319201 -144.345484 
L 276.294528 -142.707633 
L 276.266744 -141.069782 
L 276.238513 -139.431931 
L 276.207639 -137.794081 
L 276.165525 -136.15623 
L 276.096649 -134.518379 
L 275.979431 -132.880528 
L 275.788629 -131.242677 
L 275.498939 -129.604826 
L 275.089132 -127.966976 
L 274.545854 -126.329125 
L 273.866334 -124.691274 
L 273.059573 -123.053423 
L 272.145896 -121.415572 
L 271.154974 -119.777721 
L 270.122525 -118.139871 
L 269.086056 -116.50202 
L 268.080235 -114.864169 
L 267.132764 -113.226318 
L 266.261691 -111.588467 
L 265.474802 -109.950616 
L 264.771117 -108.312766 
L 264.143798 -106.674915 
L 263.583388 -105.037064 
L 263.080401 -103.399213 
L 262.626778 -101.761362 
L 262.216338 -100.123511 
L 261.844674 -98.485661 
L 261.508881 -96.84781 
L 261.20724 -95.209959 
L 260.938707 -93.572108 
L 260.702071 -91.934257 
L 260.494941 -90.296406 
L 260.312949 -88.658556 
L 260.149664 -87.020705 
L 259.997433 -85.382854 
L 259.848934 -83.745003 
L 259.698871 -82.107152 
L 259.545149 -80.469301 
L 259.389124 -78.83145 
L 259.234892 -77.1936 
L 259.087961 -75.555749 
L 258.953792 -73.917898 
L 258.836635 -72.280047 
L 258.738883 -70.642196 
L 258.660965 -69.004345 
L 258.601637 -67.366495 
L 258.5585 -65.728644 
L 258.528569 -64.090793 
L 258.508765 -62.452942 
z
" id="m6de1054eae" style="stroke:#3e3e3e;stroke-width:0.5;"/>
    </defs>
    <g clip-path="url(#p594152032e)">
     <use style="fill:#999999;stroke:#3e3e3e;stroke-width:0.5;" x="0" xlink:href="#m6de1054eae" y="345.6"/>
    </g>
   </g>
   <g id="PolyCollection_6">
    <defs>
     <path d="M 303.134128 -50.112 
L 303.105872 -50.112 
L 303.095444 -52.04551 
L 303.079379 -53.979021 
L 303.055835 -55.912531 
L 303.022844 -57.846041 
L 302.978403 -59.779551 
L 302.920544 -61.713062 
L 302.84741 -63.646572 
L 302.757414 -65.580082 
L 302.649523 -67.513593 
L 302.523648 -69.447103 
L 302.380986 -71.380613 
L 302.224087 -73.314123 
L 302.056453 -75.247634 
L 301.881608 -77.181144 
L 301.701854 -79.114654 
L 301.517081 -81.048165 
L 301.324106 -82.981675 
L 301.116833 -84.915185 
L 300.887295 -86.848695 
L 300.627272 -88.782206 
L 300.329978 -90.715716 
L 299.99124 -92.649226 
L 299.609844 -94.582736 
L 299.187038 -96.516247 
L 298.725536 -98.449757 
L 298.228495 -100.383267 
L 297.698829 -102.316778 
L 297.13895 -104.250288 
L 296.550775 -106.183798 
L 295.935819 -108.117308 
L 295.295292 -110.050819 
L 294.630334 -111.984329 
L 293.942568 -113.917839 
L 293.234975 -115.85135 
L 292.512783 -117.78486 
L 291.783831 -119.71837 
L 291.058003 -121.65188 
L 290.345723 -123.585391 
L 289.656176 -125.518901 
L 288.996153 -127.452411 
L 288.370233 -129.385922 
L 287.782231 -131.319432 
L 287.237083 -133.252942 
L 286.742009 -135.186452 
L 286.306216 -137.119963 
L 285.93927 -139.053473 
L 285.648992 -140.986983 
L 285.43985 -142.920494 
L 285.312445 -144.854004 
L 285.264 -146.787514 
L 285.289523 -148.721024 
L 285.383271 -150.654535 
L 285.540372 -152.588045 
L 285.758453 -154.521555 
L 286.03891 -156.455066 
L 286.387321 -158.388576 
L 286.812605 -160.322086 
L 287.324983 -162.255596 
L 287.933246 -164.189107 
L 288.642053 -166.122617 
L 289.449827 -168.056127 
L 290.347553 -169.989638 
L 291.31859 -171.923148 
L 292.339602 -173.856658 
L 293.382691 -175.790168 
L 294.418616 -177.723679 
L 295.420558 -179.657189 
L 296.367519 -181.590699 
L 297.246346 -183.524209 
L 298.051726 -185.45772 
L 298.784261 -187.39123 
L 299.447377 -189.32474 
L 300.044288 -191.258251 
L 300.576065 -193.191761 
L 301.041361 -195.125271 
L 301.437686 -197.058781 
L 301.763532 -198.992292 
L 302.020454 -200.925802 
L 302.214314 -202.859312 
L 302.355222 -204.792823 
L 302.456224 -206.726333 
L 302.53115 -208.659843 
L 302.59231 -210.593353 
L 302.648723 -212.526864 
L 302.705333 -214.460374 
L 302.763316 -216.393884 
L 302.821206 -218.327395 
L 302.876357 -220.260905 
L 302.926241 -222.194415 
L 302.969241 -224.127925 
L 303.004872 -226.061436 
L 303.033564 -227.994946 
L 303.056243 -229.928456 
L 303.073948 -231.861967 
L 303.087601 -233.795477 
L 303.097941 -235.728987 
L 303.105557 -237.662497 
L 303.110958 -239.596008 
L 303.114614 -241.529518 
L 303.125386 -241.529518 
L 303.125386 -241.529518 
L 303.129042 -239.596008 
L 303.134443 -237.662497 
L 303.142059 -235.728987 
L 303.152399 -233.795477 
L 303.166052 -231.861967 
L 303.183757 -229.928456 
L 303.206436 -227.994946 
L 303.235128 -226.061436 
L 303.270759 -224.127925 
L 303.313759 -222.194415 
L 303.363643 -220.260905 
L 303.418794 -218.327395 
L 303.476684 -216.393884 
L 303.534667 -214.460374 
L 303.591277 -212.526864 
L 303.64769 -210.593353 
L 303.70885 -208.659843 
L 303.783776 -206.726333 
L 303.884778 -204.792823 
L 304.025686 -202.859312 
L 304.219546 -200.925802 
L 304.476468 -198.992292 
L 304.802314 -197.058781 
L 305.198639 -195.125271 
L 305.663935 -193.191761 
L 306.195712 -191.258251 
L 306.792623 -189.32474 
L 307.455739 -187.39123 
L 308.188274 -185.45772 
L 308.993654 -183.524209 
L 309.872481 -181.590699 
L 310.819442 -179.657189 
L 311.821384 -177.723679 
L 312.857309 -175.790168 
L 313.900398 -173.856658 
L 314.92141 -171.923148 
L 315.892447 -169.989638 
L 316.790173 -168.056127 
L 317.597947 -166.122617 
L 318.306754 -164.189107 
L 318.915017 -162.255596 
L 319.427395 -160.322086 
L 319.852679 -158.388576 
L 320.20109 -156.455066 
L 320.481547 -154.521555 
L 320.699628 -152.588045 
L 320.856729 -150.654535 
L 320.950477 -148.721024 
L 320.976 -146.787514 
L 320.927555 -144.854004 
L 320.80015 -142.920494 
L 320.591008 -140.986983 
L 320.30073 -139.053473 
L 319.933784 -137.119963 
L 319.497991 -135.186452 
L 319.002917 -133.252942 
L 318.457769 -131.319432 
L 317.869767 -129.385922 
L 317.243847 -127.452411 
L 316.583824 -125.518901 
L 315.894277 -123.585391 
L 315.181997 -121.65188 
L 314.456169 -119.71837 
L 313.727217 -117.78486 
L 313.005025 -115.85135 
L 312.297432 -113.917839 
L 311.609666 -111.984329 
L 310.944708 -110.050819 
L 310.304181 -108.117308 
L 309.689225 -106.183798 
L 309.10105 -104.250288 
L 308.541171 -102.316778 
L 308.011505 -100.383267 
L 307.514464 -98.449757 
L 307.052962 -96.516247 
L 306.630156 -94.582736 
L 306.24876 -92.649226 
L 305.910022 -90.715716 
L 305.612728 -88.782206 
L 305.352705 -86.848695 
L 305.123167 -84.915185 
L 304.915894 -82.981675 
L 304.722919 -81.048165 
L 304.538146 -79.114654 
L 304.358392 -77.181144 
L 304.183547 -75.247634 
L 304.015913 -73.314123 
L 303.859014 -71.380613 
L 303.716352 -69.447103 
L 303.590477 -67.513593 
L 303.482586 -65.580082 
L 303.39259 -63.646572 
L 303.319456 -61.713062 
L 303.261597 -59.779551 
L 303.217156 -57.846041 
L 303.184165 -55.912531 
L 303.160621 -53.979021 
L 303.144556 -52.04551 
L 303.134128 -50.112 
z
" id="m837af8dec5" style="stroke:#3e3e3e;stroke-width:0.5;"/>
    </defs>
    <g clip-path="url(#p594152032e)">
     <use style="fill:#477ca8;stroke:#3e3e3e;stroke-width:0.5;" x="0" xlink:href="#m837af8dec5" y="345.6"/>
    </g>
   </g>
   <g id="PolyCollection_7">
    <defs>
     <path d="M 347.774928 -137.344489 
L 347.745072 -137.344489 
L 347.736377 -138.299244 
L 347.724785 -139.253999 
L 347.71055 -140.208754 
L 347.694586 -141.163508 
L 347.67848 -142.118263 
L 347.664286 -143.073018 
L 347.654095 -144.027773 
L 347.649502 -144.982528 
L 347.65111 -145.937283 
L 347.658234 -146.892038 
L 347.668852 -147.846793 
L 347.679768 -148.801548 
L 347.686803 -149.756303 
L 347.684863 -150.711058 
L 347.66777 -151.665813 
L 347.627807 -152.620568 
L 347.555015 -153.575323 
L 347.436205 -154.530078 
L 347.253624 -155.484832 
L 346.983225 -156.439587 
L 346.592852 -157.394342 
L 346.041282 -158.349097 
L 345.279851 -159.303852 
L 344.258755 -160.258607 
L 342.939325 -161.213362 
L 341.311345 -162.168117 
L 339.411147 -163.122872 
L 337.333313 -164.077627 
L 335.228368 -165.032382 
L 333.282119 -165.987137 
L 331.678887 -166.941892 
L 330.558201 -167.896647 
L 329.978967 -168.851401 
L 329.904 -169.806156 
L 330.211094 -170.760911 
L 330.727249 -171.715666 
L 331.274417 -172.670421 
L 331.711696 -173.625176 
L 331.961271 -174.579931 
L 332.012271 -175.534686 
L 331.904902 -176.489441 
L 331.703593 -177.444196 
L 331.47027 -178.398951 
L 331.246864 -179.353706 
L 331.051057 -180.308461 
L 330.883459 -181.263216 
L 330.740304 -182.217971 
L 330.624789 -183.172725 
L 330.552232 -184.12748 
L 330.547906 -185.082235 
L 330.63979 -186.03699 
L 330.850186 -186.991745 
L 331.189779 -187.9465 
L 331.65591 -188.901255 
L 332.234677 -189.85601 
L 332.905083 -190.810765 
L 333.64315 -191.76552 
L 334.42464 -192.720275 
L 335.226193 -193.67503 
L 336.025595 -194.629785 
L 336.802226 -195.58454 
L 337.538383 -196.539294 
L 338.221421 -197.494049 
L 338.845947 -198.448804 
L 339.414993 -199.403559 
L 339.939351 -200.358314 
L 340.434998 -201.313069 
L 340.919284 -202.267824 
L 341.407034 -203.222579 
L 341.907679 -204.177334 
L 342.423988 -205.132089 
L 342.952378 -206.086844 
L 343.484318 -207.041599 
L 344.008258 -207.996354 
L 344.511588 -208.951109 
L 344.982374 -209.905864 
L 345.410643 -210.860618 
L 345.789105 -211.815373 
L 346.113242 -212.770128 
L 346.380903 -213.724883 
L 346.591751 -214.679638 
L 346.746955 -215.634393 
L 346.849428 -216.589148 
L 346.904561 -217.543903 
L 346.921037 -218.498658 
L 346.911148 -219.453413 
L 346.89005 -220.408168 
L 346.873835 -221.362923 
L 346.876765 -222.317678 
L 346.908473 -223.272433 
L 346.972078 -224.227188 
L 347.063882 -225.181942 
L 347.174784 -226.136697 
L 347.29292 -227.091452 
L 347.406631 -228.046207 
L 347.506871 -229.000962 
L 347.588454 -229.955717 
L 347.650083 -230.910472 
L 347.693444 -231.865227 
L 347.826556 -231.865227 
L 347.826556 -231.865227 
L 347.869917 -230.910472 
L 347.931546 -229.955717 
L 348.013129 -229.000962 
L 348.113369 -228.046207 
L 348.22708 -227.091452 
L 348.345216 -226.136697 
L 348.456118 -225.181942 
L 348.547922 -224.227188 
L 348.611527 -223.272433 
L 348.643235 -222.317678 
L 348.646165 -221.362923 
L 348.62995 -220.408168 
L 348.608852 -219.453413 
L 348.598963 -218.498658 
L 348.615439 -217.543903 
L 348.670572 -216.589148 
L 348.773045 -215.634393 
L 348.928249 -214.679638 
L 349.139097 -213.724883 
L 349.406758 -212.770128 
L 349.730895 -211.815373 
L 350.109357 -210.860618 
L 350.537626 -209.905864 
L 351.008412 -208.951109 
L 351.511742 -207.996354 
L 352.035682 -207.041599 
L 352.567622 -206.086844 
L 353.096012 -205.132089 
L 353.612321 -204.177334 
L 354.112966 -203.222579 
L 354.600716 -202.267824 
L 355.085002 -201.313069 
L 355.580649 -200.358314 
L 356.105007 -199.403559 
L 356.674053 -198.448804 
L 357.298579 -197.494049 
L 357.981617 -196.539294 
L 358.717774 -195.58454 
L 359.494405 -194.629785 
L 360.293807 -193.67503 
L 361.09536 -192.720275 
L 361.87685 -191.76552 
L 362.614917 -190.810765 
L 363.285323 -189.85601 
L 363.86409 -188.901255 
L 364.330221 -187.9465 
L 364.669814 -186.991745 
L 364.88021 -186.03699 
L 364.972094 -185.082235 
L 364.967768 -184.12748 
L 364.895211 -183.172725 
L 364.779696 -182.217971 
L 364.636541 -181.263216 
L 364.468943 -180.308461 
L 364.273136 -179.353706 
L 364.04973 -178.398951 
L 363.816407 -177.444196 
L 363.615098 -176.489441 
L 363.507729 -175.534686 
L 363.558729 -174.579931 
L 363.808304 -173.625176 
L 364.245583 -172.670421 
L 364.792751 -171.715666 
L 365.308906 -170.760911 
L 365.616 -169.806156 
L 365.541033 -168.851401 
L 364.961799 -167.896647 
L 363.841113 -166.941892 
L 362.237881 -165.987137 
L 360.291632 -165.032382 
L 358.186687 -164.077627 
L 356.108853 -163.122872 
L 354.208655 -162.168117 
L 352.580675 -161.213362 
L 351.261245 -160.258607 
L 350.240149 -159.303852 
L 349.478718 -158.349097 
L 348.927148 -157.394342 
L 348.536775 -156.439587 
L 348.266376 -155.484832 
L 348.083795 -154.530078 
L 347.964985 -153.575323 
L 347.892193 -152.620568 
L 347.85223 -151.665813 
L 347.835137 -150.711058 
L 347.833197 -149.756303 
L 347.840232 -148.801548 
L 347.851148 -147.846793 
L 347.861766 -146.892038 
L 347.86889 -145.937283 
L 347.870498 -144.982528 
L 347.865905 -144.027773 
L 347.855714 -143.073018 
L 347.84152 -142.118263 
L 347.825414 -141.163508 
L 347.80945 -140.208754 
L 347.795215 -139.253999 
L 347.783623 -138.299244 
L 347.774928 -137.344489 
z
" id="mc92ed0e3ac" style="stroke:#3e3e3e;stroke-width:0.5;"/>
    </defs>
    <g clip-path="url(#p594152032e)">
     <use style="fill:#965a38;stroke:#3e3e3e;stroke-width:0.5;" x="0" xlink:href="#mc92ed0e3ac" y="345.6"/>
    </g>
   </g>
   <g id="PolyCollection_8">
    <defs>
     <path d="M 392.40888 -113.758117 
L 392.39112 -113.758117 
L 392.38441 -115.123669 
L 392.374622 -116.48922 
L 392.361636 -117.854772 
L 392.346035 -119.220323 
L 392.329212 -120.585874 
L 392.313188 -121.951426 
L 392.300121 -123.316977 
L 392.2916 -124.682528 
L 392.28789 -126.04808 
L 392.287308 -127.413631 
L 392.285948 -128.779183 
L 392.277908 -130.144734 
L 392.256182 -131.510285 
L 392.2142 -132.875837 
L 392.147749 -134.241388 
L 392.056634 -135.60694 
L 391.945158 -136.972491 
L 391.820679 -138.338042 
L 391.690194 -139.703594 
L 391.556048 -141.069145 
L 391.412614 -142.434696 
L 391.245725 -143.800248 
L 391.035324 -145.165799 
L 390.760244 -146.531351 
L 390.402933 -147.896902 
L 389.952135 -149.262453 
L 389.402611 -150.628005 
L 388.752267 -151.993556 
L 387.998038 -153.359107 
L 387.132568 -154.724659 
L 386.14411 -156.09021 
L 385.021665 -157.455762 
L 383.765479 -158.821313 
L 382.39964 -160.186864 
L 380.98032 -161.552416 
L 379.59254 -162.917967 
L 378.332277 -164.283519 
L 377.278338 -165.64907 
L 376.46596 -167.014621 
L 375.876268 -168.380173 
L 375.449555 -169.745724 
L 375.118035 -171.111275 
L 374.842268 -172.476827 
L 374.632494 -173.842378 
L 374.544 -175.20793 
L 374.64987 -176.573481 
L 375.006195 -177.939032 
L 375.627291 -179.304584 
L 376.481239 -180.670135 
L 377.504365 -182.035687 
L 378.624303 -183.401238 
L 379.779329 -184.766789 
L 380.926505 -186.132341 
L 382.038751 -187.497892 
L 383.096654 -188.863443 
L 384.081883 -190.228995 
L 384.97608 -191.594546 
L 385.764711 -192.960098 
L 386.442435 -194.325649 
L 387.016299 -195.6912 
L 387.504789 -197.056752 
L 387.933001 -198.422303 
L 388.325747 -199.787854 
L 388.700974 -201.153406 
L 389.065645 -202.518957 
L 389.415416 -203.884509 
L 389.738254 -205.25006 
L 390.020702 -206.615611 
L 390.254372 -207.981163 
L 390.439975 -209.346714 
L 390.587217 -210.712266 
L 390.710777 -212.077817 
L 390.824534 -213.443368 
L 390.937016 -214.80892 
L 391.050213 -216.174471 
L 391.161794 -217.540022 
L 391.26883 -218.905574 
L 391.370451 -220.271125 
L 391.468024 -221.636677 
L 391.563327 -223.002228 
L 391.656467 -224.367779 
L 391.745128 -225.733331 
L 391.825466 -227.098882 
L 391.893851 -228.464433 
L 391.948299 -229.829985 
L 391.989047 -231.195536 
L 392.018375 -232.561088 
L 392.040088 -233.926639 
L 392.05889 -235.29219 
L 392.079593 -236.657742 
L 392.106076 -238.023293 
L 392.14022 -239.388845 
L 392.18128 -240.754396 
L 392.226131 -242.119947 
L 392.270369 -243.485499 
L 392.309794 -244.85105 
L 392.341617 -246.216601 
L 392.364943 -247.582153 
L 392.380506 -248.947704 
L 392.419494 -248.947704 
L 392.419494 -248.947704 
L 392.435057 -247.582153 
L 392.458383 -246.216601 
L 392.490206 -244.85105 
L 392.529631 -243.485499 
L 392.573869 -242.119947 
L 392.61872 -240.754396 
L 392.65978 -239.388845 
L 392.693924 -238.023293 
L 392.720407 -236.657742 
L 392.74111 -235.29219 
L 392.759912 -233.926639 
L 392.781625 -232.561088 
L 392.810953 -231.195536 
L 392.851701 -229.829985 
L 392.906149 -228.464433 
L 392.974534 -227.098882 
L 393.054872 -225.733331 
L 393.143533 -224.367779 
L 393.236673 -223.002228 
L 393.331976 -221.636677 
L 393.429549 -220.271125 
L 393.53117 -218.905574 
L 393.638206 -217.540022 
L 393.749787 -216.174471 
L 393.862984 -214.80892 
L 393.975466 -213.443368 
L 394.089223 -212.077817 
L 394.212783 -210.712266 
L 394.360025 -209.346714 
L 394.545628 -207.981163 
L 394.779298 -206.615611 
L 395.061746 -205.25006 
L 395.384584 -203.884509 
L 395.734355 -202.518957 
L 396.099026 -201.153406 
L 396.474253 -199.787854 
L 396.866999 -198.422303 
L 397.295211 -197.056752 
L 397.783701 -195.6912 
L 398.357565 -194.325649 
L 399.035289 -192.960098 
L 399.82392 -191.594546 
L 400.718117 -190.228995 
L 401.703346 -188.863443 
L 402.761249 -187.497892 
L 403.873495 -186.132341 
L 405.020671 -184.766789 
L 406.175697 -183.401238 
L 407.295635 -182.035687 
L 408.318761 -180.670135 
L 409.172709 -179.304584 
L 409.793805 -177.939032 
L 410.15013 -176.573481 
L 410.256 -175.20793 
L 410.167506 -173.842378 
L 409.957732 -172.476827 
L 409.681965 -171.111275 
L 409.350445 -169.745724 
L 408.923732 -168.380173 
L 408.33404 -167.014621 
L 407.521662 -165.64907 
L 406.467723 -164.283519 
L 405.20746 -162.917967 
L 403.81968 -161.552416 
L 402.40036 -160.186864 
L 401.034521 -158.821313 
L 399.778335 -157.455762 
L 398.65589 -156.09021 
L 397.667432 -154.724659 
L 396.801962 -153.359107 
L 396.047733 -151.993556 
L 395.397389 -150.628005 
L 394.847865 -149.262453 
L 394.397067 -147.896902 
L 394.039756 -146.531351 
L 393.764676 -145.165799 
L 393.554275 -143.800248 
L 393.387386 -142.434696 
L 393.243952 -141.069145 
L 393.109806 -139.703594 
L 392.979321 -138.338042 
L 392.854842 -136.972491 
L 392.743366 -135.60694 
L 392.652251 -134.241388 
L 392.5858 -132.875837 
L 392.543818 -131.510285 
L 392.522092 -130.144734 
L 392.514052 -128.779183 
L 392.512692 -127.413631 
L 392.51211 -126.04808 
L 392.5084 -124.682528 
L 392.499879 -123.316977 
L 392.486812 -121.951426 
L 392.470788 -120.585874 
L 392.453965 -119.220323 
L 392.438364 -117.854772 
L 392.425378 -116.48922 
L 392.41559 -115.123669 
L 392.40888 -113.758117 
z
" id="m2777cd3329" style="stroke:#3e3e3e;stroke-width:0.5;"/>
    </defs>
    <g clip-path="url(#p594152032e)">
     <use style="fill:#e890be;stroke:#3e3e3e;stroke-width:0.5;" x="0" xlink:href="#m2777cd3329" y="345.6"/>
    </g>
   </g>
   <g id="line2d_7">
    <path clip-path="url(#p594152032e)" d="M 79.92 158.399032 
L 79.92 101.191438 
" style="fill:none;stroke:#3e3e3e;stroke-linecap:round;stroke-width:0.5;"/>
   </g>
   <g id="line2d_8">
    <path clip-path="url(#p594152032e)" d="M 79.92 137.099283 
L 79.92 122.528026 
" style="fill:none;stroke:#3e3e3e;stroke-linecap:round;stroke-width:1.5;"/>
   </g>
   <g id="line2d_9">
    <path clip-path="url(#p594152032e)" d="M 124.56 159.200361 
L 124.56 68.30316 
" style="fill:none;stroke:#3e3e3e;stroke-linecap:round;stroke-width:0.5;"/>
   </g>
   <g id="line2d_10">
    <path clip-path="url(#p594152032e)" d="M 124.56 125.369153 
L 124.56 102.273062 
" style="fill:none;stroke:#3e3e3e;stroke-linecap:round;stroke-width:1.5;"/>
   </g>
   <g id="line2d_11">
    <path clip-path="url(#p594152032e)" d="M 169.2 154.731818 
L 169.2 110.416559 
" style="fill:none;stroke:#3e3e3e;stroke-linecap:round;stroke-width:0.5;"/>
   </g>
   <g id="line2d_12">
    <path clip-path="url(#p594152032e)" d="M 169.2 139.033334 
L 169.2 127.218859 
" style="fill:none;stroke:#3e3e3e;stroke-linecap:round;stroke-width:1.5;"/>
   </g>
   <g id="line2d_13">
    <path clip-path="url(#p594152032e)" d="M 213.84 191.02613 
L 213.84 136.393095 
" style="fill:none;stroke:#3e3e3e;stroke-linecap:round;stroke-width:0.5;"/>
   </g>
   <g id="line2d_14">
    <path clip-path="url(#p594152032e)" d="M 213.84 172.195279 
L 213.84 157.694384 
" style="fill:none;stroke:#3e3e3e;stroke-linecap:round;stroke-width:1.5;"/>
   </g>
   <g id="line2d_15">
    <path clip-path="url(#p594152032e)" d="M 258.48 266.283644 
L 258.48 145.856126 
" style="fill:none;stroke:#3e3e3e;stroke-linecap:round;stroke-width:0.5;"/>
   </g>
   <g id="line2d_16">
    <path clip-path="url(#p594152032e)" d="M 258.48 217.961012 
L 258.48 185.70084 
" style="fill:none;stroke:#3e3e3e;stroke-linecap:round;stroke-width:1.5;"/>
   </g>
   <g id="line2d_17">
    <path clip-path="url(#p594152032e)" d="M 303.12 271.14849 
L 303.12 132.896837 
" style="fill:none;stroke:#3e3e3e;stroke-linecap:round;stroke-width:0.5;"/>
   </g>
   <g id="line2d_18">
    <path clip-path="url(#p594152032e)" d="M 303.12 219.077164 
L 303.12 183.995963 
" style="fill:none;stroke:#3e3e3e;stroke-linecap:round;stroke-width:1.5;"/>
   </g>
   <g id="line2d_19">
    <path clip-path="url(#p594152032e)" d="M 347.76 200.442946 
L 347.76 124.620012 
" style="fill:none;stroke:#3e3e3e;stroke-linecap:round;stroke-width:0.5;"/>
   </g>
   <g id="line2d_20">
    <path clip-path="url(#p594152032e)" d="M 347.76 174.504424 
L 347.76 154.308362 
" style="fill:none;stroke:#3e3e3e;stroke-linecap:round;stroke-width:1.5;"/>
   </g>
   <g id="line2d_21">
    <path clip-path="url(#p594152032e)" d="M 392.4 205.491662 
L 392.4 134.100284 
" style="fill:none;stroke:#3e3e3e;stroke-linecap:round;stroke-width:0.5;"/>
   </g>
   <g id="line2d_22">
    <path clip-path="url(#p594152032e)" d="M 392.4 178.679567 
L 392.4 160.752092 
" style="fill:none;stroke:#3e3e3e;stroke-linecap:round;stroke-width:1.5;"/>
   </g>
   <g id="patch_3">
    <path d="M 57.6 307.584 
L 57.6 41.472 
" style="fill:none;stroke:#cccccc;stroke-linecap:square;stroke-linejoin:miter;stroke-width:1.25;"/>
   </g>
   <g id="patch_4">
    <path d="M 414.72 307.584 
L 414.72 41.472 
" style="fill:none;stroke:#cccccc;stroke-linecap:square;stroke-linejoin:miter;stroke-width:1.25;"/>
   </g>
   <g id="patch_5">
    <path d="M 57.6 307.584 
L 414.72 307.584 
" style="fill:none;stroke:#cccccc;stroke-linecap:square;stroke-linejoin:miter;stroke-width:1.25;"/>
   </g>
   <g id="patch_6">
    <path d="M 57.6 41.472 
L 414.72 41.472 
" style="fill:none;stroke:#cccccc;stroke-linecap:square;stroke-linejoin:miter;stroke-width:1.25;"/>
   </g>
   <g id="PathCollection_1">
    <defs>
     <path d="M 0 0.5 
C 0.132602 0.5 0.25979 0.447317 0.353553 0.353553 
C 0.447317 0.25979 0.5 0.132602 0.5 0 
C 0.5 -0.132602 0.447317 -0.25979 0.353553 -0.353553 
C 0.25979 -0.447317 0.132602 -0.5 0 -0.5 
C -0.132602 -0.5 -0.25979 -0.447317 -0.353553 -0.353553 
C -0.447317 -0.25979 -0.5 -0.132602 -0.5 0 
C -0.5 0.132602 -0.447317 0.25979 -0.353553 0.353553 
C -0.25979 0.447317 -0.132602 0.5 0 0.5 
z
" id="m154ba0c3a4" style="stroke:#3e3e3e;"/>
    </defs>
    <g clip-path="url(#p594152032e)">
     <use style="fill:#ffffff;stroke:#3e3e3e;" x="79.92" xlink:href="#m154ba0c3a4" y="129.865726"/>
    </g>
   </g>
   <g id="PathCollection_2">
    <g clip-path="url(#p594152032e)">
     <use style="fill:#ffffff;stroke:#3e3e3e;" x="124.56" xlink:href="#m154ba0c3a4" y="115.184682"/>
    </g>
   </g>
   <g id="PathCollection_3">
    <g clip-path="url(#p594152032e)">
     <use style="fill:#ffffff;stroke:#3e3e3e;" x="169.2" xlink:href="#m154ba0c3a4" y="132.861688"/>
    </g>
   </g>
   <g id="PathCollection_4">
    <g clip-path="url(#p594152032e)">
     <use style="fill:#ffffff;stroke:#3e3e3e;" x="213.84" xlink:href="#m154ba0c3a4" y="165.503581"/>
    </g>
   </g>
   <g id="PathCollection_5">
    <g clip-path="url(#p594152032e)">
     <use style="fill:#ffffff;stroke:#3e3e3e;" x="258.48" xlink:href="#m154ba0c3a4" y="202.21408"/>
    </g>
   </g>
   <g id="PathCollection_6">
    <g clip-path="url(#p594152032e)">
     <use style="fill:#ffffff;stroke:#3e3e3e;" x="303.12" xlink:href="#m154ba0c3a4" y="200.876322"/>
    </g>
   </g>
   <g id="PathCollection_7">
    <g clip-path="url(#p594152032e)">
     <use style="fill:#ffffff;stroke:#3e3e3e;" x="347.76" xlink:href="#m154ba0c3a4" y="163.60376"/>
    </g>
   </g>
   <g id="PathCollection_8">
    <g clip-path="url(#p594152032e)">
     <use style="fill:#ffffff;stroke:#3e3e3e;" x="392.4" xlink:href="#m154ba0c3a4" y="169.793301"/>
    </g>
   </g>
  </g>
 </g>
 <defs>
  <clipPath id="p594152032e">
   <rect height="266.112" width="357.12" x="57.6" y="41.472"/>
  </clipPath>
 </defs>
</svg>
