<?xml version="1.0" encoding="utf-8" standalone="no"?>
<!DOCTYPE svg PUBLIC "-//W3C//DTD SVG 1.1//EN"
  "http://www.w3.org/Graphics/SVG/1.1/DTD/svg11.dtd">
<!-- Created with matplotlib (https://matplotlib.org/) -->
<svg height="345.6pt" version="1.1" viewBox="0 0 460.8 345.6" width="460.8pt" xmlns="http://www.w3.org/2000/svg" xmlns:xlink="http://www.w3.org/1999/xlink">
 <defs>
  <style type="text/css">
*{stroke-linecap:butt;stroke-linejoin:round;}
  </style>
 </defs>
 <g id="figure_1">
  <g id="patch_1">
   <path d="M 0 345.6 
L 460.8 345.6 
L 460.8 0 
L 0 0 
z
" style="fill:#ffffff;"/>
  </g>
  <g id="axes_1">
   <g id="patch_2">
    <path d="M 57.6 307.584 
L 414.72 307.584 
L 414.72 41.472 
L 57.6 41.472 
z
" style="fill:#ffffff;"/>
   </g>
   <g id="matplotlib.axis_1">
    <g id="xtick_1">
     <g id="text_1">
      <!-- Mouth (back) -->
      <defs>
       <path d="M 7.421875 0 
L 7.421875 71.578125 
L 21.6875 71.578125 
L 38.625 20.90625 
Q 40.96875 13.8125 42.046875 10.296875 
Q 43.265625 14.203125 45.84375 21.78125 
L 62.984375 71.578125 
L 75.734375 71.578125 
L 75.734375 0 
L 66.609375 0 
L 66.609375 59.90625 
L 45.796875 0 
L 37.25 0 
L 16.546875 60.9375 
L 16.546875 0 
z
" id="ArialMT-77"/>
       <path d="M 3.328125 25.921875 
Q 3.328125 40.328125 11.328125 47.265625 
Q 18.015625 53.03125 27.640625 53.03125 
Q 38.328125 53.03125 45.109375 46.015625 
Q 51.90625 39.015625 51.90625 26.65625 
Q 51.90625 16.65625 48.90625 10.90625 
Q 45.90625 5.171875 40.15625 2 
Q 34.421875 -1.171875 27.640625 -1.171875 
Q 16.75 -1.171875 10.03125 5.8125 
Q 3.328125 12.796875 3.328125 25.921875 
z
M 12.359375 25.921875 
Q 12.359375 15.96875 16.703125 11.015625 
Q 21.046875 6.0625 27.640625 6.0625 
Q 34.1875 6.0625 38.53125 11.03125 
Q 42.875 16.015625 42.875 26.21875 
Q 42.875 35.84375 38.5 40.796875 
Q 34.125 45.75 27.640625 45.75 
Q 21.046875 45.75 16.703125 40.8125 
Q 12.359375 35.890625 12.359375 25.921875 
z
" id="ArialMT-111"/>
       <path d="M 40.578125 0 
L 40.578125 7.625 
Q 34.515625 -1.171875 24.125 -1.171875 
Q 19.53125 -1.171875 15.546875 0.578125 
Q 11.578125 2.34375 9.640625 5 
Q 7.71875 7.671875 6.9375 11.53125 
Q 6.390625 14.109375 6.390625 19.734375 
L 6.390625 51.859375 
L 15.1875 51.859375 
L 15.1875 23.09375 
Q 15.1875 16.21875 15.71875 13.8125 
Q 16.546875 10.359375 19.234375 8.375 
Q 21.921875 6.390625 25.875 6.390625 
Q 29.828125 6.390625 33.296875 8.421875 
Q 36.765625 10.453125 38.203125 13.9375 
Q 39.65625 17.4375 39.65625 24.078125 
L 39.65625 51.859375 
L 48.4375 51.859375 
L 48.4375 0 
z
" id="ArialMT-117"/>
       <path d="M 25.78125 7.859375 
L 27.046875 0.09375 
Q 23.34375 -0.6875 20.40625 -0.6875 
Q 15.625 -0.6875 12.984375 0.828125 
Q 10.359375 2.34375 9.28125 4.8125 
Q 8.203125 7.28125 8.203125 15.1875 
L 8.203125 45.015625 
L 1.765625 45.015625 
L 1.765625 51.859375 
L 8.203125 51.859375 
L 8.203125 64.703125 
L 16.9375 69.96875 
L 16.9375 51.859375 
L 25.78125 51.859375 
L 25.78125 45.015625 
L 16.9375 45.015625 
L 16.9375 14.703125 
Q 16.9375 10.9375 17.40625 9.859375 
Q 17.875 8.796875 18.921875 8.15625 
Q 19.96875 7.515625 21.921875 7.515625 
Q 23.390625 7.515625 25.78125 7.859375 
z
" id="ArialMT-116"/>
       <path d="M 6.59375 0 
L 6.59375 71.578125 
L 15.375 71.578125 
L 15.375 45.90625 
Q 21.53125 53.03125 30.90625 53.03125 
Q 36.671875 53.03125 40.921875 50.75 
Q 45.171875 48.484375 47 44.484375 
Q 48.828125 40.484375 48.828125 32.859375 
L 48.828125 0 
L 40.046875 0 
L 40.046875 32.859375 
Q 40.046875 39.453125 37.1875 42.453125 
Q 34.328125 45.453125 29.109375 45.453125 
Q 25.203125 45.453125 21.75 43.421875 
Q 18.3125 41.40625 16.84375 37.9375 
Q 15.375 34.46875 15.375 28.375 
L 15.375 0 
z
" id="ArialMT-104"/>
       <path id="ArialMT-32"/>
       <path d="M 23.390625 -21.046875 
Q 16.109375 -11.859375 11.078125 0.4375 
Q 6.0625 12.75 6.0625 25.921875 
Q 6.0625 37.546875 9.8125 48.1875 
Q 14.203125 60.546875 23.390625 72.796875 
L 29.6875 72.796875 
Q 23.78125 62.640625 21.875 58.296875 
Q 18.890625 51.5625 17.1875 44.234375 
Q 15.09375 35.109375 15.09375 25.875 
Q 15.09375 2.390625 29.6875 -21.046875 
z
" id="ArialMT-40"/>
       <path d="M 14.703125 0 
L 6.546875 0 
L 6.546875 71.578125 
L 15.328125 71.578125 
L 15.328125 46.046875 
Q 20.90625 53.03125 29.546875 53.03125 
Q 34.328125 53.03125 38.59375 51.09375 
Q 42.875 49.171875 45.625 45.671875 
Q 48.390625 42.1875 49.953125 37.25 
Q 51.515625 32.328125 51.515625 26.703125 
Q 51.515625 13.375 44.921875 6.09375 
Q 38.328125 -1.171875 29.109375 -1.171875 
Q 19.921875 -1.171875 14.703125 6.5 
z
M 14.59375 26.3125 
Q 14.59375 17 17.140625 12.84375 
Q 21.296875 6.0625 28.375 6.0625 
Q 34.125 6.0625 38.328125 11.0625 
Q 42.53125 16.0625 42.53125 25.984375 
Q 42.53125 36.140625 38.5 40.96875 
Q 34.46875 45.796875 28.765625 45.796875 
Q 23 45.796875 18.796875 40.796875 
Q 14.59375 35.796875 14.59375 26.3125 
z
" id="ArialMT-98"/>
       <path d="M 40.4375 6.390625 
Q 35.546875 2.25 31.03125 0.53125 
Q 26.515625 -1.171875 21.34375 -1.171875 
Q 12.796875 -1.171875 8.203125 3 
Q 3.609375 7.171875 3.609375 13.671875 
Q 3.609375 17.484375 5.34375 20.625 
Q 7.078125 23.78125 9.890625 25.6875 
Q 12.703125 27.59375 16.21875 28.5625 
Q 18.796875 29.25 24.03125 29.890625 
Q 34.671875 31.15625 39.703125 32.90625 
Q 39.75 34.71875 39.75 35.203125 
Q 39.75 40.578125 37.25 42.78125 
Q 33.890625 45.75 27.25 45.75 
Q 21.046875 45.75 18.09375 43.578125 
Q 15.140625 41.40625 13.71875 35.890625 
L 5.125 37.0625 
Q 6.296875 42.578125 8.984375 45.96875 
Q 11.671875 49.359375 16.75 51.1875 
Q 21.828125 53.03125 28.515625 53.03125 
Q 35.15625 53.03125 39.296875 51.46875 
Q 43.453125 49.90625 45.40625 47.53125 
Q 47.359375 45.171875 48.140625 41.546875 
Q 48.578125 39.3125 48.578125 33.453125 
L 48.578125 21.734375 
Q 48.578125 9.46875 49.140625 6.21875 
Q 49.703125 2.984375 51.375 0 
L 42.1875 0 
Q 40.828125 2.734375 40.4375 6.390625 
z
M 39.703125 26.03125 
Q 34.90625 24.078125 25.34375 22.703125 
Q 19.921875 21.921875 17.671875 20.9375 
Q 15.4375 19.96875 14.203125 18.09375 
Q 12.984375 16.21875 12.984375 13.921875 
Q 12.984375 10.40625 15.640625 8.0625 
Q 18.3125 5.71875 23.4375 5.71875 
Q 28.515625 5.71875 32.46875 7.9375 
Q 36.421875 10.15625 38.28125 14.015625 
Q 39.703125 17 39.703125 22.796875 
z
" id="ArialMT-97"/>
       <path d="M 40.4375 19 
L 49.078125 17.875 
Q 47.65625 8.9375 41.8125 3.875 
Q 35.984375 -1.171875 27.484375 -1.171875 
Q 16.84375 -1.171875 10.375 5.78125 
Q 3.90625 12.75 3.90625 25.734375 
Q 3.90625 34.125 6.6875 40.421875 
Q 9.46875 46.734375 15.15625 49.875 
Q 20.84375 53.03125 27.546875 53.03125 
Q 35.984375 53.03125 41.359375 48.75 
Q 46.734375 44.484375 48.25 36.625 
L 39.703125 35.296875 
Q 38.484375 40.53125 35.375 43.15625 
Q 32.28125 45.796875 27.875 45.796875 
Q 21.234375 45.796875 17.078125 41.03125 
Q 12.9375 36.28125 12.9375 25.984375 
Q 12.9375 15.53125 16.9375 10.796875 
Q 20.953125 6.0625 27.390625 6.0625 
Q 32.5625 6.0625 36.03125 9.234375 
Q 39.5 12.40625 40.4375 19 
z
" id="ArialMT-99"/>
       <path d="M 6.640625 0 
L 6.640625 71.578125 
L 15.4375 71.578125 
L 15.4375 30.765625 
L 36.234375 51.859375 
L 47.609375 51.859375 
L 27.78125 32.625 
L 49.609375 0 
L 38.765625 0 
L 21.625 26.515625 
L 15.4375 20.5625 
L 15.4375 0 
z
" id="ArialMT-107"/>
       <path d="M 12.359375 -21.046875 
L 6.0625 -21.046875 
Q 20.65625 2.390625 20.65625 25.875 
Q 20.65625 35.0625 18.5625 44.09375 
Q 16.890625 51.421875 13.921875 58.15625 
Q 12.015625 62.546875 6.0625 72.796875 
L 12.359375 72.796875 
Q 21.53125 60.546875 25.921875 48.1875 
Q 29.6875 37.546875 29.6875 25.921875 
Q 29.6875 12.75 24.625 0.4375 
Q 19.578125 -11.859375 12.359375 -21.046875 
z
" id="ArialMT-41"/>
      </defs>
      <g style="fill:#262626;" transform="translate(47.8275 325.091656)scale(0.11 -0.11)">
       <use xlink:href="#ArialMT-77"/>
       <use x="83.300781" xlink:href="#ArialMT-111"/>
       <use x="138.916016" xlink:href="#ArialMT-117"/>
       <use x="194.53125" xlink:href="#ArialMT-116"/>
       <use x="222.314453" xlink:href="#ArialMT-104"/>
       <use x="277.929688" xlink:href="#ArialMT-32"/>
       <use x="305.712891" xlink:href="#ArialMT-40"/>
       <use x="339.013672" xlink:href="#ArialMT-98"/>
       <use x="394.628906" xlink:href="#ArialMT-97"/>
       <use x="450.244141" xlink:href="#ArialMT-99"/>
       <use x="500.244141" xlink:href="#ArialMT-107"/>
       <use x="550.244141" xlink:href="#ArialMT-41"/>
      </g>
     </g>
    </g>
    <g id="xtick_2">
     <g id="text_2">
      <!-- Mouth (front) -->
      <defs>
       <path d="M 8.6875 0 
L 8.6875 45.015625 
L 0.921875 45.015625 
L 0.921875 51.859375 
L 8.6875 51.859375 
L 8.6875 57.375 
Q 8.6875 62.59375 9.625 65.140625 
Q 10.890625 68.5625 14.078125 70.671875 
Q 17.28125 72.796875 23.046875 72.796875 
Q 26.765625 72.796875 31.25 71.921875 
L 29.9375 64.265625 
Q 27.203125 64.75 24.75 64.75 
Q 20.75 64.75 19.09375 63.03125 
Q 17.4375 61.328125 17.4375 56.640625 
L 17.4375 51.859375 
L 27.546875 51.859375 
L 27.546875 45.015625 
L 17.4375 45.015625 
L 17.4375 0 
z
" id="ArialMT-102"/>
       <path d="M 6.5 0 
L 6.5 51.859375 
L 14.40625 51.859375 
L 14.40625 44 
Q 17.4375 49.515625 20 51.265625 
Q 22.5625 53.03125 25.640625 53.03125 
Q 30.078125 53.03125 34.671875 50.203125 
L 31.640625 42.046875 
Q 28.421875 43.953125 25.203125 43.953125 
Q 22.3125 43.953125 20.015625 42.21875 
Q 17.71875 40.484375 16.75 37.40625 
Q 15.28125 32.71875 15.28125 27.15625 
L 15.28125 0 
z
" id="ArialMT-114"/>
       <path d="M 6.59375 0 
L 6.59375 51.859375 
L 14.5 51.859375 
L 14.5 44.484375 
Q 20.21875 53.03125 31 53.03125 
Q 35.6875 53.03125 39.625 51.34375 
Q 43.5625 49.65625 45.515625 46.921875 
Q 47.46875 44.1875 48.25 40.4375 
Q 48.734375 37.984375 48.734375 31.890625 
L 48.734375 0 
L 39.9375 0 
L 39.9375 31.546875 
Q 39.9375 36.921875 38.90625 39.578125 
Q 37.890625 42.234375 35.28125 43.8125 
Q 32.671875 45.40625 29.15625 45.40625 
Q 23.53125 45.40625 19.453125 41.84375 
Q 15.375 38.28125 15.375 28.328125 
L 15.375 0 
z
" id="ArialMT-110"/>
      </defs>
      <g style="fill:#262626;" transform="translate(93.080234 325.091656)scale(0.11 -0.11)">
       <use xlink:href="#ArialMT-77"/>
       <use x="83.300781" xlink:href="#ArialMT-111"/>
       <use x="138.916016" xlink:href="#ArialMT-117"/>
       <use x="194.53125" xlink:href="#ArialMT-116"/>
       <use x="222.314453" xlink:href="#ArialMT-104"/>
       <use x="277.929688" xlink:href="#ArialMT-32"/>
       <use x="305.712891" xlink:href="#ArialMT-40"/>
       <use x="339.013672" xlink:href="#ArialMT-102"/>
       <use x="366.796875" xlink:href="#ArialMT-114"/>
       <use x="400.097656" xlink:href="#ArialMT-111"/>
       <use x="455.712891" xlink:href="#ArialMT-110"/>
       <use x="511.328125" xlink:href="#ArialMT-116"/>
       <use x="539.111328" xlink:href="#ArialMT-41"/>
      </g>
     </g>
    </g>
    <g id="xtick_3">
     <g id="text_3">
      <!-- Saliva -->
      <defs>
       <path d="M 4.5 23 
L 13.421875 23.78125 
Q 14.0625 18.40625 16.375 14.96875 
Q 18.703125 11.53125 23.578125 9.40625 
Q 28.46875 7.28125 34.578125 7.28125 
Q 39.984375 7.28125 44.140625 8.890625 
Q 48.296875 10.5 50.3125 13.296875 
Q 52.34375 16.109375 52.34375 19.4375 
Q 52.34375 22.796875 50.390625 25.3125 
Q 48.4375 27.828125 43.953125 29.546875 
Q 41.0625 30.671875 31.203125 33.03125 
Q 21.34375 35.40625 17.390625 37.5 
Q 12.25 40.1875 9.734375 44.15625 
Q 7.234375 48.140625 7.234375 53.078125 
Q 7.234375 58.5 10.296875 63.203125 
Q 13.375 67.921875 19.28125 70.359375 
Q 25.203125 72.796875 32.421875 72.796875 
Q 40.375 72.796875 46.453125 70.234375 
Q 52.546875 67.671875 55.8125 62.6875 
Q 59.078125 57.71875 59.328125 51.421875 
L 50.25 50.734375 
Q 49.515625 57.515625 45.28125 60.984375 
Q 41.0625 64.453125 32.8125 64.453125 
Q 24.21875 64.453125 20.28125 61.296875 
Q 16.359375 58.15625 16.359375 53.71875 
Q 16.359375 49.859375 19.140625 47.359375 
Q 21.875 44.875 33.421875 42.265625 
Q 44.96875 39.65625 49.265625 37.703125 
Q 55.515625 34.8125 58.484375 30.390625 
Q 61.46875 25.984375 61.46875 20.21875 
Q 61.46875 14.5 58.203125 9.4375 
Q 54.9375 4.390625 48.796875 1.578125 
Q 42.671875 -1.21875 35.015625 -1.21875 
Q 25.296875 -1.21875 18.71875 1.609375 
Q 12.15625 4.4375 8.421875 10.125 
Q 4.6875 15.828125 4.5 23 
z
" id="ArialMT-83"/>
       <path d="M 6.390625 0 
L 6.390625 71.578125 
L 15.1875 71.578125 
L 15.1875 0 
z
" id="ArialMT-108"/>
       <path d="M 6.640625 61.46875 
L 6.640625 71.578125 
L 15.4375 71.578125 
L 15.4375 61.46875 
z
M 6.640625 0 
L 6.640625 51.859375 
L 15.4375 51.859375 
L 15.4375 0 
z
" id="ArialMT-105"/>
       <path d="M 21 0 
L 1.265625 51.859375 
L 10.546875 51.859375 
L 21.6875 20.796875 
Q 23.484375 15.765625 25 10.359375 
Q 26.171875 14.453125 28.265625 20.21875 
L 39.796875 51.859375 
L 48.828125 51.859375 
L 29.203125 0 
z
" id="ArialMT-118"/>
      </defs>
      <g style="fill:#262626;" transform="translate(154.220234 324.957594)scale(0.11 -0.11)">
       <use xlink:href="#ArialMT-83"/>
       <use x="66.699219" xlink:href="#ArialMT-97"/>
       <use x="122.314453" xlink:href="#ArialMT-108"/>
       <use x="144.53125" xlink:href="#ArialMT-105"/>
       <use x="166.748047" xlink:href="#ArialMT-118"/>
       <use x="216.748047" xlink:href="#ArialMT-97"/>
      </g>
     </g>
    </g>
    <g id="xtick_4">
     <g id="text_4">
      <!-- Plaque -->
      <defs>
       <path d="M 7.71875 0 
L 7.71875 71.578125 
L 34.71875 71.578125 
Q 41.84375 71.578125 45.609375 70.90625 
Q 50.875 70.015625 54.4375 67.546875 
Q 58.015625 65.09375 60.1875 60.640625 
Q 62.359375 56.203125 62.359375 50.875 
Q 62.359375 41.75 56.546875 35.421875 
Q 50.734375 29.109375 35.546875 29.109375 
L 17.1875 29.109375 
L 17.1875 0 
z
M 17.1875 37.546875 
L 35.6875 37.546875 
Q 44.875 37.546875 48.734375 40.96875 
Q 52.59375 44.390625 52.59375 50.59375 
Q 52.59375 55.078125 50.3125 58.265625 
Q 48.046875 61.46875 44.34375 62.5 
Q 41.9375 63.140625 35.5 63.140625 
L 17.1875 63.140625 
z
" id="ArialMT-80"/>
       <path d="M 39.65625 -19.875 
L 39.65625 5.515625 
Q 37.59375 2.640625 33.90625 0.734375 
Q 30.21875 -1.171875 26.078125 -1.171875 
Q 16.84375 -1.171875 10.171875 6.203125 
Q 3.515625 13.578125 3.515625 26.421875 
Q 3.515625 34.234375 6.21875 40.421875 
Q 8.9375 46.625 14.078125 49.828125 
Q 19.234375 53.03125 25.390625 53.03125 
Q 35.015625 53.03125 40.53125 44.921875 
L 40.53125 51.859375 
L 48.4375 51.859375 
L 48.4375 -19.875 
z
M 12.546875 26.078125 
Q 12.546875 16.0625 16.75 11.0625 
Q 20.953125 6.0625 26.8125 6.0625 
Q 32.421875 6.0625 36.46875 10.8125 
Q 40.53125 15.578125 40.53125 25.296875 
Q 40.53125 35.640625 36.25 40.859375 
Q 31.984375 46.09375 26.21875 46.09375 
Q 20.515625 46.09375 16.53125 41.234375 
Q 12.546875 36.375 12.546875 26.078125 
z
" id="ArialMT-113"/>
       <path d="M 42.09375 16.703125 
L 51.171875 15.578125 
Q 49.03125 7.625 43.21875 3.21875 
Q 37.40625 -1.171875 28.375 -1.171875 
Q 17 -1.171875 10.328125 5.828125 
Q 3.65625 12.84375 3.65625 25.484375 
Q 3.65625 38.578125 10.390625 45.796875 
Q 17.140625 53.03125 27.875 53.03125 
Q 38.28125 53.03125 44.875 45.953125 
Q 51.46875 38.875 51.46875 26.03125 
Q 51.46875 25.25 51.421875 23.6875 
L 12.75 23.6875 
Q 13.234375 15.140625 17.578125 10.59375 
Q 21.921875 6.0625 28.421875 6.0625 
Q 33.25 6.0625 36.671875 8.59375 
Q 40.09375 11.140625 42.09375 16.703125 
z
M 13.234375 30.90625 
L 42.1875 30.90625 
Q 41.609375 37.453125 38.875 40.71875 
Q 34.671875 45.796875 27.984375 45.796875 
Q 21.921875 45.796875 17.796875 41.75 
Q 13.671875 37.703125 13.234375 30.90625 
z
" id="ArialMT-101"/>
      </defs>
      <g style="fill:#262626;" transform="translate(196.715234 324.957594)scale(0.11 -0.11)">
       <use xlink:href="#ArialMT-80"/>
       <use x="66.699219" xlink:href="#ArialMT-108"/>
       <use x="88.916016" xlink:href="#ArialMT-97"/>
       <use x="144.53125" xlink:href="#ArialMT-113"/>
       <use x="200.146484" xlink:href="#ArialMT-117"/>
       <use x="255.761719" xlink:href="#ArialMT-101"/>
      </g>
     </g>
    </g>
    <g id="xtick_5">
     <g id="text_5">
      <!-- Airways -->
      <defs>
       <path d="M -0.140625 0 
L 27.34375 71.578125 
L 37.546875 71.578125 
L 66.84375 0 
L 56.0625 0 
L 47.703125 21.6875 
L 17.78125 21.6875 
L 9.90625 0 
z
M 20.515625 29.390625 
L 44.78125 29.390625 
L 37.3125 49.21875 
Q 33.890625 58.25 32.234375 64.0625 
Q 30.859375 57.171875 28.375 50.390625 
z
" id="ArialMT-65"/>
       <path d="M 16.15625 0 
L 0.296875 51.859375 
L 9.375 51.859375 
L 17.625 21.921875 
L 20.703125 10.796875 
Q 20.90625 11.625 23.390625 21.484375 
L 31.640625 51.859375 
L 40.671875 51.859375 
L 48.4375 21.78125 
L 51.03125 11.859375 
L 54 21.875 
L 62.890625 51.859375 
L 71.4375 51.859375 
L 55.21875 0 
L 46.09375 0 
L 37.84375 31.0625 
L 35.84375 39.890625 
L 25.34375 0 
z
" id="ArialMT-119"/>
       <path d="M 6.203125 -19.96875 
L 5.21875 -11.71875 
Q 8.109375 -12.5 10.25 -12.5 
Q 13.1875 -12.5 14.9375 -11.515625 
Q 16.703125 -10.546875 17.828125 -8.796875 
Q 18.65625 -7.46875 20.515625 -2.25 
Q 20.75 -1.515625 21.296875 -0.09375 
L 1.609375 51.859375 
L 11.078125 51.859375 
L 21.875 21.828125 
Q 23.96875 16.109375 25.640625 9.8125 
Q 27.15625 15.875 29.25 21.625 
L 40.328125 51.859375 
L 49.125 51.859375 
L 29.390625 -0.875 
Q 26.21875 -9.421875 24.46875 -12.640625 
Q 22.125 -17 19.09375 -19.015625 
Q 16.0625 -21.046875 11.859375 -21.046875 
Q 9.328125 -21.046875 6.203125 -19.96875 
z
" id="ArialMT-121"/>
       <path d="M 3.078125 15.484375 
L 11.765625 16.84375 
Q 12.5 11.625 15.84375 8.84375 
Q 19.1875 6.0625 25.203125 6.0625 
Q 31.25 6.0625 34.171875 8.515625 
Q 37.109375 10.984375 37.109375 14.3125 
Q 37.109375 17.28125 34.515625 19 
Q 32.71875 20.171875 25.53125 21.96875 
Q 15.875 24.421875 12.140625 26.203125 
Q 8.40625 27.984375 6.46875 31.125 
Q 4.546875 34.28125 4.546875 38.09375 
Q 4.546875 41.546875 6.125 44.5 
Q 7.71875 47.46875 10.453125 49.421875 
Q 12.5 50.921875 16.03125 51.96875 
Q 19.578125 53.03125 23.640625 53.03125 
Q 29.734375 53.03125 34.34375 51.265625 
Q 38.96875 49.515625 41.15625 46.5 
Q 43.359375 43.5 44.1875 38.484375 
L 35.59375 37.3125 
Q 35.015625 41.3125 32.203125 43.546875 
Q 29.390625 45.796875 24.265625 45.796875 
Q 18.21875 45.796875 15.625 43.796875 
Q 13.03125 41.796875 13.03125 39.109375 
Q 13.03125 37.40625 14.109375 36.03125 
Q 15.1875 34.625 17.484375 33.6875 
Q 18.796875 33.203125 25.25 31.453125 
Q 34.578125 28.953125 38.25 27.359375 
Q 41.9375 25.78125 44.03125 22.75 
Q 46.140625 19.734375 46.140625 15.234375 
Q 46.140625 10.84375 43.578125 6.953125 
Q 41.015625 3.078125 36.171875 0.953125 
Q 31.34375 -1.171875 25.25 -1.171875 
Q 15.140625 -1.171875 9.84375 3.03125 
Q 4.546875 7.234375 3.078125 15.484375 
z
" id="ArialMT-115"/>
      </defs>
      <g style="fill:#262626;" transform="translate(239.227422 324.957594)scale(0.11 -0.11)">
       <use xlink:href="#ArialMT-65"/>
       <use x="66.699219" xlink:href="#ArialMT-105"/>
       <use x="88.916016" xlink:href="#ArialMT-114"/>
       <use x="122.216797" xlink:href="#ArialMT-119"/>
       <use x="194.433594" xlink:href="#ArialMT-97"/>
       <use x="250.048828" xlink:href="#ArialMT-121"/>
       <use x="300.048828" xlink:href="#ArialMT-115"/>
      </g>
     </g>
    </g>
    <g id="xtick_6">
     <g id="text_6">
      <!-- Skin -->
      <g style="fill:#262626;" transform="translate(292.420781 324.957594)scale(0.11 -0.11)">
       <use xlink:href="#ArialMT-83"/>
       <use x="66.699219" xlink:href="#ArialMT-107"/>
       <use x="116.699219" xlink:href="#ArialMT-105"/>
       <use x="138.916016" xlink:href="#ArialMT-110"/>
      </g>
     </g>
    </g>
    <g id="xtick_7">
     <g id="text_7">
      <!-- Stool -->
      <g style="fill:#262626;" transform="translate(335.224297 324.957594)scale(0.11 -0.11)">
       <use xlink:href="#ArialMT-83"/>
       <use x="66.699219" xlink:href="#ArialMT-116"/>
       <use x="94.482422" xlink:href="#ArialMT-111"/>
       <use x="150.097656" xlink:href="#ArialMT-111"/>
       <use x="205.712891" xlink:href="#ArialMT-108"/>
      </g>
     </g>
    </g>
    <g id="xtick_8">
     <g id="text_8">
      <!-- Vagina -->
      <defs>
       <path d="M 28.171875 0 
L 0.4375 71.578125 
L 10.6875 71.578125 
L 29.296875 19.578125 
Q 31.546875 13.328125 33.0625 7.859375 
Q 34.71875 13.71875 36.921875 19.578125 
L 56.25 71.578125 
L 65.921875 71.578125 
L 37.890625 0 
z
" id="ArialMT-86"/>
       <path d="M 4.984375 -4.296875 
L 13.53125 -5.5625 
Q 14.0625 -9.515625 16.5 -11.328125 
Q 19.78125 -13.765625 25.4375 -13.765625 
Q 31.546875 -13.765625 34.859375 -11.328125 
Q 38.1875 -8.890625 39.359375 -4.5 
Q 40.046875 -1.8125 39.984375 6.78125 
Q 34.234375 0 25.640625 0 
Q 14.9375 0 9.078125 7.71875 
Q 3.21875 15.4375 3.21875 26.21875 
Q 3.21875 33.640625 5.90625 39.90625 
Q 8.59375 46.1875 13.6875 49.609375 
Q 18.796875 53.03125 25.6875 53.03125 
Q 34.859375 53.03125 40.828125 45.609375 
L 40.828125 51.859375 
L 48.921875 51.859375 
L 48.921875 7.03125 
Q 48.921875 -5.078125 46.453125 -10.125 
Q 44 -15.1875 38.640625 -18.109375 
Q 33.296875 -21.046875 25.484375 -21.046875 
Q 16.21875 -21.046875 10.5 -16.875 
Q 4.78125 -12.703125 4.984375 -4.296875 
z
M 12.25 26.859375 
Q 12.25 16.65625 16.296875 11.96875 
Q 20.359375 7.28125 26.46875 7.28125 
Q 32.515625 7.28125 36.609375 11.9375 
Q 40.71875 16.609375 40.71875 26.5625 
Q 40.71875 36.078125 36.5 40.90625 
Q 32.28125 45.75 26.3125 45.75 
Q 20.453125 45.75 16.34375 40.984375 
Q 12.25 36.234375 12.25 26.859375 
z
" id="ArialMT-103"/>
      </defs>
      <g style="fill:#262626;" transform="translate(375.28125 324.957594)scale(0.11 -0.11)">
       <use xlink:href="#ArialMT-86"/>
       <use x="66.589844" xlink:href="#ArialMT-97"/>
       <use x="122.205078" xlink:href="#ArialMT-103"/>
       <use x="177.820312" xlink:href="#ArialMT-105"/>
       <use x="200.037109" xlink:href="#ArialMT-110"/>
       <use x="255.652344" xlink:href="#ArialMT-97"/>
      </g>
     </g>
    </g>
    <g id="text_9">
     <!-- Site -->
     <g style="fill:#262626;" transform="translate(225.82125 339.996187)scale(0.12 -0.12)">
      <use xlink:href="#ArialMT-83"/>
      <use x="66.699219" xlink:href="#ArialMT-105"/>
      <use x="88.916016" xlink:href="#ArialMT-116"/>
      <use x="116.699219" xlink:href="#ArialMT-101"/>
     </g>
    </g>
   </g>
   <g id="matplotlib.axis_2">
    <g id="ytick_1">
     <g id="line2d_1">
      <path clip-path="url(#p2c6886b62d)" d="M 57.6 282.962415 
L 414.72 282.962415 
" style="fill:none;stroke:#cccccc;stroke-linecap:round;"/>
     </g>
     <g id="text_10">
      <!-- −50 -->
      <defs>
       <path d="M 52.828125 31.203125 
L 5.5625 31.203125 
L 5.5625 39.40625 
L 52.828125 39.40625 
z
" id="ArialMT-8722"/>
       <path d="M 4.15625 18.75 
L 13.375 19.53125 
Q 14.40625 12.796875 18.140625 9.390625 
Q 21.875 6 27.15625 6 
Q 33.5 6 37.890625 10.78125 
Q 42.28125 15.578125 42.28125 23.484375 
Q 42.28125 31 38.0625 35.34375 
Q 33.84375 39.703125 27 39.703125 
Q 22.75 39.703125 19.328125 37.765625 
Q 15.921875 35.84375 13.96875 32.765625 
L 5.71875 33.84375 
L 12.640625 70.609375 
L 48.25 70.609375 
L 48.25 62.203125 
L 19.671875 62.203125 
L 15.828125 42.96875 
Q 22.265625 47.46875 29.34375 47.46875 
Q 38.71875 47.46875 45.15625 40.96875 
Q 51.609375 34.46875 51.609375 24.265625 
Q 51.609375 14.546875 45.953125 7.46875 
Q 39.0625 -1.21875 27.15625 -1.21875 
Q 17.390625 -1.21875 11.203125 4.25 
Q 5.03125 9.71875 4.15625 18.75 
z
" id="ArialMT-53"/>
       <path d="M 4.15625 35.296875 
Q 4.15625 48 6.765625 55.734375 
Q 9.375 63.484375 14.515625 67.671875 
Q 19.671875 71.875 27.484375 71.875 
Q 33.25 71.875 37.59375 69.546875 
Q 41.9375 67.234375 44.765625 62.859375 
Q 47.609375 58.5 49.21875 52.21875 
Q 50.828125 45.953125 50.828125 35.296875 
Q 50.828125 22.703125 48.234375 14.96875 
Q 45.65625 7.234375 40.5 3 
Q 35.359375 -1.21875 27.484375 -1.21875 
Q 17.140625 -1.21875 11.234375 6.203125 
Q 4.15625 15.140625 4.15625 35.296875 
z
M 13.1875 35.296875 
Q 13.1875 17.671875 17.3125 11.828125 
Q 21.4375 6 27.484375 6 
Q 33.546875 6 37.671875 11.859375 
Q 41.796875 17.71875 41.796875 35.296875 
Q 41.796875 52.984375 37.671875 58.78125 
Q 33.546875 64.59375 27.390625 64.59375 
Q 21.34375 64.59375 17.71875 59.46875 
Q 13.1875 52.9375 13.1875 35.296875 
z
" id="ArialMT-48"/>
      </defs>
      <g style="fill:#262626;" transform="translate(29.44125 286.899212)scale(0.11 -0.11)">
       <use xlink:href="#ArialMT-8722"/>
       <use x="58.398438" xlink:href="#ArialMT-53"/>
       <use x="114.013672" xlink:href="#ArialMT-48"/>
      </g>
     </g>
    </g>
    <g id="ytick_2">
     <g id="line2d_2">
      <path clip-path="url(#p2c6886b62d)" d="M 57.6 252.627527 
L 414.72 252.627527 
" style="fill:none;stroke:#cccccc;stroke-linecap:round;"/>
     </g>
     <g id="text_11">
      <!-- −25 -->
      <defs>
       <path d="M 50.34375 8.453125 
L 50.34375 0 
L 3.03125 0 
Q 2.9375 3.171875 4.046875 6.109375 
Q 5.859375 10.9375 9.828125 15.625 
Q 13.8125 20.3125 21.34375 26.46875 
Q 33.015625 36.03125 37.109375 41.625 
Q 41.21875 47.21875 41.21875 52.203125 
Q 41.21875 57.421875 37.46875 61 
Q 33.734375 64.59375 27.734375 64.59375 
Q 21.390625 64.59375 17.578125 60.78125 
Q 13.765625 56.984375 13.71875 50.25 
L 4.6875 51.171875 
Q 5.609375 61.28125 11.65625 66.578125 
Q 17.71875 71.875 27.9375 71.875 
Q 38.234375 71.875 44.234375 66.15625 
Q 50.25 60.453125 50.25 52 
Q 50.25 47.703125 48.484375 43.546875 
Q 46.734375 39.40625 42.65625 34.8125 
Q 38.578125 30.21875 29.109375 22.21875 
Q 21.1875 15.578125 18.9375 13.203125 
Q 16.703125 10.84375 15.234375 8.453125 
z
" id="ArialMT-50"/>
      </defs>
      <g style="fill:#262626;" transform="translate(29.44125 256.564324)scale(0.11 -0.11)">
       <use xlink:href="#ArialMT-8722"/>
       <use x="58.398438" xlink:href="#ArialMT-50"/>
       <use x="114.013672" xlink:href="#ArialMT-53"/>
      </g>
     </g>
    </g>
    <g id="ytick_3">
     <g id="line2d_3">
      <path clip-path="url(#p2c6886b62d)" d="M 57.6 222.29264 
L 414.72 222.29264 
" style="fill:none;stroke:#cccccc;stroke-linecap:round;"/>
     </g>
     <g id="text_12">
      <!-- 0 -->
      <g style="fill:#262626;" transform="translate(41.982969 226.229437)scale(0.11 -0.11)">
       <use xlink:href="#ArialMT-48"/>
      </g>
     </g>
    </g>
    <g id="ytick_4">
     <g id="line2d_4">
      <path clip-path="url(#p2c6886b62d)" d="M 57.6 191.957752 
L 414.72 191.957752 
" style="fill:none;stroke:#cccccc;stroke-linecap:round;"/>
     </g>
     <g id="text_13">
      <!-- 25 -->
      <g style="fill:#262626;" transform="translate(35.865938 195.894549)scale(0.11 -0.11)">
       <use xlink:href="#ArialMT-50"/>
       <use x="55.615234" xlink:href="#ArialMT-53"/>
      </g>
     </g>
    </g>
    <g id="ytick_5">
     <g id="line2d_5">
      <path clip-path="url(#p2c6886b62d)" d="M 57.6 161.622865 
L 414.72 161.622865 
" style="fill:none;stroke:#cccccc;stroke-linecap:round;"/>
     </g>
     <g id="text_14">
      <!-- 50 -->
      <g style="fill:#262626;" transform="translate(35.865938 165.559662)scale(0.11 -0.11)">
       <use xlink:href="#ArialMT-53"/>
       <use x="55.615234" xlink:href="#ArialMT-48"/>
      </g>
     </g>
    </g>
    <g id="ytick_6">
     <g id="line2d_6">
      <path clip-path="url(#p2c6886b62d)" d="M 57.6 131.287977 
L 414.72 131.287977 
" style="fill:none;stroke:#cccccc;stroke-linecap:round;"/>
     </g>
     <g id="text_15">
      <!-- 75 -->
      <defs>
       <path d="M 4.734375 62.203125 
L 4.734375 70.65625 
L 51.078125 70.65625 
L 51.078125 63.8125 
Q 44.234375 56.546875 37.515625 44.484375 
Q 30.8125 32.421875 27.15625 19.671875 
Q 24.515625 10.6875 23.78125 0 
L 14.75 0 
Q 14.890625 8.453125 18.0625 20.40625 
Q 21.234375 32.375 27.171875 43.484375 
Q 33.109375 54.59375 39.796875 62.203125 
z
" id="ArialMT-55"/>
      </defs>
      <g style="fill:#262626;" transform="translate(35.865938 135.224774)scale(0.11 -0.11)">
       <use xlink:href="#ArialMT-55"/>
       <use x="55.615234" xlink:href="#ArialMT-53"/>
      </g>
     </g>
    </g>
    <g id="ytick_7">
     <g id="line2d_7">
      <path clip-path="url(#p2c6886b62d)" d="M 57.6 100.95309 
L 414.72 100.95309 
" style="fill:none;stroke:#cccccc;stroke-linecap:round;"/>
     </g>
     <g id="text_16">
      <!-- 100 -->
      <defs>
       <path d="M 37.25 0 
L 28.46875 0 
L 28.46875 56 
Q 25.296875 52.984375 20.140625 49.953125 
Q 14.984375 46.921875 10.890625 45.40625 
L 10.890625 53.90625 
Q 18.265625 57.375 23.78125 62.296875 
Q 29.296875 67.234375 31.59375 71.875 
L 37.25 71.875 
z
" id="ArialMT-49"/>
      </defs>
      <g style="fill:#262626;" transform="translate(29.748906 104.889887)scale(0.11 -0.11)">
       <use xlink:href="#ArialMT-49"/>
       <use x="55.615234" xlink:href="#ArialMT-48"/>
       <use x="111.230469" xlink:href="#ArialMT-48"/>
      </g>
     </g>
    </g>
    <g id="ytick_8">
     <g id="line2d_8">
      <path clip-path="url(#p2c6886b62d)" d="M 57.6 70.618202 
L 414.72 70.618202 
" style="fill:none;stroke:#cccccc;stroke-linecap:round;"/>
     </g>
     <g id="text_17">
      <!-- 125 -->
      <g style="fill:#262626;" transform="translate(29.748906 74.554999)scale(0.11 -0.11)">
       <use xlink:href="#ArialMT-49"/>
       <use x="55.615234" xlink:href="#ArialMT-50"/>
       <use x="111.230469" xlink:href="#ArialMT-53"/>
      </g>
     </g>
    </g>
    <g id="text_18">
     <!-- Balance -->
     <defs>
      <path d="M 7.328125 0 
L 7.328125 71.578125 
L 34.1875 71.578125 
Q 42.390625 71.578125 47.34375 69.40625 
Q 52.296875 67.234375 55.09375 62.71875 
Q 57.90625 58.203125 57.90625 53.265625 
Q 57.90625 48.6875 55.421875 44.625 
Q 52.9375 40.578125 47.90625 38.09375 
Q 54.390625 36.1875 57.875 31.59375 
Q 61.375 27 61.375 20.75 
Q 61.375 15.71875 59.25 11.390625 
Q 57.125 7.078125 54 4.734375 
Q 50.875 2.390625 46.15625 1.1875 
Q 41.453125 0 34.625 0 
z
M 16.796875 41.5 
L 32.28125 41.5 
Q 38.578125 41.5 41.3125 42.328125 
Q 44.921875 43.40625 46.75 45.890625 
Q 48.578125 48.390625 48.578125 52.15625 
Q 48.578125 55.71875 46.875 58.421875 
Q 45.171875 61.140625 41.984375 62.140625 
Q 38.8125 63.140625 31.109375 63.140625 
L 16.796875 63.140625 
z
M 16.796875 8.453125 
L 34.625 8.453125 
Q 39.203125 8.453125 41.0625 8.796875 
Q 44.34375 9.375 46.53125 10.734375 
Q 48.734375 12.109375 50.140625 14.71875 
Q 51.5625 17.328125 51.5625 20.75 
Q 51.5625 24.75 49.515625 27.703125 
Q 47.46875 30.671875 43.828125 31.859375 
Q 40.1875 33.0625 33.34375 33.0625 
L 16.796875 33.0625 
z
" id="ArialMT-66"/>
     </defs>
     <g style="fill:#262626;" transform="translate(23.05625 196.209563)rotate(-90)scale(0.12 -0.12)">
      <use xlink:href="#ArialMT-66"/>
      <use x="66.699219" xlink:href="#ArialMT-97"/>
      <use x="122.314453" xlink:href="#ArialMT-108"/>
      <use x="144.53125" xlink:href="#ArialMT-97"/>
      <use x="200.146484" xlink:href="#ArialMT-110"/>
      <use x="255.761719" xlink:href="#ArialMT-99"/>
      <use x="305.761719" xlink:href="#ArialMT-101"/>
     </g>
    </g>
   </g>
   <g id="PolyCollection_1">
    <defs>
     <path d="M 79.924133 -50.112 
L 79.915867 -50.112 
L 79.911676 -51.298871 
L 79.905171 -52.485743 
L 79.896432 -53.672614 
L 79.886143 -54.859485 
L 79.875197 -56.046357 
L 79.863972 -57.233228 
L 79.851708 -58.420099 
L 79.836253 -59.60697 
L 79.814032 -60.793842 
L 79.779943 -61.980713 
L 79.727236 -63.167584 
L 79.647603 -64.354456 
L 79.531281 -65.541327 
L 79.366367 -66.728198 
L 79.136917 -67.91507 
L 78.821229 -69.101941 
L 78.393203 -70.288812 
L 77.828325 -71.475683 
L 77.111881 -72.662555 
L 76.2446 -73.849426 
L 75.243153 -75.036297 
L 74.137113 -76.223169 
L 72.964053 -77.41004 
L 71.761053 -78.596911 
L 70.551989 -79.783783 
L 69.338038 -80.970654 
L 68.103525 -82.157525 
L 66.839752 -83.344396 
L 65.572368 -84.531268 
L 64.371759 -85.718139 
L 63.337992 -86.90501 
L 62.569862 -88.091882 
L 62.136244 -89.278753 
L 62.064 -90.465624 
L 62.345465 -91.652496 
L 62.9556 -92.839367 
L 63.861491 -94.026238 
L 65.013813 -95.213109 
L 66.330196 -96.399981 
L 67.69517 -97.586852 
L 68.990956 -98.773723 
L 70.143398 -99.960595 
L 71.147951 -101.147466 
L 72.054006 -102.334337 
L 72.919987 -103.521209 
L 73.773368 -104.70808 
L 74.600961 -105.894951 
L 75.367993 -107.081822 
L 76.044998 -108.268694 
L 76.62218 -109.455565 
L 77.105942 -110.642436 
L 77.507154 -111.829308 
L 77.834296 -113.016179 
L 78.096054 -114.20305 
L 78.307015 -115.389922 
L 78.487609 -116.576793 
L 78.656763 -117.763664 
L 78.823969 -118.950535 
L 78.987958 -120.137407 
L 79.142244 -121.324278 
L 79.281586 -122.511149 
L 79.404025 -123.698021 
L 79.508775 -124.884892 
L 79.594048 -126.071763 
L 79.657453 -127.258635 
L 79.698154 -128.445506 
L 79.718616 -129.632377 
L 79.72489 -130.819249 
L 79.725408 -132.00612 
L 79.72846 -133.192991 
L 79.739052 -134.379862 
L 79.756909 -135.566734 
L 79.777313 -136.753605 
L 79.79455 -137.940476 
L 79.80566 -139.127348 
L 79.812055 -140.314219 
L 79.818153 -141.50109 
L 79.828251 -142.687962 
L 79.843839 -143.874833 
L 79.863014 -145.061704 
L 79.882046 -146.248575 
L 79.897656 -147.435447 
L 79.908413 -148.622318 
L 79.914686 -149.809189 
L 79.917726 -150.996061 
L 79.918731 -152.182932 
L 79.918345 -153.369803 
L 79.916616 -154.556675 
L 79.91326 -155.743546 
L 79.908139 -156.930417 
L 79.901788 -158.117288 
L 79.895631 -159.30416 
L 79.891591 -160.491031 
L 79.891145 -161.677902 
L 79.894465 -162.864774 
L 79.900313 -164.051645 
L 79.906776 -165.238516 
L 79.912261 -166.425388 
L 79.916054 -167.612259 
L 79.923946 -167.612259 
L 79.923946 -167.612259 
L 79.927739 -166.425388 
L 79.933224 -165.238516 
L 79.939687 -164.051645 
L 79.945535 -162.864774 
L 79.948855 -161.677902 
L 79.948409 -160.491031 
L 79.944369 -159.30416 
L 79.938212 -158.117288 
L 79.931861 -156.930417 
L 79.92674 -155.743546 
L 79.923384 -154.556675 
L 79.921655 -153.369803 
L 79.921269 -152.182932 
L 79.922274 -150.996061 
L 79.925314 -149.809189 
L 79.931587 -148.622318 
L 79.942344 -147.435447 
L 79.957954 -146.248575 
L 79.976986 -145.061704 
L 79.996161 -143.874833 
L 80.011749 -142.687962 
L 80.021847 -141.50109 
L 80.027945 -140.314219 
L 80.03434 -139.127348 
L 80.04545 -137.940476 
L 80.062687 -136.753605 
L 80.083091 -135.566734 
L 80.100948 -134.379862 
L 80.11154 -133.192991 
L 80.114592 -132.00612 
L 80.11511 -130.819249 
L 80.121384 -129.632377 
L 80.141846 -128.445506 
L 80.182547 -127.258635 
L 80.245952 -126.071763 
L 80.331225 -124.884892 
L 80.435975 -123.698021 
L 80.558414 -122.511149 
L 80.697756 -121.324278 
L 80.852042 -120.137407 
L 81.016031 -118.950535 
L 81.183237 -117.763664 
L 81.352391 -116.576793 
L 81.532985 -115.389922 
L 81.743946 -114.20305 
L 82.005704 -113.016179 
L 82.332846 -111.829308 
L 82.734058 -110.642436 
L 83.21782 -109.455565 
L 83.795002 -108.268694 
L 84.472007 -107.081822 
L 85.239039 -105.894951 
L 86.066632 -104.70808 
L 86.920013 -103.521209 
L 87.785994 -102.334337 
L 88.692049 -101.147466 
L 89.696602 -99.960595 
L 90.849044 -98.773723 
L 92.14483 -97.586852 
L 93.509804 -96.399981 
L 94.826187 -95.213109 
L 95.978509 -94.026238 
L 96.8844 -92.839367 
L 97.494535 -91.652496 
L 97.776 -90.465624 
L 97.703756 -89.278753 
L 97.270138 -88.091882 
L 96.502008 -86.90501 
L 95.468241 -85.718139 
L 94.267632 -84.531268 
L 93.000248 -83.344396 
L 91.736475 -82.157525 
L 90.501962 -80.970654 
L 89.288011 -79.783783 
L 88.078947 -78.596911 
L 86.875947 -77.41004 
L 85.702887 -76.223169 
L 84.596847 -75.036297 
L 83.5954 -73.849426 
L 82.728119 -72.662555 
L 82.011675 -71.475683 
L 81.446797 -70.288812 
L 81.018771 -69.101941 
L 80.703083 -67.91507 
L 80.473633 -66.728198 
L 80.308719 -65.541327 
L 80.192397 -64.354456 
L 80.112764 -63.167584 
L 80.060057 -61.980713 
L 80.025968 -60.793842 
L 80.003747 -59.60697 
L 79.988292 -58.420099 
L 79.976028 -57.233228 
L 79.964803 -56.046357 
L 79.953857 -54.859485 
L 79.943568 -53.672614 
L 79.934829 -52.485743 
L 79.928324 -51.298871 
L 79.924133 -50.112 
z
" id="ma9c2dab0fc" style="stroke:#3e3e3e;stroke-width:0.5;"/>
    </defs>
    <g clip-path="url(#p2c6886b62d)">
     <use style="fill:#df7f20;stroke:#3e3e3e;stroke-width:0.5;" x="0" xlink:href="#ma9c2dab0fc" y="345.6"/>
    </g>
   </g>
   <g id="PolyCollection_2">
    <defs>
     <path d="M 124.568446 -50.570139 
L 124.551554 -50.570139 
L 124.5418 -51.714582 
L 124.525076 -52.859024 
L 124.499573 -54.003467 
L 124.464183 -55.147909 
L 124.418103 -56.292352 
L 124.360082 -57.436794 
L 124.288229 -58.581237 
L 124.200778 -59.725679 
L 124.096598 -60.870121 
L 123.973417 -62.014564 
L 123.823184 -63.159006 
L 123.627237 -64.303449 
L 123.356097 -65.447891 
L 122.976641 -66.592334 
L 122.463289 -67.736776 
L 121.805065 -68.881219 
L 121.003208 -70.025661 
L 120.063152 -71.170104 
L 118.990382 -72.314546 
L 117.794235 -73.458989 
L 116.492727 -74.603431 
L 115.109305 -75.747874 
L 113.664113 -76.892316 
L 112.174551 -78.036758 
L 110.674578 -79.181201 
L 109.241131 -80.325643 
L 108.002163 -81.470086 
L 107.111892 -82.614528 
L 106.704 -83.758971 
L 106.846989 -84.903413 
L 107.519709 -86.047856 
L 108.613871 -87.192298 
L 109.964358 -88.336741 
L 111.399836 -89.481183 
L 112.792238 -90.625626 
L 114.079842 -91.770068 
L 115.256082 -92.914511 
L 116.339964 -94.058953 
L 117.350807 -95.203395 
L 118.297662 -96.347838 
L 119.179331 -97.49228 
L 119.987281 -98.636723 
L 120.708477 -99.781165 
L 121.329362 -100.925608 
L 121.841679 -102.07005 
L 122.248017 -103.214493 
L 122.563683 -104.358935 
L 122.813113 -105.503378 
L 123.022251 -106.64782 
L 123.210718 -107.792263 
L 123.387469 -108.936705 
L 123.551485 -110.081147 
L 123.696664 -111.22559 
L 123.818151 -112.370032 
L 123.916414 -113.514475 
L 123.996734 -114.658917 
L 124.065352 -115.80336 
L 124.126243 -116.947802 
L 124.181049 -118.092245 
L 124.23091 -119.236687 
L 124.277335 -120.38113 
L 124.321327 -121.525572 
L 124.362353 -122.670015 
L 124.398583 -123.814457 
L 124.428183 -124.9589 
L 124.450594 -126.103342 
L 124.466936 -127.247784 
L 124.479232 -128.392227 
L 124.488857 -129.536669 
L 124.495503 -130.681112 
L 124.497772 -131.825554 
L 124.495117 -132.969997 
L 124.489354 -134.114439 
L 124.484259 -135.258882 
L 124.483502 -136.403324 
L 124.488565 -137.547767 
L 124.498052 -138.692209 
L 124.508519 -139.836652 
L 124.516129 -140.981094 
L 124.518386 -142.125536 
L 124.515346 -143.269979 
L 124.509729 -144.414421 
L 124.505641 -145.558864 
L 124.506437 -146.703306 
L 124.512994 -147.847749 
L 124.523461 -148.992191 
L 124.534503 -150.136634 
L 124.54299 -151.281076 
L 124.547105 -152.425519 
L 124.5466 -153.569961 
L 124.542594 -154.714404 
L 124.537235 -155.858846 
L 124.533092 -157.003289 
L 124.532184 -158.147731 
L 124.535064 -159.292173 
L 124.540657 -160.436616 
L 124.547024 -161.581058 
L 124.552472 -162.725501 
L 124.556224 -163.869943 
L 124.563776 -163.869943 
L 124.563776 -163.869943 
L 124.567528 -162.725501 
L 124.572976 -161.581058 
L 124.579343 -160.436616 
L 124.584936 -159.292173 
L 124.587816 -158.147731 
L 124.586908 -157.003289 
L 124.582765 -155.858846 
L 124.577406 -154.714404 
L 124.5734 -153.569961 
L 124.572895 -152.425519 
L 124.57701 -151.281076 
L 124.585497 -150.136634 
L 124.596539 -148.992191 
L 124.607006 -147.847749 
L 124.613563 -146.703306 
L 124.614359 -145.558864 
L 124.610271 -144.414421 
L 124.604654 -143.269979 
L 124.601614 -142.125536 
L 124.603871 -140.981094 
L 124.611481 -139.836652 
L 124.621948 -138.692209 
L 124.631435 -137.547767 
L 124.636498 -136.403324 
L 124.635741 -135.258882 
L 124.630646 -134.114439 
L 124.624883 -132.969997 
L 124.622228 -131.825554 
L 124.624497 -130.681112 
L 124.631143 -129.536669 
L 124.640768 -128.392227 
L 124.653064 -127.247784 
L 124.669406 -126.103342 
L 124.691817 -124.9589 
L 124.721417 -123.814457 
L 124.757647 -122.670015 
L 124.798673 -121.525572 
L 124.842665 -120.38113 
L 124.88909 -119.236687 
L 124.938951 -118.092245 
L 124.993757 -116.947802 
L 125.054648 -115.80336 
L 125.123266 -114.658917 
L 125.203586 -113.514475 
L 125.301849 -112.370032 
L 125.423336 -111.22559 
L 125.568515 -110.081147 
L 125.732531 -108.936705 
L 125.909282 -107.792263 
L 126.097749 -106.64782 
L 126.306887 -105.503378 
L 126.556317 -104.358935 
L 126.871983 -103.214493 
L 127.278321 -102.07005 
L 127.790638 -100.925608 
L 128.411523 -99.781165 
L 129.132719 -98.636723 
L 129.940669 -97.49228 
L 130.822338 -96.347838 
L 131.769193 -95.203395 
L 132.780036 -94.058953 
L 133.863918 -92.914511 
L 135.040158 -91.770068 
L 136.327762 -90.625626 
L 137.720164 -89.481183 
L 139.155642 -88.336741 
L 140.506129 -87.192298 
L 141.600291 -86.047856 
L 142.273011 -84.903413 
L 142.416 -83.758971 
L 142.008108 -82.614528 
L 141.117837 -81.470086 
L 139.878869 -80.325643 
L 138.445422 -79.181201 
L 136.945449 -78.036758 
L 135.455887 -76.892316 
L 134.010695 -75.747874 
L 132.627273 -74.603431 
L 131.325765 -73.458989 
L 130.129618 -72.314546 
L 129.056848 -71.170104 
L 128.116792 -70.025661 
L 127.314935 -68.881219 
L 126.656711 -67.736776 
L 126.143359 -66.592334 
L 125.763903 -65.447891 
L 125.492763 -64.303449 
L 125.296816 -63.159006 
L 125.146583 -62.014564 
L 125.023402 -60.870121 
L 124.919222 -59.725679 
L 124.831771 -58.581237 
L 124.759918 -57.436794 
L 124.701897 -56.292352 
L 124.655817 -55.147909 
L 124.620427 -54.003467 
L 124.594924 -52.859024 
L 124.5782 -51.714582 
L 124.568446 -50.570139 
z
" id="m61d7d5a502" style="stroke:#3e3e3e;stroke-width:0.5;"/>
    </defs>
    <g clip-path="url(#p2c6886b62d)">
     <use style="fill:#905998;stroke:#3e3e3e;stroke-width:0.5;" x="0" xlink:href="#m61d7d5a502" y="345.6"/>
    </g>
   </g>
   <g id="PolyCollection_3">
    <defs>
     <path d="M 169.236132 -63.637075 
L 169.163868 -63.637075 
L 169.129785 -64.716351 
L 169.072078 -65.795627 
L 168.981014 -66.874903 
L 168.846718 -67.954178 
L 168.660858 -69.033454 
L 168.417909 -70.11273 
L 168.11513 -71.192006 
L 167.7509 -72.271281 
L 167.321968 -73.350557 
L 166.821174 -74.429833 
L 166.237269 -75.509109 
L 165.557609 -76.588384 
L 164.772793 -77.66766 
L 163.881073 -78.746936 
L 162.890265 -79.826212 
L 161.816417 -80.905487 
L 160.68055 -81.984763 
L 159.506 -83.064039 
L 158.31818 -84.143315 
L 157.146142 -85.22259 
L 156.023189 -86.301866 
L 154.983833 -87.381142 
L 154.057217 -88.460418 
L 153.2606 -89.539693 
L 152.597878 -90.618969 
L 152.065727 -91.698245 
L 151.665235 -92.777521 
L 151.412864 -93.856796 
L 151.344 -94.936072 
L 151.505508 -96.015348 
L 151.938981 -97.094624 
L 152.660969 -98.173899 
L 153.648369 -99.253175 
L 154.835537 -100.332451 
L 156.12527 -101.411727 
L 157.410481 -102.491002 
L 158.599188 -103.570278 
L 159.634116 -104.649554 
L 160.500366 -105.72883 
L 161.219436 -106.808105 
L 161.833329 -107.887381 
L 162.386018 -108.966657 
L 162.909523 -110.045932 
L 163.418581 -111.125208 
L 163.913314 -112.204484 
L 164.386156 -113.28376 
L 164.828662 -114.363035 
L 165.235577 -115.442311 
L 165.605804 -116.521587 
L 165.941511 -117.600863 
L 166.246837 -118.680138 
L 166.526973 -119.759414 
L 166.78754 -120.83869 
L 167.033758 -121.917966 
L 167.269192 -122.997241 
L 167.494441 -124.076517 
L 167.706686 -125.155793 
L 167.900799 -126.235069 
L 168.07188 -127.314344 
L 168.218029 -128.39362 
L 168.341774 -129.472896 
L 168.449197 -130.552172 
L 168.547201 -131.631447 
L 168.640509 -132.710723 
L 168.730098 -133.789999 
L 168.813794 -134.869275 
L 168.888371 -135.94855 
L 168.951716 -137.027826 
L 169.003843 -138.107102 
L 169.046484 -139.186378 
L 169.08189 -140.265653 
L 169.11175 -141.344929 
L 169.136801 -142.424205 
L 169.157111 -143.503481 
L 169.172629 -144.582756 
L 169.183575 -145.662032 
L 169.190501 -146.741308 
L 169.194055 -147.820584 
L 169.194641 -148.899859 
L 169.192102 -149.979135 
L 169.18553 -151.058411 
L 169.173259 -152.137687 
L 169.153136 -153.216962 
L 169.123122 -154.296238 
L 169.08221 -155.375514 
L 169.031476 -156.45479 
L 168.974866 -157.534065 
L 168.919223 -158.613341 
L 168.873232 -159.692617 
L 168.845343 -160.771893 
L 168.841289 -161.851168 
L 168.862184 -162.930444 
L 168.904038 -164.00972 
L 168.958991 -165.088995 
L 169.017731 -166.168271 
L 169.072079 -167.247547 
L 169.116744 -168.326823 
L 169.14978 -169.406098 
L 169.17194 -170.485374 
L 169.22806 -170.485374 
L 169.22806 -170.485374 
L 169.25022 -169.406098 
L 169.283256 -168.326823 
L 169.327921 -167.247547 
L 169.382269 -166.168271 
L 169.441009 -165.088995 
L 169.495962 -164.00972 
L 169.537816 -162.930444 
L 169.558711 -161.851168 
L 169.554657 -160.771893 
L 169.526768 -159.692617 
L 169.480777 -158.613341 
L 169.425134 -157.534065 
L 169.368524 -156.45479 
L 169.31779 -155.375514 
L 169.276878 -154.296238 
L 169.246864 -153.216962 
L 169.226741 -152.137687 
L 169.21447 -151.058411 
L 169.207898 -149.979135 
L 169.205359 -148.899859 
L 169.205945 -147.820584 
L 169.209499 -146.741308 
L 169.216425 -145.662032 
L 169.227371 -144.582756 
L 169.242889 -143.503481 
L 169.263199 -142.424205 
L 169.28825 -141.344929 
L 169.31811 -140.265653 
L 169.353516 -139.186378 
L 169.396157 -138.107102 
L 169.448284 -137.027826 
L 169.511629 -135.94855 
L 169.586206 -134.869275 
L 169.669902 -133.789999 
L 169.759491 -132.710723 
L 169.852799 -131.631447 
L 169.950803 -130.552172 
L 170.058226 -129.472896 
L 170.181971 -128.39362 
L 170.32812 -127.314344 
L 170.499201 -126.235069 
L 170.693314 -125.155793 
L 170.905559 -124.076517 
L 171.130808 -122.997241 
L 171.366242 -121.917966 
L 171.61246 -120.83869 
L 171.873027 -119.759414 
L 172.153163 -118.680138 
L 172.458489 -117.600863 
L 172.794196 -116.521587 
L 173.164423 -115.442311 
L 173.571338 -114.363035 
L 174.013844 -113.28376 
L 174.486686 -112.204484 
L 174.981419 -111.125208 
L 175.490477 -110.045932 
L 176.013982 -108.966657 
L 176.566671 -107.887381 
L 177.180564 -106.808105 
L 177.899634 -105.72883 
L 178.765884 -104.649554 
L 179.800812 -103.570278 
L 180.989519 -102.491002 
L 182.27473 -101.411727 
L 183.564463 -100.332451 
L 184.751631 -99.253175 
L 185.739031 -98.173899 
L 186.461019 -97.094624 
L 186.894492 -96.015348 
L 187.056 -94.936072 
L 186.987136 -93.856796 
L 186.734765 -92.777521 
L 186.334273 -91.698245 
L 185.802122 -90.618969 
L 185.1394 -89.539693 
L 184.342783 -88.460418 
L 183.416167 -87.381142 
L 182.376811 -86.301866 
L 181.253858 -85.22259 
L 180.08182 -84.143315 
L 178.894 -83.064039 
L 177.71945 -81.984763 
L 176.583583 -80.905487 
L 175.509735 -79.826212 
L 174.518927 -78.746936 
L 173.627207 -77.66766 
L 172.842391 -76.588384 
L 172.162731 -75.509109 
L 171.578826 -74.429833 
L 171.078032 -73.350557 
L 170.6491 -72.271281 
L 170.28487 -71.192006 
L 169.982091 -70.11273 
L 169.739142 -69.033454 
L 169.553282 -67.954178 
L 169.418986 -66.874903 
L 169.327922 -65.795627 
L 169.270215 -64.716351 
L 169.236132 -63.637075 
z
" id="mddfc857390" style="stroke:#3e3e3e;stroke-width:0.5;"/>
    </defs>
    <g clip-path="url(#p2c6886b62d)">
     <use style="fill:#cb3335;stroke:#3e3e3e;stroke-width:0.5;" x="0" xlink:href="#mddfc857390" y="345.6"/>
    </g>
   </g>
   <g id="PolyCollection_4">
    <defs>
     <path d="M 213.849095 -57.537962 
L 213.830905 -57.537962 
L 213.813971 -59.667635 
L 213.773915 -61.797307 
L 213.688733 -63.92698 
L 213.52486 -66.056653 
L 213.240284 -68.186325 
L 212.794168 -70.315998 
L 212.152999 -72.445671 
L 211.276871 -74.575343 
L 210.091998 -76.705016 
L 208.494836 -78.834688 
L 206.427605 -80.964361 
L 203.985987 -83.094034 
L 201.450056 -85.223706 
L 199.179893 -87.353379 
L 197.45466 -89.483051 
L 196.391424 -91.612724 
L 195.984 -93.742397 
L 196.180716 -95.872069 
L 196.916685 -98.001742 
L 198.102528 -100.131415 
L 199.618944 -102.261087 
L 201.333083 -104.39076 
L 203.116381 -106.520432 
L 204.855889 -108.650105 
L 206.466514 -110.779778 
L 207.897741 -112.90945 
L 209.123542 -115.039123 
L 210.126991 -117.168796 
L 210.903424 -119.298468 
L 211.481283 -121.428141 
L 211.927379 -123.557813 
L 212.314404 -125.687486 
L 212.67775 -127.817159 
L 213.006254 -129.946831 
L 213.270532 -132.076504 
L 213.454345 -134.206177 
L 213.564165 -136.335849 
L 213.620723 -138.465522 
L 213.647101 -140.595194 
L 213.66212 -142.724867 
L 213.678957 -144.85454 
L 213.704517 -146.984212 
L 213.737854 -149.113885 
L 213.771078 -151.243557 
L 213.794852 -153.37323 
L 213.804727 -155.502903 
L 213.803266 -157.632575 
L 213.797052 -159.762248 
L 213.79167 -161.891921 
L 213.788822 -164.021593 
L 213.7875 -166.151266 
L 213.786627 -168.280938 
L 213.785463 -170.410611 
L 213.782565 -172.540284 
L 213.776856 -174.669956 
L 213.770307 -176.799629 
L 213.767957 -178.929302 
L 213.774024 -181.058974 
L 213.78814 -183.188647 
L 213.805584 -185.318319 
L 213.820903 -187.447992 
L 213.8312 -189.577665 
L 213.836646 -191.707337 
L 213.838921 -193.83701 
L 213.839574 -195.966683 
L 213.839301 -198.096355 
L 213.837863 -200.226028 
L 213.834284 -202.3557 
L 213.827541 -204.485373 
L 213.817955 -206.615046 
L 213.80834 -208.744718 
L 213.803098 -210.874391 
L 213.80509 -213.004063 
L 213.813195 -215.133736 
L 213.823296 -217.263409 
L 213.831551 -219.393081 
L 213.836532 -221.522754 
L 213.838844 -223.652427 
L 213.839686 -225.782099 
L 213.839922 -227.911772 
L 213.839936 -230.041444 
L 213.839751 -232.171117 
L 213.839051 -234.30079 
L 213.837034 -236.430462 
L 213.832423 -238.560135 
L 213.824098 -240.689808 
L 213.812265 -242.81948 
L 213.798905 -244.949153 
L 213.7863 -247.078825 
L 213.774798 -249.208498 
L 213.762873 -251.338171 
L 213.750195 -253.467843 
L 213.740339 -255.597516 
L 213.739471 -257.727189 
L 213.751393 -259.856861 
L 213.773553 -261.986534 
L 213.798323 -264.116206 
L 213.818371 -266.245879 
L 213.830777 -268.375552 
L 213.849223 -268.375552 
L 213.849223 -268.375552 
L 213.861629 -266.245879 
L 213.881677 -264.116206 
L 213.906447 -261.986534 
L 213.928607 -259.856861 
L 213.940529 -257.727189 
L 213.939661 -255.597516 
L 213.929805 -253.467843 
L 213.917127 -251.338171 
L 213.905202 -249.208498 
L 213.8937 -247.078825 
L 213.881095 -244.949153 
L 213.867735 -242.81948 
L 213.855902 -240.689808 
L 213.847577 -238.560135 
L 213.842966 -236.430462 
L 213.840949 -234.30079 
L 213.840249 -232.171117 
L 213.840064 -230.041444 
L 213.840078 -227.911772 
L 213.840314 -225.782099 
L 213.841156 -223.652427 
L 213.843468 -221.522754 
L 213.848449 -219.393081 
L 213.856704 -217.263409 
L 213.866805 -215.133736 
L 213.87491 -213.004063 
L 213.876902 -210.874391 
L 213.87166 -208.744718 
L 213.862045 -206.615046 
L 213.852459 -204.485373 
L 213.845716 -202.3557 
L 213.842137 -200.226028 
L 213.840699 -198.096355 
L 213.840426 -195.966683 
L 213.841079 -193.83701 
L 213.843354 -191.707337 
L 213.8488 -189.577665 
L 213.859097 -187.447992 
L 213.874416 -185.318319 
L 213.89186 -183.188647 
L 213.905976 -181.058974 
L 213.912043 -178.929302 
L 213.909693 -176.799629 
L 213.903144 -174.669956 
L 213.897435 -172.540284 
L 213.894537 -170.410611 
L 213.893373 -168.280938 
L 213.8925 -166.151266 
L 213.891178 -164.021593 
L 213.88833 -161.891921 
L 213.882948 -159.762248 
L 213.876734 -157.632575 
L 213.875273 -155.502903 
L 213.885148 -153.37323 
L 213.908922 -151.243557 
L 213.942146 -149.113885 
L 213.975483 -146.984212 
L 214.001043 -144.85454 
L 214.01788 -142.724867 
L 214.032899 -140.595194 
L 214.059277 -138.465522 
L 214.115835 -136.335849 
L 214.225655 -134.206177 
L 214.409468 -132.076504 
L 214.673746 -129.946831 
L 215.00225 -127.817159 
L 215.365596 -125.687486 
L 215.752621 -123.557813 
L 216.198717 -121.428141 
L 216.776576 -119.298468 
L 217.553009 -117.168796 
L 218.556458 -115.039123 
L 219.782259 -112.90945 
L 221.213486 -110.779778 
L 222.824111 -108.650105 
L 224.563619 -106.520432 
L 226.346917 -104.39076 
L 228.061056 -102.261087 
L 229.577472 -100.131415 
L 230.763315 -98.001742 
L 231.499284 -95.872069 
L 231.696 -93.742397 
L 231.288576 -91.612724 
L 230.22534 -89.483051 
L 228.500107 -87.353379 
L 226.229944 -85.223706 
L 223.694013 -83.094034 
L 221.252395 -80.964361 
L 219.185164 -78.834688 
L 217.588002 -76.705016 
L 216.403129 -74.575343 
L 215.527001 -72.445671 
L 214.885832 -70.315998 
L 214.439716 -68.186325 
L 214.15514 -66.056653 
L 213.991267 -63.92698 
L 213.906085 -61.797307 
L 213.866029 -59.667635 
L 213.849095 -57.537962 
z
" id="mefcc126b38" style="stroke:#3e3e3e;stroke-width:0.5;"/>
    </defs>
    <g clip-path="url(#p2c6886b62d)">
     <use style="fill:#59a257;stroke:#3e3e3e;stroke-width:0.5;" x="0" xlink:href="#mefcc126b38" y="345.6"/>
    </g>
   </g>
   <g id="PolyCollection_5">
    <defs>
     <path d="M 258.507812 -69.643139 
L 258.452188 -69.643139 
L 258.430145 -71.252363 
L 258.395747 -72.861588 
L 258.345426 -74.470812 
L 258.276182 -76.080036 
L 258.186108 -77.689261 
L 258.074527 -79.298485 
L 257.941537 -80.90771 
L 257.787029 -82.516934 
L 257.609529 -84.126159 
L 257.405403 -85.735383 
L 257.168902 -87.344607 
L 256.893211 -88.953832 
L 256.572284 -90.563056 
L 256.202913 -92.172281 
L 255.786365 -93.781505 
L 255.329011 -95.39073 
L 254.841603 -96.999954 
L 254.337198 -98.609178 
L 253.828169 -100.218403 
L 253.323095 -101.827627 
L 252.824464 -103.436852 
L 252.327904 -105.046076 
L 251.823115 -106.655301 
L 251.296118 -108.264525 
L 250.73206 -109.873749 
L 250.117794 -111.482974 
L 249.443724 -113.092198 
L 248.704829 -114.701423 
L 247.90127 -116.310647 
L 247.039176 -117.919872 
L 246.13192 -119.529096 
L 245.201397 -121.13832 
L 244.278054 -122.747545 
L 243.398381 -124.356769 
L 242.599783 -125.965994 
L 241.914458 -127.575218 
L 241.365023 -129.184443 
L 240.963899 -130.793667 
L 240.716256 -132.402891 
L 240.624 -134.012116 
L 240.687681 -135.62134 
L 240.904913 -137.230565 
L 241.266643 -138.839789 
L 241.754475 -140.449014 
L 242.341756 -142.058238 
L 242.998736 -143.667462 
L 243.699418 -145.276687 
L 244.426586 -146.885911 
L 245.172591 -148.495136 
L 245.935915 -150.10436 
L 246.715864 -151.713585 
L 247.508518 -153.322809 
L 248.306032 -154.932033 
L 249.099216 -156.541258 
L 249.881356 -158.150482 
L 250.650607 -159.759707 
L 251.409281 -161.368931 
L 252.160272 -162.978155 
L 252.902583 -164.58738 
L 253.628414 -166.196604 
L 254.323421 -167.805829 
L 254.970032 -169.415053 
L 255.552247 -171.024278 
L 256.059707 -172.633502 
L 256.489385 -174.242726 
L 256.844494 -175.851951 
L 257.131576 -177.461175 
L 257.357459 -179.0704 
L 257.52766 -180.679624 
L 257.646864 -182.288849 
L 257.720931 -183.898073 
L 257.759014 -185.507297 
L 257.774304 -187.116522 
L 257.782621 -188.725746 
L 257.799213 -190.334971 
L 257.83505 -191.944195 
L 257.894206 -193.55342 
L 257.973372 -195.162644 
L 258.063582 -196.771868 
L 258.153348 -198.381093 
L 258.231944 -199.990317 
L 258.291829 -201.599542 
L 258.32971 -203.208766 
L 258.346379 -204.817991 
L 258.345767 -206.427215 
L 258.333677 -208.036439 
L 258.316547 -209.645664 
L 258.300395 -211.254888 
L 258.29001 -212.864113 
L 258.288414 -214.473337 
L 258.296638 -216.082562 
L 258.313822 -217.691786 
L 258.337619 -219.30101 
L 258.364848 -220.910235 
L 258.392229 -222.519459 
L 258.417053 -224.128684 
L 258.437591 -225.737908 
L 258.453199 -227.347133 
L 258.464134 -228.956357 
L 258.495866 -228.956357 
L 258.495866 -228.956357 
L 258.506801 -227.347133 
L 258.522409 -225.737908 
L 258.542947 -224.128684 
L 258.567771 -222.519459 
L 258.595152 -220.910235 
L 258.622381 -219.30101 
L 258.646178 -217.691786 
L 258.663362 -216.082562 
L 258.671586 -214.473337 
L 258.66999 -212.864113 
L 258.659605 -211.254888 
L 258.643453 -209.645664 
L 258.626323 -208.036439 
L 258.614233 -206.427215 
L 258.613621 -204.817991 
L 258.63029 -203.208766 
L 258.668171 -201.599542 
L 258.728056 -199.990317 
L 258.806652 -198.381093 
L 258.896418 -196.771868 
L 258.986628 -195.162644 
L 259.065794 -193.55342 
L 259.12495 -191.944195 
L 259.160787 -190.334971 
L 259.177379 -188.725746 
L 259.185696 -187.116522 
L 259.200986 -185.507297 
L 259.239069 -183.898073 
L 259.313136 -182.288849 
L 259.43234 -180.679624 
L 259.602541 -179.0704 
L 259.828424 -177.461175 
L 260.115506 -175.851951 
L 260.470615 -174.242726 
L 260.900293 -172.633502 
L 261.407753 -171.024278 
L 261.989968 -169.415053 
L 262.636579 -167.805829 
L 263.331586 -166.196604 
L 264.057417 -164.58738 
L 264.799728 -162.978155 
L 265.550719 -161.368931 
L 266.309393 -159.759707 
L 267.078644 -158.150482 
L 267.860784 -156.541258 
L 268.653968 -154.932033 
L 269.451482 -153.322809 
L 270.244136 -151.713585 
L 271.024085 -150.10436 
L 271.787409 -148.495136 
L 272.533414 -146.885911 
L 273.260582 -145.276687 
L 273.961264 -143.667462 
L 274.618244 -142.058238 
L 275.205525 -140.449014 
L 275.693357 -138.839789 
L 276.055087 -137.230565 
L 276.272319 -135.62134 
L 276.336 -134.012116 
L 276.243744 -132.402891 
L 275.996101 -130.793667 
L 275.594977 -129.184443 
L 275.045542 -127.575218 
L 274.360217 -125.965994 
L 273.561619 -124.356769 
L 272.681946 -122.747545 
L 271.758603 -121.13832 
L 270.82808 -119.529096 
L 269.920824 -117.919872 
L 269.05873 -116.310647 
L 268.255171 -114.701423 
L 267.516276 -113.092198 
L 266.842206 -111.482974 
L 266.22794 -109.873749 
L 265.663882 -108.264525 
L 265.136885 -106.655301 
L 264.632096 -105.046076 
L 264.135536 -103.436852 
L 263.636905 -101.827627 
L 263.131831 -100.218403 
L 262.622802 -98.609178 
L 262.118397 -96.999954 
L 261.630989 -95.39073 
L 261.173635 -93.781505 
L 260.757087 -92.172281 
L 260.387716 -90.563056 
L 260.066789 -88.953832 
L 259.791098 -87.344607 
L 259.554597 -85.735383 
L 259.350471 -84.126159 
L 259.172971 -82.516934 
L 259.018463 -80.90771 
L 258.885473 -79.298485 
L 258.773892 -77.689261 
L 258.683818 -76.080036 
L 258.614574 -74.470812 
L 258.564253 -72.861588 
L 258.529855 -71.252363 
L 258.507812 -69.643139 
z
" id="m2052e57e64" style="stroke:#3e3e3e;stroke-width:0.5;"/>
    </defs>
    <g clip-path="url(#p2c6886b62d)">
     <use style="fill:#999999;stroke:#3e3e3e;stroke-width:0.5;" x="0" xlink:href="#m2052e57e64" y="345.6"/>
    </g>
   </g>
   <g id="PolyCollection_6">
    <defs>
     <path d="M 303.129462 -63.011478 
L 303.110538 -63.011478 
L 303.102022 -64.821928 
L 303.087978 -66.632378 
L 303.066235 -68.442828 
L 303.03439 -70.253278 
L 302.989954 -72.063728 
L 302.930542 -73.874178 
L 302.854192 -75.684629 
L 302.75978 -77.495079 
L 302.647383 -79.305529 
L 302.518277 -81.115979 
L 302.374409 -82.926429 
L 302.21749 -84.736879 
L 302.048244 -86.547329 
L 301.866232 -88.357779 
L 301.670196 -90.16823 
L 301.458267 -91.97868 
L 301.227339 -93.78913 
L 300.971509 -95.59958 
L 300.680493 -97.41003 
L 300.339401 -99.22048 
L 299.930879 -101.03093 
L 299.439431 -102.84138 
L 298.856481 -104.651831 
L 298.184058 -106.462281 
L 297.435317 -108.272731 
L 296.631386 -110.083181 
L 295.79559 -111.893631 
L 294.947339 -113.704081 
L 294.098092 -115.514531 
L 293.250698 -117.324982 
L 292.401821 -119.135432 
L 291.545936 -120.945882 
L 290.679378 -122.756332 
L 289.803686 -124.566782 
L 288.928253 -126.377232 
L 288.072275 -128.187682 
L 287.265273 -129.998132 
L 286.545094 -131.808583 
L 285.952881 -133.619033 
L 285.526111 -135.429483 
L 285.292068 -137.239933 
L 285.264 -139.050383 
L 285.440643 -140.860833 
L 285.808094 -142.671283 
L 286.342452 -144.481733 
L 287.012393 -146.292184 
L 287.781896 -148.102634 
L 288.613631 -149.913084 
L 289.472933 -151.723534 
L 290.33166 -153.533984 
L 291.171099 -155.344434 
L 291.983365 -157.154884 
L 292.77107 -158.965335 
L 293.545128 -160.775785 
L 294.320792 -162.586235 
L 295.112442 -164.396685 
L 295.928119 -166.207135 
L 296.765181 -168.017585 
L 297.608568 -169.828035 
L 298.432794 -171.638485 
L 299.207602 -173.448936 
L 299.905489 -175.259386 
L 300.508164 -177.069836 
L 301.009388 -178.880286 
L 301.413634 -180.690736 
L 301.732138 -182.501186 
L 301.978786 -184.311636 
L 302.167493 -186.122087 
L 302.311177 -187.932537 
L 302.421442 -189.742987 
L 302.508093 -191.553437 
L 302.578383 -193.363887 
L 302.636532 -195.174337 
L 302.684129 -196.984787 
L 302.721472 -198.795237 
L 302.749263 -200.605688 
L 302.769777 -202.416138 
L 302.786913 -204.226588 
L 302.805168 -206.037038 
L 302.82816 -207.847488 
L 302.857473 -209.657938 
L 302.892362 -211.468388 
L 302.930296 -213.278838 
L 302.967965 -215.089289 
L 303.002248 -216.899739 
L 303.030849 -218.710189 
L 303.052562 -220.520639 
L 303.067297 -222.331089 
L 303.075982 -224.141539 
L 303.080318 -225.951989 
L 303.082394 -227.76244 
L 303.084165 -229.57289 
L 303.086976 -231.38334 
L 303.0913 -233.19379 
L 303.096804 -235.00424 
L 303.102692 -236.81469 
L 303.10812 -238.62514 
L 303.112512 -240.43559 
L 303.115671 -242.246041 
L 303.124329 -242.246041 
L 303.124329 -242.246041 
L 303.127488 -240.43559 
L 303.13188 -238.62514 
L 303.137308 -236.81469 
L 303.143196 -235.00424 
L 303.1487 -233.19379 
L 303.153024 -231.38334 
L 303.155835 -229.57289 
L 303.157606 -227.76244 
L 303.159682 -225.951989 
L 303.164018 -224.141539 
L 303.172703 -222.331089 
L 303.187438 -220.520639 
L 303.209151 -218.710189 
L 303.237752 -216.899739 
L 303.272035 -215.089289 
L 303.309704 -213.278838 
L 303.347638 -211.468388 
L 303.382527 -209.657938 
L 303.41184 -207.847488 
L 303.434832 -206.037038 
L 303.453087 -204.226588 
L 303.470223 -202.416138 
L 303.490737 -200.605688 
L 303.518528 -198.795237 
L 303.555871 -196.984787 
L 303.603468 -195.174337 
L 303.661617 -193.363887 
L 303.731907 -191.553437 
L 303.818558 -189.742987 
L 303.928823 -187.932537 
L 304.072507 -186.122087 
L 304.261214 -184.311636 
L 304.507862 -182.501186 
L 304.826366 -180.690736 
L 305.230612 -178.880286 
L 305.731836 -177.069836 
L 306.334511 -175.259386 
L 307.032398 -173.448936 
L 307.807206 -171.638485 
L 308.631432 -169.828035 
L 309.474819 -168.017585 
L 310.311881 -166.207135 
L 311.127558 -164.396685 
L 311.919208 -162.586235 
L 312.694872 -160.775785 
L 313.46893 -158.965335 
L 314.256635 -157.154884 
L 315.068901 -155.344434 
L 315.90834 -153.533984 
L 316.767067 -151.723534 
L 317.626369 -149.913084 
L 318.458104 -148.102634 
L 319.227607 -146.292184 
L 319.897548 -144.481733 
L 320.431906 -142.671283 
L 320.799357 -140.860833 
L 320.976 -139.050383 
L 320.947932 -137.239933 
L 320.713889 -135.429483 
L 320.287119 -133.619033 
L 319.694906 -131.808583 
L 318.974727 -129.998132 
L 318.167725 -128.187682 
L 317.311747 -126.377232 
L 316.436314 -124.566782 
L 315.560622 -122.756332 
L 314.694064 -120.945882 
L 313.838179 -119.135432 
L 312.989302 -117.324982 
L 312.141908 -115.514531 
L 311.292661 -113.704081 
L 310.44441 -111.893631 
L 309.608614 -110.083181 
L 308.804683 -108.272731 
L 308.055942 -106.462281 
L 307.383519 -104.651831 
L 306.800569 -102.84138 
L 306.309121 -101.03093 
L 305.900599 -99.22048 
L 305.559507 -97.41003 
L 305.268491 -95.59958 
L 305.012661 -93.78913 
L 304.781733 -91.97868 
L 304.569804 -90.16823 
L 304.373768 -88.357779 
L 304.191756 -86.547329 
L 304.02251 -84.736879 
L 303.865591 -82.926429 
L 303.721723 -81.115979 
L 303.592617 -79.305529 
L 303.48022 -77.495079 
L 303.385808 -75.684629 
L 303.309458 -73.874178 
L 303.250046 -72.063728 
L 303.20561 -70.253278 
L 303.173765 -68.442828 
L 303.152022 -66.632378 
L 303.137978 -64.821928 
L 303.129462 -63.011478 
z
" id="m4bfa9c4562" style="stroke:#3e3e3e;stroke-width:0.5;"/>
    </defs>
    <g clip-path="url(#p2c6886b62d)">
     <use style="fill:#477ca8;stroke:#3e3e3e;stroke-width:0.5;" x="0" xlink:href="#m4bfa9c4562" y="345.6"/>
    </g>
   </g>
   <g id="PolyCollection_7">
    <defs>
     <path d="M 347.77353 -71.475894 
L 347.74647 -71.475894 
L 347.736077 -72.725992 
L 347.721189 -73.97609 
L 347.701962 -75.226187 
L 347.679412 -76.476285 
L 347.654902 -77.726383 
L 347.629217 -78.97648 
L 347.601808 -80.226578 
L 347.571011 -81.476676 
L 347.535508 -82.726774 
L 347.496319 -83.976871 
L 347.457939 -85.226969 
L 347.427504 -86.477067 
L 347.412145 -87.727164 
L 347.416025 -88.977262 
L 347.43878 -90.22736 
L 347.476101 -91.477458 
L 347.521775 -92.727555 
L 347.569782 -93.977653 
L 347.615472 -95.227751 
L 347.655762 -96.477848 
L 347.688843 -97.727946 
L 347.713844 -98.978044 
L 347.730515 -100.228142 
L 347.738789 -101.478239 
L 347.738238 -102.728337 
L 347.727674 -103.978435 
L 347.7053 -105.228532 
L 347.669664 -106.47863 
L 347.621179 -107.728728 
L 347.563356 -108.978826 
L 347.502654 -110.228923 
L 347.446309 -111.479021 
L 347.39885 -112.729119 
L 347.359268 -113.979216 
L 347.320974 -115.229314 
L 347.275178 -116.479412 
L 347.215994 -117.72951 
L 347.144113 -118.979607 
L 347.0665 -120.229705 
L 346.991929 -121.479803 
L 346.924546 -122.7299 
L 346.858675 -123.979998 
L 346.777219 -125.230096 
L 346.654263 -126.480194 
L 346.460948 -127.730291 
L 346.17273 -128.980389 
L 345.775812 -130.230487 
L 345.270399 -131.480584 
L 344.669136 -132.730682 
L 343.990906 -133.98078 
L 343.252981 -135.230878 
L 342.466263 -136.480975 
L 341.636891 -137.731073 
L 340.772696 -138.981171 
L 339.88831 -140.231268 
L 339.002764 -141.481366 
L 338.129485 -142.731464 
L 337.266169 -143.981562 
L 336.394251 -145.231659 
L 335.491409 -146.481757 
L 334.550283 -147.731855 
L 333.590854 -148.981952 
L 332.657973 -150.23205 
L 331.806181 -151.482148 
L 331.082601 -152.732246 
L 330.518321 -153.982343 
L 330.130328 -155.232441 
L 329.926587 -156.482539 
L 329.904 -157.732636 
L 330.035415 -158.982734 
L 330.254447 -160.232832 
L 330.456917 -161.48293 
L 330.53495 -162.733027 
L 330.439773 -163.983125 
L 330.241521 -165.233223 
L 330.140805 -166.48332 
L 330.405901 -167.733418 
L 331.255623 -168.983516 
L 332.749804 -170.233614 
L 334.752066 -171.483711 
L 336.986793 -172.733809 
L 339.154219 -173.983907 
L 341.036779 -175.234004 
L 342.545719 -176.484102 
L 343.701495 -177.7342 
L 344.579095 -178.984298 
L 345.257387 -180.234395 
L 345.79396 -181.484493 
L 346.223968 -182.734591 
L 346.569476 -183.984688 
L 346.84745 -185.234786 
L 347.072315 -186.484884 
L 347.255143 -187.734982 
L 347.402879 -188.985079 
L 347.519246 -190.235177 
L 347.606785 -191.485275 
L 347.668653 -192.735372 
L 347.709271 -193.98547 
L 347.73387 -195.235568 
L 347.78613 -195.235568 
L 347.78613 -195.235568 
L 347.810729 -193.98547 
L 347.851347 -192.735372 
L 347.913215 -191.485275 
L 348.000754 -190.235177 
L 348.117121 -188.985079 
L 348.264857 -187.734982 
L 348.447685 -186.484884 
L 348.67255 -185.234786 
L 348.950524 -183.984688 
L 349.296032 -182.734591 
L 349.72604 -181.484493 
L 350.262613 -180.234395 
L 350.940905 -178.984298 
L 351.818505 -177.7342 
L 352.974281 -176.484102 
L 354.483221 -175.234004 
L 356.365781 -173.983907 
L 358.533207 -172.733809 
L 360.767934 -171.483711 
L 362.770196 -170.233614 
L 364.264377 -168.983516 
L 365.114099 -167.733418 
L 365.379195 -166.48332 
L 365.278479 -165.233223 
L 365.080227 -163.983125 
L 364.98505 -162.733027 
L 365.063083 -161.48293 
L 365.265553 -160.232832 
L 365.484585 -158.982734 
L 365.616 -157.732636 
L 365.593413 -156.482539 
L 365.389672 -155.232441 
L 365.001679 -153.982343 
L 364.437399 -152.732246 
L 363.713819 -151.482148 
L 362.862027 -150.23205 
L 361.929146 -148.981952 
L 360.969717 -147.731855 
L 360.028591 -146.481757 
L 359.125749 -145.231659 
L 358.253831 -143.981562 
L 357.390515 -142.731464 
L 356.517236 -141.481366 
L 355.63169 -140.231268 
L 354.747304 -138.981171 
L 353.883109 -137.731073 
L 353.053737 -136.480975 
L 352.267019 -135.230878 
L 351.529094 -133.98078 
L 350.850864 -132.730682 
L 350.249601 -131.480584 
L 349.744188 -130.230487 
L 349.34727 -128.980389 
L 349.059052 -127.730291 
L 348.865737 -126.480194 
L 348.742781 -125.230096 
L 348.661325 -123.979998 
L 348.595454 -122.7299 
L 348.528071 -121.479803 
L 348.4535 -120.229705 
L 348.375887 -118.979607 
L 348.304006 -117.72951 
L 348.244822 -116.479412 
L 348.199026 -115.229314 
L 348.160732 -113.979216 
L 348.12115 -112.729119 
L 348.073691 -111.479021 
L 348.017346 -110.228923 
L 347.956644 -108.978826 
L 347.898821 -107.728728 
L 347.850336 -106.47863 
L 347.8147 -105.228532 
L 347.792326 -103.978435 
L 347.781762 -102.728337 
L 347.781211 -101.478239 
L 347.789485 -100.228142 
L 347.806156 -98.978044 
L 347.831157 -97.727946 
L 347.864238 -96.477848 
L 347.904528 -95.227751 
L 347.950218 -93.977653 
L 347.998225 -92.727555 
L 348.043899 -91.477458 
L 348.08122 -90.22736 
L 348.103975 -88.977262 
L 348.107855 -87.727164 
L 348.092496 -86.477067 
L 348.062061 -85.226969 
L 348.023681 -83.976871 
L 347.984492 -82.726774 
L 347.948989 -81.476676 
L 347.918192 -80.226578 
L 347.890783 -78.97648 
L 347.865098 -77.726383 
L 347.840588 -76.476285 
L 347.818038 -75.226187 
L 347.798811 -73.97609 
L 347.783923 -72.725992 
L 347.77353 -71.475894 
z
" id="m466be5f927" style="stroke:#3e3e3e;stroke-width:0.5;"/>
    </defs>
    <g clip-path="url(#p2c6886b62d)">
     <use style="fill:#965a38;stroke:#3e3e3e;stroke-width:0.5;" x="0" xlink:href="#m466be5f927" y="345.6"/>
    </g>
   </g>
   <g id="PolyCollection_8">
    <defs>
     <path d="M 392.406292 -89.094164 
L 392.393708 -89.094164 
L 392.388928 -91.144041 
L 392.382258 -93.193918 
L 392.37411 -95.243795 
L 392.365597 -97.293672 
L 392.358371 -99.34355 
L 392.354127 -101.393427 
L 392.353959 -103.443304 
L 392.357887 -105.493181 
L 392.364821 -107.543058 
L 392.372958 -109.592935 
L 392.380353 -111.642812 
L 392.385349 -113.692689 
L 392.386692 -115.742567 
L 392.383416 -117.792444 
L 392.374756 -119.842321 
L 392.360293 -121.892198 
L 392.340327 -123.942075 
L 392.31627 -125.991952 
L 392.290721 -128.041829 
L 392.267009 -130.091707 
L 392.248259 -132.141584 
L 392.236315 -134.191461 
L 392.230973 -136.241338 
L 392.22987 -138.291215 
L 392.229164 -140.341092 
L 392.224836 -142.390969 
L 392.214096 -144.440846 
L 392.19621 -146.490724 
L 392.172176 -148.540601 
L 392.143317 -150.590478 
L 392.109669 -152.640355 
L 392.069427 -154.690232 
L 392.020117 -156.740109 
L 391.960896 -158.789986 
L 391.894357 -160.839864 
L 391.8264 -162.889741 
L 391.764 -164.939618 
L 391.71219 -166.989495 
L 391.67209 -169.039372 
L 391.641049 -171.089249 
L 391.614522 -173.139126 
L 391.588348 -175.189003 
L 391.560038 -177.238881 
L 391.528598 -179.288758 
L 391.493219 -181.338635 
L 391.451539 -183.388512 
L 391.398006 -185.438389 
L 391.322813 -187.488266 
L 391.212164 -189.538143 
L 391.050787 -191.58802 
L 390.82696 -193.637898 
L 390.538807 -195.687775 
L 390.199096 -197.737652 
L 389.835473 -199.787529 
L 389.48461 -201.837406 
L 389.181557 -203.887283 
L 388.948243 -205.93716 
L 388.785874 -207.987038 
L 388.674252 -210.036915 
L 388.577727 -212.086792 
L 388.454428 -214.136669 
L 388.264378 -216.186546 
L 387.973527 -218.236423 
L 387.553568 -220.2863 
L 386.980006 -222.336177 
L 386.23186 -224.386055 
L 385.295256 -226.435932 
L 384.170523 -228.485809 
L 382.879788 -230.535686 
L 381.470758 -232.585563 
L 380.013567 -234.63544 
L 378.590849 -236.685317 
L 377.285088 -238.735195 
L 376.169172 -240.785072 
L 375.304339 -242.834949 
L 374.744876 -244.884826 
L 374.544 -246.934703 
L 374.753654 -248.98458 
L 375.414052 -251.034457 
L 376.53519 -253.084334 
L 378.07852 -255.134212 
L 379.948913 -257.184089 
L 382.003362 -259.233966 
L 384.075618 -261.283843 
L 386.008805 -263.33372 
L 387.684803 -265.383597 
L 389.041072 -267.433474 
L 390.07115 -269.483352 
L 390.811487 -271.533229 
L 391.321548 -273.583106 
L 391.664776 -275.632983 
L 391.895608 -277.68286 
L 392.053938 -279.732737 
L 392.165507 -281.782614 
L 392.245412 -283.832491 
L 392.302258 -285.882369 
L 392.341434 -287.932246 
L 392.367058 -289.982123 
L 392.382731 -292.032 
L 392.417269 -292.032 
L 392.417269 -292.032 
L 392.432942 -289.982123 
L 392.458566 -287.932246 
L 392.497742 -285.882369 
L 392.554588 -283.832491 
L 392.634493 -281.782614 
L 392.746062 -279.732737 
L 392.904392 -277.68286 
L 393.135224 -275.632983 
L 393.478452 -273.583106 
L 393.988513 -271.533229 
L 394.72885 -269.483352 
L 395.758928 -267.433474 
L 397.115197 -265.383597 
L 398.791195 -263.33372 
L 400.724382 -261.283843 
L 402.796638 -259.233966 
L 404.851087 -257.184089 
L 406.72148 -255.134212 
L 408.26481 -253.084334 
L 409.385948 -251.034457 
L 410.046346 -248.98458 
L 410.256 -246.934703 
L 410.055124 -244.884826 
L 409.495661 -242.834949 
L 408.630828 -240.785072 
L 407.514912 -238.735195 
L 406.209151 -236.685317 
L 404.786433 -234.63544 
L 403.329242 -232.585563 
L 401.920212 -230.535686 
L 400.629477 -228.485809 
L 399.504744 -226.435932 
L 398.56814 -224.386055 
L 397.819994 -222.336177 
L 397.246432 -220.2863 
L 396.826473 -218.236423 
L 396.535622 -216.186546 
L 396.345572 -214.136669 
L 396.222273 -212.086792 
L 396.125748 -210.036915 
L 396.014126 -207.987038 
L 395.851757 -205.93716 
L 395.618443 -203.887283 
L 395.31539 -201.837406 
L 394.964527 -199.787529 
L 394.600904 -197.737652 
L 394.261193 -195.687775 
L 393.97304 -193.637898 
L 393.749213 -191.58802 
L 393.587836 -189.538143 
L 393.477187 -187.488266 
L 393.401994 -185.438389 
L 393.348461 -183.388512 
L 393.306781 -181.338635 
L 393.271402 -179.288758 
L 393.239962 -177.238881 
L 393.211652 -175.189003 
L 393.185478 -173.139126 
L 393.158951 -171.089249 
L 393.12791 -169.039372 
L 393.08781 -166.989495 
L 393.036 -164.939618 
L 392.9736 -162.889741 
L 392.905643 -160.839864 
L 392.839104 -158.789986 
L 392.779883 -156.740109 
L 392.730573 -154.690232 
L 392.690331 -152.640355 
L 392.656683 -150.590478 
L 392.627824 -148.540601 
L 392.60379 -146.490724 
L 392.585904 -144.440846 
L 392.575164 -142.390969 
L 392.570836 -140.341092 
L 392.57013 -138.291215 
L 392.569027 -136.241338 
L 392.563685 -134.191461 
L 392.551741 -132.141584 
L 392.532991 -130.091707 
L 392.509279 -128.041829 
L 392.48373 -125.991952 
L 392.459673 -123.942075 
L 392.439707 -121.892198 
L 392.425244 -119.842321 
L 392.416584 -117.792444 
L 392.413308 -115.742567 
L 392.414651 -113.692689 
L 392.419647 -111.642812 
L 392.427042 -109.592935 
L 392.435179 -107.543058 
L 392.442113 -105.493181 
L 392.446041 -103.443304 
L 392.445873 -101.393427 
L 392.441629 -99.34355 
L 392.434403 -97.293672 
L 392.42589 -95.243795 
L 392.417742 -93.193918 
L 392.411072 -91.144041 
L 392.406292 -89.094164 
z
" id="m8254f81ee9" style="stroke:#3e3e3e;stroke-width:0.5;"/>
    </defs>
    <g clip-path="url(#p2c6886b62d)">
     <use style="fill:#e890be;stroke:#3e3e3e;stroke-width:0.5;" x="0" xlink:href="#m8254f81ee9" y="345.6"/>
    </g>
   </g>
   <g id="line2d_9">
    <path clip-path="url(#p2c6886b62d)" d="M 79.92 278.372382 
L 79.92 230.050897 
" style="fill:none;stroke:#3e3e3e;stroke-linecap:round;stroke-width:0.5;"/>
   </g>
   <g id="line2d_10">
    <path clip-path="url(#p2c6886b62d)" d="M 79.92 260.563862 
L 79.92 248.310873 
" style="fill:none;stroke:#3e3e3e;stroke-linecap:round;stroke-width:1.5;"/>
   </g>
   <g id="line2d_11">
    <path clip-path="url(#p2c6886b62d)" d="M 124.56 281.709463 
L 124.56 239.31221 
" style="fill:none;stroke:#3e3e3e;stroke-linecap:round;stroke-width:0.5;"/>
   </g>
   <g id="line2d_12">
    <path clip-path="url(#p2c6886b62d)" d="M 124.56 265.794931 
L 124.56 254.970109 
" style="fill:none;stroke:#3e3e3e;stroke-linecap:round;stroke-width:1.5;"/>
   </g>
   <g id="line2d_13">
    <path clip-path="url(#p2c6886b62d)" d="M 169.2 274.369512 
L 169.2 222.343863 
" style="fill:none;stroke:#3e3e3e;stroke-linecap:round;stroke-width:0.5;"/>
   </g>
   <g id="line2d_14">
    <path clip-path="url(#p2c6886b62d)" d="M 169.2 257.079597 
L 169.2 243.110138 
" style="fill:none;stroke:#3e3e3e;stroke-linecap:round;stroke-width:1.5;"/>
   </g>
   <g id="line2d_15">
    <path clip-path="url(#p2c6886b62d)" d="M 213.84 278.738828 
L 213.84 220.211145 
" style="fill:none;stroke:#3e3e3e;stroke-linecap:round;stroke-width:0.5;"/>
   </g>
   <g id="line2d_16">
    <path clip-path="url(#p2c6886b62d)" d="M 213.84 256.634038 
L 213.84 241.87478 
" style="fill:none;stroke:#3e3e3e;stroke-linecap:round;stroke-width:1.5;"/>
   </g>
   <g id="line2d_17">
    <path clip-path="url(#p2c6886b62d)" d="M 258.48 261.70324 
L 258.48 165.400772 
" style="fill:none;stroke:#3e3e3e;stroke-linecap:round;stroke-width:0.5;"/>
   </g>
   <g id="line2d_18">
    <path clip-path="url(#p2c6886b62d)" d="M 258.48 223.625106 
L 258.48 198.235375 
" style="fill:none;stroke:#3e3e3e;stroke-linecap:round;stroke-width:1.5;"/>
   </g>
   <g id="line2d_19">
    <path clip-path="url(#p2c6886b62d)" d="M 303.12 259.222089 
L 303.12 155.583795 
" style="fill:none;stroke:#3e3e3e;stroke-linecap:round;stroke-width:0.5;"/>
   </g>
   <g id="line2d_20">
    <path clip-path="url(#p2c6886b62d)" d="M 303.12 220.250268 
L 303.12 193.999563 
" style="fill:none;stroke:#3e3e3e;stroke-linecap:round;stroke-width:1.5;"/>
   </g>
   <g id="line2d_21">
    <path clip-path="url(#p2c6886b62d)" d="M 347.76 223.766054 
L 347.76 158.593866 
" style="fill:none;stroke:#3e3e3e;stroke-linecap:round;stroke-width:0.5;"/>
   </g>
   <g id="line2d_22">
    <path clip-path="url(#p2c6886b62d)" d="M 347.76 196.543204 
L 347.76 178.08846 
" style="fill:none;stroke:#3e3e3e;stroke-linecap:round;stroke-width:1.5;"/>
   </g>
   <g id="line2d_23">
    <path clip-path="url(#p2c6886b62d)" d="M 392.4 146.722125 
L 392.4 66.965882 
" style="fill:none;stroke:#3e3e3e;stroke-linecap:round;stroke-width:0.5;"/>
   </g>
   <g id="line2d_24">
    <path clip-path="url(#p2c6886b62d)" d="M 392.4 115.624133 
L 392.4 94.417742 
" style="fill:none;stroke:#3e3e3e;stroke-linecap:round;stroke-width:1.5;"/>
   </g>
   <g id="patch_3">
    <path d="M 57.6 307.584 
L 57.6 41.472 
" style="fill:none;stroke:#cccccc;stroke-linecap:square;stroke-linejoin:miter;stroke-width:1.25;"/>
   </g>
   <g id="patch_4">
    <path d="M 414.72 307.584 
L 414.72 41.472 
" style="fill:none;stroke:#cccccc;stroke-linecap:square;stroke-linejoin:miter;stroke-width:1.25;"/>
   </g>
   <g id="patch_5">
    <path d="M 57.6 307.584 
L 414.72 307.584 
" style="fill:none;stroke:#cccccc;stroke-linecap:square;stroke-linejoin:miter;stroke-width:1.25;"/>
   </g>
   <g id="patch_6">
    <path d="M 57.6 41.472 
L 414.72 41.472 
" style="fill:none;stroke:#cccccc;stroke-linecap:square;stroke-linejoin:miter;stroke-width:1.25;"/>
   </g>
   <g id="PathCollection_1">
    <defs>
     <path d="M 0 0.5 
C 0.132602 0.5 0.25979 0.447317 0.353553 0.353553 
C 0.447317 0.25979 0.5 0.132602 0.5 0 
C 0.5 -0.132602 0.447317 -0.25979 0.353553 -0.353553 
C 0.25979 -0.447317 0.132602 -0.5 0 -0.5 
C -0.132602 -0.5 -0.25979 -0.447317 -0.353553 -0.353553 
C -0.447317 -0.25979 -0.5 -0.132602 -0.5 0 
C -0.5 0.132602 -0.447317 0.25979 -0.353553 0.353553 
C -0.25979 0.447317 -0.132602 0.5 0 0.5 
z
" id="m046f7049a3" style="stroke:#3e3e3e;"/>
    </defs>
    <g clip-path="url(#p2c6886b62d)">
     <use style="fill:#ffffff;stroke:#3e3e3e;" x="79.92" xlink:href="#m046f7049a3" y="254.820376"/>
    </g>
   </g>
   <g id="PathCollection_2">
    <g clip-path="url(#p2c6886b62d)">
     <use style="fill:#ffffff;stroke:#3e3e3e;" x="124.56" xlink:href="#m046f7049a3" y="260.865391"/>
    </g>
   </g>
   <g id="PathCollection_3">
    <g clip-path="url(#p2c6886b62d)">
     <use style="fill:#ffffff;stroke:#3e3e3e;" x="169.2" xlink:href="#m046f7049a3" y="250.196975"/>
    </g>
   </g>
   <g id="PathCollection_4">
    <g clip-path="url(#p2c6886b62d)">
     <use style="fill:#ffffff;stroke:#3e3e3e;" x="213.84" xlink:href="#m046f7049a3" y="249.551934"/>
    </g>
   </g>
   <g id="PathCollection_5">
    <g clip-path="url(#p2c6886b62d)">
     <use style="fill:#ffffff;stroke:#3e3e3e;" x="258.48" xlink:href="#m046f7049a3" y="210.994338"/>
    </g>
   </g>
   <g id="PathCollection_6">
    <g clip-path="url(#p2c6886b62d)">
     <use style="fill:#ffffff;stroke:#3e3e3e;" x="303.12" xlink:href="#m046f7049a3" y="207.164813"/>
    </g>
   </g>
   <g id="PathCollection_7">
    <g clip-path="url(#p2c6886b62d)">
     <use style="fill:#ffffff;stroke:#3e3e3e;" x="347.76" xlink:href="#m046f7049a3" y="188.228927"/>
    </g>
   </g>
   <g id="PathCollection_8">
    <g clip-path="url(#p2c6886b62d)">
     <use style="fill:#ffffff;stroke:#3e3e3e;" x="392.4" xlink:href="#m046f7049a3" y="103.209156"/>
    </g>
   </g>
  </g>
 </g>
 <defs>
  <clipPath id="p2c6886b62d">
   <rect height="266.112" width="357.12" x="57.6" y="41.472"/>
  </clipPath>
 </defs>
</svg>
