<?xml version="1.0" encoding="utf-8" standalone="no"?>
<!DOCTYPE svg PUBLIC "-//W3C//DTD SVG 1.1//EN"
  "http://www.w3.org/Graphics/SVG/1.1/DTD/svg11.dtd">
<!-- Created with matplotlib (https://matplotlib.org/) -->
<svg height="345.6pt" version="1.1" viewBox="0 0 460.8 345.6" width="460.8pt" xmlns="http://www.w3.org/2000/svg" xmlns:xlink="http://www.w3.org/1999/xlink">
 <defs>
  <style type="text/css">
*{stroke-linecap:butt;stroke-linejoin:round;}
  </style>
 </defs>
 <g id="figure_1">
  <g id="patch_1">
   <path d="M 0 345.6 
L 460.8 345.6 
L 460.8 0 
L 0 0 
z
" style="fill:#ffffff;"/>
  </g>
  <g id="axes_1">
   <g id="patch_2">
    <path d="M 57.6 307.584 
L 414.72 307.584 
L 414.72 41.472 
L 57.6 41.472 
z
" style="fill:#ffffff;"/>
   </g>
   <g id="matplotlib.axis_1">
    <g id="xtick_1">
     <g id="text_1">
      <!-- Mouth (back) -->
      <defs>
       <path d="M 7.421875 0 
L 7.421875 71.578125 
L 21.6875 71.578125 
L 38.625 20.90625 
Q 40.96875 13.8125 42.046875 10.296875 
Q 43.265625 14.203125 45.84375 21.78125 
L 62.984375 71.578125 
L 75.734375 71.578125 
L 75.734375 0 
L 66.609375 0 
L 66.609375 59.90625 
L 45.796875 0 
L 37.25 0 
L 16.546875 60.9375 
L 16.546875 0 
z
" id="ArialMT-77"/>
       <path d="M 3.328125 25.921875 
Q 3.328125 40.328125 11.328125 47.265625 
Q 18.015625 53.03125 27.640625 53.03125 
Q 38.328125 53.03125 45.109375 46.015625 
Q 51.90625 39.015625 51.90625 26.65625 
Q 51.90625 16.65625 48.90625 10.90625 
Q 45.90625 5.171875 40.15625 2 
Q 34.421875 -1.171875 27.640625 -1.171875 
Q 16.75 -1.171875 10.03125 5.8125 
Q 3.328125 12.796875 3.328125 25.921875 
z
M 12.359375 25.921875 
Q 12.359375 15.96875 16.703125 11.015625 
Q 21.046875 6.0625 27.640625 6.0625 
Q 34.1875 6.0625 38.53125 11.03125 
Q 42.875 16.015625 42.875 26.21875 
Q 42.875 35.84375 38.5 40.796875 
Q 34.125 45.75 27.640625 45.75 
Q 21.046875 45.75 16.703125 40.8125 
Q 12.359375 35.890625 12.359375 25.921875 
z
" id="ArialMT-111"/>
       <path d="M 40.578125 0 
L 40.578125 7.625 
Q 34.515625 -1.171875 24.125 -1.171875 
Q 19.53125 -1.171875 15.546875 0.578125 
Q 11.578125 2.34375 9.640625 5 
Q 7.71875 7.671875 6.9375 11.53125 
Q 6.390625 14.109375 6.390625 19.734375 
L 6.390625 51.859375 
L 15.1875 51.859375 
L 15.1875 23.09375 
Q 15.1875 16.21875 15.71875 13.8125 
Q 16.546875 10.359375 19.234375 8.375 
Q 21.921875 6.390625 25.875 6.390625 
Q 29.828125 6.390625 33.296875 8.421875 
Q 36.765625 10.453125 38.203125 13.9375 
Q 39.65625 17.4375 39.65625 24.078125 
L 39.65625 51.859375 
L 48.4375 51.859375 
L 48.4375 0 
z
" id="ArialMT-117"/>
       <path d="M 25.78125 7.859375 
L 27.046875 0.09375 
Q 23.34375 -0.6875 20.40625 -0.6875 
Q 15.625 -0.6875 12.984375 0.828125 
Q 10.359375 2.34375 9.28125 4.8125 
Q 8.203125 7.28125 8.203125 15.1875 
L 8.203125 45.015625 
L 1.765625 45.015625 
L 1.765625 51.859375 
L 8.203125 51.859375 
L 8.203125 64.703125 
L 16.9375 69.96875 
L 16.9375 51.859375 
L 25.78125 51.859375 
L 25.78125 45.015625 
L 16.9375 45.015625 
L 16.9375 14.703125 
Q 16.9375 10.9375 17.40625 9.859375 
Q 17.875 8.796875 18.921875 8.15625 
Q 19.96875 7.515625 21.921875 7.515625 
Q 23.390625 7.515625 25.78125 7.859375 
z
" id="ArialMT-116"/>
       <path d="M 6.59375 0 
L 6.59375 71.578125 
L 15.375 71.578125 
L 15.375 45.90625 
Q 21.53125 53.03125 30.90625 53.03125 
Q 36.671875 53.03125 40.921875 50.75 
Q 45.171875 48.484375 47 44.484375 
Q 48.828125 40.484375 48.828125 32.859375 
L 48.828125 0 
L 40.046875 0 
L 40.046875 32.859375 
Q 40.046875 39.453125 37.1875 42.453125 
Q 34.328125 45.453125 29.109375 45.453125 
Q 25.203125 45.453125 21.75 43.421875 
Q 18.3125 41.40625 16.84375 37.9375 
Q 15.375 34.46875 15.375 28.375 
L 15.375 0 
z
" id="ArialMT-104"/>
       <path id="ArialMT-32"/>
       <path d="M 23.390625 -21.046875 
Q 16.109375 -11.859375 11.078125 0.4375 
Q 6.0625 12.75 6.0625 25.921875 
Q 6.0625 37.546875 9.8125 48.1875 
Q 14.203125 60.546875 23.390625 72.796875 
L 29.6875 72.796875 
Q 23.78125 62.640625 21.875 58.296875 
Q 18.890625 51.5625 17.1875 44.234375 
Q 15.09375 35.109375 15.09375 25.875 
Q 15.09375 2.390625 29.6875 -21.046875 
z
" id="ArialMT-40"/>
       <path d="M 14.703125 0 
L 6.546875 0 
L 6.546875 71.578125 
L 15.328125 71.578125 
L 15.328125 46.046875 
Q 20.90625 53.03125 29.546875 53.03125 
Q 34.328125 53.03125 38.59375 51.09375 
Q 42.875 49.171875 45.625 45.671875 
Q 48.390625 42.1875 49.953125 37.25 
Q 51.515625 32.328125 51.515625 26.703125 
Q 51.515625 13.375 44.921875 6.09375 
Q 38.328125 -1.171875 29.109375 -1.171875 
Q 19.921875 -1.171875 14.703125 6.5 
z
M 14.59375 26.3125 
Q 14.59375 17 17.140625 12.84375 
Q 21.296875 6.0625 28.375 6.0625 
Q 34.125 6.0625 38.328125 11.0625 
Q 42.53125 16.0625 42.53125 25.984375 
Q 42.53125 36.140625 38.5 40.96875 
Q 34.46875 45.796875 28.765625 45.796875 
Q 23 45.796875 18.796875 40.796875 
Q 14.59375 35.796875 14.59375 26.3125 
z
" id="ArialMT-98"/>
       <path d="M 40.4375 6.390625 
Q 35.546875 2.25 31.03125 0.53125 
Q 26.515625 -1.171875 21.34375 -1.171875 
Q 12.796875 -1.171875 8.203125 3 
Q 3.609375 7.171875 3.609375 13.671875 
Q 3.609375 17.484375 5.34375 20.625 
Q 7.078125 23.78125 9.890625 25.6875 
Q 12.703125 27.59375 16.21875 28.5625 
Q 18.796875 29.25 24.03125 29.890625 
Q 34.671875 31.15625 39.703125 32.90625 
Q 39.75 34.71875 39.75 35.203125 
Q 39.75 40.578125 37.25 42.78125 
Q 33.890625 45.75 27.25 45.75 
Q 21.046875 45.75 18.09375 43.578125 
Q 15.140625 41.40625 13.71875 35.890625 
L 5.125 37.0625 
Q 6.296875 42.578125 8.984375 45.96875 
Q 11.671875 49.359375 16.75 51.1875 
Q 21.828125 53.03125 28.515625 53.03125 
Q 35.15625 53.03125 39.296875 51.46875 
Q 43.453125 49.90625 45.40625 47.53125 
Q 47.359375 45.171875 48.140625 41.546875 
Q 48.578125 39.3125 48.578125 33.453125 
L 48.578125 21.734375 
Q 48.578125 9.46875 49.140625 6.21875 
Q 49.703125 2.984375 51.375 0 
L 42.1875 0 
Q 40.828125 2.734375 40.4375 6.390625 
z
M 39.703125 26.03125 
Q 34.90625 24.078125 25.34375 22.703125 
Q 19.921875 21.921875 17.671875 20.9375 
Q 15.4375 19.96875 14.203125 18.09375 
Q 12.984375 16.21875 12.984375 13.921875 
Q 12.984375 10.40625 15.640625 8.0625 
Q 18.3125 5.71875 23.4375 5.71875 
Q 28.515625 5.71875 32.46875 7.9375 
Q 36.421875 10.15625 38.28125 14.015625 
Q 39.703125 17 39.703125 22.796875 
z
" id="ArialMT-97"/>
       <path d="M 40.4375 19 
L 49.078125 17.875 
Q 47.65625 8.9375 41.8125 3.875 
Q 35.984375 -1.171875 27.484375 -1.171875 
Q 16.84375 -1.171875 10.375 5.78125 
Q 3.90625 12.75 3.90625 25.734375 
Q 3.90625 34.125 6.6875 40.421875 
Q 9.46875 46.734375 15.15625 49.875 
Q 20.84375 53.03125 27.546875 53.03125 
Q 35.984375 53.03125 41.359375 48.75 
Q 46.734375 44.484375 48.25 36.625 
L 39.703125 35.296875 
Q 38.484375 40.53125 35.375 43.15625 
Q 32.28125 45.796875 27.875 45.796875 
Q 21.234375 45.796875 17.078125 41.03125 
Q 12.9375 36.28125 12.9375 25.984375 
Q 12.9375 15.53125 16.9375 10.796875 
Q 20.953125 6.0625 27.390625 6.0625 
Q 32.5625 6.0625 36.03125 9.234375 
Q 39.5 12.40625 40.4375 19 
z
" id="ArialMT-99"/>
       <path d="M 6.640625 0 
L 6.640625 71.578125 
L 15.4375 71.578125 
L 15.4375 30.765625 
L 36.234375 51.859375 
L 47.609375 51.859375 
L 27.78125 32.625 
L 49.609375 0 
L 38.765625 0 
L 21.625 26.515625 
L 15.4375 20.5625 
L 15.4375 0 
z
" id="ArialMT-107"/>
       <path d="M 12.359375 -21.046875 
L 6.0625 -21.046875 
Q 20.65625 2.390625 20.65625 25.875 
Q 20.65625 35.0625 18.5625 44.09375 
Q 16.890625 51.421875 13.921875 58.15625 
Q 12.015625 62.546875 6.0625 72.796875 
L 12.359375 72.796875 
Q 21.53125 60.546875 25.921875 48.1875 
Q 29.6875 37.546875 29.6875 25.921875 
Q 29.6875 12.75 24.625 0.4375 
Q 19.578125 -11.859375 12.359375 -21.046875 
z
" id="ArialMT-41"/>
      </defs>
      <g style="fill:#262626;" transform="translate(47.8275 325.091656)scale(0.11 -0.11)">
       <use xlink:href="#ArialMT-77"/>
       <use x="83.300781" xlink:href="#ArialMT-111"/>
       <use x="138.916016" xlink:href="#ArialMT-117"/>
       <use x="194.53125" xlink:href="#ArialMT-116"/>
       <use x="222.314453" xlink:href="#ArialMT-104"/>
       <use x="277.929688" xlink:href="#ArialMT-32"/>
       <use x="305.712891" xlink:href="#ArialMT-40"/>
       <use x="339.013672" xlink:href="#ArialMT-98"/>
       <use x="394.628906" xlink:href="#ArialMT-97"/>
       <use x="450.244141" xlink:href="#ArialMT-99"/>
       <use x="500.244141" xlink:href="#ArialMT-107"/>
       <use x="550.244141" xlink:href="#ArialMT-41"/>
      </g>
     </g>
    </g>
    <g id="xtick_2">
     <g id="text_2">
      <!-- Mouth (front) -->
      <defs>
       <path d="M 8.6875 0 
L 8.6875 45.015625 
L 0.921875 45.015625 
L 0.921875 51.859375 
L 8.6875 51.859375 
L 8.6875 57.375 
Q 8.6875 62.59375 9.625 65.140625 
Q 10.890625 68.5625 14.078125 70.671875 
Q 17.28125 72.796875 23.046875 72.796875 
Q 26.765625 72.796875 31.25 71.921875 
L 29.9375 64.265625 
Q 27.203125 64.75 24.75 64.75 
Q 20.75 64.75 19.09375 63.03125 
Q 17.4375 61.328125 17.4375 56.640625 
L 17.4375 51.859375 
L 27.546875 51.859375 
L 27.546875 45.015625 
L 17.4375 45.015625 
L 17.4375 0 
z
" id="ArialMT-102"/>
       <path d="M 6.5 0 
L 6.5 51.859375 
L 14.40625 51.859375 
L 14.40625 44 
Q 17.4375 49.515625 20 51.265625 
Q 22.5625 53.03125 25.640625 53.03125 
Q 30.078125 53.03125 34.671875 50.203125 
L 31.640625 42.046875 
Q 28.421875 43.953125 25.203125 43.953125 
Q 22.3125 43.953125 20.015625 42.21875 
Q 17.71875 40.484375 16.75 37.40625 
Q 15.28125 32.71875 15.28125 27.15625 
L 15.28125 0 
z
" id="ArialMT-114"/>
       <path d="M 6.59375 0 
L 6.59375 51.859375 
L 14.5 51.859375 
L 14.5 44.484375 
Q 20.21875 53.03125 31 53.03125 
Q 35.6875 53.03125 39.625 51.34375 
Q 43.5625 49.65625 45.515625 46.921875 
Q 47.46875 44.1875 48.25 40.4375 
Q 48.734375 37.984375 48.734375 31.890625 
L 48.734375 0 
L 39.9375 0 
L 39.9375 31.546875 
Q 39.9375 36.921875 38.90625 39.578125 
Q 37.890625 42.234375 35.28125 43.8125 
Q 32.671875 45.40625 29.15625 45.40625 
Q 23.53125 45.40625 19.453125 41.84375 
Q 15.375 38.28125 15.375 28.328125 
L 15.375 0 
z
" id="ArialMT-110"/>
      </defs>
      <g style="fill:#262626;" transform="translate(93.080234 325.091656)scale(0.11 -0.11)">
       <use xlink:href="#ArialMT-77"/>
       <use x="83.300781" xlink:href="#ArialMT-111"/>
       <use x="138.916016" xlink:href="#ArialMT-117"/>
       <use x="194.53125" xlink:href="#ArialMT-116"/>
       <use x="222.314453" xlink:href="#ArialMT-104"/>
       <use x="277.929688" xlink:href="#ArialMT-32"/>
       <use x="305.712891" xlink:href="#ArialMT-40"/>
       <use x="339.013672" xlink:href="#ArialMT-102"/>
       <use x="366.796875" xlink:href="#ArialMT-114"/>
       <use x="400.097656" xlink:href="#ArialMT-111"/>
       <use x="455.712891" xlink:href="#ArialMT-110"/>
       <use x="511.328125" xlink:href="#ArialMT-116"/>
       <use x="539.111328" xlink:href="#ArialMT-41"/>
      </g>
     </g>
    </g>
    <g id="xtick_3">
     <g id="text_3">
      <!-- Saliva -->
      <defs>
       <path d="M 4.5 23 
L 13.421875 23.78125 
Q 14.0625 18.40625 16.375 14.96875 
Q 18.703125 11.53125 23.578125 9.40625 
Q 28.46875 7.28125 34.578125 7.28125 
Q 39.984375 7.28125 44.140625 8.890625 
Q 48.296875 10.5 50.3125 13.296875 
Q 52.34375 16.109375 52.34375 19.4375 
Q 52.34375 22.796875 50.390625 25.3125 
Q 48.4375 27.828125 43.953125 29.546875 
Q 41.0625 30.671875 31.203125 33.03125 
Q 21.34375 35.40625 17.390625 37.5 
Q 12.25 40.1875 9.734375 44.15625 
Q 7.234375 48.140625 7.234375 53.078125 
Q 7.234375 58.5 10.296875 63.203125 
Q 13.375 67.921875 19.28125 70.359375 
Q 25.203125 72.796875 32.421875 72.796875 
Q 40.375 72.796875 46.453125 70.234375 
Q 52.546875 67.671875 55.8125 62.6875 
Q 59.078125 57.71875 59.328125 51.421875 
L 50.25 50.734375 
Q 49.515625 57.515625 45.28125 60.984375 
Q 41.0625 64.453125 32.8125 64.453125 
Q 24.21875 64.453125 20.28125 61.296875 
Q 16.359375 58.15625 16.359375 53.71875 
Q 16.359375 49.859375 19.140625 47.359375 
Q 21.875 44.875 33.421875 42.265625 
Q 44.96875 39.65625 49.265625 37.703125 
Q 55.515625 34.8125 58.484375 30.390625 
Q 61.46875 25.984375 61.46875 20.21875 
Q 61.46875 14.5 58.203125 9.4375 
Q 54.9375 4.390625 48.796875 1.578125 
Q 42.671875 -1.21875 35.015625 -1.21875 
Q 25.296875 -1.21875 18.71875 1.609375 
Q 12.15625 4.4375 8.421875 10.125 
Q 4.6875 15.828125 4.5 23 
z
" id="ArialMT-83"/>
       <path d="M 6.390625 0 
L 6.390625 71.578125 
L 15.1875 71.578125 
L 15.1875 0 
z
" id="ArialMT-108"/>
       <path d="M 6.640625 61.46875 
L 6.640625 71.578125 
L 15.4375 71.578125 
L 15.4375 61.46875 
z
M 6.640625 0 
L 6.640625 51.859375 
L 15.4375 51.859375 
L 15.4375 0 
z
" id="ArialMT-105"/>
       <path d="M 21 0 
L 1.265625 51.859375 
L 10.546875 51.859375 
L 21.6875 20.796875 
Q 23.484375 15.765625 25 10.359375 
Q 26.171875 14.453125 28.265625 20.21875 
L 39.796875 51.859375 
L 48.828125 51.859375 
L 29.203125 0 
z
" id="ArialMT-118"/>
      </defs>
      <g style="fill:#262626;" transform="translate(154.220234 324.957594)scale(0.11 -0.11)">
       <use xlink:href="#ArialMT-83"/>
       <use x="66.699219" xlink:href="#ArialMT-97"/>
       <use x="122.314453" xlink:href="#ArialMT-108"/>
       <use x="144.53125" xlink:href="#ArialMT-105"/>
       <use x="166.748047" xlink:href="#ArialMT-118"/>
       <use x="216.748047" xlink:href="#ArialMT-97"/>
      </g>
     </g>
    </g>
    <g id="xtick_4">
     <g id="text_4">
      <!-- Plaque -->
      <defs>
       <path d="M 7.71875 0 
L 7.71875 71.578125 
L 34.71875 71.578125 
Q 41.84375 71.578125 45.609375 70.90625 
Q 50.875 70.015625 54.4375 67.546875 
Q 58.015625 65.09375 60.1875 60.640625 
Q 62.359375 56.203125 62.359375 50.875 
Q 62.359375 41.75 56.546875 35.421875 
Q 50.734375 29.109375 35.546875 29.109375 
L 17.1875 29.109375 
L 17.1875 0 
z
M 17.1875 37.546875 
L 35.6875 37.546875 
Q 44.875 37.546875 48.734375 40.96875 
Q 52.59375 44.390625 52.59375 50.59375 
Q 52.59375 55.078125 50.3125 58.265625 
Q 48.046875 61.46875 44.34375 62.5 
Q 41.9375 63.140625 35.5 63.140625 
L 17.1875 63.140625 
z
" id="ArialMT-80"/>
       <path d="M 39.65625 -19.875 
L 39.65625 5.515625 
Q 37.59375 2.640625 33.90625 0.734375 
Q 30.21875 -1.171875 26.078125 -1.171875 
Q 16.84375 -1.171875 10.171875 6.203125 
Q 3.515625 13.578125 3.515625 26.421875 
Q 3.515625 34.234375 6.21875 40.421875 
Q 8.9375 46.625 14.078125 49.828125 
Q 19.234375 53.03125 25.390625 53.03125 
Q 35.015625 53.03125 40.53125 44.921875 
L 40.53125 51.859375 
L 48.4375 51.859375 
L 48.4375 -19.875 
z
M 12.546875 26.078125 
Q 12.546875 16.0625 16.75 11.0625 
Q 20.953125 6.0625 26.8125 6.0625 
Q 32.421875 6.0625 36.46875 10.8125 
Q 40.53125 15.578125 40.53125 25.296875 
Q 40.53125 35.640625 36.25 40.859375 
Q 31.984375 46.09375 26.21875 46.09375 
Q 20.515625 46.09375 16.53125 41.234375 
Q 12.546875 36.375 12.546875 26.078125 
z
" id="ArialMT-113"/>
       <path d="M 42.09375 16.703125 
L 51.171875 15.578125 
Q 49.03125 7.625 43.21875 3.21875 
Q 37.40625 -1.171875 28.375 -1.171875 
Q 17 -1.171875 10.328125 5.828125 
Q 3.65625 12.84375 3.65625 25.484375 
Q 3.65625 38.578125 10.390625 45.796875 
Q 17.140625 53.03125 27.875 53.03125 
Q 38.28125 53.03125 44.875 45.953125 
Q 51.46875 38.875 51.46875 26.03125 
Q 51.46875 25.25 51.421875 23.6875 
L 12.75 23.6875 
Q 13.234375 15.140625 17.578125 10.59375 
Q 21.921875 6.0625 28.421875 6.0625 
Q 33.25 6.0625 36.671875 8.59375 
Q 40.09375 11.140625 42.09375 16.703125 
z
M 13.234375 30.90625 
L 42.1875 30.90625 
Q 41.609375 37.453125 38.875 40.71875 
Q 34.671875 45.796875 27.984375 45.796875 
Q 21.921875 45.796875 17.796875 41.75 
Q 13.671875 37.703125 13.234375 30.90625 
z
" id="ArialMT-101"/>
      </defs>
      <g style="fill:#262626;" transform="translate(196.715234 324.957594)scale(0.11 -0.11)">
       <use xlink:href="#ArialMT-80"/>
       <use x="66.699219" xlink:href="#ArialMT-108"/>
       <use x="88.916016" xlink:href="#ArialMT-97"/>
       <use x="144.53125" xlink:href="#ArialMT-113"/>
       <use x="200.146484" xlink:href="#ArialMT-117"/>
       <use x="255.761719" xlink:href="#ArialMT-101"/>
      </g>
     </g>
    </g>
    <g id="xtick_5">
     <g id="text_5">
      <!-- Airways -->
      <defs>
       <path d="M -0.140625 0 
L 27.34375 71.578125 
L 37.546875 71.578125 
L 66.84375 0 
L 56.0625 0 
L 47.703125 21.6875 
L 17.78125 21.6875 
L 9.90625 0 
z
M 20.515625 29.390625 
L 44.78125 29.390625 
L 37.3125 49.21875 
Q 33.890625 58.25 32.234375 64.0625 
Q 30.859375 57.171875 28.375 50.390625 
z
" id="ArialMT-65"/>
       <path d="M 16.15625 0 
L 0.296875 51.859375 
L 9.375 51.859375 
L 17.625 21.921875 
L 20.703125 10.796875 
Q 20.90625 11.625 23.390625 21.484375 
L 31.640625 51.859375 
L 40.671875 51.859375 
L 48.4375 21.78125 
L 51.03125 11.859375 
L 54 21.875 
L 62.890625 51.859375 
L 71.4375 51.859375 
L 55.21875 0 
L 46.09375 0 
L 37.84375 31.0625 
L 35.84375 39.890625 
L 25.34375 0 
z
" id="ArialMT-119"/>
       <path d="M 6.203125 -19.96875 
L 5.21875 -11.71875 
Q 8.109375 -12.5 10.25 -12.5 
Q 13.1875 -12.5 14.9375 -11.515625 
Q 16.703125 -10.546875 17.828125 -8.796875 
Q 18.65625 -7.46875 20.515625 -2.25 
Q 20.75 -1.515625 21.296875 -0.09375 
L 1.609375 51.859375 
L 11.078125 51.859375 
L 21.875 21.828125 
Q 23.96875 16.109375 25.640625 9.8125 
Q 27.15625 15.875 29.25 21.625 
L 40.328125 51.859375 
L 49.125 51.859375 
L 29.390625 -0.875 
Q 26.21875 -9.421875 24.46875 -12.640625 
Q 22.125 -17 19.09375 -19.015625 
Q 16.0625 -21.046875 11.859375 -21.046875 
Q 9.328125 -21.046875 6.203125 -19.96875 
z
" id="ArialMT-121"/>
       <path d="M 3.078125 15.484375 
L 11.765625 16.84375 
Q 12.5 11.625 15.84375 8.84375 
Q 19.1875 6.0625 25.203125 6.0625 
Q 31.25 6.0625 34.171875 8.515625 
Q 37.109375 10.984375 37.109375 14.3125 
Q 37.109375 17.28125 34.515625 19 
Q 32.71875 20.171875 25.53125 21.96875 
Q 15.875 24.421875 12.140625 26.203125 
Q 8.40625 27.984375 6.46875 31.125 
Q 4.546875 34.28125 4.546875 38.09375 
Q 4.546875 41.546875 6.125 44.5 
Q 7.71875 47.46875 10.453125 49.421875 
Q 12.5 50.921875 16.03125 51.96875 
Q 19.578125 53.03125 23.640625 53.03125 
Q 29.734375 53.03125 34.34375 51.265625 
Q 38.96875 49.515625 41.15625 46.5 
Q 43.359375 43.5 44.1875 38.484375 
L 35.59375 37.3125 
Q 35.015625 41.3125 32.203125 43.546875 
Q 29.390625 45.796875 24.265625 45.796875 
Q 18.21875 45.796875 15.625 43.796875 
Q 13.03125 41.796875 13.03125 39.109375 
Q 13.03125 37.40625 14.109375 36.03125 
Q 15.1875 34.625 17.484375 33.6875 
Q 18.796875 33.203125 25.25 31.453125 
Q 34.578125 28.953125 38.25 27.359375 
Q 41.9375 25.78125 44.03125 22.75 
Q 46.140625 19.734375 46.140625 15.234375 
Q 46.140625 10.84375 43.578125 6.953125 
Q 41.015625 3.078125 36.171875 0.953125 
Q 31.34375 -1.171875 25.25 -1.171875 
Q 15.140625 -1.171875 9.84375 3.03125 
Q 4.546875 7.234375 3.078125 15.484375 
z
" id="ArialMT-115"/>
      </defs>
      <g style="fill:#262626;" transform="translate(239.227422 324.957594)scale(0.11 -0.11)">
       <use xlink:href="#ArialMT-65"/>
       <use x="66.699219" xlink:href="#ArialMT-105"/>
       <use x="88.916016" xlink:href="#ArialMT-114"/>
       <use x="122.216797" xlink:href="#ArialMT-119"/>
       <use x="194.433594" xlink:href="#ArialMT-97"/>
       <use x="250.048828" xlink:href="#ArialMT-121"/>
       <use x="300.048828" xlink:href="#ArialMT-115"/>
      </g>
     </g>
    </g>
    <g id="xtick_6">
     <g id="text_6">
      <!-- Skin -->
      <g style="fill:#262626;" transform="translate(292.420781 324.957594)scale(0.11 -0.11)">
       <use xlink:href="#ArialMT-83"/>
       <use x="66.699219" xlink:href="#ArialMT-107"/>
       <use x="116.699219" xlink:href="#ArialMT-105"/>
       <use x="138.916016" xlink:href="#ArialMT-110"/>
      </g>
     </g>
    </g>
    <g id="xtick_7">
     <g id="text_7">
      <!-- Stool -->
      <g style="fill:#262626;" transform="translate(335.224297 324.957594)scale(0.11 -0.11)">
       <use xlink:href="#ArialMT-83"/>
       <use x="66.699219" xlink:href="#ArialMT-116"/>
       <use x="94.482422" xlink:href="#ArialMT-111"/>
       <use x="150.097656" xlink:href="#ArialMT-111"/>
       <use x="205.712891" xlink:href="#ArialMT-108"/>
      </g>
     </g>
    </g>
    <g id="xtick_8">
     <g id="text_8">
      <!-- Vagina -->
      <defs>
       <path d="M 28.171875 0 
L 0.4375 71.578125 
L 10.6875 71.578125 
L 29.296875 19.578125 
Q 31.546875 13.328125 33.0625 7.859375 
Q 34.71875 13.71875 36.921875 19.578125 
L 56.25 71.578125 
L 65.921875 71.578125 
L 37.890625 0 
z
" id="ArialMT-86"/>
       <path d="M 4.984375 -4.296875 
L 13.53125 -5.5625 
Q 14.0625 -9.515625 16.5 -11.328125 
Q 19.78125 -13.765625 25.4375 -13.765625 
Q 31.546875 -13.765625 34.859375 -11.328125 
Q 38.1875 -8.890625 39.359375 -4.5 
Q 40.046875 -1.8125 39.984375 6.78125 
Q 34.234375 0 25.640625 0 
Q 14.9375 0 9.078125 7.71875 
Q 3.21875 15.4375 3.21875 26.21875 
Q 3.21875 33.640625 5.90625 39.90625 
Q 8.59375 46.1875 13.6875 49.609375 
Q 18.796875 53.03125 25.6875 53.03125 
Q 34.859375 53.03125 40.828125 45.609375 
L 40.828125 51.859375 
L 48.921875 51.859375 
L 48.921875 7.03125 
Q 48.921875 -5.078125 46.453125 -10.125 
Q 44 -15.1875 38.640625 -18.109375 
Q 33.296875 -21.046875 25.484375 -21.046875 
Q 16.21875 -21.046875 10.5 -16.875 
Q 4.78125 -12.703125 4.984375 -4.296875 
z
M 12.25 26.859375 
Q 12.25 16.65625 16.296875 11.96875 
Q 20.359375 7.28125 26.46875 7.28125 
Q 32.515625 7.28125 36.609375 11.9375 
Q 40.71875 16.609375 40.71875 26.5625 
Q 40.71875 36.078125 36.5 40.90625 
Q 32.28125 45.75 26.3125 45.75 
Q 20.453125 45.75 16.34375 40.984375 
Q 12.25 36.234375 12.25 26.859375 
z
" id="ArialMT-103"/>
      </defs>
      <g style="fill:#262626;" transform="translate(375.28125 324.957594)scale(0.11 -0.11)">
       <use xlink:href="#ArialMT-86"/>
       <use x="66.589844" xlink:href="#ArialMT-97"/>
       <use x="122.205078" xlink:href="#ArialMT-103"/>
       <use x="177.820312" xlink:href="#ArialMT-105"/>
       <use x="200.037109" xlink:href="#ArialMT-110"/>
       <use x="255.652344" xlink:href="#ArialMT-97"/>
      </g>
     </g>
    </g>
    <g id="text_9">
     <!-- Site -->
     <g style="fill:#262626;" transform="translate(225.82125 339.996187)scale(0.12 -0.12)">
      <use xlink:href="#ArialMT-83"/>
      <use x="66.699219" xlink:href="#ArialMT-105"/>
      <use x="88.916016" xlink:href="#ArialMT-116"/>
      <use x="116.699219" xlink:href="#ArialMT-101"/>
     </g>
    </g>
   </g>
   <g id="matplotlib.axis_2">
    <g id="ytick_1">
     <g id="line2d_1">
      <path clip-path="url(#pc0a958085a)" d="M 57.6 278.582256 
L 414.72 278.582256 
" style="fill:none;stroke:#cccccc;stroke-linecap:round;"/>
     </g>
     <g id="text_10">
      <!-- −50 -->
      <defs>
       <path d="M 52.828125 31.203125 
L 5.5625 31.203125 
L 5.5625 39.40625 
L 52.828125 39.40625 
z
" id="ArialMT-8722"/>
       <path d="M 4.15625 18.75 
L 13.375 19.53125 
Q 14.40625 12.796875 18.140625 9.390625 
Q 21.875 6 27.15625 6 
Q 33.5 6 37.890625 10.78125 
Q 42.28125 15.578125 42.28125 23.484375 
Q 42.28125 31 38.0625 35.34375 
Q 33.84375 39.703125 27 39.703125 
Q 22.75 39.703125 19.328125 37.765625 
Q 15.921875 35.84375 13.96875 32.765625 
L 5.71875 33.84375 
L 12.640625 70.609375 
L 48.25 70.609375 
L 48.25 62.203125 
L 19.671875 62.203125 
L 15.828125 42.96875 
Q 22.265625 47.46875 29.34375 47.46875 
Q 38.71875 47.46875 45.15625 40.96875 
Q 51.609375 34.46875 51.609375 24.265625 
Q 51.609375 14.546875 45.953125 7.46875 
Q 39.0625 -1.21875 27.15625 -1.21875 
Q 17.390625 -1.21875 11.203125 4.25 
Q 5.03125 9.71875 4.15625 18.75 
z
" id="ArialMT-53"/>
       <path d="M 4.15625 35.296875 
Q 4.15625 48 6.765625 55.734375 
Q 9.375 63.484375 14.515625 67.671875 
Q 19.671875 71.875 27.484375 71.875 
Q 33.25 71.875 37.59375 69.546875 
Q 41.9375 67.234375 44.765625 62.859375 
Q 47.609375 58.5 49.21875 52.21875 
Q 50.828125 45.953125 50.828125 35.296875 
Q 50.828125 22.703125 48.234375 14.96875 
Q 45.65625 7.234375 40.5 3 
Q 35.359375 -1.21875 27.484375 -1.21875 
Q 17.140625 -1.21875 11.234375 6.203125 
Q 4.15625 15.140625 4.15625 35.296875 
z
M 13.1875 35.296875 
Q 13.1875 17.671875 17.3125 11.828125 
Q 21.4375 6 27.484375 6 
Q 33.546875 6 37.671875 11.859375 
Q 41.796875 17.71875 41.796875 35.296875 
Q 41.796875 52.984375 37.671875 58.78125 
Q 33.546875 64.59375 27.390625 64.59375 
Q 21.34375 64.59375 17.71875 59.46875 
Q 13.1875 52.9375 13.1875 35.296875 
z
" id="ArialMT-48"/>
      </defs>
      <g style="fill:#262626;" transform="translate(29.44125 282.519053)scale(0.11 -0.11)">
       <use xlink:href="#ArialMT-8722"/>
       <use x="58.398438" xlink:href="#ArialMT-53"/>
       <use x="114.013672" xlink:href="#ArialMT-48"/>
      </g>
     </g>
    </g>
    <g id="ytick_2">
     <g id="line2d_2">
      <path clip-path="url(#pc0a958085a)" d="M 57.6 247.674978 
L 414.72 247.674978 
" style="fill:none;stroke:#cccccc;stroke-linecap:round;"/>
     </g>
     <g id="text_11">
      <!-- −25 -->
      <defs>
       <path d="M 50.34375 8.453125 
L 50.34375 0 
L 3.03125 0 
Q 2.9375 3.171875 4.046875 6.109375 
Q 5.859375 10.9375 9.828125 15.625 
Q 13.8125 20.3125 21.34375 26.46875 
Q 33.015625 36.03125 37.109375 41.625 
Q 41.21875 47.21875 41.21875 52.203125 
Q 41.21875 57.421875 37.46875 61 
Q 33.734375 64.59375 27.734375 64.59375 
Q 21.390625 64.59375 17.578125 60.78125 
Q 13.765625 56.984375 13.71875 50.25 
L 4.6875 51.171875 
Q 5.609375 61.28125 11.65625 66.578125 
Q 17.71875 71.875 27.9375 71.875 
Q 38.234375 71.875 44.234375 66.15625 
Q 50.25 60.453125 50.25 52 
Q 50.25 47.703125 48.484375 43.546875 
Q 46.734375 39.40625 42.65625 34.8125 
Q 38.578125 30.21875 29.109375 22.21875 
Q 21.1875 15.578125 18.9375 13.203125 
Q 16.703125 10.84375 15.234375 8.453125 
z
" id="ArialMT-50"/>
      </defs>
      <g style="fill:#262626;" transform="translate(29.44125 251.611775)scale(0.11 -0.11)">
       <use xlink:href="#ArialMT-8722"/>
       <use x="58.398438" xlink:href="#ArialMT-50"/>
       <use x="114.013672" xlink:href="#ArialMT-53"/>
      </g>
     </g>
    </g>
    <g id="ytick_3">
     <g id="line2d_3">
      <path clip-path="url(#pc0a958085a)" d="M 57.6 216.7677 
L 414.72 216.7677 
" style="fill:none;stroke:#cccccc;stroke-linecap:round;"/>
     </g>
     <g id="text_12">
      <!-- 0 -->
      <g style="fill:#262626;" transform="translate(41.982969 220.704497)scale(0.11 -0.11)">
       <use xlink:href="#ArialMT-48"/>
      </g>
     </g>
    </g>
    <g id="ytick_4">
     <g id="line2d_4">
      <path clip-path="url(#pc0a958085a)" d="M 57.6 185.860422 
L 414.72 185.860422 
" style="fill:none;stroke:#cccccc;stroke-linecap:round;"/>
     </g>
     <g id="text_13">
      <!-- 25 -->
      <g style="fill:#262626;" transform="translate(35.865938 189.797219)scale(0.11 -0.11)">
       <use xlink:href="#ArialMT-50"/>
       <use x="55.615234" xlink:href="#ArialMT-53"/>
      </g>
     </g>
    </g>
    <g id="ytick_5">
     <g id="line2d_5">
      <path clip-path="url(#pc0a958085a)" d="M 57.6 154.953144 
L 414.72 154.953144 
" style="fill:none;stroke:#cccccc;stroke-linecap:round;"/>
     </g>
     <g id="text_14">
      <!-- 50 -->
      <g style="fill:#262626;" transform="translate(35.865938 158.889941)scale(0.11 -0.11)">
       <use xlink:href="#ArialMT-53"/>
       <use x="55.615234" xlink:href="#ArialMT-48"/>
      </g>
     </g>
    </g>
    <g id="ytick_6">
     <g id="line2d_6">
      <path clip-path="url(#pc0a958085a)" d="M 57.6 124.045866 
L 414.72 124.045866 
" style="fill:none;stroke:#cccccc;stroke-linecap:round;"/>
     </g>
     <g id="text_15">
      <!-- 75 -->
      <defs>
       <path d="M 4.734375 62.203125 
L 4.734375 70.65625 
L 51.078125 70.65625 
L 51.078125 63.8125 
Q 44.234375 56.546875 37.515625 44.484375 
Q 30.8125 32.421875 27.15625 19.671875 
Q 24.515625 10.6875 23.78125 0 
L 14.75 0 
Q 14.890625 8.453125 18.0625 20.40625 
Q 21.234375 32.375 27.171875 43.484375 
Q 33.109375 54.59375 39.796875 62.203125 
z
" id="ArialMT-55"/>
      </defs>
      <g style="fill:#262626;" transform="translate(35.865938 127.982662)scale(0.11 -0.11)">
       <use xlink:href="#ArialMT-55"/>
       <use x="55.615234" xlink:href="#ArialMT-53"/>
      </g>
     </g>
    </g>
    <g id="ytick_7">
     <g id="line2d_7">
      <path clip-path="url(#pc0a958085a)" d="M 57.6 93.138587 
L 414.72 93.138587 
" style="fill:none;stroke:#cccccc;stroke-linecap:round;"/>
     </g>
     <g id="text_16">
      <!-- 100 -->
      <defs>
       <path d="M 37.25 0 
L 28.46875 0 
L 28.46875 56 
Q 25.296875 52.984375 20.140625 49.953125 
Q 14.984375 46.921875 10.890625 45.40625 
L 10.890625 53.90625 
Q 18.265625 57.375 23.78125 62.296875 
Q 29.296875 67.234375 31.59375 71.875 
L 37.25 71.875 
z
" id="ArialMT-49"/>
      </defs>
      <g style="fill:#262626;" transform="translate(29.748906 97.075384)scale(0.11 -0.11)">
       <use xlink:href="#ArialMT-49"/>
       <use x="55.615234" xlink:href="#ArialMT-48"/>
       <use x="111.230469" xlink:href="#ArialMT-48"/>
      </g>
     </g>
    </g>
    <g id="ytick_8">
     <g id="line2d_8">
      <path clip-path="url(#pc0a958085a)" d="M 57.6 62.231309 
L 414.72 62.231309 
" style="fill:none;stroke:#cccccc;stroke-linecap:round;"/>
     </g>
     <g id="text_17">
      <!-- 125 -->
      <g style="fill:#262626;" transform="translate(29.748906 66.168106)scale(0.11 -0.11)">
       <use xlink:href="#ArialMT-49"/>
       <use x="55.615234" xlink:href="#ArialMT-50"/>
       <use x="111.230469" xlink:href="#ArialMT-53"/>
      </g>
     </g>
    </g>
    <g id="text_18">
     <!-- Balance -->
     <defs>
      <path d="M 7.328125 0 
L 7.328125 71.578125 
L 34.1875 71.578125 
Q 42.390625 71.578125 47.34375 69.40625 
Q 52.296875 67.234375 55.09375 62.71875 
Q 57.90625 58.203125 57.90625 53.265625 
Q 57.90625 48.6875 55.421875 44.625 
Q 52.9375 40.578125 47.90625 38.09375 
Q 54.390625 36.1875 57.875 31.59375 
Q 61.375 27 61.375 20.75 
Q 61.375 15.71875 59.25 11.390625 
Q 57.125 7.078125 54 4.734375 
Q 50.875 2.390625 46.15625 1.1875 
Q 41.453125 0 34.625 0 
z
M 16.796875 41.5 
L 32.28125 41.5 
Q 38.578125 41.5 41.3125 42.328125 
Q 44.921875 43.40625 46.75 45.890625 
Q 48.578125 48.390625 48.578125 52.15625 
Q 48.578125 55.71875 46.875 58.421875 
Q 45.171875 61.140625 41.984375 62.140625 
Q 38.8125 63.140625 31.109375 63.140625 
L 16.796875 63.140625 
z
M 16.796875 8.453125 
L 34.625 8.453125 
Q 39.203125 8.453125 41.0625 8.796875 
Q 44.34375 9.375 46.53125 10.734375 
Q 48.734375 12.109375 50.140625 14.71875 
Q 51.5625 17.328125 51.5625 20.75 
Q 51.5625 24.75 49.515625 27.703125 
Q 47.46875 30.671875 43.828125 31.859375 
Q 40.1875 33.0625 33.34375 33.0625 
L 16.796875 33.0625 
z
" id="ArialMT-66"/>
     </defs>
     <g style="fill:#262626;" transform="translate(23.05625 196.209563)rotate(-90)scale(0.12 -0.12)">
      <use xlink:href="#ArialMT-66"/>
      <use x="66.699219" xlink:href="#ArialMT-97"/>
      <use x="122.314453" xlink:href="#ArialMT-108"/>
      <use x="144.53125" xlink:href="#ArialMT-97"/>
      <use x="200.146484" xlink:href="#ArialMT-110"/>
      <use x="255.761719" xlink:href="#ArialMT-99"/>
      <use x="305.761719" xlink:href="#ArialMT-101"/>
     </g>
    </g>
   </g>
   <g id="PolyCollection_1">
    <defs>
     <path d="M 79.930305 -59.141842 
L 79.909695 -59.141842 
L 79.899189 -60.486499 
L 79.88227 -61.831156 
L 79.858368 -63.175814 
L 79.828722 -64.520471 
L 79.796085 -65.865129 
L 79.763017 -67.209786 
L 79.729476 -68.554443 
L 79.691474 -69.899101 
L 79.642197 -71.243758 
L 79.575214 -72.588415 
L 79.487486 -73.933073 
L 79.37964 -75.27773 
L 79.252862 -76.622388 
L 79.104199 -77.967045 
L 78.9232 -79.311702 
L 78.691906 -80.65636 
L 78.388144 -82.001017 
L 77.990412 -83.345674 
L 77.481976 -84.690332 
L 76.852193 -86.034989 
L 76.094467 -87.379647 
L 75.202506 -88.724304 
L 74.168527 -90.068961 
L 72.986655 -91.413619 
L 71.661321 -92.758276 
L 70.216304 -94.102933 
L 68.698745 -95.447591 
L 67.175642 -96.792248 
L 65.725179 -98.136906 
L 64.427572 -99.481563 
L 63.358058 -100.82622 
L 62.580948 -102.170878 
L 62.142602 -103.515535 
L 62.064 -104.860192 
L 62.336998 -106.20485 
L 62.928008 -107.549507 
L 63.78802 -108.894165 
L 64.862858 -110.238822 
L 66.097556 -111.583479 
L 67.434441 -112.928137 
L 68.810797 -114.272794 
L 70.162567 -115.617451 
L 71.4345 -116.962109 
L 72.590256 -118.306766 
L 73.61511 -119.651424 
L 74.509783 -120.996081 
L 75.280901 -122.340738 
L 75.935116 -123.685396 
L 76.479427 -125.030053 
L 76.924573 -126.37471 
L 77.286887 -127.719368 
L 77.586656 -129.064025 
L 77.844257 -130.408683 
L 78.076312 -131.75334 
L 78.293315 -133.097997 
L 78.499203 -134.442655 
L 78.692752 -135.787312 
L 78.869913 -137.131969 
L 79.025893 -138.476627 
L 79.156427 -139.821284 
L 79.258646 -141.165942 
L 79.332115 -142.510599 
L 79.379763 -143.855256 
L 79.407854 -145.199914 
L 79.424567 -146.544571 
L 79.437837 -147.889228 
L 79.453615 -149.233886 
L 79.475359 -150.578543 
L 79.504525 -151.923201 
L 79.541167 -153.267858 
L 79.584004 -154.612515 
L 79.630187 -155.957173 
L 79.67559 -157.30183 
L 79.715955 -158.646487 
L 79.748355 -159.991145 
L 79.772069 -161.335802 
L 79.788446 -162.68046 
L 79.8 -164.025117 
L 79.809216 -165.369774 
L 79.817535 -166.714432 
L 79.8249 -168.059089 
L 79.830075 -169.403746 
L 79.831636 -170.748404 
L 79.829104 -172.093061 
L 79.823577 -173.437719 
L 79.817472 -174.782376 
L 79.813505 -176.127033 
L 79.813508 -177.471691 
L 79.817823 -178.816348 
L 79.825592 -180.161005 
L 79.835619 -181.505663 
L 79.847047 -182.85032 
L 79.859424 -184.194978 
L 79.872291 -185.539635 
L 79.88486 -186.884292 
L 79.8961 -188.22895 
L 79.905138 -189.573607 
L 79.911611 -190.918264 
L 79.915724 -192.262922 
L 79.924276 -192.262922 
L 79.924276 -192.262922 
L 79.928389 -190.918264 
L 79.934862 -189.573607 
L 79.9439 -188.22895 
L 79.95514 -186.884292 
L 79.967709 -185.539635 
L 79.980576 -184.194978 
L 79.992953 -182.85032 
L 80.004381 -181.505663 
L 80.014408 -180.161005 
L 80.022177 -178.816348 
L 80.026492 -177.471691 
L 80.026495 -176.127033 
L 80.022528 -174.782376 
L 80.016423 -173.437719 
L 80.010896 -172.093061 
L 80.008364 -170.748404 
L 80.009925 -169.403746 
L 80.0151 -168.059089 
L 80.022465 -166.714432 
L 80.030784 -165.369774 
L 80.04 -164.025117 
L 80.051554 -162.68046 
L 80.067931 -161.335802 
L 80.091645 -159.991145 
L 80.124045 -158.646487 
L 80.16441 -157.30183 
L 80.209813 -155.957173 
L 80.255996 -154.612515 
L 80.298833 -153.267858 
L 80.335475 -151.923201 
L 80.364641 -150.578543 
L 80.386385 -149.233886 
L 80.402163 -147.889228 
L 80.415433 -146.544571 
L 80.432146 -145.199914 
L 80.460237 -143.855256 
L 80.507885 -142.510599 
L 80.581354 -141.165942 
L 80.683573 -139.821284 
L 80.814107 -138.476627 
L 80.970087 -137.131969 
L 81.147248 -135.787312 
L 81.340797 -134.442655 
L 81.546685 -133.097997 
L 81.763688 -131.75334 
L 81.995743 -130.408683 
L 82.253344 -129.064025 
L 82.553113 -127.719368 
L 82.915427 -126.37471 
L 83.360573 -125.030053 
L 83.904884 -123.685396 
L 84.559099 -122.340738 
L 85.330217 -120.996081 
L 86.22489 -119.651424 
L 87.249744 -118.306766 
L 88.4055 -116.962109 
L 89.677433 -115.617451 
L 91.029203 -114.272794 
L 92.405559 -112.928137 
L 93.742444 -111.583479 
L 94.977142 -110.238822 
L 96.05198 -108.894165 
L 96.911992 -107.549507 
L 97.503002 -106.20485 
L 97.776 -104.860192 
L 97.697398 -103.515535 
L 97.259052 -102.170878 
L 96.481942 -100.82622 
L 95.412428 -99.481563 
L 94.114821 -98.136906 
L 92.664358 -96.792248 
L 91.141255 -95.447591 
L 89.623696 -94.102933 
L 88.178679 -92.758276 
L 86.853345 -91.413619 
L 85.671473 -90.068961 
L 84.637494 -88.724304 
L 83.745533 -87.379647 
L 82.987807 -86.034989 
L 82.358024 -84.690332 
L 81.849588 -83.345674 
L 81.451856 -82.001017 
L 81.148094 -80.65636 
L 80.9168 -79.311702 
L 80.735801 -77.967045 
L 80.587138 -76.622388 
L 80.46036 -75.27773 
L 80.352514 -73.933073 
L 80.264786 -72.588415 
L 80.197803 -71.243758 
L 80.148526 -69.899101 
L 80.110524 -68.554443 
L 80.076983 -67.209786 
L 80.043915 -65.865129 
L 80.011278 -64.520471 
L 79.981632 -63.175814 
L 79.95773 -61.831156 
L 79.940811 -60.486499 
L 79.930305 -59.141842 
z
" id="mb57f7cd776" style="stroke:#3e3e3e;stroke-width:0.5;"/>
    </defs>
    <g clip-path="url(#pc0a958085a)">
     <use style="fill:#df7f20;stroke:#3e3e3e;stroke-width:0.5;" x="0" xlink:href="#mb57f7cd776" y="345.6"/>
    </g>
   </g>
   <g id="PolyCollection_2">
    <defs>
     <path d="M 124.563786 -50.112 
L 124.556214 -50.112 
L 124.552279 -51.520271 
L 124.546111 -52.928542 
L 124.537634 -54.336813 
L 124.527013 -55.745083 
L 124.514147 -57.153354 
L 124.49834 -58.561625 
L 124.478887 -59.969896 
L 124.456307 -61.378167 
L 124.432856 -62.786438 
L 124.411218 -64.194708 
L 124.392214 -65.602979 
L 124.373746 -67.01125 
L 124.352147 -68.419521 
L 124.324758 -69.827792 
L 124.291362 -71.236063 
L 124.253107 -72.644333 
L 124.209525 -74.052604 
L 124.155735 -75.460875 
L 124.081953 -76.869146 
L 123.975468 -78.277417 
L 123.822447 -79.685688 
L 123.606367 -81.093959 
L 123.303765 -82.502229 
L 122.883358 -83.9105 
L 122.314274 -85.318771 
L 121.580601 -86.727042 
L 120.69056 -88.135313 
L 119.670192 -89.543584 
L 118.544208 -90.951854 
L 117.318357 -92.360125 
L 115.977601 -93.768396 
L 114.503849 -95.176667 
L 112.905119 -96.584938 
L 111.241445 -97.993209 
L 109.633225 -99.401479 
L 108.243544 -100.80975 
L 107.23543 -102.218021 
L 106.717439 -103.626292 
L 106.704 -105.034563 
L 107.118958 -106.442834 
L 107.84765 -107.851105 
L 108.803577 -109.259375 
L 109.958047 -110.667646 
L 111.311312 -112.075917 
L 112.836255 -113.484188 
L 114.447667 -114.892459 
L 116.021908 -116.30073 
L 117.446458 -117.709 
L 118.659849 -119.117271 
L 119.659286 -120.525542 
L 120.481448 -121.933813 
L 121.175411 -123.342084 
L 121.781582 -124.750355 
L 122.320901 -126.158625 
L 122.794301 -127.566896 
L 123.190971 -128.975167 
L 123.500648 -130.383438 
L 123.72267 -131.791709 
L 123.867612 -133.19998 
L 123.953479 -134.608251 
L 124.00125 -136.016521 
L 124.03193 -137.424792 
L 124.063731 -138.833063 
L 124.10828 -140.241334 
L 124.167686 -141.649605 
L 124.235383 -143.057876 
L 124.301001 -144.466146 
L 124.356091 -145.874417 
L 124.397161 -147.282688 
L 124.425018 -148.690959 
L 124.441899 -150.09923 
L 124.448681 -151.507501 
L 124.444006 -152.915771 
L 124.426094 -154.324042 
L 124.396215 -155.732313 
L 124.360959 -157.140584 
L 124.330746 -158.548855 
L 124.314916 -159.957126 
L 124.316899 -161.365397 
L 124.332988 -162.773667 
L 124.355177 -164.181938 
L 124.375563 -165.590209 
L 124.389546 -166.99848 
L 124.396696 -168.406751 
L 124.399668 -169.815022 
L 124.40217 -171.223292 
L 124.407183 -172.631563 
L 124.416183 -174.039834 
L 124.429262 -175.448105 
L 124.445496 -176.856376 
L 124.463299 -178.264647 
L 124.48097 -179.672917 
L 124.497351 -181.081188 
L 124.512073 -182.489459 
L 124.525153 -183.89773 
L 124.536437 -185.306001 
L 124.545502 -186.714272 
L 124.552023 -188.122543 
L 124.556124 -189.530813 
L 124.563876 -189.530813 
L 124.563876 -189.530813 
L 124.567977 -188.122543 
L 124.574498 -186.714272 
L 124.583563 -185.306001 
L 124.594847 -183.89773 
L 124.607927 -182.489459 
L 124.622649 -181.081188 
L 124.63903 -179.672917 
L 124.656701 -178.264647 
L 124.674504 -176.856376 
L 124.690738 -175.448105 
L 124.703817 -174.039834 
L 124.712817 -172.631563 
L 124.71783 -171.223292 
L 124.720332 -169.815022 
L 124.723304 -168.406751 
L 124.730454 -166.99848 
L 124.744437 -165.590209 
L 124.764823 -164.181938 
L 124.787012 -162.773667 
L 124.803101 -161.365397 
L 124.805084 -159.957126 
L 124.789254 -158.548855 
L 124.759041 -157.140584 
L 124.723785 -155.732313 
L 124.693906 -154.324042 
L 124.675994 -152.915771 
L 124.671319 -151.507501 
L 124.678101 -150.09923 
L 124.694982 -148.690959 
L 124.722839 -147.282688 
L 124.763909 -145.874417 
L 124.818999 -144.466146 
L 124.884617 -143.057876 
L 124.952314 -141.649605 
L 125.01172 -140.241334 
L 125.056269 -138.833063 
L 125.08807 -137.424792 
L 125.11875 -136.016521 
L 125.166521 -134.608251 
L 125.252388 -133.19998 
L 125.39733 -131.791709 
L 125.619352 -130.383438 
L 125.929029 -128.975167 
L 126.325699 -127.566896 
L 126.799099 -126.158625 
L 127.338418 -124.750355 
L 127.944589 -123.342084 
L 128.638552 -121.933813 
L 129.460714 -120.525542 
L 130.460151 -119.117271 
L 131.673542 -117.709 
L 133.098092 -116.30073 
L 134.672333 -114.892459 
L 136.283745 -113.484188 
L 137.808688 -112.075917 
L 139.161953 -110.667646 
L 140.316423 -109.259375 
L 141.27235 -107.851105 
L 142.001042 -106.442834 
L 142.416 -105.034563 
L 142.402561 -103.626292 
L 141.88457 -102.218021 
L 140.876456 -100.80975 
L 139.486775 -99.401479 
L 137.878555 -97.993209 
L 136.214881 -96.584938 
L 134.616151 -95.176667 
L 133.142399 -93.768396 
L 131.801643 -92.360125 
L 130.575792 -90.951854 
L 129.449808 -89.543584 
L 128.42944 -88.135313 
L 127.539399 -86.727042 
L 126.805726 -85.318771 
L 126.236642 -83.9105 
L 125.816235 -82.502229 
L 125.513633 -81.093959 
L 125.297553 -79.685688 
L 125.144532 -78.277417 
L 125.038047 -76.869146 
L 124.964265 -75.460875 
L 124.910475 -74.052604 
L 124.866893 -72.644333 
L 124.828638 -71.236063 
L 124.795242 -69.827792 
L 124.767853 -68.419521 
L 124.746254 -67.01125 
L 124.727786 -65.602979 
L 124.708782 -64.194708 
L 124.687144 -62.786438 
L 124.663693 -61.378167 
L 124.641113 -59.969896 
L 124.62166 -58.561625 
L 124.605853 -57.153354 
L 124.592987 -55.745083 
L 124.582366 -54.336813 
L 124.573889 -52.928542 
L 124.567721 -51.520271 
L 124.563786 -50.112 
z
" id="m814a9f66f8" style="stroke:#3e3e3e;stroke-width:0.5;"/>
    </defs>
    <g clip-path="url(#pc0a958085a)">
     <use style="fill:#905998;stroke:#3e3e3e;stroke-width:0.5;" x="0" xlink:href="#m814a9f66f8" y="345.6"/>
    </g>
   </g>
   <g id="PolyCollection_3">
    <defs>
     <path d="M 169.21033 -51.181923 
L 169.18967 -51.181923 
L 169.179357 -52.845067 
L 169.164279 -54.508212 
L 169.146347 -56.171357 
L 169.129662 -57.834501 
L 169.118536 -59.497646 
L 169.114555 -61.160791 
L 169.115228 -62.823935 
L 169.11582 -64.48708 
L 169.113 -66.150224 
L 169.106811 -67.813369 
L 169.099068 -69.476514 
L 169.089971 -71.139658 
L 169.076617 -72.802803 
L 169.05471 -74.465948 
L 169.020828 -76.129092 
L 168.971543 -77.792237 
L 168.899211 -79.455382 
L 168.788373 -81.118526 
L 168.616815 -82.781671 
L 168.361139 -84.444815 
L 168.002252 -86.10796 
L 167.525389 -87.771105 
L 166.912419 -89.434249 
L 166.129844 -91.097394 
L 165.121461 -92.760539 
L 163.816667 -94.423683 
L 162.160411 -96.086828 
L 160.158664 -97.749973 
L 157.918975 -99.413117 
L 155.658376 -101.076262 
L 153.660368 -102.739406 
L 152.190593 -104.402551 
L 151.411483 -106.065696 
L 151.344 -107.72884 
L 151.89591 -109.391985 
L 152.928887 -111.05513 
L 154.311739 -112.718274 
L 155.929276 -114.381419 
L 157.664077 -116.044563 
L 159.391152 -117.707708 
L 161.001522 -119.370853 
L 162.43241 -121.033997 
L 163.673089 -122.697142 
L 164.741244 -124.360287 
L 165.652354 -126.023431 
L 166.406433 -127.686576 
L 166.996666 -129.349721 
L 167.425991 -131.012865 
L 167.716018 -132.67601 
L 167.903366 -134.339154 
L 168.028299 -136.002299 
L 168.123205 -137.665444 
L 168.206533 -139.328588 
L 168.284372 -140.991733 
L 168.35755 -142.654878 
L 168.428787 -144.318022 
L 168.50508 -145.981167 
L 168.594479 -147.644312 
L 168.700282 -149.307456 
L 168.817156 -150.970601 
L 168.93232 -152.633745 
L 169.03141 -154.29689 
L 169.104987 -155.960035 
L 169.151219 -157.623179 
L 169.173574 -159.286324 
L 169.176045 -160.949469 
L 169.159634 -162.612613 
L 169.122585 -164.275758 
L 169.064495 -165.938903 
L 168.991735 -167.602047 
L 168.919469 -169.265192 
L 168.8668 -170.928336 
L 168.84706 -172.591481 
L 168.86054 -174.254626 
L 168.895648 -175.91777 
L 168.937095 -177.580915 
L 168.974113 -179.24406 
L 169.003373 -180.907204 
L 169.026999 -182.570349 
L 169.049055 -184.233493 
L 169.072806 -185.896638 
L 169.099108 -187.559783 
L 169.125954 -189.222927 
L 169.149327 -190.886072 
L 169.164948 -192.549217 
L 169.169842 -194.212361 
L 169.163133 -195.875506 
L 169.146291 -197.538651 
L 169.12312 -199.201795 
L 169.099185 -200.86494 
L 169.080444 -202.528084 
L 169.071571 -204.191229 
L 169.074763 -205.854374 
L 169.0893 -207.517518 
L 169.111776 -209.180663 
L 169.137093 -210.843808 
L 169.160196 -212.506952 
L 169.177813 -214.170097 
L 169.189168 -215.833242 
L 169.210832 -215.833242 
L 169.210832 -215.833242 
L 169.222187 -214.170097 
L 169.239804 -212.506952 
L 169.262907 -210.843808 
L 169.288224 -209.180663 
L 169.3107 -207.517518 
L 169.325237 -205.854374 
L 169.328429 -204.191229 
L 169.319556 -202.528084 
L 169.300815 -200.86494 
L 169.27688 -199.201795 
L 169.253709 -197.538651 
L 169.236867 -195.875506 
L 169.230158 -194.212361 
L 169.235052 -192.549217 
L 169.250673 -190.886072 
L 169.274046 -189.222927 
L 169.300892 -187.559783 
L 169.327194 -185.896638 
L 169.350945 -184.233493 
L 169.373001 -182.570349 
L 169.396627 -180.907204 
L 169.425887 -179.24406 
L 169.462905 -177.580915 
L 169.504352 -175.91777 
L 169.53946 -174.254626 
L 169.55294 -172.591481 
L 169.5332 -170.928336 
L 169.480531 -169.265192 
L 169.408265 -167.602047 
L 169.335505 -165.938903 
L 169.277415 -164.275758 
L 169.240366 -162.612613 
L 169.223955 -160.949469 
L 169.226426 -159.286324 
L 169.248781 -157.623179 
L 169.295013 -155.960035 
L 169.36859 -154.29689 
L 169.46768 -152.633745 
L 169.582844 -150.970601 
L 169.699718 -149.307456 
L 169.805521 -147.644312 
L 169.89492 -145.981167 
L 169.971213 -144.318022 
L 170.04245 -142.654878 
L 170.115628 -140.991733 
L 170.193467 -139.328588 
L 170.276795 -137.665444 
L 170.371701 -136.002299 
L 170.496634 -134.339154 
L 170.683982 -132.67601 
L 170.974009 -131.012865 
L 171.403334 -129.349721 
L 171.993567 -127.686576 
L 172.747646 -126.023431 
L 173.658756 -124.360287 
L 174.726911 -122.697142 
L 175.96759 -121.033997 
L 177.398478 -119.370853 
L 179.008848 -117.707708 
L 180.735923 -116.044563 
L 182.470724 -114.381419 
L 184.088261 -112.718274 
L 185.471113 -111.05513 
L 186.50409 -109.391985 
L 187.056 -107.72884 
L 186.988517 -106.065696 
L 186.209407 -104.402551 
L 184.739632 -102.739406 
L 182.741624 -101.076262 
L 180.481025 -99.413117 
L 178.241336 -97.749973 
L 176.239589 -96.086828 
L 174.583333 -94.423683 
L 173.278539 -92.760539 
L 172.270156 -91.097394 
L 171.487581 -89.434249 
L 170.874611 -87.771105 
L 170.397748 -86.10796 
L 170.038861 -84.444815 
L 169.783185 -82.781671 
L 169.611627 -81.118526 
L 169.500789 -79.455382 
L 169.428457 -77.792237 
L 169.379172 -76.129092 
L 169.34529 -74.465948 
L 169.323383 -72.802803 
L 169.310029 -71.139658 
L 169.300932 -69.476514 
L 169.293189 -67.813369 
L 169.287 -66.150224 
L 169.28418 -64.48708 
L 169.284772 -62.823935 
L 169.285445 -61.160791 
L 169.281464 -59.497646 
L 169.270338 -57.834501 
L 169.253653 -56.171357 
L 169.235721 -54.508212 
L 169.220643 -52.845067 
L 169.21033 -51.181923 
z
" id="m1b26e85105" style="stroke:#3e3e3e;stroke-width:0.5;"/>
    </defs>
    <g clip-path="url(#pc0a958085a)">
     <use style="fill:#cb3335;stroke:#3e3e3e;stroke-width:0.5;" x="0" xlink:href="#m1b26e85105" y="345.6"/>
    </g>
   </g>
   <g id="PolyCollection_4">
    <defs>
     <path d="M 213.84665 -52.860472 
L 213.83335 -52.860472 
L 213.826726 -54.344718 
L 213.816061 -55.828964 
L 213.800792 -57.313211 
L 213.781298 -58.797457 
L 213.758941 -60.281703 
L 213.73538 -61.76595 
L 213.711106 -63.250196 
L 213.683603 -64.734442 
L 213.646099 -66.218689 
L 213.588027 -67.702935 
L 213.497684 -69.187181 
L 213.366109 -70.671428 
L 213.189832 -72.155674 
L 212.970202 -73.63992 
L 212.708864 -75.124167 
L 212.401701 -76.608413 
L 212.035088 -78.092659 
L 211.587071 -79.576906 
L 211.032745 -81.061152 
L 210.350401 -82.545398 
L 209.525412 -84.029644 
L 208.551548 -85.513891 
L 207.431291 -86.998137 
L 206.176419 -88.482383 
L 204.809327 -89.96663 
L 203.36554 -91.450876 
L 201.896799 -92.935122 
L 200.471002 -94.419369 
L 199.164042 -95.903615 
L 198.043619 -97.387861 
L 197.153609 -98.872108 
L 196.510724 -100.356354 
L 196.117699 -101.8406 
L 195.984 -103.324847 
L 196.137001 -104.809093 
L 196.611383 -106.293339 
L 197.420379 -107.777586 
L 198.528292 -109.261832 
L 199.845964 -110.746078 
L 201.255629 -112.230325 
L 202.650136 -113.714571 
L 203.96176 -115.198817 
L 205.165749 -116.683064 
L 206.263515 -118.16731 
L 207.262687 -119.651556 
L 208.167467 -121.135803 
L 208.979803 -122.620049 
L 209.703156 -124.104295 
L 210.342544 -125.588542 
L 210.901847 -127.072788 
L 211.383017 -128.557034 
L 211.788901 -130.041281 
L 212.12661 -131.525527 
L 212.407496 -133.009773 
L 212.643358 -134.49402 
L 212.842222 -135.978266 
L 213.007261 -137.462512 
L 213.13932 -138.946759 
L 213.240433 -140.431005 
L 213.315403 -141.915251 
L 213.370779 -143.399498 
L 213.412882 -144.883744 
L 213.446768 -146.36799 
L 213.476514 -147.852237 
L 213.505749 -149.336483 
L 213.537279 -150.820729 
L 213.571792 -152.304976 
L 213.606765 -153.789222 
L 213.6369 -155.273468 
L 213.656494 -156.757715 
L 213.662697 -158.241961 
L 213.657627 -159.726207 
L 213.647689 -161.210454 
L 213.640216 -162.6947 
L 213.639651 -164.178946 
L 213.645981 -165.663193 
L 213.656334 -167.147439 
L 213.668048 -168.631685 
L 213.68043 -170.115932 
L 213.693925 -171.600178 
L 213.70794 -173.084424 
L 213.719712 -174.568671 
L 213.725557 -176.052917 
L 213.723619 -177.537163 
L 213.715836 -179.02141 
L 213.707341 -180.505656 
L 213.70348 -181.989902 
L 213.706536 -183.474149 
L 213.714646 -184.958395 
L 213.723699 -186.442641 
L 213.730699 -187.926888 
L 213.735926 -189.411134 
L 213.742334 -190.89538 
L 213.752942 -192.379627 
L 213.768443 -193.863873 
L 213.786763 -195.348119 
L 213.804514 -196.832366 
L 213.818917 -198.316612 
L 213.828865 -199.800858 
L 213.851135 -199.800858 
L 213.851135 -199.800858 
L 213.861083 -198.316612 
L 213.875486 -196.832366 
L 213.893237 -195.348119 
L 213.911557 -193.863873 
L 213.927058 -192.379627 
L 213.937666 -190.89538 
L 213.944074 -189.411134 
L 213.949301 -187.926888 
L 213.956301 -186.442641 
L 213.965354 -184.958395 
L 213.973464 -183.474149 
L 213.97652 -181.989902 
L 213.972659 -180.505656 
L 213.964164 -179.02141 
L 213.956381 -177.537163 
L 213.954443 -176.052917 
L 213.960288 -174.568671 
L 213.97206 -173.084424 
L 213.986075 -171.600178 
L 213.99957 -170.115932 
L 214.011952 -168.631685 
L 214.023666 -167.147439 
L 214.034019 -165.663193 
L 214.040349 -164.178946 
L 214.039784 -162.6947 
L 214.032311 -161.210454 
L 214.022373 -159.726207 
L 214.017303 -158.241961 
L 214.023506 -156.757715 
L 214.0431 -155.273468 
L 214.073235 -153.789222 
L 214.108208 -152.304976 
L 214.142721 -150.820729 
L 214.174251 -149.336483 
L 214.203486 -147.852237 
L 214.233232 -146.36799 
L 214.267118 -144.883744 
L 214.309221 -143.399498 
L 214.364597 -141.915251 
L 214.439567 -140.431005 
L 214.54068 -138.946759 
L 214.672739 -137.462512 
L 214.837778 -135.978266 
L 215.036642 -134.49402 
L 215.272504 -133.009773 
L 215.55339 -131.525527 
L 215.891099 -130.041281 
L 216.296983 -128.557034 
L 216.778153 -127.072788 
L 217.337456 -125.588542 
L 217.976844 -124.104295 
L 218.700197 -122.620049 
L 219.512533 -121.135803 
L 220.417313 -119.651556 
L 221.416485 -118.16731 
L 222.514251 -116.683064 
L 223.71824 -115.198817 
L 225.029864 -113.714571 
L 226.424371 -112.230325 
L 227.834036 -110.746078 
L 229.151708 -109.261832 
L 230.259621 -107.777586 
L 231.068617 -106.293339 
L 231.542999 -104.809093 
L 231.696 -103.324847 
L 231.562301 -101.8406 
L 231.169276 -100.356354 
L 230.526391 -98.872108 
L 229.636381 -97.387861 
L 228.515958 -95.903615 
L 227.208998 -94.419369 
L 225.783201 -92.935122 
L 224.31446 -91.450876 
L 222.870673 -89.96663 
L 221.503581 -88.482383 
L 220.248709 -86.998137 
L 219.128452 -85.513891 
L 218.154588 -84.029644 
L 217.329599 -82.545398 
L 216.647255 -81.061152 
L 216.092929 -79.576906 
L 215.644912 -78.092659 
L 215.278299 -76.608413 
L 214.971136 -75.124167 
L 214.709798 -73.63992 
L 214.490168 -72.155674 
L 214.313891 -70.671428 
L 214.182316 -69.187181 
L 214.091973 -67.702935 
L 214.033901 -66.218689 
L 213.996397 -64.734442 
L 213.968894 -63.250196 
L 213.94462 -61.76595 
L 213.921059 -60.281703 
L 213.898702 -58.797457 
L 213.879208 -57.313211 
L 213.863939 -55.828964 
L 213.853274 -54.344718 
L 213.84665 -52.860472 
z
" id="m905c08a2f4" style="stroke:#3e3e3e;stroke-width:0.5;"/>
    </defs>
    <g clip-path="url(#pc0a958085a)">
     <use style="fill:#59a257;stroke:#3e3e3e;stroke-width:0.5;" x="0" xlink:href="#m905c08a2f4" y="345.6"/>
    </g>
   </g>
   <g id="PolyCollection_5">
    <defs>
     <path d="M 258.503413 -115.148092 
L 258.456587 -115.148092 
L 258.439342 -116.734919 
L 258.414158 -118.321746 
L 258.380423 -119.908572 
L 258.339094 -121.495399 
L 258.293004 -123.082226 
L 258.246585 -124.669053 
L 258.204987 -126.25588 
L 258.172847 -127.842707 
L 258.153168 -129.429533 
L 258.146664 -131.01636 
L 258.151736 -132.603187 
L 258.164933 -134.190014 
L 258.181644 -135.776841 
L 258.196817 -137.363668 
L 258.205569 -138.950494 
L 258.203677 -140.537321 
L 258.187923 -142.124148 
L 258.156289 -143.710975 
L 258.10798 -145.297802 
L 258.043212 -146.884629 
L 257.96272 -148.471455 
L 257.866947 -150.058282 
L 257.755067 -151.645109 
L 257.624083 -153.231936 
L 257.468356 -154.818763 
L 257.279742 -156.40559 
L 257.048394 -157.992416 
L 256.764124 -159.579243 
L 256.418238 -161.16607 
L 256.005615 -162.752897 
L 255.526538 -164.339724 
L 254.987477 -165.92655 
L 254.400177 -167.513377 
L 253.779024 -169.100204 
L 253.137563 -170.687031 
L 252.485481 -172.273858 
L 251.827083 -173.860685 
L 251.161575 -175.447511 
L 250.484774 -177.034338 
L 249.791653 -178.621165 
L 249.078962 -180.207992 
L 248.346958 -181.794819 
L 247.599177 -183.381646 
L 246.839852 -184.968472 
L 246.07022 -186.555299 
L 245.286643 -188.142126 
L 244.483524 -189.728953 
L 243.661639 -191.31578 
L 242.838699 -192.902607 
L 242.056289 -194.489433 
L 241.378078 -196.07626 
L 240.878238 -197.663087 
L 240.624 -199.249914 
L 240.659094 -200.836741 
L 240.993897 -202.423568 
L 241.604541 -204.010394 
L 242.439391 -205.597221 
L 243.429382 -207.184048 
L 244.499143 -208.770875 
L 245.577363 -210.357702 
L 246.605875 -211.944528 
L 247.546803 -213.531355 
L 248.386245 -215.118182 
L 249.132879 -216.705009 
L 249.81108 -218.291836 
L 250.45043 -219.878663 
L 251.075255 -221.465489 
L 251.697981 -223.052316 
L 252.318308 -224.639143 
L 252.927458 -226.22597 
L 253.514609 -227.812797 
L 254.072151 -229.399624 
L 254.597593 -230.98645 
L 255.092039 -232.573277 
L 255.556841 -234.160104 
L 255.990609 -235.746931 
L 256.388137 -237.333758 
L 256.741556 -238.920585 
L 257.042923 -240.507411 
L 257.287001 -242.094238 
L 257.473212 -243.681065 
L 257.60628 -245.267892 
L 257.695622 -246.854719 
L 257.753776 -248.441546 
L 257.794276 -250.028372 
L 257.829419 -251.615199 
L 257.868427 -253.202026 
L 257.916447 -254.788853 
L 257.974601 -256.37568 
L 258.040893 -257.962506 
L 258.111531 -259.549333 
L 258.182162 -261.13616 
L 258.248758 -262.722987 
L 258.308128 -264.309814 
L 258.358171 -265.896641 
L 258.397968 -267.483467 
L 258.427735 -269.070294 
L 258.448603 -270.657121 
L 258.462272 -272.243948 
L 258.497728 -272.243948 
L 258.497728 -272.243948 
L 258.511397 -270.657121 
L 258.532265 -269.070294 
L 258.562032 -267.483467 
L 258.601829 -265.896641 
L 258.651872 -264.309814 
L 258.711242 -262.722987 
L 258.777838 -261.13616 
L 258.848469 -259.549333 
L 258.919107 -257.962506 
L 258.985399 -256.37568 
L 259.043553 -254.788853 
L 259.091573 -253.202026 
L 259.130581 -251.615199 
L 259.165724 -250.028372 
L 259.206224 -248.441546 
L 259.264378 -246.854719 
L 259.35372 -245.267892 
L 259.486788 -243.681065 
L 259.672999 -242.094238 
L 259.917077 -240.507411 
L 260.218444 -238.920585 
L 260.571863 -237.333758 
L 260.969391 -235.746931 
L 261.403159 -234.160104 
L 261.867961 -232.573277 
L 262.362407 -230.98645 
L 262.887849 -229.399624 
L 263.445391 -227.812797 
L 264.032542 -226.22597 
L 264.641692 -224.639143 
L 265.262019 -223.052316 
L 265.884745 -221.465489 
L 266.50957 -219.878663 
L 267.14892 -218.291836 
L 267.827121 -216.705009 
L 268.573755 -215.118182 
L 269.413197 -213.531355 
L 270.354125 -211.944528 
L 271.382637 -210.357702 
L 272.460857 -208.770875 
L 273.530618 -207.184048 
L 274.520609 -205.597221 
L 275.355459 -204.010394 
L 275.966103 -202.423568 
L 276.300906 -200.836741 
L 276.336 -199.249914 
L 276.081762 -197.663087 
L 275.581922 -196.07626 
L 274.903711 -194.489433 
L 274.121301 -192.902607 
L 273.298361 -191.31578 
L 272.476476 -189.728953 
L 271.673357 -188.142126 
L 270.88978 -186.555299 
L 270.120148 -184.968472 
L 269.360823 -183.381646 
L 268.613042 -181.794819 
L 267.881038 -180.207992 
L 267.168347 -178.621165 
L 266.475226 -177.034338 
L 265.798425 -175.447511 
L 265.132917 -173.860685 
L 264.474519 -172.273858 
L 263.822437 -170.687031 
L 263.180976 -169.100204 
L 262.559823 -167.513377 
L 261.972523 -165.92655 
L 261.433462 -164.339724 
L 260.954385 -162.752897 
L 260.541762 -161.16607 
L 260.195876 -159.579243 
L 259.911606 -157.992416 
L 259.680258 -156.40559 
L 259.491644 -154.818763 
L 259.335917 -153.231936 
L 259.204933 -151.645109 
L 259.093053 -150.058282 
L 258.99728 -148.471455 
L 258.916788 -146.884629 
L 258.85202 -145.297802 
L 258.803711 -143.710975 
L 258.772077 -142.124148 
L 258.756323 -140.537321 
L 258.754431 -138.950494 
L 258.763183 -137.363668 
L 258.778356 -135.776841 
L 258.795067 -134.190014 
L 258.808264 -132.603187 
L 258.813336 -131.01636 
L 258.806832 -129.429533 
L 258.787153 -127.842707 
L 258.755013 -126.25588 
L 258.713415 -124.669053 
L 258.666996 -123.082226 
L 258.620906 -121.495399 
L 258.579577 -119.908572 
L 258.545842 -118.321746 
L 258.520658 -116.734919 
L 258.503413 -115.148092 
z
" id="m63ee8b7c6e" style="stroke:#3e3e3e;stroke-width:0.5;"/>
    </defs>
    <g clip-path="url(#pc0a958085a)">
     <use style="fill:#999999;stroke:#3e3e3e;stroke-width:0.5;" x="0" xlink:href="#m63ee8b7c6e" y="345.6"/>
    </g>
   </g>
   <g id="PolyCollection_6">
    <defs>
     <path d="M 303.125981 -85.433661 
L 303.114019 -85.433661 
L 303.109754 -87.520513 
L 303.103595 -89.607365 
L 303.095428 -91.694216 
L 303.085526 -93.781068 
L 303.074603 -95.86792 
L 303.063702 -97.954772 
L 303.053894 -100.041624 
L 303.045844 -102.128476 
L 303.039416 -104.215328 
L 303.033449 -106.30218 
L 303.02584 -108.389032 
L 303.0139 -110.475884 
L 302.994898 -112.562736 
L 302.966617 -114.649587 
L 302.927809 -116.736439 
L 302.878419 -118.823291 
L 302.819487 -120.910143 
L 302.752622 -122.996995 
L 302.67904 -125.083847 
L 302.598364 -127.170699 
L 302.50761 -129.257551 
L 302.400888 -131.344403 
L 302.270172 -133.431255 
L 302.106989 -135.518107 
L 301.904366 -137.604958 
L 301.658098 -139.69181 
L 301.366703 -141.778662 
L 301.030151 -143.865514 
L 300.648269 -145.952366 
L 300.219952 -148.039218 
L 299.743837 -150.12607 
L 299.22005 -152.212922 
L 298.651766 -154.299774 
L 298.045339 -156.386626 
L 297.408617 -158.473478 
L 296.74831 -160.56033 
L 296.06795 -162.647181 
L 295.367802 -164.734033 
L 294.647019 -166.820885 
L 293.907251 -168.907737 
L 293.156176 -170.994589 
L 292.40928 -173.081441 
L 291.688606 -175.168293 
L 291.018099 -177.255145 
L 290.416505 -179.341997 
L 289.89021 -181.428849 
L 289.429201 -183.515701 
L 289.008703 -185.602552 
L 288.596868 -187.689404 
L 288.166016 -189.776256 
L 287.702927 -191.863108 
L 287.213863 -193.94996 
L 286.722401 -196.036812 
L 286.26156 -198.123664 
L 285.864174 -200.210516 
L 285.555794 -202.297368 
L 285.352593 -204.38422 
L 285.264 -206.471072 
L 285.297559 -208.557924 
L 285.462796 -210.644775 
L 285.771671 -212.731627 
L 286.235118 -214.818479 
L 286.857235 -216.905331 
L 287.630029 -218.992183 
L 288.531549 -221.079035 
L 289.528673 -223.165887 
L 290.583496 -225.252739 
L 291.660402 -227.339591 
L 292.730709 -229.426443 
L 293.77331 -231.513295 
L 294.77216 -233.600146 
L 295.713151 -235.686998 
L 296.582893 -237.77385 
L 297.370256 -239.860702 
L 298.069477 -241.947554 
L 298.682523 -244.034406 
L 299.218921 -246.121258 
L 299.692877 -248.20811 
L 300.119063 -250.294962 
L 300.509004 -252.381814 
L 300.8694 -254.468666 
L 301.20249 -256.555517 
L 301.507659 -258.642369 
L 301.783228 -260.729221 
L 302.027764 -262.816073 
L 302.240723 -264.902925 
L 302.422639 -266.989777 
L 302.575079 -269.076629 
L 302.70048 -271.163481 
L 302.80191 -273.250333 
L 302.88275 -275.337185 
L 302.946346 -277.424037 
L 302.995735 -279.510889 
L 303.033495 -281.59774 
L 303.061755 -283.684592 
L 303.082295 -285.771444 
L 303.096667 -287.858296 
L 303.106267 -289.945148 
L 303.112347 -292.032 
L 303.127653 -292.032 
L 303.127653 -292.032 
L 303.133733 -289.945148 
L 303.143333 -287.858296 
L 303.157705 -285.771444 
L 303.178245 -283.684592 
L 303.206505 -281.59774 
L 303.244265 -279.510889 
L 303.293654 -277.424037 
L 303.35725 -275.337185 
L 303.43809 -273.250333 
L 303.53952 -271.163481 
L 303.664921 -269.076629 
L 303.817361 -266.989777 
L 303.999277 -264.902925 
L 304.212236 -262.816073 
L 304.456772 -260.729221 
L 304.732341 -258.642369 
L 305.03751 -256.555517 
L 305.3706 -254.468666 
L 305.730996 -252.381814 
L 306.120937 -250.294962 
L 306.547123 -248.20811 
L 307.021079 -246.121258 
L 307.557477 -244.034406 
L 308.170523 -241.947554 
L 308.869744 -239.860702 
L 309.657107 -237.77385 
L 310.526849 -235.686998 
L 311.46784 -233.600146 
L 312.46669 -231.513295 
L 313.509291 -229.426443 
L 314.579598 -227.339591 
L 315.656504 -225.252739 
L 316.711327 -223.165887 
L 317.708451 -221.079035 
L 318.609971 -218.992183 
L 319.382765 -216.905331 
L 320.004882 -214.818479 
L 320.468329 -212.731627 
L 320.777204 -210.644775 
L 320.942441 -208.557924 
L 320.976 -206.471072 
L 320.887407 -204.38422 
L 320.684206 -202.297368 
L 320.375826 -200.210516 
L 319.97844 -198.123664 
L 319.517599 -196.036812 
L 319.026137 -193.94996 
L 318.537073 -191.863108 
L 318.073984 -189.776256 
L 317.643132 -187.689404 
L 317.231297 -185.602552 
L 316.810799 -183.515701 
L 316.34979 -181.428849 
L 315.823495 -179.341997 
L 315.221901 -177.255145 
L 314.551394 -175.168293 
L 313.83072 -173.081441 
L 313.083824 -170.994589 
L 312.332749 -168.907737 
L 311.592981 -166.820885 
L 310.872198 -164.734033 
L 310.17205 -162.647181 
L 309.49169 -160.56033 
L 308.831383 -158.473478 
L 308.194661 -156.386626 
L 307.588234 -154.299774 
L 307.01995 -152.212922 
L 306.496163 -150.12607 
L 306.020048 -148.039218 
L 305.591731 -145.952366 
L 305.209849 -143.865514 
L 304.873297 -141.778662 
L 304.581902 -139.69181 
L 304.335634 -137.604958 
L 304.133011 -135.518107 
L 303.969828 -133.431255 
L 303.839112 -131.344403 
L 303.73239 -129.257551 
L 303.641636 -127.170699 
L 303.56096 -125.083847 
L 303.487378 -122.996995 
L 303.420513 -120.910143 
L 303.361581 -118.823291 
L 303.312191 -116.736439 
L 303.273383 -114.649587 
L 303.245102 -112.562736 
L 303.2261 -110.475884 
L 303.21416 -108.389032 
L 303.206551 -106.30218 
L 303.200584 -104.215328 
L 303.194156 -102.128476 
L 303.186106 -100.041624 
L 303.176298 -97.954772 
L 303.165397 -95.86792 
L 303.154474 -93.781068 
L 303.144572 -91.694216 
L 303.136405 -89.607365 
L 303.130246 -87.520513 
L 303.125981 -85.433661 
z
" id="mdbaad864d8" style="stroke:#3e3e3e;stroke-width:0.5;"/>
    </defs>
    <g clip-path="url(#pc0a958085a)">
     <use style="fill:#477ca8;stroke:#3e3e3e;stroke-width:0.5;" x="0" xlink:href="#mdbaad864d8" y="345.6"/>
    </g>
   </g>
   <g id="PolyCollection_7">
    <defs>
     <path d="M 347.780347 -87.286701 
L 347.739653 -87.286701 
L 347.722158 -88.760875 
L 347.694426 -90.235049 
L 347.653911 -91.709223 
L 347.599413 -93.183398 
L 347.532079 -94.657572 
L 347.456013 -96.131746 
L 347.37809 -97.60592 
L 347.306762 -99.080095 
L 347.250015 -100.554269 
L 347.213045 -102.028443 
L 347.196468 -103.502617 
L 347.195797 -104.976792 
L 347.202462 -106.450966 
L 347.206075 -107.92514 
L 347.197147 -109.399314 
L 347.169323 -110.873489 
L 347.120424 -112.347663 
L 347.051971 -113.821837 
L 346.967465 -115.296011 
L 346.870149 -116.770186 
L 346.761354 -118.24436 
L 346.640224 -119.718534 
L 346.50485 -121.192708 
L 346.353787 -122.666883 
L 346.186555 -124.141057 
L 346.00229 -125.615231 
L 345.796981 -127.089405 
L 345.56077 -128.56358 
L 345.276886 -130.037754 
L 344.923043 -131.511928 
L 344.475099 -132.986102 
L 343.91217 -134.460277 
L 343.222166 -135.934451 
L 342.406665 -137.408625 
L 341.483736 -138.882799 
L 340.487133 -140.356974 
L 339.460775 -141.831148 
L 338.449132 -143.305322 
L 337.486424 -144.779496 
L 336.588913 -146.253671 
L 335.753734 -147.727845 
L 334.964712 -149.202019 
L 334.202313 -150.676193 
L 333.453264 -152.150368 
L 332.716492 -153.624542 
L 332.004529 -155.098716 
L 331.341765 -156.57289 
L 330.761394 -158.047065 
L 330.302046 -159.521239 
L 330.00396 -160.995413 
L 329.904 -162.469587 
L 330.028568 -163.943762 
L 330.383339 -165.417936 
L 330.939679 -166.89211 
L 331.621118 -168.366284 
L 332.299113 -169.840458 
L 332.810966 -171.314633 
L 333.007433 -172.788807 
L 332.821044 -174.262981 
L 332.325961 -175.737155 
L 331.751691 -177.21133 
L 331.427883 -178.685504 
L 331.672401 -180.159678 
L 332.669878 -181.633852 
L 334.398897 -183.108027 
L 336.642736 -184.582201 
L 339.074749 -186.056375 
L 341.372843 -187.530549 
L 343.310004 -189.004724 
L 344.789835 -190.478898 
L 345.829009 -191.953072 
L 346.511001 -193.427246 
L 346.938633 -194.901421 
L 347.202088 -196.375595 
L 347.365657 -197.849769 
L 347.468171 -199.323943 
L 347.530133 -200.798118 
L 347.562159 -202.272292 
L 347.571685 -203.746466 
L 347.566677 -205.22064 
L 347.556304 -206.694815 
L 347.549408 -208.168989 
L 347.55215 -209.643163 
L 347.566271 -211.117337 
L 347.588953 -212.591512 
L 347.614371 -214.065686 
L 347.636241 -215.53986 
L 347.650275 -217.014034 
L 347.655584 -218.488209 
L 347.654633 -219.962383 
L 347.651918 -221.436557 
L 347.652032 -222.910731 
L 347.657942 -224.384906 
L 347.670133 -225.85908 
L 347.686854 -227.333254 
L 347.705169 -228.807428 
L 347.722211 -230.281603 
L 347.736074 -231.755777 
L 347.746087 -233.229951 
L 347.773913 -233.229951 
L 347.773913 -233.229951 
L 347.783926 -231.755777 
L 347.797789 -230.281603 
L 347.814831 -228.807428 
L 347.833146 -227.333254 
L 347.849867 -225.85908 
L 347.862058 -224.384906 
L 347.867968 -222.910731 
L 347.868082 -221.436557 
L 347.865367 -219.962383 
L 347.864416 -218.488209 
L 347.869725 -217.014034 
L 347.883759 -215.53986 
L 347.905629 -214.065686 
L 347.931047 -212.591512 
L 347.953729 -211.117337 
L 347.96785 -209.643163 
L 347.970592 -208.168989 
L 347.963696 -206.694815 
L 347.953323 -205.22064 
L 347.948315 -203.746466 
L 347.957841 -202.272292 
L 347.989867 -200.798118 
L 348.051829 -199.323943 
L 348.154343 -197.849769 
L 348.317912 -196.375595 
L 348.581367 -194.901421 
L 349.008999 -193.427246 
L 349.690991 -191.953072 
L 350.730165 -190.478898 
L 352.209996 -189.004724 
L 354.147157 -187.530549 
L 356.445251 -186.056375 
L 358.877264 -184.582201 
L 361.121103 -183.108027 
L 362.850122 -181.633852 
L 363.847599 -180.159678 
L 364.092117 -178.685504 
L 363.768309 -177.21133 
L 363.194039 -175.737155 
L 362.698956 -174.262981 
L 362.512567 -172.788807 
L 362.709034 -171.314633 
L 363.220887 -169.840458 
L 363.898882 -168.366284 
L 364.580321 -166.89211 
L 365.136661 -165.417936 
L 365.491432 -163.943762 
L 365.616 -162.469587 
L 365.51604 -160.995413 
L 365.217954 -159.521239 
L 364.758606 -158.047065 
L 364.178235 -156.57289 
L 363.515471 -155.098716 
L 362.803508 -153.624542 
L 362.066736 -152.150368 
L 361.317687 -150.676193 
L 360.555288 -149.202019 
L 359.766266 -147.727845 
L 358.931087 -146.253671 
L 358.033576 -144.779496 
L 357.070868 -143.305322 
L 356.059225 -141.831148 
L 355.032867 -140.356974 
L 354.036264 -138.882799 
L 353.113335 -137.408625 
L 352.297834 -135.934451 
L 351.60783 -134.460277 
L 351.044901 -132.986102 
L 350.596957 -131.511928 
L 350.243114 -130.037754 
L 349.95923 -128.56358 
L 349.723019 -127.089405 
L 349.51771 -125.615231 
L 349.333445 -124.141057 
L 349.166213 -122.666883 
L 349.01515 -121.192708 
L 348.879776 -119.718534 
L 348.758646 -118.24436 
L 348.649851 -116.770186 
L 348.552535 -115.296011 
L 348.468029 -113.821837 
L 348.399576 -112.347663 
L 348.350677 -110.873489 
L 348.322853 -109.399314 
L 348.313925 -107.92514 
L 348.317538 -106.450966 
L 348.324203 -104.976792 
L 348.323532 -103.502617 
L 348.306955 -102.028443 
L 348.269985 -100.554269 
L 348.213238 -99.080095 
L 348.14191 -97.60592 
L 348.063987 -96.131746 
L 347.987921 -94.657572 
L 347.920587 -93.183398 
L 347.866089 -91.709223 
L 347.825574 -90.235049 
L 347.797842 -88.760875 
L 347.780347 -87.286701 
z
" id="m9e6856f512" style="stroke:#3e3e3e;stroke-width:0.5;"/>
    </defs>
    <g clip-path="url(#pc0a958085a)">
     <use style="fill:#965a38;stroke:#3e3e3e;stroke-width:0.5;" x="0" xlink:href="#m9e6856f512" y="345.6"/>
    </g>
   </g>
   <g id="PolyCollection_8">
    <defs>
     <path d="M 392.411613 -88.884392 
L 392.388387 -88.884392 
L 392.37903 -90.595772 
L 392.364933 -92.307153 
L 392.345534 -94.018533 
L 392.321092 -95.729914 
L 392.29271 -97.441294 
L 392.261898 -99.152674 
L 392.229758 -100.864055 
L 392.196162 -102.575435 
L 392.1594 -104.286816 
L 392.116574 -105.998196 
L 392.064581 -107.709576 
L 392.001165 -109.420957 
L 391.92547 -111.132337 
L 391.837835 -112.843718 
L 391.739054 -114.555098 
L 391.629644 -116.266478 
L 391.509586 -117.977859 
L 391.37862 -119.689239 
L 391.23676 -121.40062 
L 391.084579 -123.112 
L 390.923079 -124.82338 
L 390.753312 -126.534761 
L 390.576022 -128.246141 
L 390.391362 -129.957522 
L 390.198424 -131.668902 
L 389.994323 -133.380282 
L 389.772924 -135.091663 
L 389.52378 -136.803043 
L 389.232056 -138.514424 
L 388.87997 -140.225804 
L 388.449741 -141.937184 
L 387.927403 -143.648565 
L 387.306373 -145.359945 
L 386.589284 -147.071326 
L 385.786779 -148.782706 
L 384.912832 -150.494086 
L 383.978077 -152.205467 
L 382.984607 -153.916847 
L 381.926403 -155.628228 
L 380.797537 -157.339608 
L 379.606029 -159.050988 
L 378.386955 -160.762369 
L 377.207099 -162.473749 
L 376.156322 -164.185129 
L 375.326407 -165.89651 
L 374.783549 -167.60789 
L 374.544 -169.319271 
L 374.563117 -171.030651 
L 374.745637 -172.742031 
L 374.978298 -174.453412 
L 375.175144 -176.164792 
L 375.315829 -177.876173 
L 375.456066 -179.587553 
L 375.701598 -181.298933 
L 376.157277 -183.010314 
L 376.877789 -184.721694 
L 377.845185 -186.433075 
L 378.981666 -188.144455 
L 380.186051 -189.855835 
L 381.372275 -191.567216 
L 382.492185 -193.278596 
L 383.536987 -194.989977 
L 384.522807 -196.701357 
L 385.470739 -198.412737 
L 386.390675 -200.124118 
L 387.274205 -201.835498 
L 388.09736 -203.546879 
L 388.830417 -205.258259 
L 389.449866 -206.969639 
L 389.947437 -208.68102 
L 390.332773 -210.3924 
L 390.629304 -212.103781 
L 390.865757 -213.815161 
L 391.067336 -215.526541 
L 391.250173 -217.237922 
L 391.420508 -218.949302 
L 391.577693 -220.660683 
L 391.718549 -222.372063 
L 391.840737 -224.083443 
L 391.944056 -225.794824 
L 392.030013 -227.506204 
L 392.100737 -229.217585 
L 392.158212 -230.928965 
L 392.204091 -232.640345 
L 392.239835 -234.351726 
L 392.266829 -236.063106 
L 392.286368 -237.774487 
L 392.299675 -239.485867 
L 392.308097 -241.197247 
L 392.313339 -242.908628 
L 392.317479 -244.620008 
L 392.322585 -246.331389 
L 392.330082 -248.042769 
L 392.340275 -249.754149 
L 392.352322 -251.46553 
L 392.364699 -253.17691 
L 392.375868 -254.888291 
L 392.384809 -256.599671 
L 392.391209 -258.311051 
L 392.408791 -258.311051 
L 392.408791 -258.311051 
L 392.415191 -256.599671 
L 392.424132 -254.888291 
L 392.435301 -253.17691 
L 392.447678 -251.46553 
L 392.459725 -249.754149 
L 392.469918 -248.042769 
L 392.477415 -246.331389 
L 392.482521 -244.620008 
L 392.486661 -242.908628 
L 392.491903 -241.197247 
L 392.500325 -239.485867 
L 392.513632 -237.774487 
L 392.533171 -236.063106 
L 392.560165 -234.351726 
L 392.595909 -232.640345 
L 392.641788 -230.928965 
L 392.699263 -229.217585 
L 392.769987 -227.506204 
L 392.855944 -225.794824 
L 392.959263 -224.083443 
L 393.081451 -222.372063 
L 393.222307 -220.660683 
L 393.379492 -218.949302 
L 393.549827 -217.237922 
L 393.732664 -215.526541 
L 393.934243 -213.815161 
L 394.170696 -212.103781 
L 394.467227 -210.3924 
L 394.852563 -208.68102 
L 395.350134 -206.969639 
L 395.969583 -205.258259 
L 396.70264 -203.546879 
L 397.525795 -201.835498 
L 398.409325 -200.124118 
L 399.329261 -198.412737 
L 400.277193 -196.701357 
L 401.263013 -194.989977 
L 402.307815 -193.278596 
L 403.427725 -191.567216 
L 404.613949 -189.855835 
L 405.818334 -188.144455 
L 406.954815 -186.433075 
L 407.922211 -184.721694 
L 408.642723 -183.010314 
L 409.098402 -181.298933 
L 409.343934 -179.587553 
L 409.484171 -177.876173 
L 409.624856 -176.164792 
L 409.821702 -174.453412 
L 410.054363 -172.742031 
L 410.236883 -171.030651 
L 410.256 -169.319271 
L 410.016451 -167.60789 
L 409.473593 -165.89651 
L 408.643678 -164.185129 
L 407.592901 -162.473749 
L 406.413045 -160.762369 
L 405.193971 -159.050988 
L 404.002463 -157.339608 
L 402.873597 -155.628228 
L 401.815393 -153.916847 
L 400.821923 -152.205467 
L 399.887168 -150.494086 
L 399.013221 -148.782706 
L 398.210716 -147.071326 
L 397.493627 -145.359945 
L 396.872597 -143.648565 
L 396.350259 -141.937184 
L 395.92003 -140.225804 
L 395.567944 -138.514424 
L 395.27622 -136.803043 
L 395.027076 -135.091663 
L 394.805677 -133.380282 
L 394.601576 -131.668902 
L 394.408638 -129.957522 
L 394.223978 -128.246141 
L 394.046688 -126.534761 
L 393.876921 -124.82338 
L 393.715421 -123.112 
L 393.56324 -121.40062 
L 393.42138 -119.689239 
L 393.290414 -117.977859 
L 393.170356 -116.266478 
L 393.060946 -114.555098 
L 392.962165 -112.843718 
L 392.87453 -111.132337 
L 392.798835 -109.420957 
L 392.735419 -107.709576 
L 392.683426 -105.998196 
L 392.6406 -104.286816 
L 392.603838 -102.575435 
L 392.570242 -100.864055 
L 392.538102 -99.152674 
L 392.50729 -97.441294 
L 392.478908 -95.729914 
L 392.454466 -94.018533 
L 392.435067 -92.307153 
L 392.42097 -90.595772 
L 392.411613 -88.884392 
z
" id="m5d7486f566" style="stroke:#3e3e3e;stroke-width:0.5;"/>
    </defs>
    <g clip-path="url(#pc0a958085a)">
     <use style="fill:#e890be;stroke:#3e3e3e;stroke-width:0.5;" x="0" xlink:href="#m5d7486f566" y="345.6"/>
    </g>
   </g>
   <g id="line2d_9">
    <path clip-path="url(#pc0a958085a)" d="M 79.92 266.506288 
L 79.92 212.897614 
" style="fill:none;stroke:#3e3e3e;stroke-linecap:round;stroke-width:0.5;"/>
   </g>
   <g id="line2d_10">
    <path clip-path="url(#pc0a958085a)" d="M 79.92 246.535983 
L 79.92 233.054847 
" style="fill:none;stroke:#3e3e3e;stroke-linecap:round;stroke-width:1.5;"/>
   </g>
   <g id="line2d_11">
    <path clip-path="url(#pc0a958085a)" d="M 124.56 264.661618 
L 124.56 215.67417 
" style="fill:none;stroke:#3e3e3e;stroke-linecap:round;stroke-width:0.5;"/>
   </g>
   <g id="line2d_12">
    <path clip-path="url(#pc0a958085a)" d="M 124.56 246.246629 
L 124.56 233.899357 
" style="fill:none;stroke:#3e3e3e;stroke-linecap:round;stroke-width:1.5;"/>
   </g>
   <g id="line2d_13">
    <path clip-path="url(#pc0a958085a)" d="M 169.2 259.558703 
L 169.2 213.403084 
" style="fill:none;stroke:#3e3e3e;stroke-linecap:round;stroke-width:0.5;"/>
   </g>
   <g id="line2d_14">
    <path clip-path="url(#pc0a958085a)" d="M 169.2 242.42173 
L 169.2 230.685618 
" style="fill:none;stroke:#3e3e3e;stroke-linecap:round;stroke-width:1.5;"/>
   </g>
   <g id="line2d_15">
    <path clip-path="url(#pc0a958085a)" d="M 213.84 271.356753 
L 213.84 211.911586 
" style="fill:none;stroke:#3e3e3e;stroke-linecap:round;stroke-width:0.5;"/>
   </g>
   <g id="line2d_16">
    <path clip-path="url(#pc0a958085a)" d="M 213.84 249.187642 
L 213.84 234.273768 
" style="fill:none;stroke:#3e3e3e;stroke-linecap:round;stroke-width:1.5;"/>
   </g>
   <g id="line2d_17">
    <path clip-path="url(#pc0a958085a)" d="M 258.48 190.856892 
L 258.48 103.702942 
" style="fill:none;stroke:#3e3e3e;stroke-linecap:round;stroke-width:0.5;"/>
   </g>
   <g id="line2d_18">
    <path clip-path="url(#pc0a958085a)" d="M 258.48 158.447521 
L 258.48 135.777527 
" style="fill:none;stroke:#3e3e3e;stroke-linecap:round;stroke-width:1.5;"/>
   </g>
   <g id="line2d_19">
    <path clip-path="url(#pc0a958085a)" d="M 303.12 217.634322 
L 303.12 76.213762 
" style="fill:none;stroke:#3e3e3e;stroke-linecap:round;stroke-width:0.5;"/>
   </g>
   <g id="line2d_20">
    <path clip-path="url(#pc0a958085a)" d="M 303.12 163.718881 
L 303.12 127.762033 
" style="fill:none;stroke:#3e3e3e;stroke-linecap:round;stroke-width:1.5;"/>
   </g>
   <g id="line2d_21">
    <path clip-path="url(#pc0a958085a)" d="M 347.76 228.84661 
L 347.76 135.546464 
" style="fill:none;stroke:#3e3e3e;stroke-linecap:round;stroke-width:0.5;"/>
   </g>
   <g id="line2d_22">
    <path clip-path="url(#pc0a958085a)" d="M 347.76 193.908399 
L 347.76 168.863088 
" style="fill:none;stroke:#3e3e3e;stroke-linecap:round;stroke-width:1.5;"/>
   </g>
   <g id="line2d_23">
    <path clip-path="url(#pc0a958085a)" d="M 392.4 216.094056 
L 392.4 130.135836 
" style="fill:none;stroke:#3e3e3e;stroke-linecap:round;stroke-width:0.5;"/>
   </g>
   <g id="line2d_24">
    <path clip-path="url(#pc0a958085a)" d="M 392.4 183.831606 
L 392.4 162.248621 
" style="fill:none;stroke:#3e3e3e;stroke-linecap:round;stroke-width:1.5;"/>
   </g>
   <g id="patch_3">
    <path d="M 57.6 307.584 
L 57.6 41.472 
" style="fill:none;stroke:#cccccc;stroke-linecap:square;stroke-linejoin:miter;stroke-width:1.25;"/>
   </g>
   <g id="patch_4">
    <path d="M 414.72 307.584 
L 414.72 41.472 
" style="fill:none;stroke:#cccccc;stroke-linecap:square;stroke-linejoin:miter;stroke-width:1.25;"/>
   </g>
   <g id="patch_5">
    <path d="M 57.6 307.584 
L 414.72 307.584 
" style="fill:none;stroke:#cccccc;stroke-linecap:square;stroke-linejoin:miter;stroke-width:1.25;"/>
   </g>
   <g id="patch_6">
    <path d="M 57.6 41.472 
L 414.72 41.472 
" style="fill:none;stroke:#cccccc;stroke-linecap:square;stroke-linejoin:miter;stroke-width:1.25;"/>
   </g>
   <g id="PathCollection_1">
    <defs>
     <path d="M 0 0.5 
C 0.132602 0.5 0.25979 0.447317 0.353553 0.353553 
C 0.447317 0.25979 0.5 0.132602 0.5 0 
C 0.5 -0.132602 0.447317 -0.25979 0.353553 -0.353553 
C 0.25979 -0.447317 0.132602 -0.5 0 -0.5 
C -0.132602 -0.5 -0.25979 -0.447317 -0.353553 -0.353553 
C -0.447317 -0.25979 -0.5 -0.132602 -0.5 0 
C -0.5 0.132602 -0.447317 0.25979 -0.353553 0.353553 
C -0.25979 0.447317 -0.132602 0.5 0 0.5 
z
" id="mdab9f3d538" style="stroke:#3e3e3e;"/>
    </defs>
    <g clip-path="url(#pc0a958085a)">
     <use style="fill:#ffffff;stroke:#3e3e3e;" x="79.92" xlink:href="#mdab9f3d538" y="240.159812"/>
    </g>
   </g>
   <g id="PathCollection_2">
    <g clip-path="url(#pc0a958085a)">
     <use style="fill:#ffffff;stroke:#3e3e3e;" x="124.56" xlink:href="#mdab9f3d538" y="240.552952"/>
    </g>
   </g>
   <g id="PathCollection_3">
    <g clip-path="url(#pc0a958085a)">
     <use style="fill:#ffffff;stroke:#3e3e3e;" x="169.2" xlink:href="#mdab9f3d538" y="237.12756"/>
    </g>
   </g>
   <g id="PathCollection_4">
    <g clip-path="url(#pc0a958085a)">
     <use style="fill:#ffffff;stroke:#3e3e3e;" x="213.84" xlink:href="#mdab9f3d538" y="241.78096"/>
    </g>
   </g>
   <g id="PathCollection_5">
    <g clip-path="url(#pc0a958085a)">
     <use style="fill:#ffffff;stroke:#3e3e3e;" x="258.48" xlink:href="#mdab9f3d538" y="146.445977"/>
    </g>
   </g>
   <g id="PathCollection_6">
    <g clip-path="url(#pc0a958085a)">
     <use style="fill:#ffffff;stroke:#3e3e3e;" x="303.12" xlink:href="#mdab9f3d538" y="144.157664"/>
    </g>
   </g>
   <g id="PathCollection_7">
    <g clip-path="url(#pc0a958085a)">
     <use style="fill:#ffffff;stroke:#3e3e3e;" x="347.76" xlink:href="#mdab9f3d538" y="182.296504"/>
    </g>
   </g>
   <g id="PathCollection_8">
    <g clip-path="url(#pc0a958085a)">
     <use style="fill:#ffffff;stroke:#3e3e3e;" x="392.4" xlink:href="#mdab9f3d538" y="173.495533"/>
    </g>
   </g>
  </g>
 </g>
 <defs>
  <clipPath id="pc0a958085a">
   <rect height="266.112" width="357.12" x="57.6" y="41.472"/>
  </clipPath>
 </defs>
</svg>
