<?xml version="1.0" encoding="utf-8" standalone="no"?>
<!DOCTYPE svg PUBLIC "-//W3C//DTD SVG 1.1//EN"
  "http://www.w3.org/Graphics/SVG/1.1/DTD/svg11.dtd">
<!-- Created with matplotlib (https://matplotlib.org/) -->
<svg height="345.6pt" version="1.1" viewBox="0 0 460.8 345.6" width="460.8pt" xmlns="http://www.w3.org/2000/svg" xmlns:xlink="http://www.w3.org/1999/xlink">
 <defs>
  <style type="text/css">
*{stroke-linecap:butt;stroke-linejoin:round;}
  </style>
 </defs>
 <g id="figure_1">
  <g id="patch_1">
   <path d="M 0 345.6 
L 460.8 345.6 
L 460.8 0 
L 0 0 
z
" style="fill:#ffffff;"/>
  </g>
  <g id="axes_1">
   <g id="patch_2">
    <path d="M 57.6 307.584 
L 414.72 307.584 
L 414.72 41.472 
L 57.6 41.472 
z
" style="fill:#ffffff;"/>
   </g>
   <g id="matplotlib.axis_1">
    <g id="xtick_1">
     <g id="text_1">
      <!-- Mouth (back) -->
      <defs>
       <path d="M 7.421875 0 
L 7.421875 71.578125 
L 21.6875 71.578125 
L 38.625 20.90625 
Q 40.96875 13.8125 42.046875 10.296875 
Q 43.265625 14.203125 45.84375 21.78125 
L 62.984375 71.578125 
L 75.734375 71.578125 
L 75.734375 0 
L 66.609375 0 
L 66.609375 59.90625 
L 45.796875 0 
L 37.25 0 
L 16.546875 60.9375 
L 16.546875 0 
z
" id="ArialMT-77"/>
       <path d="M 3.328125 25.921875 
Q 3.328125 40.328125 11.328125 47.265625 
Q 18.015625 53.03125 27.640625 53.03125 
Q 38.328125 53.03125 45.109375 46.015625 
Q 51.90625 39.015625 51.90625 26.65625 
Q 51.90625 16.65625 48.90625 10.90625 
Q 45.90625 5.171875 40.15625 2 
Q 34.421875 -1.171875 27.640625 -1.171875 
Q 16.75 -1.171875 10.03125 5.8125 
Q 3.328125 12.796875 3.328125 25.921875 
z
M 12.359375 25.921875 
Q 12.359375 15.96875 16.703125 11.015625 
Q 21.046875 6.0625 27.640625 6.0625 
Q 34.1875 6.0625 38.53125 11.03125 
Q 42.875 16.015625 42.875 26.21875 
Q 42.875 35.84375 38.5 40.796875 
Q 34.125 45.75 27.640625 45.75 
Q 21.046875 45.75 16.703125 40.8125 
Q 12.359375 35.890625 12.359375 25.921875 
z
" id="ArialMT-111"/>
       <path d="M 40.578125 0 
L 40.578125 7.625 
Q 34.515625 -1.171875 24.125 -1.171875 
Q 19.53125 -1.171875 15.546875 0.578125 
Q 11.578125 2.34375 9.640625 5 
Q 7.71875 7.671875 6.9375 11.53125 
Q 6.390625 14.109375 6.390625 19.734375 
L 6.390625 51.859375 
L 15.1875 51.859375 
L 15.1875 23.09375 
Q 15.1875 16.21875 15.71875 13.8125 
Q 16.546875 10.359375 19.234375 8.375 
Q 21.921875 6.390625 25.875 6.390625 
Q 29.828125 6.390625 33.296875 8.421875 
Q 36.765625 10.453125 38.203125 13.9375 
Q 39.65625 17.4375 39.65625 24.078125 
L 39.65625 51.859375 
L 48.4375 51.859375 
L 48.4375 0 
z
" id="ArialMT-117"/>
       <path d="M 25.78125 7.859375 
L 27.046875 0.09375 
Q 23.34375 -0.6875 20.40625 -0.6875 
Q 15.625 -0.6875 12.984375 0.828125 
Q 10.359375 2.34375 9.28125 4.8125 
Q 8.203125 7.28125 8.203125 15.1875 
L 8.203125 45.015625 
L 1.765625 45.015625 
L 1.765625 51.859375 
L 8.203125 51.859375 
L 8.203125 64.703125 
L 16.9375 69.96875 
L 16.9375 51.859375 
L 25.78125 51.859375 
L 25.78125 45.015625 
L 16.9375 45.015625 
L 16.9375 14.703125 
Q 16.9375 10.9375 17.40625 9.859375 
Q 17.875 8.796875 18.921875 8.15625 
Q 19.96875 7.515625 21.921875 7.515625 
Q 23.390625 7.515625 25.78125 7.859375 
z
" id="ArialMT-116"/>
       <path d="M 6.59375 0 
L 6.59375 71.578125 
L 15.375 71.578125 
L 15.375 45.90625 
Q 21.53125 53.03125 30.90625 53.03125 
Q 36.671875 53.03125 40.921875 50.75 
Q 45.171875 48.484375 47 44.484375 
Q 48.828125 40.484375 48.828125 32.859375 
L 48.828125 0 
L 40.046875 0 
L 40.046875 32.859375 
Q 40.046875 39.453125 37.1875 42.453125 
Q 34.328125 45.453125 29.109375 45.453125 
Q 25.203125 45.453125 21.75 43.421875 
Q 18.3125 41.40625 16.84375 37.9375 
Q 15.375 34.46875 15.375 28.375 
L 15.375 0 
z
" id="ArialMT-104"/>
       <path id="ArialMT-32"/>
       <path d="M 23.390625 -21.046875 
Q 16.109375 -11.859375 11.078125 0.4375 
Q 6.0625 12.75 6.0625 25.921875 
Q 6.0625 37.546875 9.8125 48.1875 
Q 14.203125 60.546875 23.390625 72.796875 
L 29.6875 72.796875 
Q 23.78125 62.640625 21.875 58.296875 
Q 18.890625 51.5625 17.1875 44.234375 
Q 15.09375 35.109375 15.09375 25.875 
Q 15.09375 2.390625 29.6875 -21.046875 
z
" id="ArialMT-40"/>
       <path d="M 14.703125 0 
L 6.546875 0 
L 6.546875 71.578125 
L 15.328125 71.578125 
L 15.328125 46.046875 
Q 20.90625 53.03125 29.546875 53.03125 
Q 34.328125 53.03125 38.59375 51.09375 
Q 42.875 49.171875 45.625 45.671875 
Q 48.390625 42.1875 49.953125 37.25 
Q 51.515625 32.328125 51.515625 26.703125 
Q 51.515625 13.375 44.921875 6.09375 
Q 38.328125 -1.171875 29.109375 -1.171875 
Q 19.921875 -1.171875 14.703125 6.5 
z
M 14.59375 26.3125 
Q 14.59375 17 17.140625 12.84375 
Q 21.296875 6.0625 28.375 6.0625 
Q 34.125 6.0625 38.328125 11.0625 
Q 42.53125 16.0625 42.53125 25.984375 
Q 42.53125 36.140625 38.5 40.96875 
Q 34.46875 45.796875 28.765625 45.796875 
Q 23 45.796875 18.796875 40.796875 
Q 14.59375 35.796875 14.59375 26.3125 
z
" id="ArialMT-98"/>
       <path d="M 40.4375 6.390625 
Q 35.546875 2.25 31.03125 0.53125 
Q 26.515625 -1.171875 21.34375 -1.171875 
Q 12.796875 -1.171875 8.203125 3 
Q 3.609375 7.171875 3.609375 13.671875 
Q 3.609375 17.484375 5.34375 20.625 
Q 7.078125 23.78125 9.890625 25.6875 
Q 12.703125 27.59375 16.21875 28.5625 
Q 18.796875 29.25 24.03125 29.890625 
Q 34.671875 31.15625 39.703125 32.90625 
Q 39.75 34.71875 39.75 35.203125 
Q 39.75 40.578125 37.25 42.78125 
Q 33.890625 45.75 27.25 45.75 
Q 21.046875 45.75 18.09375 43.578125 
Q 15.140625 41.40625 13.71875 35.890625 
L 5.125 37.0625 
Q 6.296875 42.578125 8.984375 45.96875 
Q 11.671875 49.359375 16.75 51.1875 
Q 21.828125 53.03125 28.515625 53.03125 
Q 35.15625 53.03125 39.296875 51.46875 
Q 43.453125 49.90625 45.40625 47.53125 
Q 47.359375 45.171875 48.140625 41.546875 
Q 48.578125 39.3125 48.578125 33.453125 
L 48.578125 21.734375 
Q 48.578125 9.46875 49.140625 6.21875 
Q 49.703125 2.984375 51.375 0 
L 42.1875 0 
Q 40.828125 2.734375 40.4375 6.390625 
z
M 39.703125 26.03125 
Q 34.90625 24.078125 25.34375 22.703125 
Q 19.921875 21.921875 17.671875 20.9375 
Q 15.4375 19.96875 14.203125 18.09375 
Q 12.984375 16.21875 12.984375 13.921875 
Q 12.984375 10.40625 15.640625 8.0625 
Q 18.3125 5.71875 23.4375 5.71875 
Q 28.515625 5.71875 32.46875 7.9375 
Q 36.421875 10.15625 38.28125 14.015625 
Q 39.703125 17 39.703125 22.796875 
z
" id="ArialMT-97"/>
       <path d="M 40.4375 19 
L 49.078125 17.875 
Q 47.65625 8.9375 41.8125 3.875 
Q 35.984375 -1.171875 27.484375 -1.171875 
Q 16.84375 -1.171875 10.375 5.78125 
Q 3.90625 12.75 3.90625 25.734375 
Q 3.90625 34.125 6.6875 40.421875 
Q 9.46875 46.734375 15.15625 49.875 
Q 20.84375 53.03125 27.546875 53.03125 
Q 35.984375 53.03125 41.359375 48.75 
Q 46.734375 44.484375 48.25 36.625 
L 39.703125 35.296875 
Q 38.484375 40.53125 35.375 43.15625 
Q 32.28125 45.796875 27.875 45.796875 
Q 21.234375 45.796875 17.078125 41.03125 
Q 12.9375 36.28125 12.9375 25.984375 
Q 12.9375 15.53125 16.9375 10.796875 
Q 20.953125 6.0625 27.390625 6.0625 
Q 32.5625 6.0625 36.03125 9.234375 
Q 39.5 12.40625 40.4375 19 
z
" id="ArialMT-99"/>
       <path d="M 6.640625 0 
L 6.640625 71.578125 
L 15.4375 71.578125 
L 15.4375 30.765625 
L 36.234375 51.859375 
L 47.609375 51.859375 
L 27.78125 32.625 
L 49.609375 0 
L 38.765625 0 
L 21.625 26.515625 
L 15.4375 20.5625 
L 15.4375 0 
z
" id="ArialMT-107"/>
       <path d="M 12.359375 -21.046875 
L 6.0625 -21.046875 
Q 20.65625 2.390625 20.65625 25.875 
Q 20.65625 35.0625 18.5625 44.09375 
Q 16.890625 51.421875 13.921875 58.15625 
Q 12.015625 62.546875 6.0625 72.796875 
L 12.359375 72.796875 
Q 21.53125 60.546875 25.921875 48.1875 
Q 29.6875 37.546875 29.6875 25.921875 
Q 29.6875 12.75 24.625 0.4375 
Q 19.578125 -11.859375 12.359375 -21.046875 
z
" id="ArialMT-41"/>
      </defs>
      <g style="fill:#262626;" transform="translate(47.8275 325.091656)scale(0.11 -0.11)">
       <use xlink:href="#ArialMT-77"/>
       <use x="83.300781" xlink:href="#ArialMT-111"/>
       <use x="138.916016" xlink:href="#ArialMT-117"/>
       <use x="194.53125" xlink:href="#ArialMT-116"/>
       <use x="222.314453" xlink:href="#ArialMT-104"/>
       <use x="277.929688" xlink:href="#ArialMT-32"/>
       <use x="305.712891" xlink:href="#ArialMT-40"/>
       <use x="339.013672" xlink:href="#ArialMT-98"/>
       <use x="394.628906" xlink:href="#ArialMT-97"/>
       <use x="450.244141" xlink:href="#ArialMT-99"/>
       <use x="500.244141" xlink:href="#ArialMT-107"/>
       <use x="550.244141" xlink:href="#ArialMT-41"/>
      </g>
     </g>
    </g>
    <g id="xtick_2">
     <g id="text_2">
      <!-- Mouth (front) -->
      <defs>
       <path d="M 8.6875 0 
L 8.6875 45.015625 
L 0.921875 45.015625 
L 0.921875 51.859375 
L 8.6875 51.859375 
L 8.6875 57.375 
Q 8.6875 62.59375 9.625 65.140625 
Q 10.890625 68.5625 14.078125 70.671875 
Q 17.28125 72.796875 23.046875 72.796875 
Q 26.765625 72.796875 31.25 71.921875 
L 29.9375 64.265625 
Q 27.203125 64.75 24.75 64.75 
Q 20.75 64.75 19.09375 63.03125 
Q 17.4375 61.328125 17.4375 56.640625 
L 17.4375 51.859375 
L 27.546875 51.859375 
L 27.546875 45.015625 
L 17.4375 45.015625 
L 17.4375 0 
z
" id="ArialMT-102"/>
       <path d="M 6.5 0 
L 6.5 51.859375 
L 14.40625 51.859375 
L 14.40625 44 
Q 17.4375 49.515625 20 51.265625 
Q 22.5625 53.03125 25.640625 53.03125 
Q 30.078125 53.03125 34.671875 50.203125 
L 31.640625 42.046875 
Q 28.421875 43.953125 25.203125 43.953125 
Q 22.3125 43.953125 20.015625 42.21875 
Q 17.71875 40.484375 16.75 37.40625 
Q 15.28125 32.71875 15.28125 27.15625 
L 15.28125 0 
z
" id="ArialMT-114"/>
       <path d="M 6.59375 0 
L 6.59375 51.859375 
L 14.5 51.859375 
L 14.5 44.484375 
Q 20.21875 53.03125 31 53.03125 
Q 35.6875 53.03125 39.625 51.34375 
Q 43.5625 49.65625 45.515625 46.921875 
Q 47.46875 44.1875 48.25 40.4375 
Q 48.734375 37.984375 48.734375 31.890625 
L 48.734375 0 
L 39.9375 0 
L 39.9375 31.546875 
Q 39.9375 36.921875 38.90625 39.578125 
Q 37.890625 42.234375 35.28125 43.8125 
Q 32.671875 45.40625 29.15625 45.40625 
Q 23.53125 45.40625 19.453125 41.84375 
Q 15.375 38.28125 15.375 28.328125 
L 15.375 0 
z
" id="ArialMT-110"/>
      </defs>
      <g style="fill:#262626;" transform="translate(93.080234 325.091656)scale(0.11 -0.11)">
       <use xlink:href="#ArialMT-77"/>
       <use x="83.300781" xlink:href="#ArialMT-111"/>
       <use x="138.916016" xlink:href="#ArialMT-117"/>
       <use x="194.53125" xlink:href="#ArialMT-116"/>
       <use x="222.314453" xlink:href="#ArialMT-104"/>
       <use x="277.929688" xlink:href="#ArialMT-32"/>
       <use x="305.712891" xlink:href="#ArialMT-40"/>
       <use x="339.013672" xlink:href="#ArialMT-102"/>
       <use x="366.796875" xlink:href="#ArialMT-114"/>
       <use x="400.097656" xlink:href="#ArialMT-111"/>
       <use x="455.712891" xlink:href="#ArialMT-110"/>
       <use x="511.328125" xlink:href="#ArialMT-116"/>
       <use x="539.111328" xlink:href="#ArialMT-41"/>
      </g>
     </g>
    </g>
    <g id="xtick_3">
     <g id="text_3">
      <!-- Saliva -->
      <defs>
       <path d="M 4.5 23 
L 13.421875 23.78125 
Q 14.0625 18.40625 16.375 14.96875 
Q 18.703125 11.53125 23.578125 9.40625 
Q 28.46875 7.28125 34.578125 7.28125 
Q 39.984375 7.28125 44.140625 8.890625 
Q 48.296875 10.5 50.3125 13.296875 
Q 52.34375 16.109375 52.34375 19.4375 
Q 52.34375 22.796875 50.390625 25.3125 
Q 48.4375 27.828125 43.953125 29.546875 
Q 41.0625 30.671875 31.203125 33.03125 
Q 21.34375 35.40625 17.390625 37.5 
Q 12.25 40.1875 9.734375 44.15625 
Q 7.234375 48.140625 7.234375 53.078125 
Q 7.234375 58.5 10.296875 63.203125 
Q 13.375 67.921875 19.28125 70.359375 
Q 25.203125 72.796875 32.421875 72.796875 
Q 40.375 72.796875 46.453125 70.234375 
Q 52.546875 67.671875 55.8125 62.6875 
Q 59.078125 57.71875 59.328125 51.421875 
L 50.25 50.734375 
Q 49.515625 57.515625 45.28125 60.984375 
Q 41.0625 64.453125 32.8125 64.453125 
Q 24.21875 64.453125 20.28125 61.296875 
Q 16.359375 58.15625 16.359375 53.71875 
Q 16.359375 49.859375 19.140625 47.359375 
Q 21.875 44.875 33.421875 42.265625 
Q 44.96875 39.65625 49.265625 37.703125 
Q 55.515625 34.8125 58.484375 30.390625 
Q 61.46875 25.984375 61.46875 20.21875 
Q 61.46875 14.5 58.203125 9.4375 
Q 54.9375 4.390625 48.796875 1.578125 
Q 42.671875 -1.21875 35.015625 -1.21875 
Q 25.296875 -1.21875 18.71875 1.609375 
Q 12.15625 4.4375 8.421875 10.125 
Q 4.6875 15.828125 4.5 23 
z
" id="ArialMT-83"/>
       <path d="M 6.390625 0 
L 6.390625 71.578125 
L 15.1875 71.578125 
L 15.1875 0 
z
" id="ArialMT-108"/>
       <path d="M 6.640625 61.46875 
L 6.640625 71.578125 
L 15.4375 71.578125 
L 15.4375 61.46875 
z
M 6.640625 0 
L 6.640625 51.859375 
L 15.4375 51.859375 
L 15.4375 0 
z
" id="ArialMT-105"/>
       <path d="M 21 0 
L 1.265625 51.859375 
L 10.546875 51.859375 
L 21.6875 20.796875 
Q 23.484375 15.765625 25 10.359375 
Q 26.171875 14.453125 28.265625 20.21875 
L 39.796875 51.859375 
L 48.828125 51.859375 
L 29.203125 0 
z
" id="ArialMT-118"/>
      </defs>
      <g style="fill:#262626;" transform="translate(154.220234 324.957594)scale(0.11 -0.11)">
       <use xlink:href="#ArialMT-83"/>
       <use x="66.699219" xlink:href="#ArialMT-97"/>
       <use x="122.314453" xlink:href="#ArialMT-108"/>
       <use x="144.53125" xlink:href="#ArialMT-105"/>
       <use x="166.748047" xlink:href="#ArialMT-118"/>
       <use x="216.748047" xlink:href="#ArialMT-97"/>
      </g>
     </g>
    </g>
    <g id="xtick_4">
     <g id="text_4">
      <!-- Plaque -->
      <defs>
       <path d="M 7.71875 0 
L 7.71875 71.578125 
L 34.71875 71.578125 
Q 41.84375 71.578125 45.609375 70.90625 
Q 50.875 70.015625 54.4375 67.546875 
Q 58.015625 65.09375 60.1875 60.640625 
Q 62.359375 56.203125 62.359375 50.875 
Q 62.359375 41.75 56.546875 35.421875 
Q 50.734375 29.109375 35.546875 29.109375 
L 17.1875 29.109375 
L 17.1875 0 
z
M 17.1875 37.546875 
L 35.6875 37.546875 
Q 44.875 37.546875 48.734375 40.96875 
Q 52.59375 44.390625 52.59375 50.59375 
Q 52.59375 55.078125 50.3125 58.265625 
Q 48.046875 61.46875 44.34375 62.5 
Q 41.9375 63.140625 35.5 63.140625 
L 17.1875 63.140625 
z
" id="ArialMT-80"/>
       <path d="M 39.65625 -19.875 
L 39.65625 5.515625 
Q 37.59375 2.640625 33.90625 0.734375 
Q 30.21875 -1.171875 26.078125 -1.171875 
Q 16.84375 -1.171875 10.171875 6.203125 
Q 3.515625 13.578125 3.515625 26.421875 
Q 3.515625 34.234375 6.21875 40.421875 
Q 8.9375 46.625 14.078125 49.828125 
Q 19.234375 53.03125 25.390625 53.03125 
Q 35.015625 53.03125 40.53125 44.921875 
L 40.53125 51.859375 
L 48.4375 51.859375 
L 48.4375 -19.875 
z
M 12.546875 26.078125 
Q 12.546875 16.0625 16.75 11.0625 
Q 20.953125 6.0625 26.8125 6.0625 
Q 32.421875 6.0625 36.46875 10.8125 
Q 40.53125 15.578125 40.53125 25.296875 
Q 40.53125 35.640625 36.25 40.859375 
Q 31.984375 46.09375 26.21875 46.09375 
Q 20.515625 46.09375 16.53125 41.234375 
Q 12.546875 36.375 12.546875 26.078125 
z
" id="ArialMT-113"/>
       <path d="M 42.09375 16.703125 
L 51.171875 15.578125 
Q 49.03125 7.625 43.21875 3.21875 
Q 37.40625 -1.171875 28.375 -1.171875 
Q 17 -1.171875 10.328125 5.828125 
Q 3.65625 12.84375 3.65625 25.484375 
Q 3.65625 38.578125 10.390625 45.796875 
Q 17.140625 53.03125 27.875 53.03125 
Q 38.28125 53.03125 44.875 45.953125 
Q 51.46875 38.875 51.46875 26.03125 
Q 51.46875 25.25 51.421875 23.6875 
L 12.75 23.6875 
Q 13.234375 15.140625 17.578125 10.59375 
Q 21.921875 6.0625 28.421875 6.0625 
Q 33.25 6.0625 36.671875 8.59375 
Q 40.09375 11.140625 42.09375 16.703125 
z
M 13.234375 30.90625 
L 42.1875 30.90625 
Q 41.609375 37.453125 38.875 40.71875 
Q 34.671875 45.796875 27.984375 45.796875 
Q 21.921875 45.796875 17.796875 41.75 
Q 13.671875 37.703125 13.234375 30.90625 
z
" id="ArialMT-101"/>
      </defs>
      <g style="fill:#262626;" transform="translate(196.715234 324.957594)scale(0.11 -0.11)">
       <use xlink:href="#ArialMT-80"/>
       <use x="66.699219" xlink:href="#ArialMT-108"/>
       <use x="88.916016" xlink:href="#ArialMT-97"/>
       <use x="144.53125" xlink:href="#ArialMT-113"/>
       <use x="200.146484" xlink:href="#ArialMT-117"/>
       <use x="255.761719" xlink:href="#ArialMT-101"/>
      </g>
     </g>
    </g>
    <g id="xtick_5">
     <g id="text_5">
      <!-- Airways -->
      <defs>
       <path d="M -0.140625 0 
L 27.34375 71.578125 
L 37.546875 71.578125 
L 66.84375 0 
L 56.0625 0 
L 47.703125 21.6875 
L 17.78125 21.6875 
L 9.90625 0 
z
M 20.515625 29.390625 
L 44.78125 29.390625 
L 37.3125 49.21875 
Q 33.890625 58.25 32.234375 64.0625 
Q 30.859375 57.171875 28.375 50.390625 
z
" id="ArialMT-65"/>
       <path d="M 16.15625 0 
L 0.296875 51.859375 
L 9.375 51.859375 
L 17.625 21.921875 
L 20.703125 10.796875 
Q 20.90625 11.625 23.390625 21.484375 
L 31.640625 51.859375 
L 40.671875 51.859375 
L 48.4375 21.78125 
L 51.03125 11.859375 
L 54 21.875 
L 62.890625 51.859375 
L 71.4375 51.859375 
L 55.21875 0 
L 46.09375 0 
L 37.84375 31.0625 
L 35.84375 39.890625 
L 25.34375 0 
z
" id="ArialMT-119"/>
       <path d="M 6.203125 -19.96875 
L 5.21875 -11.71875 
Q 8.109375 -12.5 10.25 -12.5 
Q 13.1875 -12.5 14.9375 -11.515625 
Q 16.703125 -10.546875 17.828125 -8.796875 
Q 18.65625 -7.46875 20.515625 -2.25 
Q 20.75 -1.515625 21.296875 -0.09375 
L 1.609375 51.859375 
L 11.078125 51.859375 
L 21.875 21.828125 
Q 23.96875 16.109375 25.640625 9.8125 
Q 27.15625 15.875 29.25 21.625 
L 40.328125 51.859375 
L 49.125 51.859375 
L 29.390625 -0.875 
Q 26.21875 -9.421875 24.46875 -12.640625 
Q 22.125 -17 19.09375 -19.015625 
Q 16.0625 -21.046875 11.859375 -21.046875 
Q 9.328125 -21.046875 6.203125 -19.96875 
z
" id="ArialMT-121"/>
       <path d="M 3.078125 15.484375 
L 11.765625 16.84375 
Q 12.5 11.625 15.84375 8.84375 
Q 19.1875 6.0625 25.203125 6.0625 
Q 31.25 6.0625 34.171875 8.515625 
Q 37.109375 10.984375 37.109375 14.3125 
Q 37.109375 17.28125 34.515625 19 
Q 32.71875 20.171875 25.53125 21.96875 
Q 15.875 24.421875 12.140625 26.203125 
Q 8.40625 27.984375 6.46875 31.125 
Q 4.546875 34.28125 4.546875 38.09375 
Q 4.546875 41.546875 6.125 44.5 
Q 7.71875 47.46875 10.453125 49.421875 
Q 12.5 50.921875 16.03125 51.96875 
Q 19.578125 53.03125 23.640625 53.03125 
Q 29.734375 53.03125 34.34375 51.265625 
Q 38.96875 49.515625 41.15625 46.5 
Q 43.359375 43.5 44.1875 38.484375 
L 35.59375 37.3125 
Q 35.015625 41.3125 32.203125 43.546875 
Q 29.390625 45.796875 24.265625 45.796875 
Q 18.21875 45.796875 15.625 43.796875 
Q 13.03125 41.796875 13.03125 39.109375 
Q 13.03125 37.40625 14.109375 36.03125 
Q 15.1875 34.625 17.484375 33.6875 
Q 18.796875 33.203125 25.25 31.453125 
Q 34.578125 28.953125 38.25 27.359375 
Q 41.9375 25.78125 44.03125 22.75 
Q 46.140625 19.734375 46.140625 15.234375 
Q 46.140625 10.84375 43.578125 6.953125 
Q 41.015625 3.078125 36.171875 0.953125 
Q 31.34375 -1.171875 25.25 -1.171875 
Q 15.140625 -1.171875 9.84375 3.03125 
Q 4.546875 7.234375 3.078125 15.484375 
z
" id="ArialMT-115"/>
      </defs>
      <g style="fill:#262626;" transform="translate(239.227422 324.957594)scale(0.11 -0.11)">
       <use xlink:href="#ArialMT-65"/>
       <use x="66.699219" xlink:href="#ArialMT-105"/>
       <use x="88.916016" xlink:href="#ArialMT-114"/>
       <use x="122.216797" xlink:href="#ArialMT-119"/>
       <use x="194.433594" xlink:href="#ArialMT-97"/>
       <use x="250.048828" xlink:href="#ArialMT-121"/>
       <use x="300.048828" xlink:href="#ArialMT-115"/>
      </g>
     </g>
    </g>
    <g id="xtick_6">
     <g id="text_6">
      <!-- Skin -->
      <g style="fill:#262626;" transform="translate(292.420781 324.957594)scale(0.11 -0.11)">
       <use xlink:href="#ArialMT-83"/>
       <use x="66.699219" xlink:href="#ArialMT-107"/>
       <use x="116.699219" xlink:href="#ArialMT-105"/>
       <use x="138.916016" xlink:href="#ArialMT-110"/>
      </g>
     </g>
    </g>
    <g id="xtick_7">
     <g id="text_7">
      <!-- Stool -->
      <g style="fill:#262626;" transform="translate(335.224297 324.957594)scale(0.11 -0.11)">
       <use xlink:href="#ArialMT-83"/>
       <use x="66.699219" xlink:href="#ArialMT-116"/>
       <use x="94.482422" xlink:href="#ArialMT-111"/>
       <use x="150.097656" xlink:href="#ArialMT-111"/>
       <use x="205.712891" xlink:href="#ArialMT-108"/>
      </g>
     </g>
    </g>
    <g id="xtick_8">
     <g id="text_8">
      <!-- Vagina -->
      <defs>
       <path d="M 28.171875 0 
L 0.4375 71.578125 
L 10.6875 71.578125 
L 29.296875 19.578125 
Q 31.546875 13.328125 33.0625 7.859375 
Q 34.71875 13.71875 36.921875 19.578125 
L 56.25 71.578125 
L 65.921875 71.578125 
L 37.890625 0 
z
" id="ArialMT-86"/>
       <path d="M 4.984375 -4.296875 
L 13.53125 -5.5625 
Q 14.0625 -9.515625 16.5 -11.328125 
Q 19.78125 -13.765625 25.4375 -13.765625 
Q 31.546875 -13.765625 34.859375 -11.328125 
Q 38.1875 -8.890625 39.359375 -4.5 
Q 40.046875 -1.8125 39.984375 6.78125 
Q 34.234375 0 25.640625 0 
Q 14.9375 0 9.078125 7.71875 
Q 3.21875 15.4375 3.21875 26.21875 
Q 3.21875 33.640625 5.90625 39.90625 
Q 8.59375 46.1875 13.6875 49.609375 
Q 18.796875 53.03125 25.6875 53.03125 
Q 34.859375 53.03125 40.828125 45.609375 
L 40.828125 51.859375 
L 48.921875 51.859375 
L 48.921875 7.03125 
Q 48.921875 -5.078125 46.453125 -10.125 
Q 44 -15.1875 38.640625 -18.109375 
Q 33.296875 -21.046875 25.484375 -21.046875 
Q 16.21875 -21.046875 10.5 -16.875 
Q 4.78125 -12.703125 4.984375 -4.296875 
z
M 12.25 26.859375 
Q 12.25 16.65625 16.296875 11.96875 
Q 20.359375 7.28125 26.46875 7.28125 
Q 32.515625 7.28125 36.609375 11.9375 
Q 40.71875 16.609375 40.71875 26.5625 
Q 40.71875 36.078125 36.5 40.90625 
Q 32.28125 45.75 26.3125 45.75 
Q 20.453125 45.75 16.34375 40.984375 
Q 12.25 36.234375 12.25 26.859375 
z
" id="ArialMT-103"/>
      </defs>
      <g style="fill:#262626;" transform="translate(375.28125 324.957594)scale(0.11 -0.11)">
       <use xlink:href="#ArialMT-86"/>
       <use x="66.589844" xlink:href="#ArialMT-97"/>
       <use x="122.205078" xlink:href="#ArialMT-103"/>
       <use x="177.820312" xlink:href="#ArialMT-105"/>
       <use x="200.037109" xlink:href="#ArialMT-110"/>
       <use x="255.652344" xlink:href="#ArialMT-97"/>
      </g>
     </g>
    </g>
    <g id="text_9">
     <!-- Site -->
     <g style="fill:#262626;" transform="translate(225.82125 339.996187)scale(0.12 -0.12)">
      <use xlink:href="#ArialMT-83"/>
      <use x="66.699219" xlink:href="#ArialMT-105"/>
      <use x="88.916016" xlink:href="#ArialMT-116"/>
      <use x="116.699219" xlink:href="#ArialMT-101"/>
     </g>
    </g>
   </g>
   <g id="matplotlib.axis_2">
    <g id="ytick_1">
     <g id="line2d_1">
      <path clip-path="url(#p3a9905912e)" d="M 57.6 270.30615 
L 414.72 270.30615 
" style="fill:none;stroke:#cccccc;stroke-linecap:round;"/>
     </g>
     <g id="text_10">
      <!-- −100 -->
      <defs>
       <path d="M 52.828125 31.203125 
L 5.5625 31.203125 
L 5.5625 39.40625 
L 52.828125 39.40625 
z
" id="ArialMT-8722"/>
       <path d="M 37.25 0 
L 28.46875 0 
L 28.46875 56 
Q 25.296875 52.984375 20.140625 49.953125 
Q 14.984375 46.921875 10.890625 45.40625 
L 10.890625 53.90625 
Q 18.265625 57.375 23.78125 62.296875 
Q 29.296875 67.234375 31.59375 71.875 
L 37.25 71.875 
z
" id="ArialMT-49"/>
       <path d="M 4.15625 35.296875 
Q 4.15625 48 6.765625 55.734375 
Q 9.375 63.484375 14.515625 67.671875 
Q 19.671875 71.875 27.484375 71.875 
Q 33.25 71.875 37.59375 69.546875 
Q 41.9375 67.234375 44.765625 62.859375 
Q 47.609375 58.5 49.21875 52.21875 
Q 50.828125 45.953125 50.828125 35.296875 
Q 50.828125 22.703125 48.234375 14.96875 
Q 45.65625 7.234375 40.5 3 
Q 35.359375 -1.21875 27.484375 -1.21875 
Q 17.140625 -1.21875 11.234375 6.203125 
Q 4.15625 15.140625 4.15625 35.296875 
z
M 13.1875 35.296875 
Q 13.1875 17.671875 17.3125 11.828125 
Q 21.4375 6 27.484375 6 
Q 33.546875 6 37.671875 11.859375 
Q 41.796875 17.71875 41.796875 35.296875 
Q 41.796875 52.984375 37.671875 58.78125 
Q 33.546875 64.59375 27.390625 64.59375 
Q 21.34375 64.59375 17.71875 59.46875 
Q 13.1875 52.9375 13.1875 35.296875 
z
" id="ArialMT-48"/>
      </defs>
      <g style="fill:#262626;" transform="translate(23.324219 274.242947)scale(0.11 -0.11)">
       <use xlink:href="#ArialMT-8722"/>
       <use x="58.398438" xlink:href="#ArialMT-49"/>
       <use x="114.013672" xlink:href="#ArialMT-48"/>
       <use x="169.628906" xlink:href="#ArialMT-48"/>
      </g>
     </g>
    </g>
    <g id="ytick_2">
     <g id="line2d_2">
      <path clip-path="url(#p3a9905912e)" d="M 57.6 223.586475 
L 414.72 223.586475 
" style="fill:none;stroke:#cccccc;stroke-linecap:round;"/>
     </g>
     <g id="text_11">
      <!-- −50 -->
      <defs>
       <path d="M 4.15625 18.75 
L 13.375 19.53125 
Q 14.40625 12.796875 18.140625 9.390625 
Q 21.875 6 27.15625 6 
Q 33.5 6 37.890625 10.78125 
Q 42.28125 15.578125 42.28125 23.484375 
Q 42.28125 31 38.0625 35.34375 
Q 33.84375 39.703125 27 39.703125 
Q 22.75 39.703125 19.328125 37.765625 
Q 15.921875 35.84375 13.96875 32.765625 
L 5.71875 33.84375 
L 12.640625 70.609375 
L 48.25 70.609375 
L 48.25 62.203125 
L 19.671875 62.203125 
L 15.828125 42.96875 
Q 22.265625 47.46875 29.34375 47.46875 
Q 38.71875 47.46875 45.15625 40.96875 
Q 51.609375 34.46875 51.609375 24.265625 
Q 51.609375 14.546875 45.953125 7.46875 
Q 39.0625 -1.21875 27.15625 -1.21875 
Q 17.390625 -1.21875 11.203125 4.25 
Q 5.03125 9.71875 4.15625 18.75 
z
" id="ArialMT-53"/>
      </defs>
      <g style="fill:#262626;" transform="translate(29.44125 227.523272)scale(0.11 -0.11)">
       <use xlink:href="#ArialMT-8722"/>
       <use x="58.398438" xlink:href="#ArialMT-53"/>
       <use x="114.013672" xlink:href="#ArialMT-48"/>
      </g>
     </g>
    </g>
    <g id="ytick_3">
     <g id="line2d_3">
      <path clip-path="url(#p3a9905912e)" d="M 57.6 176.8668 
L 414.72 176.8668 
" style="fill:none;stroke:#cccccc;stroke-linecap:round;"/>
     </g>
     <g id="text_12">
      <!-- 0 -->
      <g style="fill:#262626;" transform="translate(41.982969 180.803597)scale(0.11 -0.11)">
       <use xlink:href="#ArialMT-48"/>
      </g>
     </g>
    </g>
    <g id="ytick_4">
     <g id="line2d_4">
      <path clip-path="url(#p3a9905912e)" d="M 57.6 130.147125 
L 414.72 130.147125 
" style="fill:none;stroke:#cccccc;stroke-linecap:round;"/>
     </g>
     <g id="text_13">
      <!-- 50 -->
      <g style="fill:#262626;" transform="translate(35.865938 134.083922)scale(0.11 -0.11)">
       <use xlink:href="#ArialMT-53"/>
       <use x="55.615234" xlink:href="#ArialMT-48"/>
      </g>
     </g>
    </g>
    <g id="ytick_5">
     <g id="line2d_5">
      <path clip-path="url(#p3a9905912e)" d="M 57.6 83.42745 
L 414.72 83.42745 
" style="fill:none;stroke:#cccccc;stroke-linecap:round;"/>
     </g>
     <g id="text_14">
      <!-- 100 -->
      <g style="fill:#262626;" transform="translate(29.748906 87.364247)scale(0.11 -0.11)">
       <use xlink:href="#ArialMT-49"/>
       <use x="55.615234" xlink:href="#ArialMT-48"/>
       <use x="111.230469" xlink:href="#ArialMT-48"/>
      </g>
     </g>
    </g>
    <g id="text_15">
     <!-- Balance -->
     <defs>
      <path d="M 7.328125 0 
L 7.328125 71.578125 
L 34.1875 71.578125 
Q 42.390625 71.578125 47.34375 69.40625 
Q 52.296875 67.234375 55.09375 62.71875 
Q 57.90625 58.203125 57.90625 53.265625 
Q 57.90625 48.6875 55.421875 44.625 
Q 52.9375 40.578125 47.90625 38.09375 
Q 54.390625 36.1875 57.875 31.59375 
Q 61.375 27 61.375 20.75 
Q 61.375 15.71875 59.25 11.390625 
Q 57.125 7.078125 54 4.734375 
Q 50.875 2.390625 46.15625 1.1875 
Q 41.453125 0 34.625 0 
z
M 16.796875 41.5 
L 32.28125 41.5 
Q 38.578125 41.5 41.3125 42.328125 
Q 44.921875 43.40625 46.75 45.890625 
Q 48.578125 48.390625 48.578125 52.15625 
Q 48.578125 55.71875 46.875 58.421875 
Q 45.171875 61.140625 41.984375 62.140625 
Q 38.8125 63.140625 31.109375 63.140625 
L 16.796875 63.140625 
z
M 16.796875 8.453125 
L 34.625 8.453125 
Q 39.203125 8.453125 41.0625 8.796875 
Q 44.34375 9.375 46.53125 10.734375 
Q 48.734375 12.109375 50.140625 14.71875 
Q 51.5625 17.328125 51.5625 20.75 
Q 51.5625 24.75 49.515625 27.703125 
Q 47.46875 30.671875 43.828125 31.859375 
Q 40.1875 33.0625 33.34375 33.0625 
L 16.796875 33.0625 
z
" id="ArialMT-66"/>
     </defs>
     <g style="fill:#262626;" transform="translate(16.939219 196.209563)rotate(-90)scale(0.12 -0.12)">
      <use xlink:href="#ArialMT-66"/>
      <use x="66.699219" xlink:href="#ArialMT-97"/>
      <use x="122.314453" xlink:href="#ArialMT-108"/>
      <use x="144.53125" xlink:href="#ArialMT-97"/>
      <use x="200.146484" xlink:href="#ArialMT-110"/>
      <use x="255.761719" xlink:href="#ArialMT-99"/>
      <use x="305.761719" xlink:href="#ArialMT-101"/>
     </g>
    </g>
   </g>
   <g id="PolyCollection_1">
    <defs>
     <path d="M 79.936367 -136.685121 
L 79.903633 -136.685121 
L 79.891 -138.254281 
L 79.872032 -139.823441 
L 79.845799 -141.392602 
L 79.812406 -142.961762 
L 79.773329 -144.530923 
L 79.731362 -146.100083 
L 79.690144 -147.669243 
L 79.653401 -149.238404 
L 79.624192 -150.807564 
L 79.604393 -152.376725 
L 79.594493 -153.945885 
L 79.593581 -155.515045 
L 79.599403 -157.084206 
L 79.608467 -158.653366 
L 79.616289 -160.222527 
L 79.617911 -161.791687 
L 79.608721 -163.360847 
L 79.585439 -164.930008 
L 79.546997 -166.499168 
L 79.49497 -168.068329 
L 79.433292 -169.637489 
L 79.367155 -171.206649 
L 79.301337 -172.77581 
L 79.238468 -174.34497 
L 79.177877 -175.914131 
L 79.115437 -177.483291 
L 79.044411 -179.052451 
L 78.956871 -180.621612 
L 78.845086 -182.190772 
L 78.702392 -183.759933 
L 78.523408 -185.329093 
L 78.303846 -186.898253 
L 78.040321 -188.467414 
L 77.730473 -190.036574 
L 77.373382 -191.605735 
L 76.969899 -193.174895 
L 76.522429 -194.744055 
L 76.033948 -196.313216 
L 75.506591 -197.882376 
L 74.940528 -199.451536 
L 74.333899 -201.020697 
L 73.684024 -202.589857 
L 72.98945 -204.159018 
L 72.251936 -205.728178 
L 71.477538 -207.297338 
L 70.676411 -208.866499 
L 69.861496 -210.435659 
L 69.046473 -212.00482 
L 68.243346 -213.57398 
L 67.460101 -215.14314 
L 66.699206 -216.712301 
L 65.958213 -218.281461 
L 65.23349 -219.850622 
L 64.526668 -221.419782 
L 63.85125 -222.988942 
L 63.235383 -224.558103 
L 62.717732 -226.127263 
L 62.336766 -227.696424 
L 62.117781 -229.265584 
L 62.064 -230.834744 
L 62.156479 -232.403905 
L 62.363157 -233.973065 
L 62.652752 -235.542226 
L 63.007083 -237.111386 
L 63.426606 -238.680546 
L 63.927545 -240.249707 
L 64.532776 -241.818867 
L 65.260925 -243.388028 
L 66.118119 -244.957188 
L 67.095038 -246.526348 
L 68.169166 -248.095509 
L 69.309955 -249.664669 
L 70.483885 -251.23383 
L 71.657432 -252.80299 
L 72.797918 -254.37215 
L 73.873839 -255.941311 
L 74.8564 -257.510471 
L 75.722835 -259.079632 
L 76.460412 -260.648792 
L 77.069089 -262.217952 
L 77.561109 -263.787113 
L 77.957293 -265.356273 
L 78.281325 -266.925434 
L 78.55421 -268.494594 
L 78.790801 -270.063754 
L 78.99912 -271.632915 
L 79.18197 -273.202075 
L 79.339545 -274.771236 
L 79.471781 -276.340396 
L 79.579703 -277.909556 
L 79.665684 -279.478717 
L 79.732984 -281.047877 
L 79.785039 -282.617038 
L 79.824911 -284.186198 
L 79.85504 -285.755358 
L 79.877303 -287.324519 
L 79.893201 -288.893679 
L 79.904045 -290.46284 
L 79.911039 -292.032 
L 79.928961 -292.032 
L 79.928961 -292.032 
L 79.935955 -290.46284 
L 79.946799 -288.893679 
L 79.962697 -287.324519 
L 79.98496 -285.755358 
L 80.015089 -284.186198 
L 80.054961 -282.617038 
L 80.107016 -281.047877 
L 80.174316 -279.478717 
L 80.260297 -277.909556 
L 80.368219 -276.340396 
L 80.500455 -274.771236 
L 80.65803 -273.202075 
L 80.84088 -271.632915 
L 81.049199 -270.063754 
L 81.28579 -268.494594 
L 81.558675 -266.925434 
L 81.882707 -265.356273 
L 82.278891 -263.787113 
L 82.770911 -262.217952 
L 83.379588 -260.648792 
L 84.117165 -259.079632 
L 84.9836 -257.510471 
L 85.966161 -255.941311 
L 87.042082 -254.37215 
L 88.182568 -252.80299 
L 89.356115 -251.23383 
L 90.530045 -249.664669 
L 91.670834 -248.095509 
L 92.744962 -246.526348 
L 93.721881 -244.957188 
L 94.579075 -243.388028 
L 95.307224 -241.818867 
L 95.912455 -240.249707 
L 96.413394 -238.680546 
L 96.832917 -237.111386 
L 97.187248 -235.542226 
L 97.476843 -233.973065 
L 97.683521 -232.403905 
L 97.776 -230.834744 
L 97.722219 -229.265584 
L 97.503234 -227.696424 
L 97.122268 -226.127263 
L 96.604617 -224.558103 
L 95.98875 -222.988942 
L 95.313332 -221.419782 
L 94.60651 -219.850622 
L 93.881787 -218.281461 
L 93.140794 -216.712301 
L 92.379899 -215.14314 
L 91.596654 -213.57398 
L 90.793527 -212.00482 
L 89.978504 -210.435659 
L 89.163589 -208.866499 
L 88.362462 -207.297338 
L 87.588064 -205.728178 
L 86.85055 -204.159018 
L 86.155976 -202.589857 
L 85.506101 -201.020697 
L 84.899472 -199.451536 
L 84.333409 -197.882376 
L 83.806052 -196.313216 
L 83.317571 -194.744055 
L 82.870101 -193.174895 
L 82.466618 -191.605735 
L 82.109527 -190.036574 
L 81.799679 -188.467414 
L 81.536154 -186.898253 
L 81.316592 -185.329093 
L 81.137608 -183.759933 
L 80.994914 -182.190772 
L 80.883129 -180.621612 
L 80.795589 -179.052451 
L 80.724563 -177.483291 
L 80.662123 -175.914131 
L 80.601532 -174.34497 
L 80.538663 -172.77581 
L 80.472845 -171.206649 
L 80.406708 -169.637489 
L 80.34503 -168.068329 
L 80.293003 -166.499168 
L 80.254561 -164.930008 
L 80.231279 -163.360847 
L 80.222089 -161.791687 
L 80.223711 -160.222527 
L 80.231533 -158.653366 
L 80.240597 -157.084206 
L 80.246419 -155.515045 
L 80.245507 -153.945885 
L 80.235607 -152.376725 
L 80.215808 -150.807564 
L 80.186599 -149.238404 
L 80.149856 -147.669243 
L 80.108638 -146.100083 
L 80.066671 -144.530923 
L 80.027594 -142.961762 
L 79.994201 -141.392602 
L 79.967968 -139.823441 
L 79.949 -138.254281 
L 79.936367 -136.685121 
z
" id="me015977eb9" style="stroke:#3e3e3e;stroke-width:0.5;"/>
    </defs>
    <g clip-path="url(#p3a9905912e)">
     <use style="fill:#df7f20;stroke:#3e3e3e;stroke-width:0.5;" x="0" xlink:href="#me015977eb9" y="345.6"/>
    </g>
   </g>
   <g id="PolyCollection_2">
    <defs>
     <path d="M 124.564295 -96.488911 
L 124.555705 -96.488911 
L 124.552877 -98.27177 
L 124.549025 -100.054629 
L 124.54429 -101.837489 
L 124.539104 -103.620348 
L 124.534173 -105.403207 
L 124.530321 -107.186066 
L 124.528261 -108.968925 
L 124.528338 -110.751784 
L 124.530372 -112.534643 
L 124.533662 -114.317502 
L 124.537149 -116.100361 
L 124.539671 -117.88322 
L 124.540215 -119.666079 
L 124.538094 -121.448938 
L 124.53301 -123.231797 
L 124.525005 -125.014656 
L 124.51432 -126.797516 
L 124.501177 -128.580375 
L 124.485513 -130.363234 
L 124.466642 -132.146093 
L 124.442841 -133.928952 
L 124.41083 -135.711811 
L 124.365218 -137.49467 
L 124.298095 -139.277529 
L 124.199226 -141.060388 
L 124.05737 -142.843247 
L 123.863152 -144.626106 
L 123.613306 -146.408965 
L 123.315114 -148.191824 
L 122.988897 -149.974683 
L 122.666241 -151.757543 
L 122.382881 -153.540402 
L 122.167718 -155.323261 
L 122.032055 -157.10612 
L 121.964108 -158.888979 
L 121.932065 -160.671838 
L 121.894973 -162.454697 
L 121.816837 -164.237556 
L 121.677631 -166.020415 
L 121.476692 -167.803274 
L 121.227888 -169.586133 
L 120.94983 -171.368992 
L 120.656169 -173.151851 
L 120.350013 -174.93471 
L 120.023799 -176.71757 
L 119.663262 -178.500429 
L 119.252709 -180.283288 
L 118.779099 -182.066147 
L 118.233713 -183.849006 
L 117.611665 -185.631865 
L 116.910485 -187.414724 
L 116.129192 -189.197583 
L 115.26885 -190.980442 
L 114.334719 -192.763301 
L 113.339173 -194.54616 
L 112.303999 -196.329019 
L 111.260725 -198.111878 
L 110.248298 -199.894737 
L 109.308483 -201.677597 
L 108.480217 -203.460456 
L 107.794532 -205.243315 
L 107.271318 -207.026174 
L 106.918441 -208.809033 
L 106.732987 -210.591892 
L 106.704 -212.374751 
L 106.816103 -214.15761 
L 107.053518 -215.940469 
L 107.403953 -217.723328 
L 107.861534 -219.506187 
L 108.42771 -221.289046 
L 109.109232 -223.071905 
L 109.913051 -224.854764 
L 110.83932 -226.637624 
L 111.874905 -228.420483 
L 112.990296 -230.203342 
L 114.141935 -231.986201 
L 115.279796 -233.76906 
L 116.357613 -235.551919 
L 117.341832 -237.334778 
L 118.216059 -239.117637 
L 118.980142 -240.900496 
L 119.64549 -242.683355 
L 120.229432 -244.466214 
L 120.750709 -246.249073 
L 121.226648 -248.031932 
L 121.671351 -249.814791 
L 122.094194 -251.597651 
L 122.498668 -253.38051 
L 122.88219 -255.163369 
L 123.23744 -256.946228 
L 123.555045 -258.729087 
L 123.826738 -260.511946 
L 124.047855 -262.294805 
L 124.218462 -264.077664 
L 124.342996 -265.860523 
L 124.428881 -267.643382 
L 124.484788 -269.426241 
L 124.519111 -271.2091 
L 124.538965 -272.991959 
L 124.581035 -272.991959 
L 124.581035 -272.991959 
L 124.600889 -271.2091 
L 124.635212 -269.426241 
L 124.691119 -267.643382 
L 124.777004 -265.860523 
L 124.901538 -264.077664 
L 125.072145 -262.294805 
L 125.293262 -260.511946 
L 125.564955 -258.729087 
L 125.88256 -256.946228 
L 126.23781 -255.163369 
L 126.621332 -253.38051 
L 127.025806 -251.597651 
L 127.448649 -249.814791 
L 127.893352 -248.031932 
L 128.369291 -246.249073 
L 128.890568 -244.466214 
L 129.47451 -242.683355 
L 130.139858 -240.900496 
L 130.903941 -239.117637 
L 131.778168 -237.334778 
L 132.762387 -235.551919 
L 133.840204 -233.76906 
L 134.978065 -231.986201 
L 136.129704 -230.203342 
L 137.245095 -228.420483 
L 138.28068 -226.637624 
L 139.206949 -224.854764 
L 140.010768 -223.071905 
L 140.69229 -221.289046 
L 141.258466 -219.506187 
L 141.716047 -217.723328 
L 142.066482 -215.940469 
L 142.303897 -214.15761 
L 142.416 -212.374751 
L 142.387013 -210.591892 
L 142.201559 -208.809033 
L 141.848682 -207.026174 
L 141.325468 -205.243315 
L 140.639783 -203.460456 
L 139.811517 -201.677597 
L 138.871702 -199.894737 
L 137.859275 -198.111878 
L 136.816001 -196.329019 
L 135.780827 -194.54616 
L 134.785281 -192.763301 
L 133.85115 -190.980442 
L 132.990808 -189.197583 
L 132.209515 -187.414724 
L 131.508335 -185.631865 
L 130.886287 -183.849006 
L 130.340901 -182.066147 
L 129.867291 -180.283288 
L 129.456738 -178.500429 
L 129.096201 -176.71757 
L 128.769987 -174.93471 
L 128.463831 -173.151851 
L 128.17017 -171.368992 
L 127.892112 -169.586133 
L 127.643308 -167.803274 
L 127.442369 -166.020415 
L 127.303163 -164.237556 
L 127.225027 -162.454697 
L 127.187935 -160.671838 
L 127.155892 -158.888979 
L 127.087945 -157.10612 
L 126.952282 -155.323261 
L 126.737119 -153.540402 
L 126.453759 -151.757543 
L 126.131103 -149.974683 
L 125.804886 -148.191824 
L 125.506694 -146.408965 
L 125.256848 -144.626106 
L 125.06263 -142.843247 
L 124.920774 -141.060388 
L 124.821905 -139.277529 
L 124.754782 -137.49467 
L 124.70917 -135.711811 
L 124.677159 -133.928952 
L 124.653358 -132.146093 
L 124.634487 -130.363234 
L 124.618823 -128.580375 
L 124.60568 -126.797516 
L 124.594995 -125.014656 
L 124.58699 -123.231797 
L 124.581906 -121.448938 
L 124.579785 -119.666079 
L 124.580329 -117.88322 
L 124.582851 -116.100361 
L 124.586338 -114.317502 
L 124.589628 -112.534643 
L 124.591662 -110.751784 
L 124.591739 -108.968925 
L 124.589679 -107.186066 
L 124.585827 -105.403207 
L 124.580896 -103.620348 
L 124.57571 -101.837489 
L 124.570975 -100.054629 
L 124.567123 -98.27177 
L 124.564295 -96.488911 
z
" id="m3f99479784" style="stroke:#3e3e3e;stroke-width:0.5;"/>
    </defs>
    <g clip-path="url(#p3a9905912e)">
     <use style="fill:#905998;stroke:#3e3e3e;stroke-width:0.5;" x="0" xlink:href="#m3f99479784" y="345.6"/>
    </g>
   </g>
   <g id="PolyCollection_3">
    <defs>
     <path d="M 169.213492 -103.271056 
L 169.186508 -103.271056 
L 169.174538 -104.87557 
L 169.157418 -106.480085 
L 169.136882 -108.0846 
L 169.11704 -109.689115 
L 169.103184 -111.293629 
L 169.099302 -112.898144 
L 169.105688 -114.502659 
L 169.118283 -116.107173 
L 169.130388 -117.711688 
L 169.13582 -119.316203 
L 169.131829 -120.920718 
L 169.120355 -122.525232 
L 169.107025 -124.129747 
L 169.098294 -125.734262 
L 169.097978 -127.338776 
L 169.104977 -128.943291 
L 169.113503 -130.547806 
L 169.115779 -132.152321 
L 169.105826 -133.756835 
L 169.082496 -135.36135 
L 169.050315 -136.965865 
L 169.017647 -138.570379 
L 168.992829 -140.174894 
L 168.980173 -141.779409 
L 168.978094 -143.383924 
L 168.980534 -144.988438 
L 168.980697 -146.592953 
L 168.974677 -148.197468 
L 168.962954 -149.801982 
L 168.949408 -151.406497 
L 168.938791 -153.011012 
L 168.933881 -154.615527 
L 168.933519 -156.220041 
L 168.9327 -157.824556 
L 168.925158 -159.429071 
L 168.907307 -161.033585 
L 168.880945 -162.6381 
L 168.852673 -164.242615 
L 168.83015 -165.84713 
L 168.817367 -167.451644 
L 168.811388 -169.056159 
L 168.801801 -170.660674 
L 168.77267 -172.265188 
L 168.705878 -173.869703 
L 168.584647 -175.474218 
L 168.396351 -177.078733 
L 168.134156 -178.683247 
L 167.796716 -180.287762 
L 167.384647 -181.892277 
L 166.893489 -183.496791 
L 166.306035 -185.101306 
L 165.590061 -186.705821 
L 164.706749 -188.310336 
L 163.629025 -189.91485 
L 162.360997 -191.519365 
L 160.946091 -193.12388 
L 159.456762 -194.728394 
L 157.971114 -196.332909 
L 156.552137 -197.937424 
L 155.24337 -199.541939 
L 154.080085 -201.146453 
L 153.100226 -202.750968 
L 152.339616 -204.355483 
L 151.812888 -205.959997 
L 151.499562 -207.564512 
L 151.354811 -209.169027 
L 151.344 -210.773542 
L 151.476613 -212.378056 
L 151.811435 -213.982571 
L 152.425911 -215.587086 
L 153.370293 -217.1916 
L 154.636782 -218.796115 
L 156.158809 -220.40063 
L 157.83195 -222.005145 
L 159.537662 -223.609659 
L 161.159503 -225.214174 
L 162.595517 -226.818689 
L 163.774024 -228.423203 
L 164.670914 -230.027718 
L 165.316773 -231.632233 
L 165.784102 -233.236748 
L 166.158153 -234.841262 
L 166.50685 -236.445777 
L 166.864729 -238.050292 
L 167.234491 -239.654806 
L 167.598966 -241.259321 
L 167.934227 -242.863836 
L 168.219305 -244.468351 
L 168.442419 -246.072865 
L 168.604202 -247.67738 
L 168.717046 -249.281895 
L 168.799936 -250.886409 
L 168.870662 -252.490924 
L 168.939442 -254.095439 
L 169.007282 -255.699954 
L 169.069219 -257.304468 
L 169.119515 -258.908983 
L 169.155394 -260.513498 
L 169.177833 -262.118012 
L 169.222167 -262.118012 
L 169.222167 -262.118012 
L 169.244606 -260.513498 
L 169.280485 -258.908983 
L 169.330781 -257.304468 
L 169.392718 -255.699954 
L 169.460558 -254.095439 
L 169.529338 -252.490924 
L 169.600064 -250.886409 
L 169.682954 -249.281895 
L 169.795798 -247.67738 
L 169.957581 -246.072865 
L 170.180695 -244.468351 
L 170.465773 -242.863836 
L 170.801034 -241.259321 
L 171.165509 -239.654806 
L 171.535271 -238.050292 
L 171.89315 -236.445777 
L 172.241847 -234.841262 
L 172.615898 -233.236748 
L 173.083227 -231.632233 
L 173.729086 -230.027718 
L 174.625976 -228.423203 
L 175.804483 -226.818689 
L 177.240497 -225.214174 
L 178.862338 -223.609659 
L 180.56805 -222.005145 
L 182.241191 -220.40063 
L 183.763218 -218.796115 
L 185.029707 -217.1916 
L 185.974089 -215.587086 
L 186.588565 -213.982571 
L 186.923387 -212.378056 
L 187.056 -210.773542 
L 187.045189 -209.169027 
L 186.900438 -207.564512 
L 186.587112 -205.959997 
L 186.060384 -204.355483 
L 185.299774 -202.750968 
L 184.319915 -201.146453 
L 183.15663 -199.541939 
L 181.847863 -197.937424 
L 180.428886 -196.332909 
L 178.943238 -194.728394 
L 177.453909 -193.12388 
L 176.039003 -191.519365 
L 174.770975 -189.91485 
L 173.693251 -188.310336 
L 172.809939 -186.705821 
L 172.093965 -185.101306 
L 171.506511 -183.496791 
L 171.015353 -181.892277 
L 170.603284 -180.287762 
L 170.265844 -178.683247 
L 170.003649 -177.078733 
L 169.815353 -175.474218 
L 169.694122 -173.869703 
L 169.62733 -172.265188 
L 169.598199 -170.660674 
L 169.588612 -169.056159 
L 169.582633 -167.451644 
L 169.56985 -165.84713 
L 169.547327 -164.242615 
L 169.519055 -162.6381 
L 169.492693 -161.033585 
L 169.474842 -159.429071 
L 169.4673 -157.824556 
L 169.466481 -156.220041 
L 169.466119 -154.615527 
L 169.461209 -153.011012 
L 169.450592 -151.406497 
L 169.437046 -149.801982 
L 169.425323 -148.197468 
L 169.419303 -146.592953 
L 169.419466 -144.988438 
L 169.421906 -143.383924 
L 169.419827 -141.779409 
L 169.407171 -140.174894 
L 169.382353 -138.570379 
L 169.349685 -136.965865 
L 169.317504 -135.36135 
L 169.294174 -133.756835 
L 169.284221 -132.152321 
L 169.286497 -130.547806 
L 169.295023 -128.943291 
L 169.302022 -127.338776 
L 169.301706 -125.734262 
L 169.292975 -124.129747 
L 169.279645 -122.525232 
L 169.268171 -120.920718 
L 169.26418 -119.316203 
L 169.269612 -117.711688 
L 169.281717 -116.107173 
L 169.294312 -114.502659 
L 169.300698 -112.898144 
L 169.296816 -111.293629 
L 169.28296 -109.689115 
L 169.263118 -108.0846 
L 169.242582 -106.480085 
L 169.225462 -104.87557 
L 169.213492 -103.271056 
z
" id="me10e495344" style="stroke:#3e3e3e;stroke-width:0.5;"/>
    </defs>
    <g clip-path="url(#p3a9905912e)">
     <use style="fill:#cb3335;stroke:#3e3e3e;stroke-width:0.5;" x="0" xlink:href="#me10e495344" y="345.6"/>
    </g>
   </g>
   <g id="PolyCollection_4">
    <defs>
     <path d="M 213.849786 -135.39236 
L 213.830214 -135.39236 
L 213.820688 -136.854787 
L 213.80491 -138.317214 
L 213.781164 -139.779641 
L 213.748736 -141.242067 
L 213.708653 -142.704494 
L 213.663917 -144.166921 
L 213.618877 -145.629348 
L 213.577726 -147.091775 
L 213.542754 -148.554201 
L 213.513329 -150.016628 
L 213.486322 -151.479055 
L 213.45765 -152.941482 
L 213.423708 -154.403908 
L 213.381325 -155.866335 
L 213.325991 -157.328762 
L 213.249462 -158.791189 
L 213.138432 -160.253616 
L 212.975244 -161.716042 
L 212.740235 -163.178469 
L 212.414417 -164.640896 
L 211.981201 -166.103323 
L 211.426512 -167.565749 
L 210.737455 -169.028176 
L 209.90058 -170.490603 
L 208.901629 -171.95303 
L 207.728954 -173.415456 
L 206.381601 -174.877883 
L 204.880067 -176.34031 
L 203.274604 -177.802737 
L 201.64526 -179.265164 
L 200.09098 -180.72759 
L 198.710528 -182.190017 
L 197.582298 -183.652444 
L 196.750801 -185.114871 
L 196.224458 -186.577297 
L 195.984 -188.039724 
L 195.995969 -189.502151 
L 196.224306 -190.964578 
L 196.636126 -192.427005 
L 197.202997 -193.889431 
L 197.901681 -195.351858 
L 198.715806 -196.814285 
L 199.635416 -198.276712 
L 200.650867 -199.739138 
L 201.742616 -201.201565 
L 202.874114 -202.663992 
L 203.994597 -204.126419 
L 205.051604 -205.588846 
L 206.005592 -207.051272 
L 206.837602 -208.513699 
L 207.546407 -209.976126 
L 208.139076 -211.438553 
L 208.622818 -212.900979 
L 209.004011 -214.363406 
L 209.29435 -215.825833 
L 209.518223 -217.28826 
L 209.713915 -218.750686 
L 209.92517 -220.213113 
L 210.186569 -221.67554 
L 210.511012 -223.137967 
L 210.886666 -224.600394 
L 211.284676 -226.06282 
L 211.672455 -227.525247 
L 212.02499 -228.987674 
L 212.32944 -230.450101 
L 212.583324 -231.912527 
L 212.789975 -233.374954 
L 212.954912 -234.837381 
L 213.084525 -236.299808 
L 213.186171 -237.762235 
L 213.268093 -239.224661 
L 213.338367 -240.687088 
L 213.403255 -242.149515 
L 213.46597 -243.611942 
L 213.526563 -245.074368 
L 213.582936 -246.536795 
L 213.632406 -247.999222 
L 213.673068 -249.461649 
L 213.704391 -250.924076 
L 213.726989 -252.386502 
L 213.741921 -253.848929 
L 213.750109 -255.311356 
L 213.752314 -256.773783 
L 213.74965 -258.236209 
L 213.744113 -259.698636 
L 213.738503 -261.161063 
L 213.735569 -262.62349 
L 213.736909 -264.085916 
L 213.742429 -265.548343 
L 213.750787 -267.01077 
L 213.760448 -268.473197 
L 213.77053 -269.935624 
L 213.780913 -271.39805 
L 213.791705 -272.860477 
L 213.802677 -274.322904 
L 213.81312 -275.785331 
L 213.822154 -277.247757 
L 213.829156 -278.710184 
L 213.833997 -280.172611 
L 213.846003 -280.172611 
L 213.846003 -280.172611 
L 213.850844 -278.710184 
L 213.857846 -277.247757 
L 213.86688 -275.785331 
L 213.877323 -274.322904 
L 213.888295 -272.860477 
L 213.899087 -271.39805 
L 213.90947 -269.935624 
L 213.919552 -268.473197 
L 213.929213 -267.01077 
L 213.937571 -265.548343 
L 213.943091 -264.085916 
L 213.944431 -262.62349 
L 213.941497 -261.161063 
L 213.935887 -259.698636 
L 213.93035 -258.236209 
L 213.927686 -256.773783 
L 213.929891 -255.311356 
L 213.938079 -253.848929 
L 213.953011 -252.386502 
L 213.975609 -250.924076 
L 214.006932 -249.461649 
L 214.047594 -247.999222 
L 214.097064 -246.536795 
L 214.153437 -245.074368 
L 214.21403 -243.611942 
L 214.276745 -242.149515 
L 214.341633 -240.687088 
L 214.411907 -239.224661 
L 214.493829 -237.762235 
L 214.595475 -236.299808 
L 214.725088 -234.837381 
L 214.890025 -233.374954 
L 215.096676 -231.912527 
L 215.35056 -230.450101 
L 215.65501 -228.987674 
L 216.007545 -227.525247 
L 216.395324 -226.06282 
L 216.793334 -224.600394 
L 217.168988 -223.137967 
L 217.493431 -221.67554 
L 217.75483 -220.213113 
L 217.966085 -218.750686 
L 218.161777 -217.28826 
L 218.38565 -215.825833 
L 218.675989 -214.363406 
L 219.057182 -212.900979 
L 219.540924 -211.438553 
L 220.133593 -209.976126 
L 220.842398 -208.513699 
L 221.674408 -207.051272 
L 222.628396 -205.588846 
L 223.685403 -204.126419 
L 224.805886 -202.663992 
L 225.937384 -201.201565 
L 227.029133 -199.739138 
L 228.044584 -198.276712 
L 228.964194 -196.814285 
L 229.778319 -195.351858 
L 230.477003 -193.889431 
L 231.043874 -192.427005 
L 231.455694 -190.964578 
L 231.684031 -189.502151 
L 231.696 -188.039724 
L 231.455542 -186.577297 
L 230.929199 -185.114871 
L 230.097702 -183.652444 
L 228.969472 -182.190017 
L 227.58902 -180.72759 
L 226.03474 -179.265164 
L 224.405396 -177.802737 
L 222.799933 -176.34031 
L 221.298399 -174.877883 
L 219.951046 -173.415456 
L 218.778371 -171.95303 
L 217.77942 -170.490603 
L 216.942545 -169.028176 
L 216.253488 -167.565749 
L 215.698799 -166.103323 
L 215.265583 -164.640896 
L 214.939765 -163.178469 
L 214.704756 -161.716042 
L 214.541568 -160.253616 
L 214.430538 -158.791189 
L 214.354009 -157.328762 
L 214.298675 -155.866335 
L 214.256292 -154.403908 
L 214.22235 -152.941482 
L 214.193678 -151.479055 
L 214.166671 -150.016628 
L 214.137246 -148.554201 
L 214.102274 -147.091775 
L 214.061123 -145.629348 
L 214.016083 -144.166921 
L 213.971347 -142.704494 
L 213.931264 -141.242067 
L 213.898836 -139.779641 
L 213.87509 -138.317214 
L 213.859312 -136.854787 
L 213.849786 -135.39236 
z
" id="m9e6cf58616" style="stroke:#3e3e3e;stroke-width:0.5;"/>
    </defs>
    <g clip-path="url(#p3a9905912e)">
     <use style="fill:#59a257;stroke:#3e3e3e;stroke-width:0.5;" x="0" xlink:href="#m9e6cf58616" y="345.6"/>
    </g>
   </g>
   <g id="PolyCollection_5">
    <defs>
     <path d="M 258.494414 -50.112 
L 258.465586 -50.112 
L 258.454886 -51.807702 
L 258.439896 -53.503404 
L 258.421198 -55.199107 
L 258.400565 -56.894809 
L 258.38049 -58.590511 
L 258.363022 -60.286213 
L 258.348272 -61.981916 
L 258.333337 -63.677618 
L 258.312281 -65.37332 
L 258.277315 -67.069022 
L 258.220686 -68.764725 
L 258.136469 -70.460427 
L 258.021531 -72.156129 
L 257.875323 -73.851831 
L 257.698583 -75.547534 
L 257.491359 -77.243236 
L 257.251136 -78.938938 
L 256.972058 -80.63464 
L 256.645989 -82.330343 
L 256.265394 -84.026045 
L 255.826881 -85.721747 
L 255.333679 -87.417449 
L 254.79568 -89.113151 
L 254.227022 -90.808854 
L 253.642322 -92.504556 
L 253.053004 -94.200258 
L 252.464409 -95.89596 
L 251.873649 -97.591663 
L 251.268444 -99.287365 
L 250.62813 -100.983067 
L 249.928241 -102.678769 
L 249.148252 -104.374472 
L 248.279403 -106.070174 
L 247.32869 -107.765876 
L 246.317518 -109.461578 
L 245.277431 -111.157281 
L 244.246732 -112.852983 
L 243.269239 -114.548685 
L 242.392554 -116.244387 
L 241.662596 -117.94009 
L 241.114988 -119.635792 
L 240.768279 -121.331494 
L 240.624 -123.027196 
L 240.67351 -124.722898 
L 240.906158 -126.418601 
L 241.312549 -128.114303 
L 241.881223 -129.810005 
L 242.592551 -131.505707 
L 243.41544 -133.20141 
L 244.309796 -134.897112 
L 245.233526 -136.592814 
L 246.150494 -138.288516 
L 247.036388 -139.984219 
L 247.881411 -141.679921 
L 248.690026 -143.375623 
L 249.477894 -145.071325 
L 250.265759 -146.767028 
L 251.070728 -148.46273 
L 251.897468 -150.158432 
L 252.73354 -151.854134 
L 253.552086 -153.549837 
L 254.321192 -155.245539 
L 255.015013 -156.941241 
L 255.620669 -158.636943 
L 256.137958 -160.332645 
L 256.573781 -162.028348 
L 256.935964 -163.72405 
L 257.230218 -165.419752 
L 257.46087 -167.115454 
L 257.633406 -168.811157 
L 257.756479 -170.506859 
L 257.842129 -172.202561 
L 257.904309 -173.898263 
L 257.95648 -175.593966 
L 258.00916 -177.289668 
L 258.068184 -178.98537 
L 258.134218 -180.681072 
L 258.20365 -182.376775 
L 258.270467 -184.072477 
L 258.3284 -185.768179 
L 258.372597 -187.463881 
L 258.40048 -189.159584 
L 258.411837 -190.855286 
L 258.408479 -192.550988 
L 258.393769 -194.24669 
L 258.372101 -195.942392 
L 258.34828 -197.638095 
L 258.326842 -199.333797 
L 258.311439 -201.029499 
L 258.304475 -202.725201 
L 258.30701 -204.420904 
L 258.318797 -206.116606 
L 258.338354 -207.812308 
L 258.363117 -209.50801 
L 258.389847 -211.203713 
L 258.415302 -212.899415 
L 258.436976 -214.595117 
L 258.453577 -216.290819 
L 258.465053 -217.986522 
L 258.494947 -217.986522 
L 258.494947 -217.986522 
L 258.506423 -216.290819 
L 258.523024 -214.595117 
L 258.544698 -212.899415 
L 258.570153 -211.203713 
L 258.596883 -209.50801 
L 258.621646 -207.812308 
L 258.641203 -206.116606 
L 258.65299 -204.420904 
L 258.655525 -202.725201 
L 258.648561 -201.029499 
L 258.633158 -199.333797 
L 258.61172 -197.638095 
L 258.587899 -195.942392 
L 258.566231 -194.24669 
L 258.551521 -192.550988 
L 258.548163 -190.855286 
L 258.55952 -189.159584 
L 258.587403 -187.463881 
L 258.6316 -185.768179 
L 258.689533 -184.072477 
L 258.75635 -182.376775 
L 258.825782 -180.681072 
L 258.891816 -178.98537 
L 258.95084 -177.289668 
L 259.00352 -175.593966 
L 259.055691 -173.898263 
L 259.117871 -172.202561 
L 259.203521 -170.506859 
L 259.326594 -168.811157 
L 259.49913 -167.115454 
L 259.729782 -165.419752 
L 260.024036 -163.72405 
L 260.386219 -162.028348 
L 260.822042 -160.332645 
L 261.339331 -158.636943 
L 261.944987 -156.941241 
L 262.638808 -155.245539 
L 263.407914 -153.549837 
L 264.22646 -151.854134 
L 265.062532 -150.158432 
L 265.889272 -148.46273 
L 266.694241 -146.767028 
L 267.482106 -145.071325 
L 268.269974 -143.375623 
L 269.078589 -141.679921 
L 269.923612 -139.984219 
L 270.809506 -138.288516 
L 271.726474 -136.592814 
L 272.650204 -134.897112 
L 273.54456 -133.20141 
L 274.367449 -131.505707 
L 275.078777 -129.810005 
L 275.647451 -128.114303 
L 276.053842 -126.418601 
L 276.28649 -124.722898 
L 276.336 -123.027196 
L 276.191721 -121.331494 
L 275.845012 -119.635792 
L 275.297404 -117.94009 
L 274.567446 -116.244387 
L 273.690761 -114.548685 
L 272.713268 -112.852983 
L 271.682569 -111.157281 
L 270.642482 -109.461578 
L 269.63131 -107.765876 
L 268.680597 -106.070174 
L 267.811748 -104.374472 
L 267.031759 -102.678769 
L 266.33187 -100.983067 
L 265.691556 -99.287365 
L 265.086351 -97.591663 
L 264.495591 -95.89596 
L 263.906996 -94.200258 
L 263.317678 -92.504556 
L 262.732978 -90.808854 
L 262.16432 -89.113151 
L 261.626321 -87.417449 
L 261.133119 -85.721747 
L 260.694606 -84.026045 
L 260.314011 -82.330343 
L 259.987942 -80.63464 
L 259.708864 -78.938938 
L 259.468641 -77.243236 
L 259.261417 -75.547534 
L 259.084677 -73.851831 
L 258.938469 -72.156129 
L 258.823531 -70.460427 
L 258.739314 -68.764725 
L 258.682685 -67.069022 
L 258.647719 -65.37332 
L 258.626663 -63.677618 
L 258.611728 -61.981916 
L 258.596978 -60.286213 
L 258.57951 -58.590511 
L 258.559435 -56.894809 
L 258.538802 -55.199107 
L 258.520104 -53.503404 
L 258.505114 -51.807702 
L 258.494414 -50.112 
z
" id="m2af5b6f7b8" style="stroke:#3e3e3e;stroke-width:0.5;"/>
    </defs>
    <g clip-path="url(#p3a9905912e)">
     <use style="fill:#999999;stroke:#3e3e3e;stroke-width:0.5;" x="0" xlink:href="#m2af5b6f7b8" y="345.6"/>
    </g>
   </g>
   <g id="PolyCollection_6">
    <defs>
     <path d="M 303.126347 -52.426828 
L 303.113653 -52.426828 
L 303.108572 -54.323322 
L 303.100356 -56.219816 
L 303.08754 -58.116309 
L 303.068074 -60.012803 
L 303.039085 -61.909297 
L 302.996607 -63.805791 
L 302.935392 -65.702285 
L 302.848884 -67.598778 
L 302.72941 -69.495272 
L 302.568534 -71.391766 
L 302.35747 -73.28826 
L 302.087422 -75.184754 
L 301.749801 -77.081247 
L 301.336423 -78.977741 
L 300.839907 -80.874235 
L 300.254589 -82.770729 
L 299.578148 -84.667223 
L 298.813769 -86.563716 
L 297.9721 -88.46021 
L 297.071837 -90.356704 
L 296.137863 -92.253198 
L 295.196819 -94.149692 
L 294.271382 -96.046185 
L 293.375654 -97.942679 
L 292.513922 -99.839173 
L 291.683645 -101.735667 
L 290.881325 -103.632161 
L 290.108382 -105.528654 
L 289.374136 -107.425148 
L 288.694573 -109.321642 
L 288.087705 -111.218136 
L 287.567837 -113.11463 
L 287.141144 -115.011123 
L 286.803931 -116.907617 
L 286.543583 -118.804111 
L 286.341378 -120.700605 
L 286.176186 -122.597099 
L 286.028368 -124.493592 
L 285.883384 -126.390086 
L 285.734561 -128.28658 
L 285.584378 -130.183074 
L 285.443848 -132.079567 
L 285.330226 -133.976061 
L 285.264 -135.872555 
L 285.266334 -137.769049 
L 285.357644 -139.665543 
L 285.557006 -141.562036 
L 285.88145 -143.45853 
L 286.344375 -145.355024 
L 286.953099 -147.251518 
L 287.706391 -149.148012 
L 288.592993 -151.044505 
L 289.591709 -152.940999 
L 290.672979 -154.837493 
L 291.801586 -156.733987 
L 292.940124 -158.630481 
L 294.052945 -160.526974 
L 295.110084 -162.423468 
L 296.090362 -164.319962 
L 296.982792 -166.216456 
L 297.785792 -168.11295 
L 298.504485 -170.009443 
L 299.147022 -171.905937 
L 299.721178 -173.802431 
L 300.232259 -175.698925 
L 300.682764 -177.595419 
L 301.073547 -179.491912 
L 301.405689 -181.388406 
L 301.682125 -183.2849 
L 301.90831 -185.181394 
L 302.0918 -187.077888 
L 302.241068 -188.974381 
L 302.364194 -190.870875 
L 302.467927 -192.767369 
L 302.557313 -194.663863 
L 302.635784 -196.560357 
L 302.705427 -198.45685 
L 302.767229 -200.353344 
L 302.821275 -202.249838 
L 302.866999 -204.146332 
L 302.903607 -206.042825 
L 302.93063 -207.939319 
L 302.948446 -209.835813 
L 302.958509 -211.732307 
L 302.96317 -213.628801 
L 302.965148 -215.525294 
L 302.966943 -217.421788 
L 302.97041 -219.318282 
L 302.976657 -221.214776 
L 302.986144 -223.11127 
L 302.998835 -225.007763 
L 303.014268 -226.904257 
L 303.031575 -228.800751 
L 303.049541 -230.697245 
L 303.0668 -232.593739 
L 303.082116 -234.490232 
L 303.094653 -236.386726 
L 303.104115 -238.28322 
L 303.110695 -240.179714 
L 303.129305 -240.179714 
L 303.129305 -240.179714 
L 303.135885 -238.28322 
L 303.145347 -236.386726 
L 303.157884 -234.490232 
L 303.1732 -232.593739 
L 303.190459 -230.697245 
L 303.208425 -228.800751 
L 303.225732 -226.904257 
L 303.241165 -225.007763 
L 303.253856 -223.11127 
L 303.263343 -221.214776 
L 303.26959 -219.318282 
L 303.273057 -217.421788 
L 303.274852 -215.525294 
L 303.27683 -213.628801 
L 303.281491 -211.732307 
L 303.291554 -209.835813 
L 303.30937 -207.939319 
L 303.336393 -206.042825 
L 303.373001 -204.146332 
L 303.418725 -202.249838 
L 303.472771 -200.353344 
L 303.534573 -198.45685 
L 303.604216 -196.560357 
L 303.682687 -194.663863 
L 303.772073 -192.767369 
L 303.875806 -190.870875 
L 303.998932 -188.974381 
L 304.1482 -187.077888 
L 304.33169 -185.181394 
L 304.557875 -183.2849 
L 304.834311 -181.388406 
L 305.166453 -179.491912 
L 305.557236 -177.595419 
L 306.007741 -175.698925 
L 306.518822 -173.802431 
L 307.092978 -171.905937 
L 307.735515 -170.009443 
L 308.454208 -168.11295 
L 309.257208 -166.216456 
L 310.149638 -164.319962 
L 311.129916 -162.423468 
L 312.187055 -160.526974 
L 313.299876 -158.630481 
L 314.438414 -156.733987 
L 315.567021 -154.837493 
L 316.648291 -152.940999 
L 317.647007 -151.044505 
L 318.533609 -149.148012 
L 319.286901 -147.251518 
L 319.895625 -145.355024 
L 320.35855 -143.45853 
L 320.682994 -141.562036 
L 320.882356 -139.665543 
L 320.973666 -137.769049 
L 320.976 -135.872555 
L 320.909774 -133.976061 
L 320.796152 -132.079567 
L 320.655622 -130.183074 
L 320.505439 -128.28658 
L 320.356616 -126.390086 
L 320.211632 -124.493592 
L 320.063814 -122.597099 
L 319.898622 -120.700605 
L 319.696417 -118.804111 
L 319.436069 -116.907617 
L 319.098856 -115.011123 
L 318.672163 -113.11463 
L 318.152295 -111.218136 
L 317.545427 -109.321642 
L 316.865864 -107.425148 
L 316.131618 -105.528654 
L 315.358675 -103.632161 
L 314.556355 -101.735667 
L 313.726078 -99.839173 
L 312.864346 -97.942679 
L 311.968618 -96.046185 
L 311.043181 -94.149692 
L 310.102137 -92.253198 
L 309.168163 -90.356704 
L 308.2679 -88.46021 
L 307.426231 -86.563716 
L 306.661852 -84.667223 
L 305.985411 -82.770729 
L 305.400093 -80.874235 
L 304.903577 -78.977741 
L 304.490199 -77.081247 
L 304.152578 -75.184754 
L 303.88253 -73.28826 
L 303.671466 -71.391766 
L 303.51059 -69.495272 
L 303.391116 -67.598778 
L 303.304608 -65.702285 
L 303.243393 -63.805791 
L 303.200915 -61.909297 
L 303.171926 -60.012803 
L 303.15246 -58.116309 
L 303.139644 -56.219816 
L 303.131428 -54.323322 
L 303.126347 -52.426828 
z
" id="m1c2668c737" style="stroke:#3e3e3e;stroke-width:0.5;"/>
    </defs>
    <g clip-path="url(#p3a9905912e)">
     <use style="fill:#477ca8;stroke:#3e3e3e;stroke-width:0.5;" x="0" xlink:href="#m1c2668c737" y="345.6"/>
    </g>
   </g>
   <g id="PolyCollection_7">
    <defs>
     <path d="M 347.766779 -98.319534 
L 347.753221 -98.319534 
L 347.746946 -99.602959 
L 347.737919 -100.886385 
L 347.727191 -102.169811 
L 347.717175 -103.453236 
L 347.710897 -104.736662 
L 347.710536 -106.020087 
L 347.716203 -107.303513 
L 347.725838 -108.586939 
L 347.73628 -109.870364 
L 347.744652 -111.15379 
L 347.74911 -112.437216 
L 347.748768 -113.720641 
L 347.743305 -115.004067 
L 347.732883 -116.287493 
L 347.71847 -117.570918 
L 347.702134 -118.854344 
L 347.686779 -120.137769 
L 347.675269 -121.421195 
L 347.669366 -122.704621 
L 347.669067 -123.988046 
L 347.672719 -125.271472 
L 347.677933 -126.554898 
L 347.682845 -127.838323 
L 347.686931 -129.121749 
L 347.690706 -130.405175 
L 347.69454 -131.6886 
L 347.697713 -132.972026 
L 347.698574 -134.255451 
L 347.695344 -135.538877 
L 347.686098 -136.822303 
L 347.667147 -138.105728 
L 347.630913 -139.389154 
L 347.565337 -140.67258 
L 347.455433 -141.956005 
L 347.28433 -143.239431 
L 347.028649 -144.522857 
L 346.644117 -145.806282 
L 346.043216 -147.089708 
L 345.077461 -148.373133 
L 343.550529 -149.656559 
L 341.294389 -150.939985 
L 338.315769 -152.22341 
L 334.9513 -153.506836 
L 331.898266 -154.790262 
L 330.0098 -156.073687 
L 329.904 -157.357113 
L 331.622719 -158.640539 
L 334.589167 -159.923964 
L 337.901198 -161.20739 
L 340.748443 -162.490816 
L 342.687467 -163.774241 
L 343.668871 -165.057667 
L 343.900232 -166.341092 
L 343.687498 -167.624518 
L 343.331004 -168.907944 
L 343.070064 -170.191369 
L 343.047653 -171.474795 
L 343.292214 -172.758221 
L 343.733246 -174.041646 
L 344.252935 -175.325072 
L 344.746984 -176.608498 
L 345.159922 -177.891923 
L 345.482967 -179.175349 
L 345.731485 -180.458774 
L 345.926337 -181.7422 
L 346.088143 -183.025626 
L 346.237096 -184.309051 
L 346.389648 -185.592477 
L 346.552682 -186.875903 
L 346.72146 -188.159328 
L 346.884011 -189.442754 
L 347.028237 -190.72618 
L 347.146612 -192.009605 
L 347.237041 -193.293031 
L 347.301968 -194.576456 
L 347.347383 -195.859882 
L 347.381153 -197.143308 
L 347.409797 -198.426733 
L 347.435111 -199.710159 
L 347.45357 -200.993585 
L 347.459777 -202.27701 
L 347.451743 -203.560436 
L 347.434189 -204.843862 
L 347.41766 -206.127287 
L 347.41414 -207.410713 
L 347.431696 -208.694138 
L 347.470824 -209.977564 
L 347.524238 -211.26099 
L 347.58024 -212.544415 
L 347.627956 -213.827841 
L 347.661675 -215.111267 
L 347.68211 -216.394692 
L 347.694318 -217.678118 
L 347.704002 -218.961544 
L 347.714561 -220.244969 
L 347.726308 -221.528395 
L 347.737654 -222.81182 
L 347.746875 -224.095246 
L 347.753204 -225.378672 
L 347.766796 -225.378672 
L 347.766796 -225.378672 
L 347.773125 -224.095246 
L 347.782346 -222.81182 
L 347.793692 -221.528395 
L 347.805439 -220.244969 
L 347.815998 -218.961544 
L 347.825682 -217.678118 
L 347.83789 -216.394692 
L 347.858325 -215.111267 
L 347.892044 -213.827841 
L 347.93976 -212.544415 
L 347.995762 -211.26099 
L 348.049176 -209.977564 
L 348.088304 -208.694138 
L 348.10586 -207.410713 
L 348.10234 -206.127287 
L 348.085811 -204.843862 
L 348.068257 -203.560436 
L 348.060223 -202.27701 
L 348.06643 -200.993585 
L 348.084889 -199.710159 
L 348.110203 -198.426733 
L 348.138847 -197.143308 
L 348.172617 -195.859882 
L 348.218032 -194.576456 
L 348.282959 -193.293031 
L 348.373388 -192.009605 
L 348.491763 -190.72618 
L 348.635989 -189.442754 
L 348.79854 -188.159328 
L 348.967318 -186.875903 
L 349.130352 -185.592477 
L 349.282904 -184.309051 
L 349.431857 -183.025626 
L 349.593663 -181.7422 
L 349.788515 -180.458774 
L 350.037033 -179.175349 
L 350.360078 -177.891923 
L 350.773016 -176.608498 
L 351.267065 -175.325072 
L 351.786754 -174.041646 
L 352.227786 -172.758221 
L 352.472347 -171.474795 
L 352.449936 -170.191369 
L 352.188996 -168.907944 
L 351.832502 -167.624518 
L 351.619768 -166.341092 
L 351.851129 -165.057667 
L 352.832533 -163.774241 
L 354.771557 -162.490816 
L 357.618802 -161.20739 
L 360.930833 -159.923964 
L 363.897281 -158.640539 
L 365.616 -157.357113 
L 365.5102 -156.073687 
L 363.621734 -154.790262 
L 360.5687 -153.506836 
L 357.204231 -152.22341 
L 354.225611 -150.939985 
L 351.969471 -149.656559 
L 350.442539 -148.373133 
L 349.476784 -147.089708 
L 348.875883 -145.806282 
L 348.491351 -144.522857 
L 348.23567 -143.239431 
L 348.064567 -141.956005 
L 347.954663 -140.67258 
L 347.889087 -139.389154 
L 347.852853 -138.105728 
L 347.833902 -136.822303 
L 347.824656 -135.538877 
L 347.821426 -134.255451 
L 347.822287 -132.972026 
L 347.82546 -131.6886 
L 347.829294 -130.405175 
L 347.833069 -129.121749 
L 347.837155 -127.838323 
L 347.842067 -126.554898 
L 347.847281 -125.271472 
L 347.850933 -123.988046 
L 347.850634 -122.704621 
L 347.844731 -121.421195 
L 347.833221 -120.137769 
L 347.817866 -118.854344 
L 347.80153 -117.570918 
L 347.787117 -116.287493 
L 347.776695 -115.004067 
L 347.771232 -113.720641 
L 347.77089 -112.437216 
L 347.775348 -111.15379 
L 347.78372 -109.870364 
L 347.794162 -108.586939 
L 347.803797 -107.303513 
L 347.809464 -106.020087 
L 347.809103 -104.736662 
L 347.802825 -103.453236 
L 347.792809 -102.169811 
L 347.782081 -100.886385 
L 347.773054 -99.602959 
L 347.766779 -98.319534 
z
" id="m4b02cc2ade" style="stroke:#3e3e3e;stroke-width:0.5;"/>
    </defs>
    <g clip-path="url(#p3a9905912e)">
     <use style="fill:#965a38;stroke:#3e3e3e;stroke-width:0.5;" x="0" xlink:href="#m4b02cc2ade" y="345.6"/>
    </g>
   </g>
   <g id="PolyCollection_8">
    <defs>
     <path d="M 392.409509 -100.562537 
L 392.390491 -100.562537 
L 392.381632 -102.062645 
L 392.36676 -103.562753 
L 392.343425 -105.062861 
L 392.30912 -106.562969 
L 392.261796 -108.063076 
L 392.200441 -109.563184 
L 392.125414 -111.063292 
L 392.038122 -112.5634 
L 391.939848 -114.063508 
L 391.830047 -115.563616 
L 391.704977 -117.063724 
L 391.557609 -118.563832 
L 391.379047 -120.063939 
L 391.160705 -121.564047 
L 390.896005 -123.064155 
L 390.580679 -124.564263 
L 390.211766 -126.064371 
L 389.786121 -127.564479 
L 389.299516 -129.064587 
L 388.746913 -130.564695 
L 388.123867 -132.064803 
L 387.428259 -133.56491 
L 386.66143 -135.065018 
L 385.828121 -136.565126 
L 384.93556 -138.065234 
L 383.992532 -139.565342 
L 383.008874 -141.06545 
L 381.994755 -142.565558 
L 380.958691 -144.065666 
L 379.904774 -145.565773 
L 378.832732 -147.065881 
L 377.746405 -148.565989 
L 376.673121 -150.066097 
L 375.687242 -151.566205 
L 374.920902 -153.066313 
L 374.544 -154.566421 
L 374.710162 -156.066529 
L 375.489343 -157.566637 
L 376.823069 -159.066744 
L 378.530151 -160.566852 
L 380.362462 -162.06696 
L 382.082312 -163.567068 
L 383.524854 -165.067176 
L 384.623311 -166.567284 
L 385.397637 -168.067392 
L 385.922546 -169.5675 
L 386.292703 -171.067607 
L 386.596124 -172.567715 
L 386.898944 -174.067823 
L 387.239983 -175.567931 
L 387.632074 -177.068039 
L 388.067486 -178.568147 
L 388.525409 -180.068255 
L 388.979879 -181.568363 
L 389.406756 -183.06847 
L 389.788593 -184.568578 
L 390.116895 -186.068686 
L 390.391929 -187.568794 
L 390.620822 -189.068902 
L 390.814812 -190.56901 
L 390.986299 -192.069118 
L 391.146117 -193.569226 
L 391.301249 -195.069334 
L 391.453276 -196.569441 
L 391.598043 -198.069549 
L 391.727013 -199.569657 
L 391.830405 -201.069765 
L 391.901363 -202.569873 
L 391.939559 -204.069981 
L 391.952474 -205.570089 
L 391.953458 -207.070197 
L 391.957171 -208.570304 
L 391.974484 -210.070412 
L 392.009179 -211.57052 
L 392.057856 -213.070628 
L 392.112676 -214.570736 
L 392.165241 -216.070844 
L 392.209658 -217.570952 
L 392.243701 -219.07106 
L 392.268163 -220.571168 
L 392.28529 -222.071275 
L 392.297273 -223.571383 
L 392.305425 -225.071491 
L 392.310127 -226.571599 
L 392.311274 -228.071707 
L 392.3088 -229.571815 
L 392.303052 -231.071923 
L 392.294953 -232.572031 
L 392.286071 -234.072138 
L 392.278585 -235.572246 
L 392.275006 -237.072354 
L 392.277509 -238.572462 
L 392.287097 -240.07257 
L 392.303015 -241.572678 
L 392.322879 -243.072786 
L 392.343499 -244.572894 
L 392.361984 -246.073002 
L 392.37656 -247.573109 
L 392.386775 -249.073217 
L 392.413225 -249.073217 
L 392.413225 -249.073217 
L 392.42344 -247.573109 
L 392.438016 -246.073002 
L 392.456501 -244.572894 
L 392.477121 -243.072786 
L 392.496985 -241.572678 
L 392.512903 -240.07257 
L 392.522491 -238.572462 
L 392.524994 -237.072354 
L 392.521415 -235.572246 
L 392.513929 -234.072138 
L 392.505047 -232.572031 
L 392.496948 -231.071923 
L 392.4912 -229.571815 
L 392.488726 -228.071707 
L 392.489873 -226.571599 
L 392.494575 -225.071491 
L 392.502727 -223.571383 
L 392.51471 -222.071275 
L 392.531837 -220.571168 
L 392.556299 -219.07106 
L 392.590342 -217.570952 
L 392.634759 -216.070844 
L 392.687324 -214.570736 
L 392.742144 -213.070628 
L 392.790821 -211.57052 
L 392.825516 -210.070412 
L 392.842829 -208.570304 
L 392.846542 -207.070197 
L 392.847526 -205.570089 
L 392.860441 -204.069981 
L 392.898637 -202.569873 
L 392.969595 -201.069765 
L 393.072987 -199.569657 
L 393.201957 -198.069549 
L 393.346724 -196.569441 
L 393.498751 -195.069334 
L 393.653883 -193.569226 
L 393.813701 -192.069118 
L 393.985188 -190.56901 
L 394.179178 -189.068902 
L 394.408071 -187.568794 
L 394.683105 -186.068686 
L 395.011407 -184.568578 
L 395.393244 -183.06847 
L 395.820121 -181.568363 
L 396.274591 -180.068255 
L 396.732514 -178.568147 
L 397.167926 -177.068039 
L 397.560017 -175.567931 
L 397.901056 -174.067823 
L 398.203876 -172.567715 
L 398.507297 -171.067607 
L 398.877454 -169.5675 
L 399.402363 -168.067392 
L 400.176689 -166.567284 
L 401.275146 -165.067176 
L 402.717688 -163.567068 
L 404.437538 -162.06696 
L 406.269849 -160.566852 
L 407.976931 -159.066744 
L 409.310657 -157.566637 
L 410.089838 -156.066529 
L 410.256 -154.566421 
L 409.879098 -153.066313 
L 409.112758 -151.566205 
L 408.126879 -150.066097 
L 407.053595 -148.565989 
L 405.967268 -147.065881 
L 404.895226 -145.565773 
L 403.841309 -144.065666 
L 402.805245 -142.565558 
L 401.791126 -141.06545 
L 400.807468 -139.565342 
L 399.86444 -138.065234 
L 398.971879 -136.565126 
L 398.13857 -135.065018 
L 397.371741 -133.56491 
L 396.676133 -132.064803 
L 396.053087 -130.564695 
L 395.500484 -129.064587 
L 395.013879 -127.564479 
L 394.588234 -126.064371 
L 394.219321 -124.564263 
L 393.903995 -123.064155 
L 393.639295 -121.564047 
L 393.420953 -120.063939 
L 393.242391 -118.563832 
L 393.095023 -117.063724 
L 392.969953 -115.563616 
L 392.860152 -114.063508 
L 392.761878 -112.5634 
L 392.674586 -111.063292 
L 392.599559 -109.563184 
L 392.538204 -108.063076 
L 392.49088 -106.562969 
L 392.456575 -105.062861 
L 392.43324 -103.562753 
L 392.418368 -102.062645 
L 392.409509 -100.562537 
z
" id="m1af98a3c20" style="stroke:#3e3e3e;stroke-width:0.5;"/>
    </defs>
    <g clip-path="url(#p3a9905912e)">
     <use style="fill:#e890be;stroke:#3e3e3e;stroke-width:0.5;" x="0" xlink:href="#m1af98a3c20" y="345.6"/>
    </g>
   </g>
   <g id="line2d_6">
    <path clip-path="url(#p3a9905912e)" d="M 79.92 165.06242 
L 79.92 70.769221 
" style="fill:none;stroke:#3e3e3e;stroke-linecap:round;stroke-width:0.5;"/>
   </g>
   <g id="line2d_7">
    <path clip-path="url(#p3a9905912e)" d="M 79.92 128.718811 
L 79.92 104.394165 
" style="fill:none;stroke:#3e3e3e;stroke-linecap:round;stroke-width:1.5;"/>
   </g>
   <g id="line2d_8">
    <path clip-path="url(#p3a9905912e)" d="M 124.56 188.391703 
L 124.56 85.74839 
" style="fill:none;stroke:#3e3e3e;stroke-linecap:round;stroke-width:0.5;"/>
   </g>
   <g id="line2d_9">
    <path clip-path="url(#p3a9905912e)" d="M 124.56 148.789116 
L 124.56 122.082701 
" style="fill:none;stroke:#3e3e3e;stroke-linecap:round;stroke-width:1.5;"/>
   </g>
   <g id="line2d_10">
    <path clip-path="url(#p3a9905912e)" d="M 169.2 167.626984 
L 169.2 104.14258 
" style="fill:none;stroke:#3e3e3e;stroke-linecap:round;stroke-width:0.5;"/>
   </g>
   <g id="line2d_11">
    <path clip-path="url(#p3a9905912e)" d="M 169.2 144.497166 
L 169.2 128.243765 
" style="fill:none;stroke:#3e3e3e;stroke-linecap:round;stroke-width:1.5;"/>
   </g>
   <g id="line2d_12">
    <path clip-path="url(#p3a9905912e)" d="M 213.84 188.831148 
L 213.84 117.356679 
" style="fill:none;stroke:#3e3e3e;stroke-linecap:round;stroke-width:0.5;"/>
   </g>
   <g id="line2d_13">
    <path clip-path="url(#p3a9905912e)" d="M 213.84 161.780923 
L 213.84 143.732365 
" style="fill:none;stroke:#3e3e3e;stroke-linecap:round;stroke-width:1.5;"/>
   </g>
   <g id="line2d_14">
    <path clip-path="url(#p3a9905912e)" d="M 258.48 268.994075 
L 258.48 175.932191 
" style="fill:none;stroke:#3e3e3e;stroke-linecap:round;stroke-width:0.5;"/>
   </g>
   <g id="line2d_15">
    <path clip-path="url(#p3a9905912e)" d="M 258.48 233.965531 
L 258.48 209.884902 
" style="fill:none;stroke:#3e3e3e;stroke-linecap:round;stroke-width:1.5;"/>
   </g>
   <g id="line2d_16">
    <path clip-path="url(#p3a9905912e)" d="M 303.12 279.204379 
L 303.12 149.640255 
" style="fill:none;stroke:#3e3e3e;stroke-linecap:round;stroke-width:0.5;"/>
   </g>
   <g id="line2d_17">
    <path clip-path="url(#p3a9905912e)" d="M 303.12 232.945617 
L 303.12 199.314179 
" style="fill:none;stroke:#3e3e3e;stroke-linecap:round;stroke-width:1.5;"/>
   </g>
   <g id="line2d_18">
    <path clip-path="url(#p3a9905912e)" d="M 347.76 207.514066 
L 347.76 157.090642 
" style="fill:none;stroke:#3e3e3e;stroke-linecap:round;stroke-width:0.5;"/>
   </g>
   <g id="line2d_19">
    <path clip-path="url(#p3a9905912e)" d="M 347.76 189.078108 
L 347.76 176.089619 
" style="fill:none;stroke:#3e3e3e;stroke-linecap:round;stroke-width:1.5;"/>
   </g>
   <g id="line2d_20">
    <path clip-path="url(#p3a9905912e)" d="M 392.4 224.685509 
L 392.4 157.409457 
" style="fill:none;stroke:#3e3e3e;stroke-linecap:round;stroke-width:0.5;"/>
   </g>
   <g id="line2d_21">
    <path clip-path="url(#p3a9905912e)" d="M 392.4 199.500287 
L 392.4 182.635736 
" style="fill:none;stroke:#3e3e3e;stroke-linecap:round;stroke-width:1.5;"/>
   </g>
   <g id="patch_3">
    <path d="M 57.6 307.584 
L 57.6 41.472 
" style="fill:none;stroke:#cccccc;stroke-linecap:square;stroke-linejoin:miter;stroke-width:1.25;"/>
   </g>
   <g id="patch_4">
    <path d="M 414.72 307.584 
L 414.72 41.472 
" style="fill:none;stroke:#cccccc;stroke-linecap:square;stroke-linejoin:miter;stroke-width:1.25;"/>
   </g>
   <g id="patch_5">
    <path d="M 57.6 307.584 
L 414.72 307.584 
" style="fill:none;stroke:#cccccc;stroke-linecap:square;stroke-linejoin:miter;stroke-width:1.25;"/>
   </g>
   <g id="patch_6">
    <path d="M 57.6 41.472 
L 414.72 41.472 
" style="fill:none;stroke:#cccccc;stroke-linecap:square;stroke-linejoin:miter;stroke-width:1.25;"/>
   </g>
   <g id="PathCollection_1">
    <defs>
     <path d="M 0 0.5 
C 0.132602 0.5 0.25979 0.447317 0.353553 0.353553 
C 0.447317 0.25979 0.5 0.132602 0.5 0 
C 0.5 -0.132602 0.447317 -0.25979 0.353553 -0.353553 
C 0.25979 -0.447317 0.132602 -0.5 0 -0.5 
C -0.132602 -0.5 -0.25979 -0.447317 -0.353553 -0.353553 
C -0.447317 -0.25979 -0.5 -0.132602 -0.5 0 
C -0.5 0.132602 -0.447317 0.25979 -0.353553 0.353553 
C -0.25979 0.447317 -0.132602 0.5 0 0.5 
z
" id="mc487843e5c" style="stroke:#3e3e3e;"/>
    </defs>
    <g clip-path="url(#p3a9905912e)">
     <use style="fill:#ffffff;stroke:#3e3e3e;" x="79.92" xlink:href="#mc487843e5c" y="116.169065"/>
    </g>
   </g>
   <g id="PathCollection_2">
    <g clip-path="url(#p3a9905912e)">
     <use style="fill:#ffffff;stroke:#3e3e3e;" x="124.56" xlink:href="#mc487843e5c" y="134.96355"/>
    </g>
   </g>
   <g id="PathCollection_3">
    <g clip-path="url(#p3a9905912e)">
     <use style="fill:#ffffff;stroke:#3e3e3e;" x="169.2" xlink:href="#mc487843e5c" y="136.200967"/>
    </g>
   </g>
   <g id="PathCollection_4">
    <g clip-path="url(#p3a9905912e)">
     <use style="fill:#ffffff;stroke:#3e3e3e;" x="213.84" xlink:href="#mc487843e5c" y="153.615072"/>
    </g>
   </g>
   <g id="PathCollection_5">
    <g clip-path="url(#p3a9905912e)">
     <use style="fill:#ffffff;stroke:#3e3e3e;" x="258.48" xlink:href="#mc487843e5c" y="222.006042"/>
    </g>
   </g>
   <g id="PathCollection_6">
    <g clip-path="url(#p3a9905912e)">
     <use style="fill:#ffffff;stroke:#3e3e3e;" x="303.12" xlink:href="#mc487843e5c" y="215.334659"/>
    </g>
   </g>
   <g id="PathCollection_7">
    <g clip-path="url(#p3a9905912e)">
     <use style="fill:#ffffff;stroke:#3e3e3e;" x="347.76" xlink:href="#mc487843e5c" y="188.397449"/>
    </g>
   </g>
   <g id="PathCollection_8">
    <g clip-path="url(#p3a9905912e)">
     <use style="fill:#ffffff;stroke:#3e3e3e;" x="392.4" xlink:href="#mc487843e5c" y="189.517086"/>
    </g>
   </g>
  </g>
 </g>
 <defs>
  <clipPath id="p3a9905912e">
   <rect height="266.112" width="357.12" x="57.6" y="41.472"/>
  </clipPath>
 </defs>
</svg>
