<?xml version="1.0" encoding="UTF-8" standalone="no"?>
<!-- Created with matplotlib (http://matplotlib.org/) -->

<svg
   xmlns:dc="http://purl.org/dc/elements/1.1/"
   xmlns:cc="http://creativecommons.org/ns#"
   xmlns:rdf="http://www.w3.org/1999/02/22-rdf-syntax-ns#"
   xmlns:svg="http://www.w3.org/2000/svg"
   xmlns="http://www.w3.org/2000/svg"
   xmlns:xlink="http://www.w3.org/1999/xlink"
   xmlns:sodipodi="http://sodipodi.sourceforge.net/DTD/sodipodi-0.dtd"
   xmlns:inkscape="http://www.inkscape.org/namespaces/inkscape"
   height="345.6pt"
   version="1.1"
   viewBox="0 0 691.2 345.6"
   width="691.2pt"
   id="svg492"
   sodipodi:docname="logistic_regression.svg"
   inkscape:version="0.92.3 (2405546, 2018-03-11)">
  <metadata
     id="metadata496">
    <rdf:RDF>
      <cc:Work
         rdf:about="">
        <dc:format>image/svg+xml</dc:format>
        <dc:type
           rdf:resource="http://purl.org/dc/dcmitype/StillImage" />
      </cc:Work>
    </rdf:RDF>
  </metadata>
  <sodipodi:namedview
     pagecolor="#ffffff"
     bordercolor="#666666"
     borderopacity="1"
     objecttolerance="10"
     gridtolerance="10"
     guidetolerance="10"
     inkscape:pageopacity="0"
     inkscape:pageshadow="2"
     inkscape:window-width="1871"
     inkscape:window-height="1056"
     id="namedview494"
     showgrid="false"
     inkscape:zoom="1.1501736"
     inkscape:cx="459.37388"
     inkscape:cy="228.32036"
     inkscape:window-x="49"
     inkscape:window-y="24"
     inkscape:window-maximized="1"
     inkscape:current-layer="figure_1" />
  <defs
     id="defs4">
    <style
       type="text/css"
       id="style2">
*{stroke-linecap:butt;stroke-linejoin:round;}
  </style>
  </defs>
  <g
     id="figure_1">
    <g
       id="axes_1">
      <g
         id="patch_2">
        <path
           d="M 47.72 303.64  L 677.88 303.64  L 677.88 13.32  L 47.72 13.32  z "
           style="fill:#ffffff;"
           id="path9" />
      </g>
      <g
         id="line2d_1">
        <path
           clip-path="url(#p2e88abe8e6)"
           d="M 76.436915 132.134319  L 649.163085 132.134319  "
           style="fill:none;stroke:#ff7f0e;stroke-linecap:square;stroke-width:1.5;"
           id="path12" />
      </g>
      <g
         id="line2d_2">
        <path
           clip-path="url(#p2e88abe8e6)"
           d="M 76.436915 289.777126  L 81.943897 289.688398  L 87.45088 289.581459  L 92.957862 289.452592  L 98.464844 289.297329  L 103.971827 289.110304  L 109.478809 288.88508  L 114.985792 288.613943  L 120.492774 288.287659  L 125.999756 287.895197  L 131.506739 287.423397  L 137.013721 286.856604  L 142.520704 286.176245  L 148.027686 285.360358  L 153.534668 284.383088  L 159.041651 283.214147  L 164.548633 281.81828  L 170.055616 280.154755  L 175.562598 278.176958  L 181.069581 275.832154  L 186.576563 273.061538  L 192.083545 269.800712  L 197.590528 265.98077  L 203.09751 261.530174  L 208.604493 256.377624  L 214.111475 250.456073  L 219.618457 243.707939  L 225.12544 236.091397  L 230.632422 227.58739  L 236.139405 218.20668  L 241.646387 207.995965  L 247.153369 197.041879  L 252.660352 185.471688  L 258.167334 173.449806  L 263.674317 161.169875  L 269.181299 148.842994  L 274.688281 136.683497  L 280.195264 124.894267  L 285.702246 113.653681  L 291.209229 103.10589  L 296.716211 93.355382  L 302.223194 84.465938  L 307.730176 76.463329  L 313.237158 69.340658  L 318.744141 63.065139  L 324.251123 57.58523  L 329.758106 52.8373  L 335.265088 48.751339  L 340.77207 45.255496  L 346.279053 42.279431  L 351.786035 39.756608  L 357.293018 37.625693  L 362.8 35.831277  L 368.306982 34.324094  L 373.813965 33.06089  L 379.320947 32.004082  L 384.82793 31.121281  L 390.334912 30.384767  L 395.841894 29.770947  L 401.348877 29.25983  L 406.855859 28.834542  L 412.362842 28.480887  L 417.869824 28.186948  L 423.376806 27.942744  L 428.883789 27.739931  L 434.390771 27.571543  L 439.897754 27.431769  L 445.404736 27.315771  L 450.911719 27.21952  L 456.418701 27.139665  L 461.925683 27.073422  L 467.432666 27.018475  L 472.939648 26.972901  L 478.446631 26.935104  L 483.953613 26.903759  L 489.460595 26.877765  L 494.967578 26.85621  L 500.47456 26.838336  L 505.981543 26.823515  L 511.488525 26.811226  L 516.995507 26.801036  L 522.50249 26.792587  L 528.009472 26.785582  L 533.516455 26.779773  L 539.023437 26.774958  L 544.530419 26.770965  L 550.037402 26.767654  L 555.544384 26.764909  L 561.051367 26.762634  L 566.558349 26.760747  L 572.065332 26.759182  L 577.572314 26.757885  L 583.079296 26.75681  L 588.586279 26.755918  L 594.093261 26.755179  L 599.600244 26.754566  L 605.107226 26.754058  L 610.614208 26.753637  L 616.121191 26.753287  L 621.628173 26.752998  L 627.135156 26.752758  L 632.642138 26.752559  L 638.14912 26.752394  L 643.656103 26.752257  "
           style="fill:none;stroke:#2ca02c;stroke-linecap:square;stroke-width:1.5;"
           id="path15" />
      </g>
      <g
         id="matplotlib.axis_1">
        <g
           id="xtick_1">
          <g
             id="line2d_3">
            <defs
               id="defs19">
              <path
                 d="M 0 0  L 0 3.5  "
                 id="m1d3e7c6c58"
                 style="stroke:#000000;stroke-width:0.8;" />
            </defs>
            <g
               id="g23">
              <use
                 style="stroke:#000000;stroke-width:0.8;"
                 x="131.506739"
                 xlink:href="#m1d3e7c6c58"
                 y="303.64"
                 id="use21" />
            </g>
          </g>
          <g
             id="text_1">
            <!-- 1 -->
            <defs
               id="defs27">
              <path
                 d="M 12.40625 8.296875  L 28.515625 8.296875  L 28.515625 63.921875  L 10.984375 60.40625  L 10.984375 69.390625  L 28.421875 72.90625  L 38.28125 72.90625  L 38.28125 8.296875  L 54.390625 8.296875  L 54.390625 0  L 12.40625 0  z "
                 id="DejaVuSans-31" />
            </defs>
            <g
               transform="translate(128.325489 318.238437)scale(0.1 -0.1)"
               id="g31">
              <use
                 xlink:href="#DejaVuSans-31"
                 id="use29" />
            </g>
          </g>
        </g>
        <g
           id="xtick_2">
          <g
             id="line2d_4">
            <g
               id="g37">
              <use
                 style="stroke:#000000;stroke-width:0.8;"
                 x="241.646387"
                 xlink:href="#m1d3e7c6c58"
                 y="303.64"
                 id="use35" />
            </g>
          </g>
          <g
             id="text_2">
            <!-- 2 -->
            <defs
               id="defs41">
              <path
                 d="M 19.1875 8.296875  L 53.609375 8.296875  L 53.609375 0  L 7.328125 0  L 7.328125 8.296875  Q 12.9375 14.109375 22.625 23.890625  Q 32.328125 33.6875 34.8125 36.53125  Q 39.546875 41.84375 41.421875 45.53125  Q 43.3125 49.21875 43.3125 52.78125  Q 43.3125 58.59375 39.234375 62.25  Q 35.15625 65.921875 28.609375 65.921875  Q 23.96875 65.921875 18.8125 64.3125  Q 13.671875 62.703125 7.8125 59.421875  L 7.8125 69.390625  Q 13.765625 71.78125 18.9375 73  Q 24.125 74.21875 28.421875 74.21875  Q 39.75 74.21875 46.484375 68.546875  Q 53.21875 62.890625 53.21875 53.421875  Q 53.21875 48.921875 51.53125 44.890625  Q 49.859375 40.875 45.40625 35.40625  Q 44.1875 33.984375 37.640625 27.21875  Q 31.109375 20.453125 19.1875 8.296875  z "
                 id="DejaVuSans-32" />
            </defs>
            <g
               transform="translate(238.465137 318.238437)scale(0.1 -0.1)"
               id="g45">
              <use
                 xlink:href="#DejaVuSans-32"
                 id="use43" />
            </g>
          </g>
        </g>
        <g
           id="xtick_3">
          <g
             id="line2d_5">
            <g
               id="g51">
              <use
                 style="stroke:#000000;stroke-width:0.8;"
                 x="351.786035"
                 xlink:href="#m1d3e7c6c58"
                 y="303.64"
                 id="use49" />
            </g>
          </g>
          <g
             id="text_3">
            <!-- 3 -->
            <defs
               id="defs55">
              <path
                 d="M 40.578125 39.3125  Q 47.65625 37.796875 51.625 33  Q 55.609375 28.21875 55.609375 21.1875  Q 55.609375 10.40625 48.1875 4.484375  Q 40.765625 -1.421875 27.09375 -1.421875  Q 22.515625 -1.421875 17.65625 -0.515625  Q 12.796875 0.390625 7.625 2.203125  L 7.625 11.71875  Q 11.71875 9.328125 16.59375 8.109375  Q 21.484375 6.890625 26.8125 6.890625  Q 36.078125 6.890625 40.9375 10.546875  Q 45.796875 14.203125 45.796875 21.1875  Q 45.796875 27.640625 41.28125 31.265625  Q 36.765625 34.90625 28.71875 34.90625  L 20.21875 34.90625  L 20.21875 43.015625  L 29.109375 43.015625  Q 36.375 43.015625 40.234375 45.921875  Q 44.09375 48.828125 44.09375 54.296875  Q 44.09375 59.90625 40.109375 62.90625  Q 36.140625 65.921875 28.71875 65.921875  Q 24.65625 65.921875 20.015625 65.03125  Q 15.375 64.15625 9.8125 62.3125  L 9.8125 71.09375  Q 15.4375 72.65625 20.34375 73.4375  Q 25.25 74.21875 29.59375 74.21875  Q 40.828125 74.21875 47.359375 69.109375  Q 53.90625 64.015625 53.90625 55.328125  Q 53.90625 49.265625 50.4375 45.09375  Q 46.96875 40.921875 40.578125 39.3125  z "
                 id="DejaVuSans-33" />
            </defs>
            <g
               transform="translate(348.604785 318.238437)scale(0.1 -0.1)"
               id="g59">
              <use
                 xlink:href="#DejaVuSans-33"
                 id="use57" />
            </g>
          </g>
        </g>
        <g
           id="xtick_4">
          <g
             id="line2d_6">
            <g
               id="g65">
              <use
                 style="stroke:#000000;stroke-width:0.8;"
                 x="461.925683"
                 xlink:href="#m1d3e7c6c58"
                 y="303.64"
                 id="use63" />
            </g>
          </g>
          <g
             id="text_4">
            <!-- 4 -->
            <defs
               id="defs69">
              <path
                 d="M 37.796875 64.3125  L 12.890625 25.390625  L 37.796875 25.390625  z M 35.203125 72.90625  L 47.609375 72.90625  L 47.609375 25.390625  L 58.015625 25.390625  L 58.015625 17.1875  L 47.609375 17.1875  L 47.609375 0  L 37.796875 0  L 37.796875 17.1875  L 4.890625 17.1875  L 4.890625 26.703125  z "
                 id="DejaVuSans-34" />
            </defs>
            <g
               transform="translate(458.744433 318.238437)scale(0.1 -0.1)"
               id="g73">
              <use
                 xlink:href="#DejaVuSans-34"
                 id="use71" />
            </g>
          </g>
        </g>
        <g
           id="xtick_5">
          <g
             id="line2d_7">
            <g
               id="g79">
              <use
                 style="stroke:#000000;stroke-width:0.8;"
                 x="572.065332"
                 xlink:href="#m1d3e7c6c58"
                 y="303.64"
                 id="use77" />
            </g>
          </g>
          <g
             id="text_5">
            <!-- 5 -->
            <defs
               id="defs83">
              <path
                 d="M 10.796875 72.90625  L 49.515625 72.90625  L 49.515625 64.59375  L 19.828125 64.59375  L 19.828125 46.734375  Q 21.96875 47.46875 24.109375 47.828125  Q 26.265625 48.1875 28.421875 48.1875  Q 40.625 48.1875 47.75 41.5  Q 54.890625 34.8125 54.890625 23.390625  Q 54.890625 11.625 47.5625 5.09375  Q 40.234375 -1.421875 26.90625 -1.421875  Q 22.3125 -1.421875 17.546875 -0.640625  Q 12.796875 0.140625 7.71875 1.703125  L 7.71875 11.625  Q 12.109375 9.234375 16.796875 8.0625  Q 21.484375 6.890625 26.703125 6.890625  Q 35.15625 6.890625 40.078125 11.328125  Q 45.015625 15.765625 45.015625 23.390625  Q 45.015625 31 40.078125 35.4375  Q 35.15625 39.890625 26.703125 39.890625  Q 22.75 39.890625 18.8125 39.015625  Q 14.890625 38.140625 10.796875 36.28125  z "
                 id="DejaVuSans-35" />
            </defs>
            <g
               transform="translate(568.884082 318.238437)scale(0.1 -0.1)"
               id="g87">
              <use
                 xlink:href="#DejaVuSans-35"
                 id="use85" />
            </g>
          </g>
        </g>
        <g
           id="text_6">
          <!-- Predictor -->
          <defs
             id="defs99">
            <path
               d="M 19.671875 64.796875  L 19.671875 37.40625  L 32.078125 37.40625  Q 38.96875 37.40625 42.71875 40.96875  Q 46.484375 44.53125 46.484375 51.125  Q 46.484375 57.671875 42.71875 61.234375  Q 38.96875 64.796875 32.078125 64.796875  z M 9.8125 72.90625  L 32.078125 72.90625  Q 44.34375 72.90625 50.609375 67.359375  Q 56.890625 61.8125 56.890625 51.125  Q 56.890625 40.328125 50.609375 34.8125  Q 44.34375 29.296875 32.078125 29.296875  L 19.671875 29.296875  L 19.671875 0  L 9.8125 0  z "
               id="DejaVuSans-50" />
            <path
               d="M 41.109375 46.296875  Q 39.59375 47.171875 37.8125 47.578125  Q 36.03125 48 33.890625 48  Q 26.265625 48 22.1875 43.046875  Q 18.109375 38.09375 18.109375 28.8125  L 18.109375 0  L 9.078125 0  L 9.078125 54.6875  L 18.109375 54.6875  L 18.109375 46.1875  Q 20.953125 51.171875 25.484375 53.578125  Q 30.03125 56 36.53125 56  Q 37.453125 56 38.578125 55.875  Q 39.703125 55.765625 41.0625 55.515625  z "
               id="DejaVuSans-72" />
            <path
               d="M 56.203125 29.59375  L 56.203125 25.203125  L 14.890625 25.203125  Q 15.484375 15.921875 20.484375 11.0625  Q 25.484375 6.203125 34.421875 6.203125  Q 39.59375 6.203125 44.453125 7.46875  Q 49.3125 8.734375 54.109375 11.28125  L 54.109375 2.78125  Q 49.265625 0.734375 44.1875 -0.34375  Q 39.109375 -1.421875 33.890625 -1.421875  Q 20.796875 -1.421875 13.15625 6.1875  Q 5.515625 13.8125 5.515625 26.8125  Q 5.515625 40.234375 12.765625 48.109375  Q 20.015625 56 32.328125 56  Q 43.359375 56 49.78125 48.890625  Q 56.203125 41.796875 56.203125 29.59375  z M 47.21875 32.234375  Q 47.125 39.59375 43.09375 43.984375  Q 39.0625 48.390625 32.421875 48.390625  Q 24.90625 48.390625 20.390625 44.140625  Q 15.875 39.890625 15.1875 32.171875  z "
               id="DejaVuSans-65" />
            <path
               d="M 45.40625 46.390625  L 45.40625 75.984375  L 54.390625 75.984375  L 54.390625 0  L 45.40625 0  L 45.40625 8.203125  Q 42.578125 3.328125 38.25 0.953125  Q 33.9375 -1.421875 27.875 -1.421875  Q 17.96875 -1.421875 11.734375 6.484375  Q 5.515625 14.40625 5.515625 27.296875  Q 5.515625 40.1875 11.734375 48.09375  Q 17.96875 56 27.875 56  Q 33.9375 56 38.25 53.625  Q 42.578125 51.265625 45.40625 46.390625  z M 14.796875 27.296875  Q 14.796875 17.390625 18.875 11.75  Q 22.953125 6.109375 30.078125 6.109375  Q 37.203125 6.109375 41.296875 11.75  Q 45.40625 17.390625 45.40625 27.296875  Q 45.40625 37.203125 41.296875 42.84375  Q 37.203125 48.484375 30.078125 48.484375  Q 22.953125 48.484375 18.875 42.84375  Q 14.796875 37.203125 14.796875 27.296875  z "
               id="DejaVuSans-64" />
            <path
               d="M 9.421875 54.6875  L 18.40625 54.6875  L 18.40625 0  L 9.421875 0  z M 9.421875 75.984375  L 18.40625 75.984375  L 18.40625 64.59375  L 9.421875 64.59375  z "
               id="DejaVuSans-69" />
            <path
               d="M 48.78125 52.59375  L 48.78125 44.1875  Q 44.96875 46.296875 41.140625 47.34375  Q 37.3125 48.390625 33.40625 48.390625  Q 24.65625 48.390625 19.8125 42.84375  Q 14.984375 37.3125 14.984375 27.296875  Q 14.984375 17.28125 19.8125 11.734375  Q 24.65625 6.203125 33.40625 6.203125  Q 37.3125 6.203125 41.140625 7.25  Q 44.96875 8.296875 48.78125 10.40625  L 48.78125 2.09375  Q 45.015625 0.34375 40.984375 -0.53125  Q 36.96875 -1.421875 32.421875 -1.421875  Q 20.0625 -1.421875 12.78125 6.34375  Q 5.515625 14.109375 5.515625 27.296875  Q 5.515625 40.671875 12.859375 48.328125  Q 20.21875 56 33.015625 56  Q 37.15625 56 41.109375 55.140625  Q 45.0625 54.296875 48.78125 52.59375  z "
               id="DejaVuSans-63" />
            <path
               d="M 18.3125 70.21875  L 18.3125 54.6875  L 36.8125 54.6875  L 36.8125 47.703125  L 18.3125 47.703125  L 18.3125 18.015625  Q 18.3125 11.328125 20.140625 9.421875  Q 21.96875 7.515625 27.59375 7.515625  L 36.8125 7.515625  L 36.8125 0  L 27.59375 0  Q 17.1875 0 13.234375 3.875  Q 9.28125 7.765625 9.28125 18.015625  L 9.28125 47.703125  L 2.6875 47.703125  L 2.6875 54.6875  L 9.28125 54.6875  L 9.28125 70.21875  z "
               id="DejaVuSans-74" />
            <path
               d="M 30.609375 48.390625  Q 23.390625 48.390625 19.1875 42.75  Q 14.984375 37.109375 14.984375 27.296875  Q 14.984375 17.484375 19.15625 11.84375  Q 23.34375 6.203125 30.609375 6.203125  Q 37.796875 6.203125 41.984375 11.859375  Q 46.1875 17.53125 46.1875 27.296875  Q 46.1875 37.015625 41.984375 42.703125  Q 37.796875 48.390625 30.609375 48.390625  z M 30.609375 56  Q 42.328125 56 49.015625 48.375  Q 55.71875 40.765625 55.71875 27.296875  Q 55.71875 13.875 49.015625 6.21875  Q 42.328125 -1.421875 30.609375 -1.421875  Q 18.84375 -1.421875 12.171875 6.21875  Q 5.515625 13.875 5.515625 27.296875  Q 5.515625 40.765625 12.171875 48.375  Q 18.84375 56 30.609375 56  z "
               id="DejaVuSans-6f" />
          </defs>
          <g
             transform="translate(340.267969 331.916562)scale(0.1 -0.1)"
             id="g119">
            <use
               xlink:href="#DejaVuSans-50"
               id="use101" />
            <use
               x="60.287109"
               xlink:href="#DejaVuSans-72"
               id="use103" />
            <use
               x="101.369141"
               xlink:href="#DejaVuSans-65"
               id="use105" />
            <use
               x="162.892578"
               xlink:href="#DejaVuSans-64"
               id="use107" />
            <use
               x="226.369141"
               xlink:href="#DejaVuSans-69"
               id="use109" />
            <use
               x="254.152344"
               xlink:href="#DejaVuSans-63"
               id="use111" />
            <use
               x="309.132812"
               xlink:href="#DejaVuSans-74"
               id="use113" />
            <use
               x="348.341797"
               xlink:href="#DejaVuSans-6f"
               id="use115" />
            <use
               x="409.523438"
               xlink:href="#DejaVuSans-72"
               id="use117" />
          </g>
        </g>
      </g>
      <g
         id="matplotlib.axis_2">
        <g
           id="ytick_1">
          <g
             id="line2d_8">
            <defs
               id="defs124">
              <path
                 d="M 0 0  L -3.5 0  "
                 id="m1711abe708"
                 style="stroke:#000000;stroke-width:0.8;" />
            </defs>
            <g
               id="g128">
              <use
                 style="stroke:#000000;stroke-width:0.8;"
                 x="47.72"
                 xlink:href="#m1711abe708"
                 y="290.208407"
                 id="use126" />
            </g>
          </g>
          <g
             id="text_7">
            <!-- 0.0 -->
            <defs
               id="defs133">
              <path
                 d="M 31.78125 66.40625  Q 24.171875 66.40625 20.328125 58.90625  Q 16.5 51.421875 16.5 36.375  Q 16.5 21.390625 20.328125 13.890625  Q 24.171875 6.390625 31.78125 6.390625  Q 39.453125 6.390625 43.28125 13.890625  Q 47.125 21.390625 47.125 36.375  Q 47.125 51.421875 43.28125 58.90625  Q 39.453125 66.40625 31.78125 66.40625  z M 31.78125 74.21875  Q 44.046875 74.21875 50.515625 64.515625  Q 56.984375 54.828125 56.984375 36.375  Q 56.984375 17.96875 50.515625 8.265625  Q 44.046875 -1.421875 31.78125 -1.421875  Q 19.53125 -1.421875 13.0625 8.265625  Q 6.59375 17.96875 6.59375 36.375  Q 6.59375 54.828125 13.0625 64.515625  Q 19.53125 74.21875 31.78125 74.21875  z "
                 id="DejaVuSans-30" />
              <path
                 d="M 10.6875 12.40625  L 21 12.40625  L 21 0  L 10.6875 0  z "
                 id="DejaVuSans-2e" />
            </defs>
            <g
               transform="translate(24.816875 294.007626)scale(0.1 -0.1)"
               id="g141">
              <use
                 xlink:href="#DejaVuSans-30"
                 id="use135" />
              <use
                 x="63.623047"
                 xlink:href="#DejaVuSans-2e"
                 id="use137" />
              <use
                 x="95.410156"
                 xlink:href="#DejaVuSans-30"
                 id="use139" />
            </g>
          </g>
        </g>
        <g
           id="ytick_2">
          <g
             id="line2d_9">
            <g
               id="g147">
              <use
                 style="stroke:#000000;stroke-width:0.8;"
                 x="47.72"
                 xlink:href="#m1711abe708"
                 y="237.517044"
                 id="use145" />
            </g>
          </g>
          <g
             id="text_8">
            <!-- 0.2 -->
            <g
               transform="translate(24.816875 241.316263)scale(0.1 -0.1)"
               id="g156">
              <use
                 xlink:href="#DejaVuSans-30"
                 id="use150" />
              <use
                 x="63.623047"
                 xlink:href="#DejaVuSans-2e"
                 id="use152" />
              <use
                 x="95.410156"
                 xlink:href="#DejaVuSans-32"
                 id="use154" />
            </g>
          </g>
        </g>
        <g
           id="ytick_3">
          <g
             id="line2d_10">
            <g
               id="g162">
              <use
                 style="stroke:#000000;stroke-width:0.8;"
                 x="47.72"
                 xlink:href="#m1711abe708"
                 y="184.825681"
                 id="use160" />
            </g>
          </g>
          <g
             id="text_9">
            <!-- 0.4 -->
            <g
               transform="translate(24.816875 188.6249)scale(0.1 -0.1)"
               id="g171">
              <use
                 xlink:href="#DejaVuSans-30"
                 id="use165" />
              <use
                 x="63.623047"
                 xlink:href="#DejaVuSans-2e"
                 id="use167" />
              <use
                 x="95.410156"
                 xlink:href="#DejaVuSans-34"
                 id="use169" />
            </g>
          </g>
        </g>
        <g
           id="ytick_4">
          <g
             id="line2d_11">
            <g
               id="g177">
              <use
                 style="stroke:#000000;stroke-width:0.8;"
                 x="47.72"
                 xlink:href="#m1711abe708"
                 y="132.134319"
                 id="use175" />
            </g>
          </g>
          <g
             id="text_10">
            <!-- 0.6 -->
            <defs
               id="defs181">
              <path
                 d="M 33.015625 40.375  Q 26.375 40.375 22.484375 35.828125  Q 18.609375 31.296875 18.609375 23.390625  Q 18.609375 15.53125 22.484375 10.953125  Q 26.375 6.390625 33.015625 6.390625  Q 39.65625 6.390625 43.53125 10.953125  Q 47.40625 15.53125 47.40625 23.390625  Q 47.40625 31.296875 43.53125 35.828125  Q 39.65625 40.375 33.015625 40.375  z M 52.59375 71.296875  L 52.59375 62.3125  Q 48.875 64.0625 45.09375 64.984375  Q 41.3125 65.921875 37.59375 65.921875  Q 27.828125 65.921875 22.671875 59.328125  Q 17.53125 52.734375 16.796875 39.40625  Q 19.671875 43.65625 24.015625 45.921875  Q 28.375 48.1875 33.59375 48.1875  Q 44.578125 48.1875 50.953125 41.515625  Q 57.328125 34.859375 57.328125 23.390625  Q 57.328125 12.15625 50.6875 5.359375  Q 44.046875 -1.421875 33.015625 -1.421875  Q 20.359375 -1.421875 13.671875 8.265625  Q 6.984375 17.96875 6.984375 36.375  Q 6.984375 53.65625 15.1875 63.9375  Q 23.390625 74.21875 37.203125 74.21875  Q 40.921875 74.21875 44.703125 73.484375  Q 48.484375 72.75 52.59375 71.296875  z "
                 id="DejaVuSans-36" />
            </defs>
            <g
               transform="translate(24.816875 135.933537)scale(0.1 -0.1)"
               id="g189">
              <use
                 xlink:href="#DejaVuSans-30"
                 id="use183" />
              <use
                 x="63.623047"
                 xlink:href="#DejaVuSans-2e"
                 id="use185" />
              <use
                 x="95.410156"
                 xlink:href="#DejaVuSans-36"
                 id="use187" />
            </g>
          </g>
        </g>
        <g
           id="ytick_5">
          <g
             id="line2d_12">
            <g
               id="g195">
              <use
                 style="stroke:#000000;stroke-width:0.8;"
                 x="47.72"
                 xlink:href="#m1711abe708"
                 y="79.442956"
                 id="use193" />
            </g>
          </g>
          <g
             id="text_11">
            <!-- 0.8 -->
            <defs
               id="defs199">
              <path
                 d="M 31.78125 34.625  Q 24.75 34.625 20.71875 30.859375  Q 16.703125 27.09375 16.703125 20.515625  Q 16.703125 13.921875 20.71875 10.15625  Q 24.75 6.390625 31.78125 6.390625  Q 38.8125 6.390625 42.859375 10.171875  Q 46.921875 13.96875 46.921875 20.515625  Q 46.921875 27.09375 42.890625 30.859375  Q 38.875 34.625 31.78125 34.625  z M 21.921875 38.8125  Q 15.578125 40.375 12.03125 44.71875  Q 8.5 49.078125 8.5 55.328125  Q 8.5 64.0625 14.71875 69.140625  Q 20.953125 74.21875 31.78125 74.21875  Q 42.671875 74.21875 48.875 69.140625  Q 55.078125 64.0625 55.078125 55.328125  Q 55.078125 49.078125 51.53125 44.71875  Q 48 40.375 41.703125 38.8125  Q 48.828125 37.15625 52.796875 32.3125  Q 56.78125 27.484375 56.78125 20.515625  Q 56.78125 9.90625 50.3125 4.234375  Q 43.84375 -1.421875 31.78125 -1.421875  Q 19.734375 -1.421875 13.25 4.234375  Q 6.78125 9.90625 6.78125 20.515625  Q 6.78125 27.484375 10.78125 32.3125  Q 14.796875 37.15625 21.921875 38.8125  z M 18.3125 54.390625  Q 18.3125 48.734375 21.84375 45.5625  Q 25.390625 42.390625 31.78125 42.390625  Q 38.140625 42.390625 41.71875 45.5625  Q 45.3125 48.734375 45.3125 54.390625  Q 45.3125 60.0625 41.71875 63.234375  Q 38.140625 66.40625 31.78125 66.40625  Q 25.390625 66.40625 21.84375 63.234375  Q 18.3125 60.0625 18.3125 54.390625  z "
                 id="DejaVuSans-38" />
            </defs>
            <g
               transform="translate(24.816875 83.242175)scale(0.1 -0.1)"
               id="g207">
              <use
                 xlink:href="#DejaVuSans-30"
                 id="use201" />
              <use
                 x="63.623047"
                 xlink:href="#DejaVuSans-2e"
                 id="use203" />
              <use
                 x="95.410156"
                 xlink:href="#DejaVuSans-38"
                 id="use205" />
            </g>
          </g>
        </g>
        <g
           id="ytick_6">
          <g
             id="line2d_13">
            <g
               id="g213">
              <use
                 style="stroke:#000000;stroke-width:0.8;"
                 x="47.72"
                 xlink:href="#m1711abe708"
                 y="26.751593"
                 id="use211" />
            </g>
          </g>
          <g
             id="text_12">
            <!-- 1.0 -->
            <g
               transform="translate(24.816875 30.550812)scale(0.1 -0.1)"
               id="g222">
              <use
                 xlink:href="#DejaVuSans-31"
                 id="use216" />
              <use
                 x="63.623047"
                 xlink:href="#DejaVuSans-2e"
                 id="use218" />
              <use
                 x="95.410156"
                 xlink:href="#DejaVuSans-30"
                 id="use220" />
            </g>
          </g>
        </g>
        <g
           id="text_13">
          <!-- Response -->
          <defs
             id="defs230">
            <path
               d="M 44.390625 34.1875  Q 47.5625 33.109375 50.5625 29.59375  Q 53.5625 26.078125 56.59375 19.921875  L 66.609375 0  L 56 0  L 46.6875 18.703125  Q 43.0625 26.03125 39.671875 28.421875  Q 36.28125 30.8125 30.421875 30.8125  L 19.671875 30.8125  L 19.671875 0  L 9.8125 0  L 9.8125 72.90625  L 32.078125 72.90625  Q 44.578125 72.90625 50.734375 67.671875  Q 56.890625 62.453125 56.890625 51.90625  Q 56.890625 45.015625 53.6875 40.46875  Q 50.484375 35.9375 44.390625 34.1875  z M 19.671875 64.796875  L 19.671875 38.921875  L 32.078125 38.921875  Q 39.203125 38.921875 42.84375 42.21875  Q 46.484375 45.515625 46.484375 51.90625  Q 46.484375 58.296875 42.84375 61.546875  Q 39.203125 64.796875 32.078125 64.796875  z "
               id="DejaVuSans-52" />
            <path
               d="M 44.28125 53.078125  L 44.28125 44.578125  Q 40.484375 46.53125 36.375 47.5  Q 32.28125 48.484375 27.875 48.484375  Q 21.1875 48.484375 17.84375 46.4375  Q 14.5 44.390625 14.5 40.28125  Q 14.5 37.15625 16.890625 35.375  Q 19.28125 33.59375 26.515625 31.984375  L 29.59375 31.296875  Q 39.15625 29.25 43.1875 25.515625  Q 47.21875 21.78125 47.21875 15.09375  Q 47.21875 7.46875 41.1875 3.015625  Q 35.15625 -1.421875 24.609375 -1.421875  Q 20.21875 -1.421875 15.453125 -0.5625  Q 10.6875 0.296875 5.421875 2  L 5.421875 11.28125  Q 10.40625 8.6875 15.234375 7.390625  Q 20.0625 6.109375 24.8125 6.109375  Q 31.15625 6.109375 34.5625 8.28125  Q 37.984375 10.453125 37.984375 14.40625  Q 37.984375 18.0625 35.515625 20.015625  Q 33.0625 21.96875 24.703125 23.78125  L 21.578125 24.515625  Q 13.234375 26.265625 9.515625 29.90625  Q 5.8125 33.546875 5.8125 39.890625  Q 5.8125 47.609375 11.28125 51.796875  Q 16.75 56 26.8125 56  Q 31.78125 56 36.171875 55.265625  Q 40.578125 54.546875 44.28125 53.078125  z "
               id="DejaVuSans-73" />
            <path
               d="M 18.109375 8.203125  L 18.109375 -20.796875  L 9.078125 -20.796875  L 9.078125 54.6875  L 18.109375 54.6875  L 18.109375 46.390625  Q 20.953125 51.265625 25.265625 53.625  Q 29.59375 56 35.59375 56  Q 45.5625 56 51.78125 48.09375  Q 58.015625 40.1875 58.015625 27.296875  Q 58.015625 14.40625 51.78125 6.484375  Q 45.5625 -1.421875 35.59375 -1.421875  Q 29.59375 -1.421875 25.265625 0.953125  Q 20.953125 3.328125 18.109375 8.203125  z M 48.6875 27.296875  Q 48.6875 37.203125 44.609375 42.84375  Q 40.53125 48.484375 33.40625 48.484375  Q 26.265625 48.484375 22.1875 42.84375  Q 18.109375 37.203125 18.109375 27.296875  Q 18.109375 17.390625 22.1875 11.75  Q 26.265625 6.109375 33.40625 6.109375  Q 40.53125 6.109375 44.609375 11.75  Q 48.6875 17.390625 48.6875 27.296875  z "
               id="DejaVuSans-70" />
            <path
               d="M 54.890625 33.015625  L 54.890625 0  L 45.90625 0  L 45.90625 32.71875  Q 45.90625 40.484375 42.875 44.328125  Q 39.84375 48.1875 33.796875 48.1875  Q 26.515625 48.1875 22.3125 43.546875  Q 18.109375 38.921875 18.109375 30.90625  L 18.109375 0  L 9.078125 0  L 9.078125 54.6875  L 18.109375 54.6875  L 18.109375 46.1875  Q 21.34375 51.125 25.703125 53.5625  Q 30.078125 56 35.796875 56  Q 45.21875 56 50.046875 50.171875  Q 54.890625 44.34375 54.890625 33.015625  z "
               id="DejaVuSans-6e" />
          </defs>
          <g
             transform="translate(18.737188 182.715937)rotate(-90)scale(0.1 -0.1)"
             id="g248">
            <use
               xlink:href="#DejaVuSans-52"
               id="use232" />
            <use
               x="69.419922"
               xlink:href="#DejaVuSans-65"
               id="use234" />
            <use
               x="130.943359"
               xlink:href="#DejaVuSans-73"
               id="use236" />
            <use
               x="183.042969"
               xlink:href="#DejaVuSans-70"
               id="use238" />
            <use
               x="246.519531"
               xlink:href="#DejaVuSans-6f"
               id="use240" />
            <use
               x="307.701172"
               xlink:href="#DejaVuSans-6e"
               id="use242" />
            <use
               x="371.080078"
               xlink:href="#DejaVuSans-73"
               id="use244" />
            <use
               x="423.179688"
               xlink:href="#DejaVuSans-65"
               id="use246" />
          </g>
        </g>
      </g>
      <g
         id="line2d_14">
        <path
           clip-path="url(#p2e88abe8e6)"
           d="M 76.436915 290.208407  L 105.073223 290.208407  L 142.520704 290.208407  L 166.751426 290.208407  L 179.968184 290.208407  L 190.982149 290.208407  L 220.719854 290.208407  L 221.82125 26.751593  L 243.84918 290.208407  L 269.181299 26.751593  L 276.891074 26.751593  L 294.513418 26.751593  L 305.527383 26.751593  L 327.555313 26.751593  L 357.293018 290.208407  L 379.320947 26.751593  L 410.160049 290.208407  L 423.376806 290.208407  L 474.041045 26.751593  L 489.460595 26.751593  L 518.096904 26.751593  L 544.530419 26.751593  L 544.541433 290.208407  L 544.552447 26.751593  L 552.240195 26.751593  L 574.268124 26.751593  L 591.890468 26.751593  L 604.005829 26.751593  L 627.135156 26.751593  L 649.163085 26.751593  "
           style="fill:none;stroke:#1f77b4;stroke-linecap:square;stroke-width:1.5;"
           id="path252" />
      </g>
      <g
         id="patch_3">
        <path
           d="M 47.72 303.64  L 47.72 13.32  "
           style="fill:none;stroke:#000000;stroke-linecap:square;stroke-linejoin:miter;stroke-width:0.8;"
           id="path255" />
      </g>
      <g
         id="patch_4">
        <path
           d="M 677.88 303.64  L 677.88 13.32  "
           style="fill:none;stroke:#000000;stroke-linecap:square;stroke-linejoin:miter;stroke-width:0.8;"
           id="path258" />
      </g>
      <g
         id="patch_5">
        <path
           d="M 47.72 303.64  L 677.88 303.64  "
           style="fill:none;stroke:#000000;stroke-linecap:square;stroke-linejoin:miter;stroke-width:0.8;"
           id="path261" />
      </g>
      <g
         id="patch_6">
        <path
           d="M 47.72 13.32  L 677.88 13.32  "
           style="fill:none;stroke:#000000;stroke-linecap:square;stroke-linejoin:miter;stroke-width:0.8;"
           id="path264" />
      </g>
      <g
         id="PathCollection_1">
        <defs
           id="defs268">
          <path
             d="M 0 3  C 0.795609 3 1.55874 2.683901 2.12132 2.12132  C 2.683901 1.55874 3 0.795609 3 0  C 3 -0.795609 2.683901 -1.55874 2.12132 -2.12132  C 1.55874 -2.683901 0.795609 -3 0 -3  C -0.795609 -3 -1.55874 -2.683901 -2.12132 -2.12132  C -2.683901 -1.55874 -3 -0.795609 -3 0  C -3 0.795609 -2.683901 1.55874 -2.12132 2.12132  C -1.55874 2.683901 -0.795609 3 0 3  z "
             id="m11d072d11f"
             style="stroke:#ffffff;stroke-width:0.75;" />
        </defs>
        <g
           clip-path="url(#p2e88abe8e6)"
           id="g330">
          <use
             style="stroke:#ffffff;stroke-width:0.75;"
             x="76.436915"
             xlink:href="#m11d072d11f"
             y="290.208407"
             id="use270" />
          <use
             style="stroke:#ffffff;stroke-width:0.75;"
             x="105.073223"
             xlink:href="#m11d072d11f"
             y="290.208407"
             id="use272" />
          <use
             style="stroke:#ffffff;stroke-width:0.75;"
             x="142.520704"
             xlink:href="#m11d072d11f"
             y="290.208407"
             id="use274" />
          <use
             style="stroke:#ffffff;stroke-width:0.75;"
             x="166.751426"
             xlink:href="#m11d072d11f"
             y="290.208407"
             id="use276" />
          <use
             style="stroke:#ffffff;stroke-width:0.75;"
             x="179.968184"
             xlink:href="#m11d072d11f"
             y="290.208407"
             id="use278" />
          <use
             style="stroke:#ffffff;stroke-width:0.75;"
             x="190.982149"
             xlink:href="#m11d072d11f"
             y="290.208407"
             id="use280" />
          <use
             style="stroke:#ffffff;stroke-width:0.75;"
             x="220.719854"
             xlink:href="#m11d072d11f"
             y="290.208407"
             id="use282" />
          <use
             style="stroke:#ffffff;stroke-width:0.75;"
             x="221.82125"
             xlink:href="#m11d072d11f"
             y="26.751593"
             id="use284" />
          <use
             style="stroke:#ffffff;stroke-width:0.75;"
             x="243.84918"
             xlink:href="#m11d072d11f"
             y="290.208407"
             id="use286" />
          <use
             style="stroke:#ffffff;stroke-width:0.75;"
             x="269.181299"
             xlink:href="#m11d072d11f"
             y="26.751593"
             id="use288" />
          <use
             style="stroke:#ffffff;stroke-width:0.75;"
             x="276.891074"
             xlink:href="#m11d072d11f"
             y="26.751593"
             id="use290" />
          <use
             style="stroke:#ffffff;stroke-width:0.75;"
             x="294.513418"
             xlink:href="#m11d072d11f"
             y="26.751593"
             id="use292" />
          <use
             style="stroke:#ffffff;stroke-width:0.75;"
             x="305.527383"
             xlink:href="#m11d072d11f"
             y="26.751593"
             id="use294" />
          <use
             style="stroke:#ffffff;stroke-width:0.75;"
             x="327.555313"
             xlink:href="#m11d072d11f"
             y="26.751593"
             id="use296" />
          <use
             style="stroke:#ffffff;stroke-width:0.75;"
             x="357.293018"
             xlink:href="#m11d072d11f"
             y="290.208407"
             id="use298" />
          <use
             style="stroke:#ffffff;stroke-width:0.75;"
             x="379.320947"
             xlink:href="#m11d072d11f"
             y="26.751593"
             id="use300" />
          <use
             style="stroke:#ffffff;stroke-width:0.75;"
             x="410.160049"
             xlink:href="#m11d072d11f"
             y="290.208407"
             id="use302" />
          <use
             style="stroke:#ffffff;stroke-width:0.75;"
             x="423.376806"
             xlink:href="#m11d072d11f"
             y="290.208407"
             id="use304" />
          <use
             style="stroke:#ffffff;stroke-width:0.75;"
             x="474.041045"
             xlink:href="#m11d072d11f"
             y="26.751593"
             id="use306" />
          <use
             style="stroke:#ffffff;stroke-width:0.75;"
             x="489.460595"
             xlink:href="#m11d072d11f"
             y="26.751593"
             id="use308" />
          <use
             style="stroke:#ffffff;stroke-width:0.75;"
             x="518.096904"
             xlink:href="#m11d072d11f"
             y="26.751593"
             id="use310" />
          <use
             style="stroke:#ffffff;stroke-width:0.75;"
             x="544.530419"
             xlink:href="#m11d072d11f"
             y="26.751593"
             id="use312" />
          <use
             style="stroke:#ffffff;stroke-width:0.75;"
             x="544.541433"
             xlink:href="#m11d072d11f"
             y="290.208407"
             id="use314" />
          <use
             style="stroke:#ffffff;stroke-width:0.75;"
             x="544.552447"
             xlink:href="#m11d072d11f"
             y="26.751593"
             id="use316" />
          <use
             style="stroke:#ffffff;stroke-width:0.75;"
             x="552.240195"
             xlink:href="#m11d072d11f"
             y="26.751593"
             id="use318" />
          <use
             style="stroke:#ffffff;stroke-width:0.75;"
             x="574.268124"
             xlink:href="#m11d072d11f"
             y="26.751593"
             id="use320" />
          <use
             style="stroke:#ffffff;stroke-width:0.75;"
             x="591.890468"
             xlink:href="#m11d072d11f"
             y="26.751593"
             id="use322" />
          <use
             style="stroke:#ffffff;stroke-width:0.75;"
             x="604.005829"
             xlink:href="#m11d072d11f"
             y="26.751593"
             id="use324" />
          <use
             style="stroke:#ffffff;stroke-width:0.75;"
             x="627.135156"
             xlink:href="#m11d072d11f"
             y="26.751593"
             id="use326" />
          <use
             style="stroke:#ffffff;stroke-width:0.75;"
             x="649.163085"
             xlink:href="#m11d072d11f"
             y="26.751593"
             id="use328" />
        </g>
      </g>
      <g
         id="legend_1">
        <g
           id="patch_7">
          <path
             d="M 54.72 80.0325  L 190.185625 80.0325  Q 192.185625 80.0325 192.185625 78.0325  L 192.185625 20.32  Q 192.185625 18.32 190.185625 18.32  L 54.72 18.32  Q 52.72 18.32 52.72 20.32  L 52.72 78.0325  Q 52.72 80.0325 54.72 80.0325  z "
             style="fill:#ffffff;opacity:0.8;stroke:#cccccc;stroke-linejoin:miter;"
             id="path333" />
        </g>
        <g
           id="PathCollection_2">
          <g
             id="g338">
            <use
               style="stroke:#ffffff;stroke-width:0.75;"
               x="66.72"
               xlink:href="#m11d072d11f"
               y="27.293438"
               id="use336" />
          </g>
        </g>
        <g
           id="text_14">
          <!-- Data -->
          <defs
             id="defs343">
            <path
               d="M 19.671875 64.796875  L 19.671875 8.109375  L 31.59375 8.109375  Q 46.6875 8.109375 53.6875 14.9375  Q 60.6875 21.78125 60.6875 36.53125  Q 60.6875 51.171875 53.6875 57.984375  Q 46.6875 64.796875 31.59375 64.796875  z M 9.8125 72.90625  L 30.078125 72.90625  Q 51.265625 72.90625 61.171875 64.09375  Q 71.09375 55.28125 71.09375 36.53125  Q 71.09375 17.671875 61.125 8.828125  Q 51.171875 0 30.078125 0  L 9.8125 0  z "
               id="DejaVuSans-44" />
            <path
               d="M 34.28125 27.484375  Q 23.390625 27.484375 19.1875 25  Q 14.984375 22.515625 14.984375 16.5  Q 14.984375 11.71875 18.140625 8.90625  Q 21.296875 6.109375 26.703125 6.109375  Q 34.1875 6.109375 38.703125 11.40625  Q 43.21875 16.703125 43.21875 25.484375  L 43.21875 27.484375  z M 52.203125 31.203125  L 52.203125 0  L 43.21875 0  L 43.21875 8.296875  Q 40.140625 3.328125 35.546875 0.953125  Q 30.953125 -1.421875 24.3125 -1.421875  Q 15.921875 -1.421875 10.953125 3.296875  Q 6 8.015625 6 15.921875  Q 6 25.140625 12.171875 29.828125  Q 18.359375 34.515625 30.609375 34.515625  L 43.21875 34.515625  L 43.21875 35.40625  Q 43.21875 41.609375 39.140625 45  Q 35.0625 48.390625 27.6875 48.390625  Q 23 48.390625 18.546875 47.265625  Q 14.109375 46.140625 10.015625 43.890625  L 10.015625 52.203125  Q 14.9375 54.109375 19.578125 55.046875  Q 24.21875 56 28.609375 56  Q 40.484375 56 46.34375 49.84375  Q 52.203125 43.703125 52.203125 31.203125  z "
               id="DejaVuSans-61" />
          </defs>
          <g
             transform="translate(84.72 29.918438)scale(0.1 -0.1)"
             id="g353">
            <use
               xlink:href="#DejaVuSans-44"
               id="use345" />
            <use
               x="77.001953"
               xlink:href="#DejaVuSans-61"
               id="use347" />
            <use
               x="138.28125"
               xlink:href="#DejaVuSans-74"
               id="use349" />
            <use
               x="177.490234"
               xlink:href="#DejaVuSans-61"
               id="use351" />
          </g>
        </g>
        <g
           id="line2d_15">
          <path
             d="M 56.72 41.096563  L 76.72 41.096563  "
             style="fill:none;stroke:#ff7f0e;stroke-linecap:square;stroke-width:1.5;"
             id="path356" />
        </g>
        <g
           id="line2d_16" />
        <g
           id="text_15">
          <!-- Null Model -->
          <defs
             id="defs365">
            <path
               d="M 9.8125 72.90625  L 23.09375 72.90625  L 55.421875 11.921875  L 55.421875 72.90625  L 64.984375 72.90625  L 64.984375 0  L 51.703125 0  L 19.390625 60.984375  L 19.390625 0  L 9.8125 0  z "
               id="DejaVuSans-4e" />
            <path
               d="M 8.5 21.578125  L 8.5 54.6875  L 17.484375 54.6875  L 17.484375 21.921875  Q 17.484375 14.15625 20.5 10.265625  Q 23.53125 6.390625 29.59375 6.390625  Q 36.859375 6.390625 41.078125 11.03125  Q 45.3125 15.671875 45.3125 23.6875  L 45.3125 54.6875  L 54.296875 54.6875  L 54.296875 0  L 45.3125 0  L 45.3125 8.40625  Q 42.046875 3.421875 37.71875 1  Q 33.40625 -1.421875 27.6875 -1.421875  Q 18.265625 -1.421875 13.375 4.4375  Q 8.5 10.296875 8.5 21.578125  z M 31.109375 56  z "
               id="DejaVuSans-75" />
            <path
               d="M 9.421875 75.984375  L 18.40625 75.984375  L 18.40625 0  L 9.421875 0  z "
               id="DejaVuSans-6c" />
            <path
               id="DejaVuSans-20" />
            <path
               d="M 9.8125 72.90625  L 24.515625 72.90625  L 43.109375 23.296875  L 61.8125 72.90625  L 76.515625 72.90625  L 76.515625 0  L 66.890625 0  L 66.890625 64.015625  L 48.09375 14.015625  L 38.1875 14.015625  L 19.390625 64.015625  L 19.390625 0  L 9.8125 0  z "
               id="DejaVuSans-4d" />
          </defs>
          <g
             transform="translate(84.72 44.596563)scale(0.1 -0.1)"
             id="g387">
            <use
               xlink:href="#DejaVuSans-4e"
               id="use367" />
            <use
               x="74.804688"
               xlink:href="#DejaVuSans-75"
               id="use369" />
            <use
               x="138.183594"
               xlink:href="#DejaVuSans-6c"
               id="use371" />
            <use
               x="165.966797"
               xlink:href="#DejaVuSans-6c"
               id="use373" />
            <use
               x="193.75"
               xlink:href="#DejaVuSans-20"
               id="use375" />
            <use
               x="225.537109"
               xlink:href="#DejaVuSans-4d"
               id="use377" />
            <use
               x="311.816406"
               xlink:href="#DejaVuSans-6f"
               id="use379" />
            <use
               x="372.998047"
               xlink:href="#DejaVuSans-64"
               id="use381" />
            <use
               x="436.474609"
               xlink:href="#DejaVuSans-65"
               id="use383" />
            <use
               x="497.998047"
               xlink:href="#DejaVuSans-6c"
               id="use385" />
          </g>
        </g>
        <g
           id="line2d_17">
          <path
             d="M 56.72 55.774688  L 76.72 55.774688  "
             style="fill:none;stroke:#1f77b4;stroke-linecap:square;stroke-width:1.5;"
             id="path390" />
        </g>
        <g
           id="line2d_18" />
        <g
           id="text_16">
          <!-- Saturated Model -->
          <defs
             id="defs395">
            <path
               d="M 53.515625 70.515625  L 53.515625 60.890625  Q 47.90625 63.578125 42.921875 64.890625  Q 37.9375 66.21875 33.296875 66.21875  Q 25.25 66.21875 20.875 63.09375  Q 16.5 59.96875 16.5 54.203125  Q 16.5 49.359375 19.40625 46.890625  Q 22.3125 44.4375 30.421875 42.921875  L 36.375 41.703125  Q 47.40625 39.59375 52.65625 34.296875  Q 57.90625 29 57.90625 20.125  Q 57.90625 9.515625 50.796875 4.046875  Q 43.703125 -1.421875 29.984375 -1.421875  Q 24.8125 -1.421875 18.96875 -0.25  Q 13.140625 0.921875 6.890625 3.21875  L 6.890625 13.375  Q 12.890625 10.015625 18.65625 8.296875  Q 24.421875 6.59375 29.984375 6.59375  Q 38.421875 6.59375 43.015625 9.90625  Q 47.609375 13.234375 47.609375 19.390625  Q 47.609375 24.75 44.3125 27.78125  Q 41.015625 30.8125 33.5 32.328125  L 27.484375 33.5  Q 16.453125 35.6875 11.515625 40.375  Q 6.59375 45.0625 6.59375 53.421875  Q 6.59375 63.09375 13.40625 68.65625  Q 20.21875 74.21875 32.171875 74.21875  Q 37.3125 74.21875 42.625 73.28125  Q 47.953125 72.359375 53.515625 70.515625  z "
               id="DejaVuSans-53" />
          </defs>
          <g
             transform="translate(84.72 59.274688)scale(0.1 -0.1)"
             id="g427">
            <use
               xlink:href="#DejaVuSans-53"
               id="use397" />
            <use
               x="63.476562"
               xlink:href="#DejaVuSans-61"
               id="use399" />
            <use
               x="124.755859"
               xlink:href="#DejaVuSans-74"
               id="use401" />
            <use
               x="163.964844"
               xlink:href="#DejaVuSans-75"
               id="use403" />
            <use
               x="227.34375"
               xlink:href="#DejaVuSans-72"
               id="use405" />
            <use
               x="268.457031"
               xlink:href="#DejaVuSans-61"
               id="use407" />
            <use
               x="329.736328"
               xlink:href="#DejaVuSans-74"
               id="use409" />
            <use
               x="368.945312"
               xlink:href="#DejaVuSans-65"
               id="use411" />
            <use
               x="430.46875"
               xlink:href="#DejaVuSans-64"
               id="use413" />
            <use
               x="493.945312"
               xlink:href="#DejaVuSans-20"
               id="use415" />
            <use
               x="525.732422"
               xlink:href="#DejaVuSans-4d"
               id="use417" />
            <use
               x="612.011719"
               xlink:href="#DejaVuSans-6f"
               id="use419" />
            <use
               x="673.193359"
               xlink:href="#DejaVuSans-64"
               id="use421" />
            <use
               x="736.669922"
               xlink:href="#DejaVuSans-65"
               id="use423" />
            <use
               x="798.193359"
               xlink:href="#DejaVuSans-6c"
               id="use425" />
          </g>
        </g>
        <g
           id="line2d_19">
          <path
             d="M 56.72 70.452813  L 76.72 70.452813  "
             style="fill:none;stroke:#2ca02c;stroke-linecap:square;stroke-width:1.5;"
             id="path430" />
        </g>
        <g
           id="line2d_20" />
        <g
           id="text_17">
          <!-- Fitted Logistic Model -->
          <defs
             id="defs437">
            <path
               d="M 9.8125 72.90625  L 51.703125 72.90625  L 51.703125 64.59375  L 19.671875 64.59375  L 19.671875 43.109375  L 48.578125 43.109375  L 48.578125 34.8125  L 19.671875 34.8125  L 19.671875 0  L 9.8125 0  z "
               id="DejaVuSans-46" />
            <path
               d="M 9.8125 72.90625  L 19.671875 72.90625  L 19.671875 8.296875  L 55.171875 8.296875  L 55.171875 0  L 9.8125 0  z "
               id="DejaVuSans-4c" />
            <path
               d="M 45.40625 27.984375  Q 45.40625 37.75 41.375 43.109375  Q 37.359375 48.484375 30.078125 48.484375  Q 22.859375 48.484375 18.828125 43.109375  Q 14.796875 37.75 14.796875 27.984375  Q 14.796875 18.265625 18.828125 12.890625  Q 22.859375 7.515625 30.078125 7.515625  Q 37.359375 7.515625 41.375 12.890625  Q 45.40625 18.265625 45.40625 27.984375  z M 54.390625 6.78125  Q 54.390625 -7.171875 48.1875 -13.984375  Q 42 -20.796875 29.203125 -20.796875  Q 24.46875 -20.796875 20.265625 -20.09375  Q 16.0625 -19.390625 12.109375 -17.921875  L 12.109375 -9.1875  Q 16.0625 -11.328125 19.921875 -12.34375  Q 23.78125 -13.375 27.78125 -13.375  Q 36.625 -13.375 41.015625 -8.765625  Q 45.40625 -4.15625 45.40625 5.171875  L 45.40625 9.625  Q 42.625 4.78125 38.28125 2.390625  Q 33.9375 0 27.875 0  Q 17.828125 0 11.671875 7.65625  Q 5.515625 15.328125 5.515625 27.984375  Q 5.515625 40.671875 11.671875 48.328125  Q 17.828125 56 27.875 56  Q 33.9375 56 38.28125 53.609375  Q 42.625 51.21875 45.40625 46.390625  L 45.40625 54.6875  L 54.390625 54.6875  z "
               id="DejaVuSans-67" />
          </defs>
          <g
             transform="translate(84.72 73.952813)scale(0.1 -0.1)"
             id="g481">
            <use
               xlink:href="#DejaVuSans-46"
               id="use439" />
            <use
               x="57.410156"
               xlink:href="#DejaVuSans-69"
               id="use441" />
            <use
               x="85.193359"
               xlink:href="#DejaVuSans-74"
               id="use443" />
            <use
               x="124.402344"
               xlink:href="#DejaVuSans-74"
               id="use445" />
            <use
               x="163.611328"
               xlink:href="#DejaVuSans-65"
               id="use447" />
            <use
               x="225.134766"
               xlink:href="#DejaVuSans-64"
               id="use449" />
            <use
               x="288.611328"
               xlink:href="#DejaVuSans-20"
               id="use451" />
            <use
               x="320.398438"
               xlink:href="#DejaVuSans-4c"
               id="use453" />
            <use
               x="376.095703"
               xlink:href="#DejaVuSans-6f"
               id="use455" />
            <use
               x="437.277344"
               xlink:href="#DejaVuSans-67"
               id="use457" />
            <use
               x="500.753906"
               xlink:href="#DejaVuSans-69"
               id="use459" />
            <use
               x="528.537109"
               xlink:href="#DejaVuSans-73"
               id="use461" />
            <use
               x="580.636719"
               xlink:href="#DejaVuSans-74"
               id="use463" />
            <use
               x="619.845703"
               xlink:href="#DejaVuSans-69"
               id="use465" />
            <use
               x="647.628906"
               xlink:href="#DejaVuSans-63"
               id="use467" />
            <use
               x="702.609375"
               xlink:href="#DejaVuSans-20"
               id="use469" />
            <use
               x="734.396484"
               xlink:href="#DejaVuSans-4d"
               id="use471" />
            <use
               x="820.675781"
               xlink:href="#DejaVuSans-6f"
               id="use473" />
            <use
               x="881.857422"
               xlink:href="#DejaVuSans-64"
               id="use475" />
            <use
               x="945.333984"
               xlink:href="#DejaVuSans-65"
               id="use477" />
            <use
               x="1006.857422"
               xlink:href="#DejaVuSans-6c"
               id="use479" />
          </g>
        </g>
      </g>
    </g>
  </g>
  <defs
     id="defs490">
    <clipPath
       id="p2e88abe8e6">
      <rect
         height="290.32"
         width="630.16"
         x="47.72"
         y="13.32"
         id="rect487" />
    </clipPath>
  </defs>
</svg>
