<?xml version="1.0" encoding="UTF-8"?>
<svg xmlns="http://www.w3.org/2000/svg" xmlns:xlink="http://www.w3.org/1999/xlink" width="2210" height="10">
<!-- Created with genesis v0.20.0 (http://genesis-lib.org) on 2019-02-18 at 15:29:58 -->
    <g transform="translate( 0, 0)" >
        <g>
            <rect x="0" y="0" width="11" height="10" stroke="none" fill="#0000ff" fill-opacity="1" />
            <rect x="10" y="0" width="11" height="10" stroke="none" fill="#0000ff" fill-opacity="1" />
            <rect x="20" y="0" width="11" height="10" stroke="none" fill="#0000ff" fill-opacity="1" />
            <rect x="30" y="0" width="11" height="10" stroke="none" fill="#0000ff" fill-opacity="1" />
            <rect x="40" y="0" width="11" height="10" stroke="none" fill="#0000ff" fill-opacity="1" />
            <rect x="50" y="0" width="11" height="10" stroke="none" fill="#0000ff" fill-opacity="1" />
            <rect x="60" y="0" width="11" height="10" stroke="none" fill="#0000ff" fill-opacity="1" />
            <rect x="70" y="0" width="11" height="10" stroke="none" fill="#0000ff" fill-opacity="1" />
            <rect x="80" y="0" width="11" height="10" stroke="none" fill="#0000ff" fill-opacity="1" />
            <rect x="90" y="0" width="11" height="10" stroke="none" fill="#0000ff" fill-opacity="1" />
            <rect x="100" y="0" width="11" height="10" stroke="none" fill="#0000ff" fill-opacity="1" />
            <rect x="110" y="0" width="11" height="10" stroke="none" fill="#0000ff" fill-opacity="1" />
            <rect x="120" y="0" width="11" height="10" stroke="none" fill="#0000ff" fill-opacity="1" />
            <rect x="130" y="0" width="11" height="10" stroke="none" fill="#0000ff" fill-opacity="1" />
            <rect x="140" y="0" width="11" height="10" stroke="none" fill="#0000ff" fill-opacity="1" />
            <rect x="150" y="0" width="11" height="10" stroke="none" fill="#0000ff" fill-opacity="1" />
            <rect x="160" y="0" width="11" height="10" stroke="none" fill="#0000ff" fill-opacity="1" />
            <rect x="170" y="0" width="11" height="10" stroke="none" fill="#0000ff" fill-opacity="1" />
            <rect x="180" y="0" width="11" height="10" stroke="none" fill="#0000ff" fill-opacity="1" />
            <rect x="190" y="0" width="11" height="10" stroke="none" fill="#0000ff" fill-opacity="1" />
            <rect x="200" y="0" width="11" height="10" stroke="none" fill="#0000ff" fill-opacity="1" />
            <rect x="210" y="0" width="11" height="10" stroke="none" fill="#0000ff" fill-opacity="1" />
            <rect x="220" y="0" width="11" height="10" stroke="none" fill="#0000ff" fill-opacity="1" />
            <rect x="230" y="0" width="11" height="10" stroke="none" fill="#0000ff" fill-opacity="1" />
            <rect x="240" y="0" width="11" height="10" stroke="none" fill="#0000ff" fill-opacity="1" />
            <rect x="250" y="0" width="11" height="10" stroke="none" fill="#0000ff" fill-opacity="1" />
            <rect x="260" y="0" width="11" height="10" stroke="none" fill="#0000ff" fill-opacity="1" />
            <rect x="270" y="0" width="11" height="10" stroke="none" fill="#0000ff" fill-opacity="1" />
            <rect x="280" y="0" width="11" height="10" stroke="none" fill="#0000ff" fill-opacity="1" />
            <rect x="290" y="0" width="11" height="10" stroke="none" fill="#0000ff" fill-opacity="1" />
            <rect x="300" y="0" width="11" height="10" stroke="none" fill="#0000ff" fill-opacity="1" />
            <rect x="310" y="0" width="11" height="10" stroke="none" fill="#0000ff" fill-opacity="1" />
            <rect x="320" y="0" width="11" height="10" stroke="none" fill="#0000ff" fill-opacity="1" />
            <rect x="330" y="0" width="11" height="10" stroke="none" fill="#0000ff" fill-opacity="1" />
            <rect x="340" y="0" width="11" height="10" stroke="none" fill="#0000ff" fill-opacity="1" />
            <rect x="350" y="0" width="11" height="10" stroke="none" fill="#0000ff" fill-opacity="1" />
            <rect x="360" y="0" width="11" height="10" stroke="none" fill="#0000ff" fill-opacity="1" />
            <rect x="370" y="0" width="11" height="10" stroke="none" fill="#0000ff" fill-opacity="1" />
            <rect x="380" y="0" width="11" height="10" stroke="none" fill="#0000ff" fill-opacity="1" />
            <rect x="390" y="0" width="11" height="10" stroke="none" fill="#0000ff" fill-opacity="1" />
            <rect x="400" y="0" width="11" height="10" stroke="none" fill="#0000ff" fill-opacity="1" />
            <rect x="410" y="0" width="11" height="10" stroke="none" fill="#0000ff" fill-opacity="1" />
            <rect x="420" y="0" width="11" height="10" stroke="none" fill="#0000ff" fill-opacity="1" />
            <rect x="430" y="0" width="11" height="10" stroke="none" fill="#0000ff" fill-opacity="1" />
            <rect x="440" y="0" width="11" height="10" stroke="none" fill="#0000ff" fill-opacity="1" />
            <rect x="450" y="0" width="11" height="10" stroke="none" fill="#0000ff" fill-opacity="1" />
            <rect x="460" y="0" width="11" height="10" stroke="none" fill="#0000ff" fill-opacity="1" />
            <rect x="470" y="0" width="11" height="10" stroke="none" fill="#0000ff" fill-opacity="1" />
            <rect x="480" y="0" width="11" height="10" stroke="none" fill="#0000ff" fill-opacity="1" />
            <rect x="490" y="0" width="11" height="10" stroke="none" fill="#0000ff" fill-opacity="1" />
            <rect x="500" y="0" width="11" height="10" stroke="none" fill="#0000ff" fill-opacity="1" />
            <rect x="510" y="0" width="11" height="10" stroke="none" fill="#0000ff" fill-opacity="1" />
            <rect x="520" y="0" width="11" height="10" stroke="none" fill="#0000ff" fill-opacity="1" />
            <rect x="530" y="0" width="11" height="10" stroke="none" fill="#0000ff" fill-opacity="1" />
            <rect x="540" y="0" width="11" height="10" stroke="none" fill="#0000ff" fill-opacity="1" />
            <rect x="550" y="0" width="11" height="10" stroke="none" fill="#0000ff" fill-opacity="1" />
            <rect x="560" y="0" width="11" height="10" stroke="none" fill="#0000ff" fill-opacity="1" />
            <rect x="570" y="0" width="11" height="10" stroke="none" fill="#0000ff" fill-opacity="1" />
            <rect x="580" y="0" width="11" height="10" stroke="none" fill="#0000ff" fill-opacity="1" />
            <rect x="590" y="0" width="11" height="10" stroke="none" fill="#0000ff" fill-opacity="1" />
            <rect x="600" y="0" width="11" height="10" stroke="none" fill="#0000ff" fill-opacity="1" />
            <rect x="610" y="0" width="11" height="10" stroke="none" fill="#0000ff" fill-opacity="1" />
            <rect x="620" y="0" width="11" height="10" stroke="none" fill="#0000ff" fill-opacity="1" />
            <rect x="630" y="0" width="11" height="10" stroke="none" fill="#0000ff" fill-opacity="1" />
            <rect x="640" y="0" width="11" height="10" stroke="none" fill="#0000ff" fill-opacity="1" />
            <rect x="650" y="0" width="11" height="10" stroke="none" fill="#0000ff" fill-opacity="1" />
            <rect x="660" y="0" width="11" height="10" stroke="none" fill="#0000ff" fill-opacity="1" />
            <rect x="670" y="0" width="11" height="10" stroke="none" fill="#0000ff" fill-opacity="1" />
            <rect x="680" y="0" width="11" height="10" stroke="none" fill="#0000ff" fill-opacity="1" />
            <rect x="690" y="0" width="11" height="10" stroke="none" fill="#0000ff" fill-opacity="1" />
            <rect x="700" y="0" width="11" height="10" stroke="none" fill="#0000ff" fill-opacity="1" />
            <rect x="710" y="0" width="11" height="10" stroke="none" fill="#0000ff" fill-opacity="1" />
            <rect x="720" y="0" width="11" height="10" stroke="none" fill="#0000ff" fill-opacity="1" />
            <rect x="730" y="0" width="11" height="10" stroke="none" fill="#0000ff" fill-opacity="1" />
            <rect x="740" y="0" width="11" height="10" stroke="none" fill="#0000ff" fill-opacity="1" />
            <rect x="750" y="0" width="11" height="10" stroke="none" fill="#0000ff" fill-opacity="1" />
            <rect x="760" y="0" width="11" height="10" stroke="none" fill="#1a00e6" fill-opacity="1" />
            <rect x="770" y="0" width="11" height="10" stroke="none" fill="#1a00e6" fill-opacity="1" />
            <rect x="780" y="0" width="11" height="10" stroke="none" fill="#1a00e6" fill-opacity="1" />
            <rect x="790" y="0" width="11" height="10" stroke="none" fill="#1a00e6" fill-opacity="1" />
            <rect x="800" y="0" width="11" height="10" stroke="none" fill="#1a00e6" fill-opacity="1" />
            <rect x="810" y="0" width="11" height="10" stroke="none" fill="#1a00e6" fill-opacity="1" />
            <rect x="820" y="0" width="11" height="10" stroke="none" fill="#1a00e6" fill-opacity="1" />
            <rect x="830" y="0" width="11" height="10" stroke="none" fill="#1a00e6" fill-opacity="1" />
            <rect x="840" y="0" width="11" height="10" stroke="none" fill="#3300cc" fill-opacity="1" />
            <rect x="850" y="0" width="11" height="10" stroke="none" fill="#3300cc" fill-opacity="1" />
            <rect x="860" y="0" width="11" height="10" stroke="none" fill="#3300cc" fill-opacity="1" />
            <rect x="870" y="0" width="11" height="10" stroke="none" fill="#3300cc" fill-opacity="1" />
            <rect x="880" y="0" width="11" height="10" stroke="none" fill="#4d00b3" fill-opacity="1" />
            <rect x="890" y="0" width="11" height="10" stroke="none" fill="#4d00b3" fill-opacity="1" />
            <rect x="900" y="0" width="11" height="10" stroke="none" fill="#4d00b3" fill-opacity="1" />
            <rect x="910" y="0" width="11" height="10" stroke="none" fill="#660099" fill-opacity="1" />
            <rect x="920" y="0" width="11" height="10" stroke="none" fill="#660099" fill-opacity="1" />
            <rect x="930" y="0" width="11" height="10" stroke="none" fill="#660099" fill-opacity="1" />
            <rect x="940" y="0" width="11" height="10" stroke="none" fill="#660099" fill-opacity="1" />
            <rect x="950" y="0" width="11" height="10" stroke="none" fill="#660099" fill-opacity="1" />
            <rect x="960" y="0" width="11" height="10" stroke="none" fill="#660099" fill-opacity="1" />
            <rect x="970" y="0" width="11" height="10" stroke="none" fill="#800080" fill-opacity="1" />
            <rect x="980" y="0" width="11" height="10" stroke="none" fill="#800080" fill-opacity="1" />
            <rect x="990" y="0" width="11" height="10" stroke="none" fill="#800080" fill-opacity="1" />
            <rect x="1000" y="0" width="11" height="10" stroke="none" fill="#990066" fill-opacity="1" />
            <rect x="1010" y="0" width="11" height="10" stroke="none" fill="#990066" fill-opacity="1" />
            <rect x="1020" y="0" width="11" height="10" stroke="none" fill="#990066" fill-opacity="1" />
            <rect x="1030" y="0" width="11" height="10" stroke="none" fill="#990066" fill-opacity="1" />
            <rect x="1040" y="0" width="11" height="10" stroke="none" fill="#b3004d" fill-opacity="1" />
            <rect x="1050" y="0" width="11" height="10" stroke="none" fill="#b3004d" fill-opacity="1" />
            <rect x="1060" y="0" width="11" height="10" stroke="none" fill="#b3004d" fill-opacity="1" />
            <rect x="1070" y="0" width="11" height="10" stroke="none" fill="#b3004d" fill-opacity="1" />
            <rect x="1080" y="0" width="11" height="10" stroke="none" fill="#b3004d" fill-opacity="1" />
            <rect x="1090" y="0" width="11" height="10" stroke="none" fill="#b3004d" fill-opacity="1" />
            <rect x="1100" y="0" width="11" height="10" stroke="none" fill="#b3004d" fill-opacity="1" />
            <rect x="1110" y="0" width="11" height="10" stroke="none" fill="#b3004d" fill-opacity="1" />
            <rect x="1120" y="0" width="11" height="10" stroke="none" fill="#cc0033" fill-opacity="1" />
            <rect x="1130" y="0" width="11" height="10" stroke="none" fill="#cc0033" fill-opacity="1" />
            <rect x="1140" y="0" width="11" height="10" stroke="none" fill="#cc0033" fill-opacity="1" />
            <rect x="1150" y="0" width="11" height="10" stroke="none" fill="#cc0033" fill-opacity="1" />
            <rect x="1160" y="0" width="11" height="10" stroke="none" fill="#cc0033" fill-opacity="1" />
            <rect x="1170" y="0" width="11" height="10" stroke="none" fill="#cc0033" fill-opacity="1" />
            <rect x="1180" y="0" width="11" height="10" stroke="none" fill="#cc0033" fill-opacity="1" />
            <rect x="1190" y="0" width="11" height="10" stroke="none" fill="#cc0033" fill-opacity="1" />
            <rect x="1200" y="0" width="11" height="10" stroke="none" fill="#cc0033" fill-opacity="1" />
            <rect x="1210" y="0" width="11" height="10" stroke="none" fill="#cc0033" fill-opacity="1" />
            <rect x="1220" y="0" width="11" height="10" stroke="none" fill="#cc0033" fill-opacity="1" />
            <rect x="1230" y="0" width="11" height="10" stroke="none" fill="#cc0033" fill-opacity="1" />
            <rect x="1240" y="0" width="11" height="10" stroke="none" fill="#cc0033" fill-opacity="1" />
            <rect x="1250" y="0" width="11" height="10" stroke="none" fill="#cc0033" fill-opacity="1" />
            <rect x="1260" y="0" width="11" height="10" stroke="none" fill="#cc0033" fill-opacity="1" />
            <rect x="1270" y="0" width="11" height="10" stroke="none" fill="#cc0033" fill-opacity="1" />
            <rect x="1280" y="0" width="11" height="10" stroke="none" fill="#cc0033" fill-opacity="1" />
            <rect x="1290" y="0" width="11" height="10" stroke="none" fill="#cc0033" fill-opacity="1" />
            <rect x="1300" y="0" width="11" height="10" stroke="none" fill="#cc0033" fill-opacity="1" />
            <rect x="1310" y="0" width="11" height="10" stroke="none" fill="#cc0033" fill-opacity="1" />
            <rect x="1320" y="0" width="11" height="10" stroke="none" fill="#cc0033" fill-opacity="1" />
            <rect x="1330" y="0" width="11" height="10" stroke="none" fill="#cc0033" fill-opacity="1" />
            <rect x="1340" y="0" width="11" height="10" stroke="none" fill="#cc0033" fill-opacity="1" />
            <rect x="1350" y="0" width="11" height="10" stroke="none" fill="#cc0033" fill-opacity="1" />
            <rect x="1360" y="0" width="11" height="10" stroke="none" fill="#cc0033" fill-opacity="1" />
            <rect x="1370" y="0" width="11" height="10" stroke="none" fill="#cc0033" fill-opacity="1" />
            <rect x="1380" y="0" width="11" height="10" stroke="none" fill="#cc0033" fill-opacity="1" />
            <rect x="1390" y="0" width="11" height="10" stroke="none" fill="#cc0033" fill-opacity="1" />
            <rect x="1400" y="0" width="11" height="10" stroke="none" fill="#cc0033" fill-opacity="1" />
            <rect x="1410" y="0" width="11" height="10" stroke="none" fill="#cc0033" fill-opacity="1" />
            <rect x="1420" y="0" width="11" height="10" stroke="none" fill="#cc0033" fill-opacity="1" />
            <rect x="1430" y="0" width="11" height="10" stroke="none" fill="#cc0033" fill-opacity="1" />
            <rect x="1440" y="0" width="11" height="10" stroke="none" fill="#cc0033" fill-opacity="1" />
            <rect x="1450" y="0" width="11" height="10" stroke="none" fill="#cc0033" fill-opacity="1" />
            <rect x="1460" y="0" width="11" height="10" stroke="none" fill="#cc0033" fill-opacity="1" />
            <rect x="1470" y="0" width="11" height="10" stroke="none" fill="#cc0033" fill-opacity="1" />
            <rect x="1480" y="0" width="11" height="10" stroke="none" fill="#cc0033" fill-opacity="1" />
            <rect x="1490" y="0" width="11" height="10" stroke="none" fill="#cc0033" fill-opacity="1" />
            <rect x="1500" y="0" width="11" height="10" stroke="none" fill="#cc0033" fill-opacity="1" />
            <rect x="1510" y="0" width="11" height="10" stroke="none" fill="#cc0033" fill-opacity="1" />
            <rect x="1520" y="0" width="11" height="10" stroke="none" fill="#cc0033" fill-opacity="1" />
            <rect x="1530" y="0" width="11" height="10" stroke="none" fill="#cc0033" fill-opacity="1" />
            <rect x="1540" y="0" width="11" height="10" stroke="none" fill="#cc0033" fill-opacity="1" />
            <rect x="1550" y="0" width="11" height="10" stroke="none" fill="#cc0033" fill-opacity="1" />
            <rect x="1560" y="0" width="11" height="10" stroke="none" fill="#cc0033" fill-opacity="1" />
            <rect x="1570" y="0" width="11" height="10" stroke="none" fill="#cc0033" fill-opacity="1" />
            <rect x="1580" y="0" width="11" height="10" stroke="none" fill="#cc0033" fill-opacity="1" />
            <rect x="1590" y="0" width="11" height="10" stroke="none" fill="#cc0033" fill-opacity="1" />
            <rect x="1600" y="0" width="11" height="10" stroke="none" fill="#cc0033" fill-opacity="1" />
            <rect x="1610" y="0" width="11" height="10" stroke="none" fill="#cc0033" fill-opacity="1" />
            <rect x="1620" y="0" width="11" height="10" stroke="none" fill="#cc0033" fill-opacity="1" />
            <rect x="1630" y="0" width="11" height="10" stroke="none" fill="#cc0033" fill-opacity="1" />
            <rect x="1640" y="0" width="11" height="10" stroke="none" fill="#cc0033" fill-opacity="1" />
            <rect x="1650" y="0" width="11" height="10" stroke="none" fill="#cc0033" fill-opacity="1" />
            <rect x="1660" y="0" width="11" height="10" stroke="none" fill="#cc0033" fill-opacity="1" />
            <rect x="1670" y="0" width="11" height="10" stroke="none" fill="#cc0033" fill-opacity="1" />
            <rect x="1680" y="0" width="11" height="10" stroke="none" fill="#cc0033" fill-opacity="1" />
            <rect x="1690" y="0" width="11" height="10" stroke="none" fill="#cc0033" fill-opacity="1" />
            <rect x="1700" y="0" width="11" height="10" stroke="none" fill="#cc0033" fill-opacity="1" />
            <rect x="1710" y="0" width="11" height="10" stroke="none" fill="#cc0033" fill-opacity="1" />
            <rect x="1720" y="0" width="11" height="10" stroke="none" fill="#cc0033" fill-opacity="1" />
            <rect x="1730" y="0" width="11" height="10" stroke="none" fill="#cc0033" fill-opacity="1" />
            <rect x="1740" y="0" width="11" height="10" stroke="none" fill="#cc0033" fill-opacity="1" />
            <rect x="1750" y="0" width="11" height="10" stroke="none" fill="#cc0033" fill-opacity="1" />
            <rect x="1760" y="0" width="11" height="10" stroke="none" fill="#cc0033" fill-opacity="1" />
            <rect x="1770" y="0" width="11" height="10" stroke="none" fill="#cc0033" fill-opacity="1" />
            <rect x="1780" y="0" width="11" height="10" stroke="none" fill="#cc0033" fill-opacity="1" />
            <rect x="1790" y="0" width="11" height="10" stroke="none" fill="#cc0033" fill-opacity="1" />
            <rect x="1800" y="0" width="11" height="10" stroke="none" fill="#cc0033" fill-opacity="1" />
            <rect x="1810" y="0" width="11" height="10" stroke="none" fill="#cc0033" fill-opacity="1" />
            <rect x="1820" y="0" width="11" height="10" stroke="none" fill="#cc0033" fill-opacity="1" />
            <rect x="1830" y="0" width="11" height="10" stroke="none" fill="#cc0033" fill-opacity="1" />
            <rect x="1840" y="0" width="11" height="10" stroke="none" fill="#cc0033" fill-opacity="1" />
            <rect x="1850" y="0" width="11" height="10" stroke="none" fill="#cc0033" fill-opacity="1" />
            <rect x="1860" y="0" width="11" height="10" stroke="none" fill="#cc0033" fill-opacity="1" />
            <rect x="1870" y="0" width="11" height="10" stroke="none" fill="#cc0033" fill-opacity="1" />
            <rect x="1880" y="0" width="11" height="10" stroke="none" fill="#cc0033" fill-opacity="1" />
            <rect x="1890" y="0" width="11" height="10" stroke="none" fill="#cc0033" fill-opacity="1" />
            <rect x="1900" y="0" width="11" height="10" stroke="none" fill="#cc0033" fill-opacity="1" />
            <rect x="1910" y="0" width="11" height="10" stroke="none" fill="#cc0033" fill-opacity="1" />
            <rect x="1920" y="0" width="11" height="10" stroke="none" fill="#cc0033" fill-opacity="1" />
            <rect x="1930" y="0" width="11" height="10" stroke="none" fill="#cc0033" fill-opacity="1" />
            <rect x="1940" y="0" width="11" height="10" stroke="none" fill="#cc0033" fill-opacity="1" />
            <rect x="1950" y="0" width="11" height="10" stroke="none" fill="#cc0033" fill-opacity="1" />
            <rect x="1960" y="0" width="11" height="10" stroke="none" fill="#e60019" fill-opacity="1" />
            <rect x="1970" y="0" width="11" height="10" stroke="none" fill="#e60019" fill-opacity="1" />
            <rect x="1980" y="0" width="11" height="10" stroke="none" fill="#e60019" fill-opacity="1" />
            <rect x="1990" y="0" width="11" height="10" stroke="none" fill="#e60019" fill-opacity="1" />
            <rect x="2000" y="0" width="11" height="10" stroke="none" fill="#e60019" fill-opacity="1" />
            <rect x="2010" y="0" width="11" height="10" stroke="none" fill="#e60019" fill-opacity="1" />
            <rect x="2020" y="0" width="11" height="10" stroke="none" fill="#ff0000" fill-opacity="1" />
            <rect x="2030" y="0" width="11" height="10" stroke="none" fill="#ff0000" fill-opacity="1" />
            <rect x="2040" y="0" width="11" height="10" stroke="none" fill="#ff0000" fill-opacity="1" />
            <rect x="2050" y="0" width="11" height="10" stroke="none" fill="#ff0000" fill-opacity="1" />
            <rect x="2060" y="0" width="11" height="10" stroke="none" fill="#ff0000" fill-opacity="1" />
            <rect x="2070" y="0" width="11" height="10" stroke="none" fill="#ff0000" fill-opacity="1" />
            <rect x="2080" y="0" width="11" height="10" stroke="none" fill="#ff0000" fill-opacity="1" />
            <rect x="2090" y="0" width="11" height="10" stroke="none" fill="#ff0000" fill-opacity="1" />
            <rect x="2100" y="0" width="11" height="10" stroke="none" fill="#ff0000" fill-opacity="1" />
            <rect x="2110" y="0" width="11" height="10" stroke="none" fill="#ff0000" fill-opacity="1" />
            <rect x="2120" y="0" width="11" height="10" stroke="none" fill="#ff0000" fill-opacity="1" />
            <rect x="2130" y="0" width="11" height="10" stroke="none" fill="#ff0000" fill-opacity="1" />
            <rect x="2140" y="0" width="11" height="10" stroke="none" fill="#ff0000" fill-opacity="1" />
            <rect x="2150" y="0" width="11" height="10" stroke="none" fill="#ff0000" fill-opacity="1" />
            <rect x="2160" y="0" width="11" height="10" stroke="none" fill="#ff0000" fill-opacity="1" />
            <rect x="2170" y="0" width="11" height="10" stroke="none" fill="#ff0000" fill-opacity="1" />
            <rect x="2180" y="0" width="11" height="10" stroke="none" fill="#ff0000" fill-opacity="1" />
            <rect x="2190" y="0" width="11" height="10" stroke="none" fill="#ff0000" fill-opacity="1" />
            <rect x="2200" y="0" width="10" height="10" stroke="none" fill="#ff0000" fill-opacity="1" />
            <g>
            </g>
        </g>
    </g>
</svg>
