<?xml version="1.0" encoding="UTF-8"?>
<!DOCTYPE svg PUBLIC "-//W3C//DTD SVG 1.1//EN" "http://www.w3.org/Graphics/SVG/1.1/DTD/svg11.dtd">
<svg width="164mm" height="96mm" viewBox="0 0 16400 9600" version="1.1" baseProfile="tiny" xmlns="http://www.w3.org/2000/svg" stroke-width="28.222" stroke-linejoin="round" xml:space="preserve">
 <path fill="rgb(255,255,255)" stroke="none" d="M 8202,9904 L 1,9904 1,295 16403,295 16403,9904 8202,9904 Z"/>
 <path fill="none" stroke="rgb(179,179,179)" stroke-linejoin="round" d="M 7688,9038 L 1094,9038 1094,700 14282,700 14282,9038 7688,9038 Z"/>
 <path fill="none" stroke="rgb(179,179,179)" stroke-linejoin="round" d="M 14282,9037 L 1094,9037"/>
 <path fill="none" stroke="rgb(179,179,179)" stroke-linejoin="round" d="M 14282,7369 L 1094,7369"/>
 <path fill="none" stroke="rgb(179,179,179)" stroke-linejoin="round" d="M 14282,5701 L 1094,5701"/>
 <path fill="none" stroke="rgb(179,179,179)" stroke-linejoin="round" d="M 14282,4034 L 1094,4034"/>
 <path fill="none" stroke="rgb(179,179,179)" stroke-linejoin="round" d="M 14282,2366 L 1094,2366"/>
 <path fill="none" stroke="rgb(179,179,179)" stroke-linejoin="round" d="M 14282,699 L 1094,699"/>
 <path fill="none" stroke="rgb(179,179,179)" stroke-linejoin="round" d="M 1094,9187 L 1094,9037"/>
 <path fill="none" stroke="rgb(179,179,179)" stroke-linejoin="round" d="M 1094,9187 L 1094,9037"/>
 <path fill="none" stroke="rgb(179,179,179)" stroke-linejoin="round" d="M 2742,9187 L 2742,9037"/>
 <path fill="none" stroke="rgb(179,179,179)" stroke-linejoin="round" d="M 2742,9187 L 2742,9037"/>
 <path fill="none" stroke="rgb(179,179,179)" stroke-linejoin="round" d="M 4391,9187 L 4391,9037"/>
 <path fill="none" stroke="rgb(179,179,179)" stroke-linejoin="round" d="M 4391,9187 L 4391,9037"/>
 <path fill="none" stroke="rgb(179,179,179)" stroke-linejoin="round" d="M 6039,9187 L 6039,9037"/>
 <path fill="none" stroke="rgb(179,179,179)" stroke-linejoin="round" d="M 6039,9187 L 6039,9037"/>
 <path fill="none" stroke="rgb(179,179,179)" stroke-linejoin="round" d="M 7688,9187 L 7688,9037"/>
 <path fill="none" stroke="rgb(179,179,179)" stroke-linejoin="round" d="M 7688,9187 L 7688,9037"/>
 <path fill="none" stroke="rgb(179,179,179)" stroke-linejoin="round" d="M 9336,9187 L 9336,9037"/>
 <path fill="none" stroke="rgb(179,179,179)" stroke-linejoin="round" d="M 9336,9187 L 9336,9037"/>
 <path fill="none" stroke="rgb(179,179,179)" stroke-linejoin="round" d="M 10984,9187 L 10984,9037"/>
 <path fill="none" stroke="rgb(179,179,179)" stroke-linejoin="round" d="M 10984,9187 L 10984,9037"/>
 <path fill="none" stroke="rgb(179,179,179)" stroke-linejoin="round" d="M 12633,9187 L 12633,9037"/>
 <path fill="none" stroke="rgb(179,179,179)" stroke-linejoin="round" d="M 12633,9187 L 12633,9037"/>
 <path fill="none" stroke="rgb(179,179,179)" stroke-linejoin="round" d="M 14282,9187 L 14282,9037"/>
 <path fill="none" stroke="rgb(179,179,179)" stroke-linejoin="round" d="M 14282,9187 L 14282,9037"/>
 <path fill="none" stroke="rgb(179,179,179)" stroke-linejoin="round" d="M 1094,9037 L 14282,9037"/>
 <path fill="none" stroke="rgb(179,179,179)" stroke-linejoin="round" d="M 944,9037 L 1094,9037"/>
 <path fill="none" stroke="rgb(179,179,179)" stroke-linejoin="round" d="M 944,9037 L 1094,9037"/>
 <path fill="none" stroke="rgb(179,179,179)" stroke-linejoin="round" d="M 944,7369 L 1094,7369"/>
 <path fill="none" stroke="rgb(179,179,179)" stroke-linejoin="round" d="M 944,7369 L 1094,7369"/>
 <path fill="none" stroke="rgb(179,179,179)" stroke-linejoin="round" d="M 944,5701 L 1094,5701"/>
 <path fill="none" stroke="rgb(179,179,179)" stroke-linejoin="round" d="M 944,5701 L 1094,5701"/>
 <path fill="none" stroke="rgb(179,179,179)" stroke-linejoin="round" d="M 944,4034 L 1094,4034"/>
 <path fill="none" stroke="rgb(179,179,179)" stroke-linejoin="round" d="M 944,4034 L 1094,4034"/>
 <path fill="none" stroke="rgb(179,179,179)" stroke-linejoin="round" d="M 944,2366 L 1094,2366"/>
 <path fill="none" stroke="rgb(179,179,179)" stroke-linejoin="round" d="M 944,2366 L 1094,2366"/>
 <path fill="none" stroke="rgb(179,179,179)" stroke-linejoin="round" d="M 944,699 L 1094,699"/>
 <path fill="none" stroke="rgb(179,179,179)" stroke-linejoin="round" d="M 944,699 L 1094,699"/>
 <path fill="none" stroke="rgb(179,179,179)" stroke-linejoin="round" d="M 1094,9037 L 1094,699"/>
 <path fill="none" stroke="rgb(179,179,179)" stroke-linejoin="round" d="M 14432,9037 L 14282,9037"/>
 <path fill="none" stroke="rgb(179,179,179)" stroke-linejoin="round" d="M 14432,9037 L 14282,9037"/>
 <path fill="none" stroke="rgb(179,179,179)" stroke-linejoin="round" d="M 14432,7369 L 14282,7369"/>
 <path fill="none" stroke="rgb(179,179,179)" stroke-linejoin="round" d="M 14432,7369 L 14282,7369"/>
 <path fill="none" stroke="rgb(179,179,179)" stroke-linejoin="round" d="M 14432,5701 L 14282,5701"/>
 <path fill="none" stroke="rgb(179,179,179)" stroke-linejoin="round" d="M 14432,5701 L 14282,5701"/>
 <path fill="none" stroke="rgb(179,179,179)" stroke-linejoin="round" d="M 14432,4034 L 14282,4034"/>
 <path fill="none" stroke="rgb(179,179,179)" stroke-linejoin="round" d="M 14432,4034 L 14282,4034"/>
 <path fill="none" stroke="rgb(179,179,179)" stroke-linejoin="round" d="M 14432,2366 L 14282,2366"/>
 <path fill="none" stroke="rgb(179,179,179)" stroke-linejoin="round" d="M 14432,2366 L 14282,2366"/>
 <path fill="none" stroke="rgb(179,179,179)" stroke-linejoin="round" d="M 14432,699 L 14282,699"/>
 <path fill="none" stroke="rgb(179,179,179)" stroke-linejoin="round" d="M 14432,699 L 14282,699"/>
 <path fill="none" stroke="rgb(179,179,179)" stroke-linejoin="round" d="M 14282,9037 L 14282,699"/>
 <path fill="rgb(87,157,28)" stroke="none" d="M 12770,9037 L 13045,9037 13045,6952 12770,6952 12770,9037 Z"/>
 <path fill="rgb(87,157,28)" stroke="none" d="M 11122,9037 L 11396,9037 11396,5701 11122,5701 11122,9037 Z"/>
 <path fill="rgb(87,157,28)" stroke="none" d="M 9473,9037 L 9748,9037 9748,5701 9473,5701 9473,9037 Z"/>
 <path fill="rgb(87,157,28)" stroke="none" d="M 7825,9037 L 8100,9037 8100,6257 7825,6257 7825,9037 Z"/>
 <path fill="rgb(87,157,28)" stroke="none" d="M 6177,9037 L 6452,9037 6452,3200 6177,3200 6177,9037 Z"/>
 <path fill="rgb(87,157,28)" stroke="none" d="M 4528,9037 L 4803,9037 4803,4868 4528,4868 4528,9037 Z"/>
 <path fill="rgb(87,157,28)" stroke="none" d="M 2880,9037 L 3154,9037 3154,2783 2880,2783 2880,9037 Z"/>
 <path fill="rgb(87,157,28)" stroke="none" d="M 1231,9037 L 1506,9037 1506,699 1231,699 1231,9037 Z"/>
 <path fill="rgb(255,211,32)" stroke="none" d="M 13045,9037 L 13320,9037 13320,6952 13045,6952 13045,9037 Z"/>
 <path fill="rgb(255,211,32)" stroke="none" d="M 11396,9037 L 11671,9037 11671,7369 11396,7369 11396,9037 Z"/>
 <path fill="rgb(255,211,32)" stroke="none" d="M 9748,9037 L 10023,9037 10023,5701 9748,5701 9748,9037 Z"/>
 <path fill="rgb(255,211,32)" stroke="none" d="M 8100,9037 L 8374,9037 8374,6257 8100,6257 8100,9037 Z"/>
 <path fill="rgb(255,211,32)" stroke="none" d="M 6452,9037 L 6726,9037 6726,8203 6452,8203 6452,9037 Z"/>
 <path fill="rgb(255,211,32)" stroke="none" d="M 4803,9037 L 5078,9037 5078,4868 4803,4868 4803,9037 Z"/>
 <path fill="rgb(255,211,32)" stroke="none" d="M 3154,9037 L 3429,9037 3429,6952 3154,6952 3154,9037 Z"/>
 <path fill="rgb(255,211,32)" stroke="none" d="M 1506,9037 L 1780,9037 1780,9036 1506,9036 1506,9037 Z"/>
 <path fill="rgb(255,66,14)" stroke="none" d="M 13320,9037 L 13595,9037 13595,6952 13320,6952 13320,9037 Z"/>
 <path fill="rgb(255,66,14)" stroke="none" d="M 11671,9037 L 11946,9037 11946,7369 11671,7369 11671,9037 Z"/>
 <path fill="rgb(255,66,14)" stroke="none" d="M 10023,9037 L 10297,9037 10297,8203 10023,8203 10023,9037 Z"/>
 <path fill="rgb(255,66,14)" stroke="none" d="M 8374,9037 L 8649,9037 8649,6257 8374,6257 8374,9037 Z"/>
 <path fill="rgb(255,66,14)" stroke="none" d="M 6726,9037 L 7001,9037 7001,8203 6726,8203 6726,9037 Z"/>
 <path fill="rgb(255,66,14)" stroke="none" d="M 5078,9037 L 5352,9037 5352,9036 5078,9036 5078,9037 Z"/>
 <path fill="rgb(255,66,14)" stroke="none" d="M 3429,9037 L 3704,9037 3704,9036 3429,9036 3429,9037 Z"/>
 <path fill="rgb(255,66,14)" stroke="none" d="M 1780,9037 L 2055,9037 2055,9036 1780,9036 1780,9037 Z"/>
 <path fill="rgb(0,132,209)" stroke="none" d="M 13595,9037 L 13869,9037 13869,6952 13595,6952 13595,9037 Z"/>
 <path fill="rgb(0,132,209)" stroke="none" d="M 11946,9037 L 12221,9037 12221,7369 11946,7369 11946,9037 Z"/>
 <path fill="rgb(0,132,209)" stroke="none" d="M 10297,9037 L 10572,9037 10572,8203 10297,8203 10297,9037 Z"/>
 <path fill="rgb(0,132,209)" stroke="none" d="M 8649,9037 L 8923,9037 8923,9036 8649,9036 8649,9037 Z"/>
 <path fill="rgb(0,132,209)" stroke="none" d="M 7001,9037 L 7276,9037 7276,8203 7001,8203 7001,9037 Z"/>
 <path fill="rgb(0,132,209)" stroke="none" d="M 5352,9037 L 5627,9037 5627,9036 5352,9036 5352,9037 Z"/>
 <path fill="rgb(0,132,209)" stroke="none" d="M 3704,9037 L 3979,9037 3979,9036 3704,9036 3704,9037 Z"/>
 <path fill="rgb(0,132,209)" stroke="none" d="M 2055,9037 L 2330,9037 2330,9036 2055,9036 2055,9037 Z"/>
 <path fill="rgb(0,0,0)" stroke="none" d="M 13869,9037 L 14144,9037 14144,699 13869,699 13869,9037 Z"/>
 <path fill="rgb(0,0,0)" stroke="none" d="M 12221,9037 L 12495,9037 12495,1024 12221,1024 12221,9037 Z"/>
 <path fill="rgb(0,0,0)" stroke="none" d="M 10572,9037 L 10847,9037 10847,1858 10572,1858 10572,9037 Z"/>
 <path fill="rgb(0,0,0)" stroke="none" d="M 8923,9037 L 9198,9037 9198,2424 8923,2424 8923,9037 Z"/>
 <path fill="rgb(0,0,0)" stroke="none" d="M 7276,9037 L 7551,9037 7551,3380 7276,3380 7276,9037 Z"/>
 <path fill="rgb(0,0,0)" stroke="none" d="M 5627,9037 L 5902,9037 5902,4868 5627,4868 5627,9037 Z"/>
 <path fill="rgb(0,0,0)" stroke="none" d="M 3979,9037 L 4253,9037 4253,5654 3979,5654 3979,9037 Z"/>
 <path fill="rgb(0,0,0)" stroke="none" d="M 2330,9037 L 2605,9037 2605,9036 2330,9036 2330,9037 Z"/>
 <text class="TextShape"><tspan class="TextParagraph" font-family="Liberation Sans, sans-serif" font-size="353px" font-weight="400"><tspan class="TextPosition" x="1691" y="9620"><tspan fill="rgb(0,0,0)" stroke="none">(a)</tspan></tspan></tspan></text>
 <text class="TextShape"><tspan class="TextParagraph" font-family="Liberation Sans, sans-serif" font-size="353px" font-weight="400"><tspan class="TextPosition" x="3339" y="9620"><tspan fill="rgb(0,0,0)" stroke="none">(b)</tspan></tspan></tspan></text>
 <text class="TextShape"><tspan class="TextParagraph" font-family="Liberation Sans, sans-serif" font-size="353px" font-weight="400"><tspan class="TextPosition" x="5003" y="9620"><tspan fill="rgb(0,0,0)" stroke="none">(c)</tspan></tspan></tspan></text>
 <text class="TextShape"><tspan class="TextParagraph" font-family="Liberation Sans, sans-serif" font-size="353px" font-weight="400"><tspan class="TextPosition" x="6637" y="9620"><tspan fill="rgb(0,0,0)" stroke="none">(d)</tspan></tspan></tspan></text>
 <text class="TextShape"><tspan class="TextParagraph" font-family="Liberation Sans, sans-serif" font-size="353px" font-weight="400"><tspan class="TextPosition" x="8285" y="9620"><tspan fill="rgb(0,0,0)" stroke="none">(e)</tspan></tspan></tspan></text>
 <text class="TextShape"><tspan class="TextParagraph" font-family="Liberation Sans, sans-serif" font-size="353px" font-weight="400"><tspan class="TextPosition" x="9994" y="9620"><tspan fill="rgb(0,0,0)" stroke="none">(f)</tspan></tspan></tspan></text>
 <text class="TextShape"><tspan class="TextParagraph" font-family="Liberation Sans, sans-serif" font-size="353px" font-weight="400"><tspan class="TextPosition" x="11583" y="9620"><tspan fill="rgb(0,0,0)" stroke="none">(g)</tspan></tspan></tspan></text>
 <text class="TextShape"><tspan class="TextParagraph" font-family="Liberation Sans, sans-serif" font-size="353px" font-weight="400"><tspan class="TextPosition" x="13231" y="9620"><tspan fill="rgb(0,0,0)" stroke="none">(h)</tspan></tspan></tspan></text>
 <text class="TextShape"><tspan class="TextParagraph" font-family="Liberation Sans, sans-serif" font-size="353px" font-weight="400"><tspan class="TextPosition" x="632" y="9159"><tspan fill="rgb(0,0,0)" stroke="none">0</tspan></tspan></tspan></text>
 <text class="TextShape"><tspan class="TextParagraph" font-family="Liberation Sans, sans-serif" font-size="353px" font-weight="400"><tspan class="TextPosition" x="330" y="7491"><tspan fill="rgb(0,0,0)" stroke="none">0.2</tspan></tspan></tspan></text>
 <text class="TextShape"><tspan class="TextParagraph" font-family="Liberation Sans, sans-serif" font-size="353px" font-weight="400"><tspan class="TextPosition" x="330" y="5823"><tspan fill="rgb(0,0,0)" stroke="none">0.4</tspan></tspan></tspan></text>
 <text class="TextShape"><tspan class="TextParagraph" font-family="Liberation Sans, sans-serif" font-size="353px" font-weight="400"><tspan class="TextPosition" x="330" y="4155"><tspan fill="rgb(0,0,0)" stroke="none">0.6</tspan></tspan></tspan></text>
 <text class="TextShape"><tspan class="TextParagraph" font-family="Liberation Sans, sans-serif" font-size="353px" font-weight="400"><tspan class="TextPosition" x="330" y="2487"><tspan fill="rgb(0,0,0)" stroke="none">0.8</tspan></tspan></tspan></text>
 <text class="TextShape"><tspan class="TextParagraph" font-family="Liberation Sans, sans-serif" font-size="353px" font-weight="400"><tspan class="TextPosition" x="632" y="820"><tspan fill="rgb(0,0,0)" stroke="none">1</tspan></tspan></tspan></text>
 <text class="TextShape"><tspan class="TextParagraph" font-family="Liberation Sans, sans-serif" font-size="353px" font-weight="400"><tspan class="TextPosition" x="14532" y="9159"><tspan fill="rgb(0,0,0)" stroke="none">0</tspan></tspan></tspan></text>
 <text class="TextShape"><tspan class="TextParagraph" font-family="Liberation Sans, sans-serif" font-size="353px" font-weight="400"><tspan class="TextPosition" x="14532" y="7491"><tspan fill="rgb(0,0,0)" stroke="none">0.4</tspan></tspan></tspan></text>
 <text class="TextShape"><tspan class="TextParagraph" font-family="Liberation Sans, sans-serif" font-size="353px" font-weight="400"><tspan class="TextPosition" x="14532" y="5823"><tspan fill="rgb(0,0,0)" stroke="none">0.8</tspan></tspan></tspan></text>
 <text class="TextShape"><tspan class="TextParagraph" font-family="Liberation Sans, sans-serif" font-size="353px" font-weight="400"><tspan class="TextPosition" x="14532" y="4155"><tspan fill="rgb(0,0,0)" stroke="none">1.2</tspan></tspan></tspan></text>
 <text class="TextShape"><tspan class="TextParagraph" font-family="Liberation Sans, sans-serif" font-size="353px" font-weight="400"><tspan class="TextPosition" x="14532" y="2487"><tspan fill="rgb(0,0,0)" stroke="none">1.6</tspan></tspan></tspan></text>
 <text class="TextShape"><tspan class="TextParagraph" font-family="Liberation Sans, sans-serif" font-size="353px" font-weight="400"><tspan class="TextPosition" x="14532" y="820"><tspan fill="rgb(0,0,0)" stroke="none">2</tspan></tspan></tspan></text>
 <path fill="rgb(87,157,28)" stroke="none" d="M 15598,4155 L 15492,4155 15492,3944 15703,3944 15703,4155 15598,4155 Z"/>
 <path fill="rgb(255,211,32)" stroke="none" d="M 15598,4680 L 15492,4680 15492,4469 15703,4469 15703,4680 15598,4680 Z"/>
 <path fill="rgb(255,66,14)" stroke="none" d="M 15598,5204 L 15492,5204 15492,4994 15703,4994 15703,5204 15598,5204 Z"/>
 <path fill="rgb(0,132,209)" stroke="none" d="M 15598,5729 L 15492,5729 15492,5518 15703,5518 15703,5729 15598,5729 Z"/>
 <path fill="rgb(0,0,0)" stroke="none" d="M 15598,6254 L 15492,6254 15492,6043 15703,6043 15703,6254 15598,6254 Z"/>
 <text class="TextShape"><tspan class="TextParagraph" font-family="Liberation Sans, sans-serif" font-size="353px" font-weight="400"><tspan class="TextPosition" x="15803" y="4170"><tspan fill="rgb(0,0,0)" stroke="none">G</tspan></tspan></tspan></text>
 <text class="TextShape"><tspan class="TextParagraph" font-family="Liberation Sans, sans-serif" font-size="353px" font-weight="400"><tspan class="TextPosition" x="15803" y="4695"><tspan fill="rgb(0,0,0)" stroke="none">T</tspan></tspan></tspan></text>
 <text class="TextShape"><tspan class="TextParagraph" font-family="Liberation Sans, sans-serif" font-size="353px" font-weight="400"><tspan class="TextPosition" x="15803" y="5219"><tspan fill="rgb(0,0,0)" stroke="none">A</tspan></tspan></tspan></text>
 <text class="TextShape"><tspan class="TextParagraph" font-family="Liberation Sans, sans-serif" font-size="353px" font-weight="400"><tspan class="TextPosition" x="15803" y="5744"><tspan fill="rgb(0,0,0)" stroke="none">C</tspan></tspan></tspan></text>
 <text class="TextShape"><tspan class="TextParagraph" font-family="Liberation Sans, sans-serif" font-size="353px" font-weight="400"><tspan class="TextPosition" x="15803" y="6269"><tspan fill="rgb(0,0,0)" stroke="none">H</tspan></tspan></tspan></text>
</svg>