<?xml version="1.0" encoding="utf-8" ?>
<svg baseProfile="full" height="320px" version="1.1" width="320px" xmlns="http://www.w3.org/2000/svg" xmlns:ev="http://www.w3.org/2001/xml-events" xmlns:xlink="http://www.w3.org/1999/xlink"><defs /><rect fill="rgb(212,44,28)" height="41px" width="41px" x="0px" y="0px" /><rect fill="rgb(254,224,183)" height="41px" width="41px" x="40px" y="0px" /><rect fill="rgb(254,237,212)" height="41px" width="41px" x="80px" y="0px" /><rect fill="rgb(254,238,213)" height="41px" width="41px" x="120px" y="0px" /><rect fill="rgb(255,247,235)" height="41px" width="41px" x="160px" y="0px" /><rect fill="rgb(255,247,236)" height="41px" width="41px" x="200px" y="0px" /><rect fill="rgb(254,235,207)" height="41px" width="41px" x="240px" y="0px" /><rect fill="rgb(255,247,236)" height="41px" width="41px" x="280px" y="0px" /><rect fill="rgb(254,229,193)" height="41px" width="41px" x="0px" y="40px" /><rect fill="rgb(250,135,87)" height="41px" width="41px" x="40px" y="40px" /><rect fill="rgb(253,219,172)" height="41px" width="41px" x="80px" y="40px" /><rect fill="rgb(253,189,134)" height="41px" width="41px" x="120px" y="40px" /><rect fill="rgb(255,245,230)" height="41px" width="41px" x="160px" y="40px" /><rect fill="rgb(255,247,236)" height="41px" width="41px" x="200px" y="40px" /><rect fill="rgb(255,246,234)" height="41px" width="41px" x="240px" y="40px" /><rect fill="rgb(255,247,235)" height="41px" width="41px" x="280px" y="40px" /><rect fill="rgb(255,246,234)" height="41px" width="41px" x="0px" y="80px" /><rect fill="rgb(254,236,209)" height="41px" width="41px" x="40px" y="80px" /><rect fill="rgb(254,237,211)" height="41px" width="41px" x="80px" y="80px" /><rect fill="rgb(254,226,187)" height="41px" width="41px" x="120px" y="80px" /><rect fill="rgb(255,247,235)" height="41px" width="41px" x="160px" y="80px" /><rect fill="rgb(255,247,236)" height="41px" width="41px" x="200px" y="80px" /><rect fill="rgb(255,247,236)" height="41px" width="41px" x="240px" y="80px" /><rect fill="rgb(255,247,236)" height="41px" width="41px" x="280px" y="80px" /><rect fill="rgb(255,246,233)" height="41px" width="41px" x="0px" y="120px" /><rect fill="rgb(255,245,230)" height="41px" width="41px" x="40px" y="120px" /><rect fill="rgb(254,229,195)" height="41px" width="41px" x="80px" y="120px" /><rect fill="rgb(254,226,188)" height="41px" width="41px" x="120px" y="120px" /><rect fill="rgb(253,165,111)" height="41px" width="41px" x="160px" y="120px" /><rect fill="rgb(255,241,222)" height="41px" width="41px" x="200px" y="120px" /><rect fill="rgb(255,247,235)" height="41px" width="41px" x="240px" y="120px" /><rect fill="rgb(255,247,236)" height="41px" width="41px" x="280px" y="120px" /><rect fill="rgb(255,245,230)" height="41px" width="41px" x="0px" y="160px" /><rect fill="rgb(255,246,234)" height="41px" width="41px" x="40px" y="160px" /><rect fill="rgb(255,243,227)" height="41px" width="41px" x="80px" y="160px" /><rect fill="rgb(255,246,233)" height="41px" width="41px" x="120px" y="160px" /><rect fill="rgb(254,237,211)" height="41px" width="41px" x="160px" y="160px" /><rect fill="rgb(127,0,0)" height="41px" width="41px" x="200px" y="160px" /><rect fill="rgb(254,239,217)" height="41px" width="41px" x="240px" y="160px" /><rect fill="rgb(255,245,231)" height="41px" width="41px" x="280px" y="160px" /><rect fill="rgb(255,247,236)" height="41px" width="41px" x="0px" y="200px" /><rect fill="rgb(255,247,236)" height="41px" width="41px" x="40px" y="200px" /><rect fill="rgb(255,247,235)" height="41px" width="41px" x="80px" y="200px" /><rect fill="rgb(255,247,236)" height="41px" width="41px" x="120px" y="200px" /><rect fill="rgb(255,246,233)" height="41px" width="41px" x="160px" y="200px" /><rect fill="rgb(253,196,141)" height="41px" width="41px" x="200px" y="200px" /><rect fill="rgb(255,246,233)" height="41px" width="41px" x="240px" y="200px" /><rect fill="rgb(255,247,236)" height="41px" width="41px" x="280px" y="200px" /><rect fill="rgb(255,247,236)" height="41px" width="41px" x="0px" y="240px" /><rect fill="rgb(255,244,228)" height="41px" width="41px" x="40px" y="240px" /><rect fill="rgb(255,247,236)" height="41px" width="41px" x="80px" y="240px" /><rect fill="rgb(255,246,233)" height="41px" width="41px" x="120px" y="240px" /><rect fill="rgb(255,247,236)" height="41px" width="41px" x="160px" y="240px" /><rect fill="rgb(255,246,234)" height="41px" width="41px" x="200px" y="240px" /><rect fill="rgb(247,125,82)" height="41px" width="41px" x="240px" y="240px" /><rect fill="rgb(255,247,235)" height="41px" width="41px" x="280px" y="240px" /><rect fill="rgb(255,247,236)" height="41px" width="41px" x="0px" y="280px" /><rect fill="rgb(255,247,235)" height="41px" width="41px" x="40px" y="280px" /><rect fill="rgb(255,247,236)" height="41px" width="41px" x="80px" y="280px" /><rect fill="rgb(255,245,231)" height="41px" width="41px" x="120px" y="280px" /><rect fill="rgb(255,247,236)" height="41px" width="41px" x="160px" y="280px" /><rect fill="rgb(255,247,236)" height="41px" width="41px" x="200px" y="280px" /><rect fill="rgb(255,247,235)" height="41px" width="41px" x="240px" y="280px" /><rect fill="rgb(253,184,129)" height="41px" width="41px" x="280px" y="280px" /></svg>