<?xml version="1.0" encoding="utf-8" ?>
<svg baseProfile="full" height="320px" version="1.1" width="320px" xmlns="http://www.w3.org/2000/svg" xmlns:ev="http://www.w3.org/2001/xml-events" xmlns:xlink="http://www.w3.org/1999/xlink"><defs /><rect fill="rgb(252,155,102)" height="41px" width="41px" x="0px" y="0px" /><rect fill="rgb(220,58,39)" height="41px" width="41px" x="40px" y="0px" /><rect fill="rgb(253,214,163)" height="41px" width="41px" x="80px" y="0px" /><rect fill="rgb(255,241,221)" height="41px" width="41px" x="120px" y="0px" /><rect fill="rgb(255,246,234)" height="41px" width="41px" x="160px" y="0px" /><rect fill="rgb(255,247,236)" height="41px" width="41px" x="200px" y="0px" /><rect fill="rgb(255,247,236)" height="41px" width="41px" x="240px" y="0px" /><rect fill="rgb(255,247,236)" height="41px" width="41px" x="280px" y="0px" /><rect fill="rgb(254,233,203)" height="41px" width="41px" x="0px" y="40px" /><rect fill="rgb(253,221,176)" height="41px" width="41px" x="40px" y="40px" /><rect fill="rgb(127,0,0)" height="41px" width="41px" x="80px" y="40px" /><rect fill="rgb(253,214,163)" height="41px" width="41px" x="120px" y="40px" /><rect fill="rgb(255,245,231)" height="41px" width="41px" x="160px" y="40px" /><rect fill="rgb(255,247,236)" height="41px" width="41px" x="200px" y="40px" /><rect fill="rgb(255,247,236)" height="41px" width="41px" x="240px" y="40px" /><rect fill="rgb(255,247,235)" height="41px" width="41px" x="280px" y="40px" /><rect fill="rgb(255,245,230)" height="41px" width="41px" x="0px" y="80px" /><rect fill="rgb(255,247,235)" height="41px" width="41px" x="40px" y="80px" /><rect fill="rgb(253,198,144)" height="41px" width="41px" x="80px" y="80px" /><rect fill="rgb(254,236,210)" height="41px" width="41px" x="120px" y="80px" /><rect fill="rgb(255,247,236)" height="41px" width="41px" x="160px" y="80px" /><rect fill="rgb(255,247,236)" height="41px" width="41px" x="200px" y="80px" /><rect fill="rgb(255,247,236)" height="41px" width="41px" x="240px" y="80px" /><rect fill="rgb(255,247,236)" height="41px" width="41px" x="280px" y="80px" /><rect fill="rgb(255,246,233)" height="41px" width="41px" x="0px" y="120px" /><rect fill="rgb(255,246,234)" height="41px" width="41px" x="40px" y="120px" /><rect fill="rgb(253,191,137)" height="41px" width="41px" x="80px" y="120px" /><rect fill="rgb(253,182,127)" height="41px" width="41px" x="120px" y="120px" /><rect fill="rgb(253,215,164)" height="41px" width="41px" x="160px" y="120px" /><rect fill="rgb(255,245,231)" height="41px" width="41px" x="200px" y="120px" /><rect fill="rgb(255,247,235)" height="41px" width="41px" x="240px" y="120px" /><rect fill="rgb(255,247,236)" height="41px" width="41px" x="280px" y="120px" /><rect fill="rgb(255,247,236)" height="41px" width="41px" x="0px" y="160px" /><rect fill="rgb(254,239,218)" height="41px" width="41px" x="40px" y="160px" /><rect fill="rgb(255,241,222)" height="41px" width="41px" x="80px" y="160px" /><rect fill="rgb(254,238,213)" height="41px" width="41px" x="120px" y="160px" /><rect fill="rgb(249,133,86)" height="41px" width="41px" x="160px" y="160px" /><rect fill="rgb(207,38,24)" height="41px" width="41px" x="200px" y="160px" /><rect fill="rgb(255,245,231)" height="41px" width="41px" x="240px" y="160px" /><rect fill="rgb(255,245,231)" height="41px" width="41px" x="280px" y="160px" /><rect fill="rgb(255,247,236)" height="41px" width="41px" x="0px" y="200px" /><rect fill="rgb(255,246,233)" height="41px" width="41px" x="40px" y="200px" /><rect fill="rgb(255,247,236)" height="41px" width="41px" x="80px" y="200px" /><rect fill="rgb(255,245,231)" height="41px" width="41px" x="120px" y="200px" /><rect fill="rgb(253,217,168)" height="41px" width="41px" x="160px" y="200px" /><rect fill="rgb(253,221,177)" height="41px" width="41px" x="200px" y="200px" /><rect fill="rgb(255,247,236)" height="41px" width="41px" x="240px" y="200px" /><rect fill="rgb(255,247,236)" height="41px" width="41px" x="280px" y="200px" /><rect fill="rgb(255,247,236)" height="41px" width="41px" x="0px" y="240px" /><rect fill="rgb(255,245,230)" height="41px" width="41px" x="40px" y="240px" /><rect fill="rgb(255,241,222)" height="41px" width="41px" x="80px" y="240px" /><rect fill="rgb(255,247,236)" height="41px" width="41px" x="120px" y="240px" /><rect fill="rgb(255,245,230)" height="41px" width="41px" x="160px" y="240px" /><rect fill="rgb(255,247,235)" height="41px" width="41px" x="200px" y="240px" /><rect fill="rgb(234,90,63)" height="41px" width="41px" x="240px" y="240px" /><rect fill="rgb(255,247,235)" height="41px" width="41px" x="280px" y="240px" /><rect fill="rgb(255,247,236)" height="41px" width="41px" x="0px" y="280px" /><rect fill="rgb(255,247,236)" height="41px" width="41px" x="40px" y="280px" /><rect fill="rgb(255,240,220)" height="41px" width="41px" x="80px" y="280px" /><rect fill="rgb(255,247,236)" height="41px" width="41px" x="120px" y="280px" /><rect fill="rgb(255,247,236)" height="41px" width="41px" x="160px" y="280px" /><rect fill="rgb(255,247,236)" height="41px" width="41px" x="200px" y="280px" /><rect fill="rgb(255,247,236)" height="41px" width="41px" x="240px" y="280px" /><rect fill="rgb(252,159,106)" height="41px" width="41px" x="280px" y="280px" /></svg>